<?xml version="1.0" encoding="UTF-8" standalone="no"?>
<!-- Created with Inkscape (http://www.inkscape.org/) -->

<svg
   width="180mm"
   height="105mm"
   viewBox="0 0 180 105"
   version="1.1"
   id="svg5"
   inkscape:version="1.2 (dc2aedaf03, 2022-05-15)"
   sodipodi:docname="auto_alo_zigotos.svg"
   xmlns:inkscape="http://www.inkscape.org/namespaces/inkscape"
   xmlns:sodipodi="http://sodipodi.sourceforge.net/DTD/sodipodi-0.dtd"
   xmlns="http://www.w3.org/2000/svg"
   xmlns:svg="http://www.w3.org/2000/svg">
  <sodipodi:namedview
     id="namedview7"
     pagecolor="#ffffff"
     bordercolor="#666666"
     borderopacity="1.0"
     inkscape:showpageshadow="2"
     inkscape:pageopacity="0.0"
     inkscape:pagecheckerboard="0"
     inkscape:deskcolor="#d1d1d1"
     inkscape:document-units="mm"
     showgrid="false"
     inkscape:zoom="2.3786088"
     inkscape:cx="520.68251"
     inkscape:cy="235.85215"
     inkscape:window-width="1920"
     inkscape:window-height="1017"
     inkscape:window-x="-8"
     inkscape:window-y="-8"
     inkscape:window-maximized="1"
     inkscape:current-layer="layer1" />
  <defs
     id="defs2">
    <clipPath
       clipPathUnits="userSpaceOnUse"
       id="clipPath685">
      <rect
         x="44.000011"
         y="97"
         width="916"
         height="503.99997"
         id="rect687"
         style="stroke-width:0.999999" />
    </clipPath>
    <clipPath
       clipPathUnits="userSpaceOnUse"
       id="clipPath689">
      <rect
         x="44.000011"
         y="97"
         width="916"
         height="503.99997"
         id="rect691"
         style="stroke-width:0.999999" />
    </clipPath>
    <clipPath
       clipPathUnits="userSpaceOnUse"
       id="clipPath693">
      <rect
         x="44.000011"
         y="97"
         width="916"
         height="503.99997"
         id="rect695"
         style="stroke-width:0.999999" />
    </clipPath>
    <clipPath
       clipPathUnits="userSpaceOnUse"
       id="clipPath697">
      <rect
         x="44.000011"
         y="97"
         width="916"
         height="503.99997"
         id="rect699"
         style="stroke-width:0.999999" />
    </clipPath>
    <clipPath
       clipPathUnits="userSpaceOnUse"
       id="clipPath701">
      <rect
         x="44.000011"
         y="97"
         width="916"
         height="503.99997"
         id="rect703"
         style="stroke-width:0.999999" />
    </clipPath>
    <clipPath
       clipPathUnits="userSpaceOnUse"
       id="clipPath705">
      <rect
         x="44.000011"
         y="97"
         width="916"
         height="503.99997"
         id="rect707"
         style="stroke-width:0.999999" />
    </clipPath>
    <clipPath
       clipPathUnits="userSpaceOnUse"
       id="clipPath709">
      <rect
         x="44.000011"
         y="97"
         width="916"
         height="503.99997"
         id="rect711"
         style="stroke-width:0.999999" />
    </clipPath>
    <clipPath
       clipPathUnits="userSpaceOnUse"
       id="clipPath713">
      <rect
         x="-422"
         y="-381.737"
         width="916"
         height="503.99997"
         id="rect715"
         style="stroke-width:0.999999"
         transform="scale(1,-1)" />
    </clipPath>
    <clipPath
       clipPathUnits="userSpaceOnUse"
       id="clipPath717">
      <rect
         x="-311"
         y="-326.99997"
         width="916"
         height="503.99997"
         id="rect719"
         style="stroke-width:0.999999"
         transform="matrix(0,1,1,0,0,0)" />
    </clipPath>
    <clipPath
       clipPathUnits="userSpaceOnUse"
       id="clipPath721">
      <rect
         x="-145.49998"
         y="-410.5"
         width="916"
         height="503.99997"
         id="rect723"
         style="stroke-width:0.999999"
         transform="matrix(0,1,1,0,0,0)" />
    </clipPath>
    <clipPath
       clipPathUnits="userSpaceOnUse"
       id="clipPath725">
      <rect
         x="-227.99998"
         y="-410"
         width="916"
         height="503.99997"
         id="rect727"
         style="stroke-width:0.999999"
         transform="matrix(0,1,1,0,0,0)" />
    </clipPath>
    <clipPath
       clipPathUnits="userSpaceOnUse"
       id="clipPath729">
      <rect
         x="-422"
         y="-298.57898"
         width="916"
         height="503.99997"
         id="rect731"
         style="stroke-width:0.999999"
         transform="scale(1,-1)" />
    </clipPath>
    <clipPath
       clipPathUnits="userSpaceOnUse"
       id="clipPath733">
      <rect
         x="-311"
         y="-242.99998"
         width="916"
         height="503.99997"
         id="rect735"
         style="stroke-width:0.999999"
         transform="matrix(0,1,1,0,0,0)" />
    </clipPath>
    <clipPath
       clipPathUnits="userSpaceOnUse"
       id="clipPath737">
      <rect
         x="-422"
         y="-215.42"
         width="916"
         height="503.99997"
         id="rect739"
         style="stroke-width:0.999999"
         transform="scale(1,-1)" />
    </clipPath>
    <clipPath
       clipPathUnits="userSpaceOnUse"
       id="clipPath741">
      <rect
         x="-422"
         y="-215.42"
         width="916"
         height="503.99997"
         id="rect743"
         style="stroke-width:0.999999"
         transform="scale(1,-1)" />
    </clipPath>
    <clipPath
       clipPathUnits="userSpaceOnUse"
       id="clipPath745">
      <rect
         x="44.000011"
         y="97"
         width="916"
         height="503.99997"
         id="rect747"
         style="stroke-width:0.999999" />
    </clipPath>
    <clipPath
       clipPathUnits="userSpaceOnUse"
       id="clipPath749">
      <rect
         x="44.000011"
         y="97"
         width="916"
         height="503.99997"
         id="rect751"
         style="stroke-width:0.999999" />
    </clipPath>
    <clipPath
       clipPathUnits="userSpaceOnUse"
       id="clipPath753">
      <rect
         x="44.000011"
         y="97"
         width="916"
         height="503.99997"
         id="rect755"
         style="stroke-width:0.999999" />
    </clipPath>
    <clipPath
       clipPathUnits="userSpaceOnUse"
       id="clipPath757">
      <rect
         x="44.000011"
         y="97"
         width="916"
         height="503.99997"
         id="rect759"
         style="stroke-width:0.999999" />
    </clipPath>
    <clipPath
       clipPathUnits="userSpaceOnUse"
       id="clipPath761">
      <rect
         x="44.000011"
         y="97"
         width="916"
         height="503.99997"
         id="rect763"
         style="stroke-width:0.999999" />
    </clipPath>
    <clipPath
       clipPathUnits="userSpaceOnUse"
       id="clipPath693-6">
      <rect
         x="44.000011"
         y="97"
         width="916"
         height="503.99997"
         id="rect695-3"
         style="stroke-width:0.999999" />
    </clipPath>
    <clipPath
       clipPathUnits="userSpaceOnUse"
       id="clipPath693-8">
      <rect
         x="44.000011"
         y="97"
         width="916"
         height="503.99997"
         id="rect695-1"
         style="stroke-width:0.999999" />
    </clipPath>
  </defs>
  <g
     inkscape:label="Layer 1"
     inkscape:groupmode="layer"
     id="layer1">
    <rect
       x="1.7309445"
       y="15.548286"
       width="100"
       height="76"
       stroke="#000000"
       stroke-width="0.550181"
       stroke-linejoin="round"
       stroke-miterlimit="10"
       id="rect193-2"
       style="fill:#cccccc;stroke:none" />
    <rect
       x="31.892408"
       y="21.981674"
       width="11.760109"
       height="11.553791"
       fill="#d7eef4"
       id="rect195"
       style="stroke-width:0.206317" />
    <text
       font-family="Arial, Arial_MSFontService, sans-serif"
       font-weight="400"
       font-size="5.57058px"
       id="text197"
       x="36.272743"
       y="29.821747"
       style="stroke-width:0.206317">a</text>
    <rect
       x="14.768041"
       y="21.981674"
       width="11.760109"
       height="11.553791"
       fill="#2c89a0"
       id="rect199"
       style="stroke-width:0.206317" />
    <text
       fill="#ffffff"
       font-family="Arial, Arial_MSFontService, sans-serif"
       font-weight="400"
       font-size="5.57058px"
       id="text201"
       x="18.806152"
       y="29.821747"
       style="stroke-width:0.206317">A</text>
    <rect
       x="66.347466"
       y="21.981674"
       width="11.553791"
       height="11.553791"
       fill="#d7eef4"
       id="rect203"
       style="stroke-width:0.206317" />
    <text
       font-family="Arial, Arial_MSFontService, sans-serif"
       font-weight="400"
       font-size="5.57058px"
       id="text205"
       x="70.587082"
       y="29.821747"
       style="stroke-width:0.206317">a</text>
    <rect
       x="49.016781"
       y="21.981674"
       width="11.760109"
       height="11.553791"
       fill="#2c89a0"
       id="rect207"
       style="stroke-width:0.206317" />
    <text
       fill="#ffffff"
       font-family="Arial, Arial_MSFontService, sans-serif"
       font-weight="400"
       font-size="5.57058px"
       id="text209"
       x="53.120438"
       y="29.821747"
       style="stroke-width:0.206317">A</text>
    <rect
       x="83.471832"
       y="21.981674"
       width="11.553791"
       height="11.553791"
       fill="#2c89a0"
       id="rect211"
       style="stroke-width:0.206317" />
    <text
       fill="#ffffff"
       font-family="Arial, Arial_MSFontService, sans-serif"
       font-weight="400"
       font-size="5.57058px"
       id="text213"
       x="87.434784"
       y="29.821747"
       style="stroke-width:0.206317">A</text>
    <rect
       x="14.768041"
       y="39.106045"
       width="11.760109"
       height="11.553791"
       fill="#d7eef4"
       id="rect215"
       style="stroke-width:0.206317" />
    <text
       font-family="Arial, Arial_MSFontService, sans-serif"
       font-weight="400"
       font-size="5.57058px"
       id="text217"
       x="19.115629"
       y="46.946114"
       style="stroke-width:0.206317">a</text>
    <rect
       x="49.016781"
       y="39.106045"
       width="11.760109"
       height="11.553791"
       fill="#d7eef4"
       id="rect219"
       style="stroke-width:0.206317" />
    <text
       font-family="Arial, Arial_MSFontService, sans-serif"
       font-weight="400"
       font-size="5.57058px"
       id="text221"
       x="53.429916"
       y="46.946114"
       style="stroke-width:0.206317">a</text>
    <rect
       x="31.892408"
       y="39.106045"
       width="11.760109"
       height="11.553791"
       fill="#2c89a0"
       id="rect223"
       style="stroke-width:0.206317" />
    <text
       fill="#ffffff"
       font-family="Arial, Arial_MSFontService, sans-serif"
       font-weight="400"
       font-size="5.57058px"
       id="text225"
       x="35.963264"
       y="46.946114"
       style="stroke-width:0.206317">A</text>
    <rect
       x="66.347466"
       y="39.106045"
       width="11.553791"
       height="11.553791"
       fill="#2c89a0"
       id="rect227"
       style="stroke-width:0.206317" />
    <text
       fill="#ffffff"
       font-family="Arial, Arial_MSFontService, sans-serif"
       font-weight="400"
       font-size="5.57058px"
       id="text229"
       x="70.277611"
       y="46.946114"
       style="stroke-width:0.206317">A</text>
    <rect
       x="83.471832"
       y="39.106045"
       width="11.553791"
       height="11.553791"
       fill="#d7eef4"
       id="rect231"
       style="stroke-width:0.206317" />
    <text
       font-family="Arial, Arial_MSFontService, sans-serif"
       font-weight="400"
       font-size="5.57058px"
       id="text233"
       x="87.744263"
       y="46.946114"
       style="stroke-width:0.206317">a</text>
    <rect
       x="31.892408"
       y="56.230408"
       width="11.760109"
       height="11.760109"
       fill="#d7eef4"
       id="rect235"
       style="stroke-width:0.206317" />
    <text
       font-family="Arial, Arial_MSFontService, sans-serif"
       font-weight="400"
       font-size="5.57058px"
       id="text237"
       x="36.272743"
       y="64.07048"
       style="stroke-width:0.206317">a</text>
    <rect
       x="14.768041"
       y="56.230408"
       width="11.760109"
       height="11.760109"
       fill="#2c89a0"
       id="rect239"
       style="stroke-width:0.206317" />
    <text
       fill="#ffffff"
       font-family="Arial, Arial_MSFontService, sans-serif"
       font-weight="400"
       font-size="5.57058px"
       id="text241"
       x="18.806152"
       y="64.07048"
       style="stroke-width:0.206317">A</text>
    <rect
       x="66.347466"
       y="56.230408"
       width="11.553791"
       height="11.760109"
       fill="#d7eef4"
       id="rect243"
       style="stroke-width:0.206317" />
    <text
       font-family="Arial, Arial_MSFontService, sans-serif"
       font-weight="400"
       font-size="5.57058px"
       id="text245"
       x="70.587082"
       y="64.07048"
       style="stroke-width:0.206317">a</text>
    <rect
       x="49.016781"
       y="56.230408"
       width="11.760109"
       height="11.760109"
       fill="#2c89a0"
       id="rect247"
       style="stroke-width:0.206317" />
    <text
       fill="#ffffff"
       font-family="Arial, Arial_MSFontService, sans-serif"
       font-weight="400"
       font-size="5.57058px"
       id="text249"
       x="53.120438"
       y="64.07048"
       style="stroke-width:0.206317">A</text>
    <rect
       x="83.471832"
       y="56.230408"
       width="11.553791"
       height="11.760109"
       fill="#2c89a0"
       id="rect251"
       style="stroke-width:0.206317" />
    <text
       fill="#ffffff"
       font-family="Arial, Arial_MSFontService, sans-serif"
       font-weight="400"
       font-size="5.57058px"
       id="text253"
       x="87.434784"
       y="64.07048"
       style="stroke-width:0.206317">A</text>
    <rect
       x="14.768041"
       y="73.354782"
       width="11.760109"
       height="11.760109"
       fill="#d7eef4"
       id="rect255"
       style="stroke-width:0.206317" />
    <text
       font-family="Arial, Arial_MSFontService, sans-serif"
       font-weight="400"
       font-size="5.57058px"
       id="text257"
       x="19.115629"
       y="81.194855"
       style="stroke-width:0.206317">a</text>
    <rect
       x="49.016781"
       y="73.354782"
       width="11.760109"
       height="11.760109"
       fill="#d7eef4"
       id="rect259"
       style="stroke-width:0.206317" />
    <text
       font-family="Arial, Arial_MSFontService, sans-serif"
       font-weight="400"
       font-size="5.57058px"
       id="text261"
       x="53.429916"
       y="81.194855"
       style="stroke-width:0.206317">a</text>
    <rect
       x="31.892408"
       y="73.354782"
       width="11.760109"
       height="11.760109"
       fill="#2c89a0"
       id="rect263"
       style="stroke-width:0.206317" />
    <text
       fill="#ffffff"
       font-family="Arial, Arial_MSFontService, sans-serif"
       font-weight="400"
       font-size="5.57058px"
       id="text265"
       x="35.963264"
       y="81.194855"
       style="stroke-width:0.206317">A</text>
    <rect
       x="66.347466"
       y="73.354782"
       width="11.553791"
       height="11.760109"
       fill="#2c89a0"
       id="rect267"
       style="stroke-width:0.206317" />
    <text
       fill="#ffffff"
       font-family="Arial, Arial_MSFontService, sans-serif"
       font-weight="400"
       font-size="5.57058px"
       id="text269"
       x="70.277611"
       y="81.194855"
       style="stroke-width:0.206317">A</text>
    <rect
       x="83.471832"
       y="73.354782"
       width="11.553791"
       height="11.760109"
       fill="#d7eef4"
       id="rect271"
       style="stroke-width:0.206317" />
    <text
       font-family="Arial, Arial_MSFontService, sans-serif"
       font-weight="400"
       font-size="5.57058px"
       id="text273"
       x="87.744263"
       y="81.194855"
       style="stroke-width:0.206317">a</text>
    <rect
       x="114.62579"
       y="8.3647041"
       width="11.553791"
       height="11.760109"
       fill="#2c89a0"
       id="rect275"
       style="stroke-width:0.206317" />
    <text
       fill="#ffffff"
       font-family="Arial, Arial_MSFontService, sans-serif"
       font-weight="400"
       font-size="5.57058px"
       id="text277"
       x="118.59247"
       y="16.204781"
       style="stroke-width:0.206317">A</text>
    <rect
       x="127.00486"
       y="8.3647041"
       width="11.553791"
       height="11.760109"
       fill="#2c89a0"
       id="rect279"
       style="stroke-width:0.206317" />
    <text
       fill="#ffffff"
       font-family="Arial, Arial_MSFontService, sans-serif"
       font-weight="400"
       font-size="5.57058px"
       id="text281"
       x="130.97174"
       y="16.204781"
       style="stroke-width:0.206317">A</text>
    <rect
       x="114.62579"
       y="23.838531"
       width="11.553791"
       height="11.760109"
       fill="#d7eef4"
       id="rect283"
       style="stroke-width:0.206317" />
    <text
       font-family="Arial, Arial_MSFontService, sans-serif"
       font-weight="400"
       font-size="5.57058px"
       id="text285"
       x="118.90195"
       y="31.678608"
       style="stroke-width:0.206317">a</text>
    <rect
       x="127.00486"
       y="23.838531"
       width="11.553791"
       height="11.760109"
       fill="#d7eef4"
       id="rect287"
       style="stroke-width:0.206317" />
    <text
       font-family="Arial, Arial_MSFontService, sans-serif"
       font-weight="400"
       font-size="5.57058px"
       id="text289"
       x="131.28122"
       y="31.678608"
       style="stroke-width:0.206317">a</text>
    <path
       d="m 688.5,133.5 c 8.284,0 15,4.253 15,9.5 v 48.5 c 0,5.247 6.716,9.5 15,9.5 -8.284,0 -15,4.253 -15,9.5 V 259 c 0,5.247 -6.716,9.5 -15,9.5"
       stroke="#ffffff"
       stroke-width="3.33333"
       stroke-linejoin="round"
       stroke-miterlimit="10"
       fill="none"
       fill-rule="evenodd"
       id="path291"
       transform="matrix(0.2063177,0,0,0.2063177,-1.1184214,-19.488184)"
       clip-path="url(#clipPath761)"
       style="stroke:#000000" />
    <rect
       x="114.62579"
       y="45.501892"
       width="11.553791"
       height="11.760109"
       fill="#2c89a0"
       id="rect293"
       style="stroke-width:0.206317" />
    <text
       fill="#ffffff"
       font-family="Arial, Arial_MSFontService, sans-serif"
       font-weight="400"
       font-size="5.57058px"
       id="text295"
       x="118.59247"
       y="53.341965"
       style="stroke-width:0.206317">A</text>
    <rect
       x="127.00486"
       y="45.501892"
       width="11.553791"
       height="11.760109"
       fill="#2c89a0"
       id="rect297"
       style="stroke-width:0.206317" />
    <text
       fill="#ffffff"
       font-family="Arial, Arial_MSFontService, sans-serif"
       font-weight="400"
       font-size="5.57058px"
       id="text299"
       x="130.97174"
       y="53.341965"
       style="stroke-width:0.206317">A</text>
    <rect
       x="114.62579"
       y="60.975716"
       width="11.553791"
       height="11.760109"
       fill="#d7eef4"
       id="rect301"
       style="stroke-width:0.206317" />
    <text
       font-family="Arial, Arial_MSFontService, sans-serif"
       font-weight="400"
       font-size="5.57058px"
       id="text303"
       x="118.90195"
       y="68.815788"
       style="stroke-width:0.206317">a</text>
    <rect
       x="127.00486"
       y="60.975716"
       width="11.553791"
       height="11.760109"
       fill="#d7eef4"
       id="rect305"
       style="stroke-width:0.206317" />
    <text
       font-family="Arial, Arial_MSFontService, sans-serif"
       font-weight="400"
       font-size="5.57058px"
       id="text307"
       x="131.28122"
       y="68.815788"
       style="stroke-width:0.206317">a</text>
    <path
       d="m 688.5,313.5 c 8.284,0 15,4.253 15,9.5 v 48.5 c 0,5.247 6.716,9.5 15,9.5 -8.284,0 -15,4.253 -15,9.5 V 439 c 0,5.247 -6.716,9.5 -15,9.5"
       stroke="#000000"
       stroke-width="2.46432"
       stroke-linejoin="round"
       stroke-miterlimit="10"
       fill="none"
       fill-rule="evenodd"
       id="path309"
       transform="matrix(0.2063177,0,0,0.37748482,-1.1184214,-73.149077)"
       clip-path="url(#clipPath757)" />
    <rect
       x="114.62579"
       y="83.258026"
       width="11.553791"
       height="11.760109"
       fill="#2c89a0"
       id="rect311"
       style="stroke-width:0.206317" />
    <text
       fill="#ffffff"
       font-family="Arial, Arial_MSFontService, sans-serif"
       font-weight="400"
       font-size="5.57058px"
       id="text313"
       x="118.59247"
       y="91.304428"
       style="stroke-width:0.206317">A</text>
    <rect
       x="127.00486"
       y="83.258026"
       width="11.553791"
       height="11.760109"
       fill="#d7eef4"
       id="rect315"
       style="stroke-width:0.206317" />
    <text
       font-family="Arial, Arial_MSFontService, sans-serif"
       font-weight="400"
       font-size="5.57058px"
       id="text317"
       x="131.28122"
       y="91.304428"
       style="stroke-width:0.206317">a</text>
    <path
       d="m 270.004,200.484 0.25,-4 0.713,-4.157 1.102,-4.114 1.635,-4.155 2.001,-4.082 2.472,-3.987 2.751,-3.908 3.148,-3.862 7.304,-7.506 8.661,-7.148 9.763,-6.729 10.819,-6.271 11.682,-5.751 12.55,-5.239 13.246,-4.546 13.8,-3.847 14.229,-3.151 14.626,-2.274 14.862,-1.451 15.002,-0.509 29.722,0.437 14.539,0.501 14.216,0.688 13.718,0.877 13.097,1.065 12.456,1.127 11.669,1.317 10.657,1.379 9.737,1.507 8.51,1.637 7.25,1.638 3.171,0.903 c 0.15,0.043 0.295,0.103 0.431,0.18 l 1.932,1.087 -1.961,3.486 -1.932,-1.087 0.431,0.18 -2.954,-0.847 -7.125,-1.612 -8.365,-1.612 -9.638,-1.493 -10.593,-1.372 -11.581,-1.308 -12.419,-1.123 -13.028,-1.06 -13.657,-0.873 -14.159,-0.687 -14.461,-0.499 -29.528,-0.438 -14.749,0.492 -14.637,1.423 -14.374,2.226 -14.021,3.099 -13.575,3.778 -13.004,4.454 -12.325,5.136 -11.443,5.624 -10.556,6.104 -9.487,6.521 -8.339,6.853 -7.071,7.244 -2.977,3.637 -2.624,3.718 -2.278,3.638 -1.874,3.792 -1.49,3.721 -1.023,3.76 -0.662,3.718 -0.25,4 z m 312.093,-76.78 7.239,11.296 -13.38,-0.986 z"
       fill="#c00000"
       id="path321"
       transform="matrix(0.2063177,0,0,0.2063177,-1.1184214,-19.488184)"
       clip-path="url(#clipPath749)"
       style="fill:#d35f5f" />
    <path
       d="m 270.003,200.503 0.25,-4.75 0.838,-4.982 1.427,-4.913 1.867,-4.846 2.384,-4.851 2.831,-4.71 3.334,-4.69 3.769,-4.608 4.144,-4.468 4.509,-4.386 4.955,-4.323 5.257,-4.183 11.608,-8.018 12.819,-7.458 13.867,-6.875 14.936,-6.182 15.667,-5.477 16.434,-4.6 16.923,-3.715 17.363,-2.7719 17.623,-1.7032 17.816,-0.5708 17.772,0.1866 17.55,0.6262 17.288,0.9392 16.921,1.3159 16.294,1.629 15.664,1.879 14.805,2.195 13.858,2.382 12.754,2.638 11.5,2.764 5.254,1.454 4.929,1.516 4.514,1.588 4.144,1.507 3.733,1.605 3.353,1.673 c 0.148,0.074 0.286,0.166 0.411,0.273 l 2.717,2.341 -2.61,3.031 -2.718,-2.341 0.411,0.273 -3.147,-1.577 -3.517,-1.519 -4.106,-1.493 -4.361,-1.538 -4.821,-1.484 -5.121,-1.42 -11.375,-2.736 -12.621,-2.613 -13.767,-2.368 -14.695,-2.18 -15.586,-1.87 -16.206,-1.621 -16.829,-1.31 -17.212,-0.936 -17.45,-0.623 -17.603,-0.189 -17.559,0.554 -17.377,1.672 -17.137,2.729 -16.702,3.66 -16.191,4.524 -15.458,5.398 -14.689,6.069 -13.633,6.749 -12.556,7.292 -11.392,7.857 -5.118,4.067 -4.795,4.177 -4.366,4.239 -3.981,4.282 -3.606,4.392 -3.166,4.435 -2.669,4.415 -2.241,4.524 -1.758,4.529 -1.323,4.462 -0.787,4.518 -0.25,4.75 z m 375.996,-78.498 3.338,12.995 -12.399,-5.126 z"
       fill="#c00000"
       id="path323"
       transform="matrix(0.2063177,0,0,0.2063177,-1.1184214,-19.488184)"
       clip-path="url(#clipPath745)"
       style="fill:#d35f5f" />
    <path
       d="m 0.043468,-1.99953 11.500032,0.25 11.4631,0.753863 11.3393,1.2579 11.0216,1.698657 10.6408,2.07618 10.2583,2.39016 9.6612,2.77567 9.0915,3.0912 8.363,3.4173 7.5317,3.5415 6.716,3.8928 5.647,3.9693 4.688,4.213 c 0.147,0.1323 0.273,0.2855 0.375,0.4548 l 2.063,3.4357 -3.429,2.0594 -2.064,-3.4357 0.375,0.4548 -4.312,-3.912 -5.353,-3.7807 -6.4091,-3.7322 -7.3432,-3.4585 -8.137,-3.3327 L 74.8222,13.0471 65.3584,10.3228 55.2417,7.96293 44.7575,5.91411 33.9041,4.23777 22.7434,2.99567 11.4565,2.24953 -0.043468,1.99953 Z M 123.395,32.0236 122.672,45.4205 112.388,36.804 Z"
       fill="#c00000"
       transform="matrix(0.2063177,0,0,-0.2063177,95.025625,44.969591)"
       id="path325"
       clip-path="url(#clipPath741)"
       style="fill:#d35f5f" />
    <path
       d="m 0.029194,-1.99979 17.125006,0.25 16.9968,0.751748 16.8103,1.253588 16.3695,1.692574 15.8039,2.06881 15.1143,2.38248 14.378,2.76152 13.444,3.07707 12.335,3.3963 11.194,3.5204 9.878,3.8576 4.404,1.9759 4.001,1.9673 3.659,2.0505 3.247,2.1373 2.804,2.1451 c 0.185,0.1425 0.345,0.3165 0.47,0.5141 l 1.225,1.9277 -3.376,2.145 -1.225,-1.9277 0.47,0.5141 -2.571,-1.9799 -3.003,-1.9877 -3.466,-1.9495 -3.874,-1.9077 -4.221,-1.8991 L 148.4,22.9703 137.344,19.4907 125.179,16.137 111.873,13.0891 97.626,10.3506 82.6153,7.98307 66.9192,5.92688 50.6637,4.24445 33.974,2.99804 17.0958,2.24979 -0.029194,1.99979 Z M 181.756,32.0354 l 0.917,13.3851 -11.259,-7.2977 z"
       fill="#c00000"
       transform="matrix(0.2063177,0,0,-0.2063177,95.025625,44.969591)"
       id="path327"
       clip-path="url(#clipPath737)"
       style="fill:#d35f5f" />
    <path
       d="m 0.429724,-1.95329 3.124996,0.6875 c 0.22686,0.04991 0.44327,0.13895 0.63956,0.26313 l 3.0625,1.937502 C 7.3929,1.02095 7.51812,1.1232 7.62971,1.23935 l 3.06249,3.1875 c 0.0742,0.07724 0.1422,0.16037 0.2031,0.24849 l 2.9375,4.25 2.9886,5.49776 2.8217,6.3964 2.6711,7.2391 2.4714,7.975 2.2737,8.6456 2.0193,9.2051 1.7645,9.7602 1.5103,10.1874 2.1366,21.2179 0.5699,11.0352 0.1898,11.006 -0.0622,21.915 -0.125,21.131 -0.0625,10.125 -0.1252,9.639 -0.125,9.189 -0.125,8.564 -0.1251,7.878 -0.1879,7.084 -0.1247,6.236 -0.2607,5.446 -3.9954,-0.192 0.2569,-5.333 0.1253,-6.264 0.1871,-7.041 0.1249,-7.872 0.125,-8.561 0.125,-9.186 0.1248,-9.611 0.0625,-10.125 0.125,-21.119 0.0628,-21.835 L 31.0651,106.29 30.51,95.4502 28.3966,74.4181 26.9069,64.3555 25.1714,54.7407 23.1907,45.6958 20.9644,37.2164 18.5608,29.4414 15.9819,22.4305 13.3036,16.3269 10.5422,11.1997 7.60474,6.94966 7.80779,7.19815 4.74529,4.01065 5.11822,4.31516 2.05572,2.37766 2.69528,2.64079 -0.429724,1.95329 Z M 38.0532,222.623 31.2338,234.177 26.0822,221.789 Z"
       fill="#ffc000"
       transform="matrix(0,0.2063177,0.2063177,0,72.12436,50.65983)"
       id="path329"
       clip-path="url(#clipPath733)"
       style="fill:#d3bc5f" />
    <path
       d="m 0.0293546,-1.99978 34.0625454,0.5 16.8026,0.688962 16.33,0.81329421 15.793,1.12760379 15.0854,1.25177 14.3471,1.44066 13.407,1.566 12.301,1.75659 11.164,1.81843 9.83,2.01477 4.362,1.0109 3.978,1.0098 3.642,1.0844 c 0.105,0.0314 0.208,0.0714 0.307,0.1196 l 3.881,1.8965 -1.756,3.5939 -3.882,-1.8964 0.307,0.1196 -3.483,-1.0406 -3.897,-0.9902 -4.263,-0.9891 -9.67,-1.9852 L 137.592,11.1049 125.393,9.36149 112.05,7.80249 97.7721,6.36815 82.7325,5.11992 67.0255,3.99752 50.7305,3.18582 34.0331,2.49978 -0.0293546,1.99978 Z M 176.207,11.8228 l 6.466,11.7558 -13.284,-1.8813 z"
       fill="#ffc000"
       transform="matrix(0.2063177,0,0,-0.2063177,95.025625,62.126763)"
       id="path331"
       clip-path="url(#clipPath729)"
       style="fill:#d3bc5f" />
    <path
       d="m 0.147743,-1.99454 3.374997,0.25 c 0.10805,0.00801 0.21504,0.02474 0.32037,0.05009 l 3.375,0.812503 c 0.09768,0.023515 0.19344,0.054355 0.28648,0.092262 l 3.37501,1.375 3.5667,1.902695 3.511,2.43457 3.3971,2.86315 3.3723,3.36257 3.2864,3.7938 3.2479,4.1358 3.1351,4.5361 3.11,4.9471 2.9842,5.2659 5.6813,11.6067 5.3607,12.7938 4.9152,13.8542 4.4081,14.9143 3.837,15.653 3.3299,16.39 2.6411,16.902 1.9489,17.336 1.1954,17.588 0.4415,17.773 -0.5622,35.269 -0.626,17.29 -0.8764,16.907 -1.0641,16.276 -1.3152,15.662 -1.4399,14.777 -1.6293,13.852 -1.7551,12.727 -1.8825,11.488 -1.0099,5.243 -1.0046,4.898 -1.0081,4.475 -1.0768,4.184 -1.08,3.689 c -0.0287,0.098 -0.0648,0.193 -0.1081,0.286 l -2.0316,4.338 -3.6225,-1.697 2.0317,-4.338 -0.1081,0.286 1.045,-3.561 1.0482,-4.066 0.9919,-4.4 0.9954,-4.852 0.9901,-5.132 1.8675,-11.387 1.7449,-12.648 1.6207,-13.773 1.4351,-14.723 1.3098,-15.588 1.0609,-16.224 0.8736,-16.843 0.624,-17.21 0.5628,-35.106 L 69.8171,171.135 68.6375,153.723 66.7114,136.559 64.1025,119.835 60.8074,103.601 57.0194,88.129 52.6775,73.4183 47.8427,59.7725 42.5784,47.1913 37.0097,35.798 34.1189,30.6889 31.1039,25.886 28.114,21.5471 24.9869,17.5579 21.8983,13.9767 18.7706,10.8393 15.6677,8.20242 12.5537,6.01199 9.37041,4.28968 l -3.375,-1.375 0.28648,0.09227 -3.375,-0.8125 0.32037,0.05009 -3.375003,-0.25 z M 60.0287,370.959 l -11.8038,6.378 1.9805,-13.27 z"
       fill="#339966"
       transform="matrix(0,0.2063177,0.2063177,0,54.999992,85.114885)"
       id="path333"
       clip-path="url(#clipPath725)"
       style="fill:#2ca05a" />
    <path
       d="m 0.122219,-1.66218 4.250001,0.3125 4.49886,0.836829 4.47542,1.496549 4.3534,2.003702 4.326,2.50969 4.3062,3.01348 4.182,3.52963 4.1362,3.9413 4.0797,4.4564 3.9296,4.7502 3.8709,5.2624 3.784,5.5481 7.1868,12.2852 6.7408,13.5361 6.1712,14.7886 5.5943,15.7075 4.8429,16.656 4.2069,17.386 3.3312,17.9 2.451,18.397 1.5712,18.706 0.5053,18.845 -0.2496,18.816 -0.6885,18.664 -1.1898,18.359 -1.5654,17.851 -1.9415,17.352 -2.3181,16.607 -2.6321,15.671 -2.883,14.732 -3.1373,13.495 -3.3921,12.254 -1.768,5.561 -1.8273,5.232 -1.8314,4.739 -1.8976,4.43 -1.9787,3.964 -1.9763,3.51 -1.9981,3.037 c -0.0758,0.115 -0.1656,0.22 -0.2673,0.313 l -2.8852,2.635 -2.248,-2.461 2.8852,-2.635 -0.2673,0.313 1.8769,-2.838 1.8987,-3.365 1.8963,-3.786 1.8524,-4.32 1.7936,-4.636 1.7977,-5.143 1.732,-5.439 3.3578,-12.121 3.1128,-13.38 2.867,-14.643 2.6179,-15.579 2.3069,-16.518 1.9335,-17.273 1.5596,-17.774 1.1852,-18.266 0.6865,-18.586 0.2504,-18.684 -0.4947,-18.655 -1.5538,-18.544 -2.424,-18.228 -3.2939,-17.725 -4.168,-17.239 L 72.8674,93.434 67.3367,77.8915 61.2579,63.3051 54.6237,49.9662 47.5605,37.8764 43.8445,32.4245 40.0904,27.3119 36.27,22.6871 32.3496,18.3935 28.3609,14.5848 24.4179,11.2394 20.3491,8.37791 16.3001,6.0126 12.2785,4.1413 8.25392,2.76285 4.12778,1.97468 -0.122219,1.66218 Z M 59.3711,399.622 l -11.1462,0.873 5.9896,-9.44 z"
       fill="#339966"
       transform="matrix(0,0.2063177,0.2063177,0,37.978782,85.218045)"
       id="path335"
       clip-path="url(#clipPath721)"
       style="fill:#2ca05a" />
    <path
       d="m 0.421676,-1.95504 3.187504,0.6875 c 0.22378,0.04827 0.43763,0.1346 0.6322,0.25523 l 3.125,1.937505 C 7.50843,1.01327 7.63891,1.11882 7.75471,1.23935 l 3.06249,3.1875 c 0.0696,0.07246 0.1338,0.15018 0.1917,0.23228 l 3,4.25 3.0539,5.49807 2.8303,6.4123 2.6711,7.2391 2.5295,7.9612 2.2781,8.6594 2.079,9.1924 1.7673,9.7729 1.571,10.1755 2.1384,21.2298 0.5699,11.0352 0.1898,11.006 -0.2498,21.932 -0.6885,21.167 -0.4383,10.146 -0.564,9.656 -0.6897,9.22 -0.6883,8.573 -0.7526,7.905 -0.8812,7.118 -0.8791,6.282 -1.3929,6.141 -3.8999,-0.889 1.3314,-5.807 0.8709,-6.218 0.8688,-7.007 0.7474,-7.845 0.6867,-8.552 0.6853,-9.155 0.561,-9.594 0.4367,-10.104 0.6865,-21.083 0.2502,-21.818 L 31.5026,106.29 30.9475,95.4502 28.8359,74.43 27.2819,64.3555 25.5492,54.7534 23.5032,45.6958 21.2813,37.2302 18.8108,29.4414 16.2319,22.4305 13.5622,16.3428 10.7411,11.2159 7.74106,6.96587 7.93279,7.19815 4.87029,4.01065 5.25862,4.32481 2.13362,2.38731 2.76582,2.64254 -0.421676,1.95504 Z M 32.8347,224.971 l -9.7592,9.206 -1.5096,-13.331 z"
       fill="#ffc000"
       transform="matrix(0,0.2063177,0.2063177,0,72.12436,67.990516)"
       id="path341"
       clip-path="url(#clipPath717)"
       style="fill:#d3bc5f" />
    <path
       d="m 0.0403588,-1.99959 34.0625412,0.6875 16.8139,0.877314 16.3534,1.190054 15.7866,1.440502 15.1034,1.69165 14.3578,1.94315 13.421,2.13169 12.307,2.32243 11.192,2.514 9.832,2.6451 4.375,1.3304 4.014,1.4001 3.652,1.471 3.212,1.4752 c 0.176,0.0808 0.339,0.1866 0.484,0.3141 l 1.94,1.703 -2.64,3.0057 -1.939,-1.7029 0.484,0.3141 -3.038,-1.3998 -3.473,-1.404 -3.861,-1.3499 -4.25,-1.2946 -9.669,-2.6049 -11.057,-2.486 L 125.311,11.9127 111.982,9.79442 97.7148,7.86257 82.6932,6.17922 66.9798,4.74472 50.7082,3.55978 34.0221,2.68709 -0.0403588,1.99959 Z M 178.476,18.9938 182.673,31.7369 169.96,27.4485 Z"
       fill="#ffc000"
       transform="matrix(0.2063177,0,0,-0.2063177,95.025625,79.283725)"
       id="path343"
       clip-path="url(#clipPath713)"
       style="fill:#d3bc5f" />
    <path
       d="m 495,466.5 c 0,-14.083 11.193,-25.5 25,-25.5 13.807,0 25,11.417 25,25.5 0,14.083 -11.193,25.5 -25,25.5 -13.807,0 -25,-11.417 -25,-25.5 z"
       fill="#ffc000"
       fill-rule="evenodd"
       fill-opacity="0.501961"
       id="path345"
       transform="matrix(0.2063177,0,0,0.2063177,-1.1184214,-19.488184)"
       clip-path="url(#clipPath709)"
       style="fill:#d3bc5f;fill-opacity:1" />
    <text
       font-family="Arial, Arial_MSFontService, sans-serif"
       font-weight="400"
       font-size="5.57058px"
       id="text347"
       x="101.44209"
       y="78.719032"
       style="fill:#ffffff;stroke-width:0.206317">IBS</text>
    <path
       d="m 300,137.5 c 0,-14.083 11.193,-25.5 25,-25.5 13.807,0 25,11.417 25,25.5 0,14.083 -11.193,25.5 -25,25.5 -13.807,0 -25,-11.417 -25,-25.5 z"
       fill="#c00000"
       fill-rule="evenodd"
       fill-opacity="0.501961"
       id="path349"
       transform="matrix(0.2063177,0,0,0.2063177,-1.1184214,-19.488184)"
       clip-path="url(#clipPath705)"
       style="fill:#d35f5f;fill-opacity:1" />
    <text
       font-family="Arial, Arial_MSFontService, sans-serif"
       font-weight="400"
       font-size="5.57058px"
       id="text351"
       x="61.209949"
       y="11.046833"
       style="fill:#ffffff;stroke-width:0.206317">IBD</text>
    <path
       d="m 494,305 c 0,-13.807 11.193,-25 25,-25 13.807,0 25,11.193 25,25 0,13.807 -11.193,25 -25,25 -13.807,0 -25,-11.193 -25,-25 z"
       fill="#c00000"
       fill-rule="evenodd"
       fill-opacity="0.501961"
       id="path353"
       transform="matrix(0.2063177,0,0,0.2063177,-1.1184214,-19.488184)"
       clip-path="url(#clipPath701)"
       style="fill:#d35f5f;fill-opacity:1" />
    <text
       font-family="Arial, Arial_MSFontService, sans-serif"
       font-weight="400"
       font-size="5.57058px"
       id="text355"
       x="101.23579"
       y="45.501892"
       style="fill:#ffffff;stroke-width:0.206317">IBD</text>
    <path
       d="m 495,385 c 0,-13.807 11.193,-25 25,-25 13.807,0 25,11.193 25,25 0,13.807 -11.193,25 -25,25 -13.807,0 -25,-11.193 -25,-25 z"
       fill="#ffc000"
       fill-rule="evenodd"
       fill-opacity="0.501961"
       id="path357"
       transform="matrix(0.2063177,0,0,0.2063177,-1.1184214,-19.488184)"
       clip-path="url(#clipPath697)"
       style="fill:#d3bc5f;fill-opacity:1" />
    <path
       d="m 101.96162,62.007308 v -3.987531 h 0.52769 v 3.987531 z"
       id="path2854"
       style="font-size:7.14375px;font-family:Arial, Arial_MSFontService, sans-serif;fill:#ffffff;stroke-width:0.206317" />
    <path
       d="m 103.39779,62.007308 v -3.987531 h 1.496 q 0.45697,0 0.73169,0.122402 0.27744,0.119681 0.43248,0.372643 0.15776,0.25024 0.15776,0.524958 0,0.255683 -0.13872,0.481438 -0.13872,0.225763 -0.41888,0.364487 0.36176,0.106082 0.55488,0.361757 0.19584,0.255683 0.19584,0.603841 0,0.280168 -0.11968,0.522244 -0.11696,0.239362 -0.29104,0.369922 -0.17408,0.130559 -0.43792,0.198564 -0.26112,0.06527 -0.64193,0.06527 z m 0.52768,-2.312003 h 0.86224 q 0.35089,0 0.5032,-0.04624 0.20129,-0.05981 0.30193,-0.198564 0.10336,-0.138716 0.10336,-0.348158 0,-0.198564 -0.0952,-0.348165 -0.0952,-0.152315 -0.272,-0.206721 -0.17681,-0.05716 -0.60657,-0.05716 h -0.79696 z m 0,1.841443 h 0.9928 q 0.25569,0 0.35905,-0.01903 0.18224,-0.03267 0.30464,-0.108795 0.1224,-0.07619 0.20128,-0.22032 0.0789,-0.14688 0.0789,-0.337288 0,-0.223033 -0.11424,-0.386234 -0.11424,-0.165922 -0.31824,-0.231206 -0.20128,-0.068 -0.58209,-0.068 h -0.92208 z"
       id="path2856"
       style="font-size:7.14375px;font-family:Arial, Arial_MSFontService, sans-serif;fill:#ffffff;stroke-width:0.206317" />
    <path
       d="m 106.95556,60.726187 0.49776,-0.04351 q 0.0354,0.299203 0.1632,0.492324 0.13056,0.190399 0.40256,0.310081 0.272,0.116959 0.61201,0.116959 0.30192,0 0.53312,-0.08976 0.2312,-0.08976 0.34272,-0.244805 0.11424,-0.157758 0.11424,-0.342715 0,-0.187686 -0.1088,-0.326401 -0.1088,-0.141445 -0.35904,-0.236641 -0.16048,-0.06254 -0.70992,-0.193121 -0.54945,-0.133281 -0.76977,-0.250241 -0.2856,-0.149601 -0.42704,-0.369921 -0.13872,-0.223042 -0.13872,-0.497767 0,-0.301917 0.17136,-0.563043 0.17136,-0.263839 0.50048,-0.399841 0.32912,-0.135995 0.73169,-0.135995 0.44336,0 0.78064,0.144159 0.34,0.141437 0.52224,0.418884 0.18224,0.277439 0.19584,0.628318 l -0.50592,0.03805 q -0.0408,-0.378078 -0.27744,-0.5712 -0.23392,-0.193121 -0.6936,-0.193121 -0.47873,0 -0.69905,0.176801 -0.2176,0.174078 -0.2176,0.421605 0,0.214877 0.15504,0.353601 0.15232,0.138715 0.79425,0.285595 0.64464,0.144167 0.884,0.252962 0.34816,0.16048 0.51408,0.408006 0.16592,0.244798 0.16592,0.565757 0,0.318245 -0.18224,0.601127 -0.18224,0.28016 -0.52496,0.437918 -0.34,0.155045 -0.76704,0.155045 -0.54129,0 -0.90849,-0.157766 -0.36448,-0.157758 -0.57392,-0.473282 -0.20672,-0.318237 -0.2176,-0.718079 z"
       id="path2858"
       style="font-size:7.14375px;font-family:Arial, Arial_MSFontService, sans-serif;fill:#ffffff;stroke-width:0.206317" />
    <text
       fill="#ffffff"
       font-family="Arial, Arial_MSFontService, sans-serif"
       font-style="italic"
       font-weight="400"
       font-size="6.60217px"
       id="text339"
       x="-70.289032"
       y="9.6576986"
       style="fill:#000000;stroke-width:0.206317"
       transform="rotate(-90)">pool<tspan
   font-style="normal"
   font-size="6.60217px"
   x="-55.949959"
   y="9.6576986"
   id="tspan337"
   style="fill:#000000;stroke-width:0.0545882">gênico</tspan></text>
    <text
       xml:space="preserve"
       style="font-size:6.35px;line-height:1.25;font-family:'Times New Roman';-inkscape-font-specification:'Times New Roman, ';letter-spacing:0px;word-spacing:0px;stroke-width:0.264583"
       x="151.59203"
       y="71.820694"
       id="text3300-7"><tspan
         sodipodi:role="line"
         id="tspan3298-0"
         style="font-style:italic;font-variant:normal;font-weight:normal;font-stretch:normal;font-size:6.35px;font-family:'Cambria Math';-inkscape-font-specification:'Cambria Math Italic';stroke-width:0.264583"
         x="151.59203"
         y="71.820694">1 –</tspan></text>
    <g
       id="g3747">
      <text
         xml:space="preserve"
         style="font-size:11.0077px;line-height:1.25;font-family:'Times New Roman';-inkscape-font-specification:'Times New Roman, ';letter-spacing:0px;word-spacing:0px;stroke-width:0.264583"
         x="280.28452"
         y="43.437229"
         id="text3300-7-4"
         transform="scale(0.57686718,1.7335013)"><tspan
           sodipodi:role="line"
           id="tspan3298-0-6"
           style="font-style:italic;font-variant:normal;font-weight:normal;font-stretch:normal;font-size:11.0077px;font-family:'Cambria Math';-inkscape-font-specification:'Cambria Math Italic';stroke-width:0.264583"
           x="280.28452"
           y="43.437229">(</tspan></text>
      <text
         xml:space="preserve"
         style="font-size:11.0077px;line-height:1.25;font-family:'Times New Roman';-inkscape-font-specification:'Times New Roman, ';letter-spacing:0px;word-spacing:0px;stroke-width:0.264583"
         x="-309.99713"
         y="43.437229"
         id="text3300-7-4-4"
         transform="scale(-0.57686718,1.7335013)"><tspan
           sodipodi:role="line"
           id="tspan3298-0-6-6"
           style="font-style:italic;font-variant:normal;font-weight:normal;font-stretch:normal;font-size:11.0077px;font-family:'Cambria Math';-inkscape-font-specification:'Cambria Math Italic';stroke-width:0.264583"
           x="-309.99713"
           y="43.437229">(</tspan></text>
    </g>
    <path
       d="m 890.5,200.5 49.134,0.167"
       stroke="#ffffff"
       stroke-width="2.66667"
       stroke-linejoin="round"
       stroke-miterlimit="10"
       fill="none"
       fill-rule="evenodd"
       id="path365"
       transform="matrix(0.2063177,0,0,0.2063177,-23.911067,-19.576851)"
       clip-path="url(#clipPath693)"
       style="stroke:#000000" />
    <text
       xml:space="preserve"
       style="font-size:6.35px;line-height:1.25;font-family:'Times New Roman';-inkscape-font-specification:'Times New Roman, ';letter-spacing:0px;word-spacing:0px;stroke-width:0.264583"
       x="159.89043"
       y="28.042658"
       id="text3300"><tspan
         sodipodi:role="line"
         id="tspan3298"
         style="font-style:normal;font-variant:normal;font-weight:normal;font-stretch:normal;font-size:6.35px;font-family:Cambria;-inkscape-font-specification:'Cambria Italic';stroke-width:0.264583"
         x="159.89043"
         y="28.042658">2<tspan
   style="font-style:italic"
   id="tspan3333">N<tspan
   style="font-size:65%;baseline-shift:sub"
   id="tspan485">e</tspan></tspan></tspan></text>
    <text
       xml:space="preserve"
       style="font-size:6.35px;line-height:1.25;font-family:'Times New Roman';-inkscape-font-specification:'Times New Roman, ';letter-spacing:0px;word-spacing:0px;stroke-width:0.264583"
       x="163.09468"
       y="20.152615"
       id="text3300-7-2"><tspan
         sodipodi:role="line"
         id="tspan3298-0-1"
         style="font-style:italic;font-variant:normal;font-weight:normal;font-stretch:normal;font-size:6.35px;font-family:'Cambria Math';-inkscape-font-specification:'Cambria Math Italic';stroke-width:0.264583"
         x="163.09468"
         y="20.152615">1</tspan></text>
    <path
       d="m 890.5,200.5 49.134,0.167"
       stroke="#ffffff"
       stroke-width="2.66667"
       stroke-linejoin="round"
       stroke-miterlimit="10"
       fill="none"
       fill-rule="evenodd"
       id="path365-0"
       transform="matrix(0.2063177,0,0,0.2063177,-18.537464,28.815118)"
       clip-path="url(#clipPath693-8)"
       style="stroke:#000000" />
    <text
       xml:space="preserve"
       style="font-size:6.35px;line-height:1.25;font-family:'Times New Roman';-inkscape-font-specification:'Times New Roman, ';letter-spacing:0px;word-spacing:0px;stroke-width:0.264583"
       x="165.26402"
       y="76.434624"
       id="text3300-3"><tspan
         sodipodi:role="line"
         id="tspan3298-4"
         style="font-style:normal;font-variant:normal;font-weight:normal;font-stretch:normal;font-size:6.35px;font-family:Cambria;-inkscape-font-specification:'Cambria Italic';stroke-width:0.264583"
         x="165.26402"
         y="76.434624">2<tspan
   style="font-style:italic"
   id="tspan3333-5">N<tspan
   style="font-size:65%;baseline-shift:sub"
   id="tspan487">e</tspan></tspan></tspan></text>
    <text
       xml:space="preserve"
       style="font-size:6.35px;line-height:1.25;font-family:'Times New Roman';-inkscape-font-specification:'Times New Roman, ';letter-spacing:0px;word-spacing:0px;stroke-width:0.264583"
       x="168.46828"
       y="68.544586"
       id="text3300-7-2-7"><tspan
         sodipodi:role="line"
         id="tspan3298-0-1-9"
         style="font-style:italic;font-variant:normal;font-weight:normal;font-stretch:normal;font-size:6.35px;font-family:'Cambria Math';-inkscape-font-specification:'Cambria Math Italic';stroke-width:0.264583"
         x="168.46828"
         y="68.544586">1</tspan></text>
  </g>
</svg>
