<?xml version="1.0" encoding="UTF-8" standalone="no"?>
<!-- Created with Inkscape (http://www.inkscape.org/) -->

<svg
   width="150mm"
   height="80mm"
   viewBox="0 0 150 80"
   version="1.1"
   id="svg5"
   xml:space="preserve"
   inkscape:version="1.2 (dc2aedaf03, 2022-05-15)"
   sodipodi:docname="birth_to_fixation.svg"
   xmlns:inkscape="http://www.inkscape.org/namespaces/inkscape"
   xmlns:sodipodi="http://sodipodi.sourceforge.net/DTD/sodipodi-0.dtd"
   xmlns="http://www.w3.org/2000/svg"
   xmlns:svg="http://www.w3.org/2000/svg"><sodipodi:namedview
     id="namedview7"
     pagecolor="#ffffff"
     bordercolor="#666666"
     borderopacity="1.0"
     inkscape:showpageshadow="2"
     inkscape:pageopacity="0.0"
     inkscape:pagecheckerboard="0"
     inkscape:deskcolor="#d1d1d1"
     inkscape:document-units="mm"
     showgrid="false"
     inkscape:zoom="0.84096521"
     inkscape:cx="271.11704"
     inkscape:cy="170.04271"
     inkscape:window-width="1920"
     inkscape:window-height="1017"
     inkscape:window-x="-8"
     inkscape:window-y="-8"
     inkscape:window-maximized="1"
     inkscape:current-layer="layer1"
     showguides="false" /><defs
     id="defs2"><marker
       style="overflow:visible"
       id="TriangleStart"
       refX="0"
       refY="0"
       orient="auto-start-reverse"
       inkscape:stockid="TriangleStart"
       markerWidth="1"
       markerHeight="1.1560694"
       viewBox="0 0 5.3244081 6.1553851"
       inkscape:isstock="true"
       inkscape:collect="always"
       preserveAspectRatio="xMidYMid"
       markerUnits="userSpaceOnUse"><path
         transform="scale(0.5)"
         style="fill:context-stroke;fill-rule:evenodd;stroke:context-stroke;stroke-width:1pt"
         d="M 5.77,0 -2.88,5 V -5 Z"
         id="path135" /></marker><inkscape:path-effect
       effect="bspline"
       id="path-effect371"
       is_visible="true"
       lpeversion="1"
       weight="33.333333"
       steps="2"
       helper_size="0"
       apply_no_weight="true"
       apply_with_weight="true"
       only_selected="false" /><inkscape:path-effect
       effect="bspline"
       id="path-effect367"
       is_visible="true"
       lpeversion="1"
       weight="33.333333"
       steps="2"
       helper_size="0"
       apply_no_weight="true"
       apply_with_weight="true"
       only_selected="false" /><marker
       style="overflow:visible"
       id="TriangleStart-9"
       refX="0"
       refY="0"
       orient="auto-start-reverse"
       inkscape:stockid="TriangleStart"
       markerWidth="1"
       markerHeight="1.1560694"
       viewBox="0 0 5.3244081 6.1553851"
       inkscape:isstock="true"
       inkscape:collect="always"
       preserveAspectRatio="xMidYMid"
       markerUnits="userSpaceOnUse"><path
         transform="scale(0.5)"
         style="fill:context-stroke;fill-rule:evenodd;stroke:context-stroke;stroke-width:1pt"
         d="M 5.77,0 -2.88,5 V -5 Z"
         id="path135-1" /></marker><marker
       style="overflow:visible"
       id="TriangleStart-3"
       refX="0"
       refY="0"
       orient="auto-start-reverse"
       inkscape:stockid="TriangleStart"
       markerWidth="1"
       markerHeight="1.1560694"
       viewBox="0 0 5.3244081 6.1553851"
       inkscape:isstock="true"
       inkscape:collect="always"
       preserveAspectRatio="xMidYMid"
       markerUnits="userSpaceOnUse"><path
         transform="scale(0.5)"
         style="fill:context-stroke;fill-rule:evenodd;stroke:context-stroke;stroke-width:1pt"
         d="M 5.77,0 -2.88,5 V -5 Z"
         id="path135-2" /></marker><marker
       style="overflow:visible"
       id="TriangleStart-3-9"
       refX="0"
       refY="0"
       orient="auto-start-reverse"
       inkscape:stockid="TriangleStart"
       markerWidth="1"
       markerHeight="1.1560694"
       viewBox="0 0 5.3244081 6.1553851"
       inkscape:isstock="true"
       inkscape:collect="always"
       preserveAspectRatio="xMidYMid"
       markerUnits="userSpaceOnUse"><path
         transform="scale(0.5)"
         style="fill:context-stroke;fill-rule:evenodd;stroke:context-stroke;stroke-width:1pt"
         d="M 5.77,0 -2.88,5 V -5 Z"
         id="path135-2-4" /></marker></defs><g
     inkscape:label="Layer 1"
     inkscape:groupmode="layer"
     id="layer1"><text
       xml:space="preserve"
       style="font-size:3.52778px;line-height:1.25;font-family:Cambria;-inkscape-font-specification:Cambria;letter-spacing:0px;word-spacing:0px;stroke-width:0.264583"
       x="63.788654"
       y="129.43381"
       id="text1166-4"><tspan
         sodipodi:role="line"
         id="tspan1164-3"
         style="font-style:normal;font-variant:normal;font-weight:normal;font-stretch:normal;font-size:3.52778px;font-family:Cambria;-inkscape-font-specification:Cambria;stroke-width:0.264583"
         x="63.788654"
         y="129.43381">4<tspan
   style="font-style:italic"
   id="tspan1274">N</tspan><tspan
   style="font-style:italic;font-size:65%;baseline-shift:sub"
   id="tspan1272">e</tspan></tspan></text><g
       id="g2991"
       transform="translate(-29.830735,-27.766018)"><path
         style="fill:none;stroke:#000000;stroke-width:0.264583px;stroke-linecap:butt;stroke-linejoin:miter;stroke-opacity:1"
         d="m 41.170664,40.25298 c 0,19.331892 0,38.663517 0,57.99488"
         id="path365"
         inkscape:path-effect="#path-effect367"
         inkscape:original-d="m 41.170664,40.25298 c 2.64e-4,19.331892 2.64e-4,38.663517 0,57.99488" /><path
         style="fill:none;stroke:#000000;stroke-width:0.264583px;stroke-linecap:butt;stroke-linejoin:miter;stroke-opacity:1"
         d="m 177.15482,97.483124 c -45.62904,0 -91.258358,0 -136.887936,0"
         id="path369"
         inkscape:path-effect="#path-effect371"
         inkscape:original-d="m 177.15482,97.483124 c -45.62904,2.65e-4 -91.258358,2.65e-4 -136.887936,0" /><path
         style="fill:none;stroke:#000000;stroke-width:0.264583px;stroke-linecap:butt;stroke-linejoin:miter;stroke-opacity:1"
         d="m 41.84428,97.483122 1.82872,-1.80956 0.914361,-3.942564 1.838552,-1.868048 0.845537,-3.75576 1.858216,-1.779561 2.261323,0.816041 1.789392,-3.303495 2.280987,0.796377 1.710737,-3.254335 2.231827,0.904528 0.717724,4.18836 2.349807,2.30065 0.707893,4.326006 2.389135,2.408798 0.599741,3.972563"
         id="path373" /><path
         style="fill:none;stroke:#000000;stroke-width:0.264583px;stroke-linecap:butt;stroke-linejoin:miter;stroke-opacity:1"
         d="m 44.587361,97.483122 1.632084,-0.954191 0.884865,-1.976197 1.976199,0.521087 1.818889,-1.523934 1.661578,1.160155 0.658733,0.108152 1.278139,0.875032 2.30065,-0.157311 0.678394,0.589913 0.216302,1.357294"
         id="path375" /><path
         style="fill:none;stroke:#000000;stroke-width:0.264583px;stroke-linecap:butt;stroke-linejoin:miter;stroke-opacity:1"
         d="m 51.737942,97.483122 0.187706,-0.570074 2.18993,-1.147106 0.903779,-1.668518 0.750835,-0.882923 0.674359,0.132091 2.03698,0.757785 2.009174,-1.592043 1.425191,-0.444939 2.593155,-0.980255 1.230532,0.145997 3.003331,1.93965 1.126249,0.229423 3.48303,-0.118187 0.945492,0.403225 0.966351,1.383477 0.215516,2.412397"
         id="path377" /><path
         style="fill:none;stroke:#000000;stroke-width:0.264583px;stroke-linecap:butt;stroke-linejoin:miter;stroke-opacity:1"
         d="m 64.557716,97.483122 1.244436,-1.119296 1.376527,-0.139041 1.049774,-1.021969 1.501666,0.437986 1.466906,-0.535316 1.571185,0.507508 1.327862,-0.424082 0.83426,0.959397 0.987206,0.166852 0.792546,0.799499 0.966348,0.368462"
         id="path379" /><path
         style="fill:none;stroke:#000000;stroke-width:0.264583px;stroke-linecap:butt;stroke-linejoin:miter;stroke-opacity:1"
         d="m 82.022063,97.483122 0.39819,-0.492093 1.43053,-0.658734 0.61449,-1.740233 0.580077,-0.353946 1.641917,0.643985 0.648902,-0.34903 0.983183,-1.150327 0.688229,0.117983 1.307632,1.052007 0.653817,0.06882 1.101167,0.830792 2.438294,-0.103235 0.639069,0.683313 0.14256,1.450697"
         id="path381" /><path
         style="fill:none;stroke:#000000;stroke-width:0.264583px;stroke-linecap:butt;stroke-linejoin:miter;stroke-opacity:1"
         d="m 89.14749,97.483122 2.113455,-1.03587 1.020635,-2.041996 2.153171,-1.061837 0.953688,-1.990947 2.133508,-0.934024 2.639853,0.39819 1.93195,-1.725488 2.67426,0.408022 1.88279,-1.725486 2.66443,0.467011 0.76688,2.236742 2.69884,1.268307 0.88978,2.339975 2.60052,1.150324 0.75214,2.247077"
         id="path383" /><path
         style="fill:none;stroke:#000000;stroke-width:0.264583px;stroke-linecap:butt;stroke-linejoin:miter;stroke-opacity:1"
         d="m 99.483398,97.483122 0.339199,-0.497009 1.715653,-0.526003 0.94877,-1.764815 0.73739,0.07865 1.14049,0.634153 0.69315,-0.275291 0.89961,-1.081503 0.69314,0.186807 1.00777,0.894696 0.9291,0.353947 0.8308,0.702974 1.13066,-0.221216 0.87503,-0.270375 1.052,0.462095 0.26546,0.79638 0.17206,0.526505"
         id="path385" /><path
         style="fill:none;stroke:#000000;stroke-width:0.264583px;stroke-linecap:butt;stroke-linejoin:miter;stroke-opacity:1"
         d="m 121.02494,97.483122 3.19617,-3.934918 0.47275,-4.699656 3.07285,-3.615121 0.37542,-4.477189 0.15295,3.00333 1.50166,2.308117 -0.12514,2.906 1.48776,2.155169 1.05673,-1.126249 0.40323,-1.557282 1.15406,-1.15406 0.29199,-1.571185 0.43103,3.350937 2.18298,2.558394 0.43103,3.434365 1.9466,2.419348"
         id="path387" /><path
         style="fill:none;stroke:#000000;stroke-width:0.264583px;stroke-linecap:butt;stroke-linejoin:miter;stroke-opacity:1"
         d="m 128.32289,97.483122 0.13904,-0.444937 1.73804,-0.903779 0.62569,-1.863178 2.07174,0.500555 0.98721,-0.723024 0.88988,-0.848162 1.43214,1.015013 0.83228,0.278448 1.32289,0.861705 1.25139,0.01392 1.09844,-0.166854 0.75083,0.848164 0.0834,1.432142"
         id="path389" /><path
         style="fill:none;stroke:#000000;stroke-width:0.264583px;stroke-linecap:butt;stroke-linejoin:miter;stroke-opacity:1"
         d="m 142.52225,97.483122 0.84553,-0.482262 0.8652,-1.946703 1.19949,-0.530918 0.72755,-1.848385 1.12083,1.0815 1.23881,-1.101164 1.3568,1.061837 0.90452,-1.022509 0.7079,1.848384 0.84553,0.570246 0.7079,1.769729 0.8652,0.600245"
         id="path391" /><path
         style="fill:none;stroke:#000000;stroke-width:0.264583px;stroke-linecap:butt;stroke-linejoin:miter;stroke-opacity:1"
         d="m 145.57011,97.483122 1.24373,-0.310206 1.12803,-0.955085 1.27919,-0.139043 1.14016,-1.084535 1.47386,0.500554 1.47385,-0.500554 1.66852,0.500554 1.25139,-0.500554 0.83426,0.862068 1.00111,0.222467 0.76473,0.841211 0.95245,0.1599 0.16685,0.403223"
         id="path395" /><path
         style="fill:none;stroke:#000000;stroke-width:0.264583px;stroke-linecap:butt;stroke-linejoin:miter;stroke-dasharray:0.793749, 0.793749;stroke-dashoffset:0;stroke-opacity:1"
         d="M 40.266884,45.649199 H 177.15488"
         id="path417" /><path
         style="fill:none;stroke:#000000;stroke-width:0.264583px;stroke-linecap:butt;stroke-linejoin:miter;stroke-opacity:1"
         d="M 121.23169,40.308598 V 45.6492"
         id="path419" /><path
         style="fill:none;stroke:#000000;stroke-width:0.264583px;stroke-linecap:butt;stroke-linejoin:miter;stroke-opacity:1"
         d="M 161.48467,40.294692 V 45.6492"
         id="path421" /><g
         id="g2741"><path
           style="fill:none;stroke:#000000;stroke-width:0.264583px;stroke-linecap:butt;stroke-linejoin:miter;stroke-opacity:1;marker-start:url(#TriangleStart)"
           d="m 121.93904,42.978899 h 14.3941"
           id="path423-4" /><path
           style="fill:none;stroke:#000000;stroke-width:0.264583px;stroke-linecap:butt;stroke-linejoin:miter;stroke-opacity:1;marker-start:url(#TriangleStart-9)"
           d="m 160.68544,42.978899 h -14.3941"
           id="path423-4-2" /></g><path
         style="fill:none;stroke:#000000;stroke-width:0.264583px;stroke-linecap:butt;stroke-linejoin:miter;stroke-opacity:1"
         d="M 81.034323,45.593582 V 40.25298"
         id="path447" /><path
         style="fill:none;stroke:#2c89a0;stroke-width:0.705556;stroke-linecap:butt;stroke-linejoin:miter;stroke-dasharray:1.41111, 0.705556;stroke-dashoffset:0;stroke-opacity:1"
         d="m 46.468207,97.483122 c 1.056135,-1.869925 3.179035,-2.306213 4.97635,-3.143309 2.585912,-1.031588 3.526532,-4.131822 2.982034,-6.680332 -0.127568,-2.706005 1.90259,-5.275789 4.555497,-5.818708 2.238047,-0.738909 4.310835,-2.588309 4.307803,-5.104966 -0.138821,-2.122088 -0.269978,-4.529127 1.407272,-6.129816 1.670288,-1.890182 4.759102,-1.562596 6.135522,-3.800077 1.473399,-1.673227 0.852243,-3.93991 1.062656,-5.937273 0.113371,-2.142228 1.586806,-4.140653 3.743746,-4.567532 2.236551,-0.608624 4.415284,-2.162914 4.747709,-4.623058 0.125688,-2.048914 -0.143908,-4.04559 0.647528,-6.028851"
         id="path520"
         sodipodi:nodetypes="caaaaaaaaaaaaaaaaaaaaaaaaaaaaaac" /><path
         style="fill:none;stroke:#a05a2c;stroke-width:0.705556;stroke-linecap:butt;stroke-linejoin:miter;stroke-dasharray:1.41111, 0.705556;stroke-dashoffset:0;stroke-opacity:1"
         d="m 85.418961,97.483122 c 1.121992,-2.598407 4.713137,-1.860161 6.207713,-4.095268 1.75684,-1.451551 1.66334,-3.799613 1.631609,-5.857306 -0.10458,-2.92994 2.571855,-5.138683 5.265297,-5.619774 1.89304,-0.571297 3.08503,-2.431361 3.80613,-4.160642 0.3273,-2.228976 -0.49152,-4.828502 1.21919,-6.685648 1.45237,-2.269869 4.54518,-1.746328 6.22547,-3.630438 1.71445,-1.439891 1.55043,-3.702945 1.52166,-5.69846 0.13548,-2.234006 1.30328,-4.392293 3.45268,-5.253693 2.52143,-0.565394 4.92215,-2.23455 5.48539,-4.893092 0.42643,-2.060122 -0.5008,-4.07157 0.99763,-5.939601"
         id="path522"
         sodipodi:nodetypes="caaaaaaaaaaaaaaaaaaaaaaaaac" /><path
         style="fill:none;stroke:#2ca02c;stroke-width:0.705556;stroke-linecap:butt;stroke-linejoin:miter;stroke-dasharray:1.41111, 0.705556;stroke-dashoffset:0;stroke-opacity:1"
         d="m 121.6071,97.483122 c 1.76709,-2.269395 5.07629,-1.942291 6.91391,-4.007331 1.58087,-1.637967 1.83844,-3.826653 1.945,-5.97925 0.25136,-2.270994 1.78351,-4.230013 3.93306,-5.01617 2.25432,-0.671865 4.72033,-1.660957 5.56516,-4.096047 0.78818,-2.310545 -0.0248,-5.149597 1.88755,-7.055209 1.64916,-2.442923 5.26061,-1.696302 6.94718,-4.119 1.64996,-1.759594 1.7285,-4.270767 1.84034,-6.531701 0.44586,-2.627263 2.98048,-3.980969 5.292,-4.691014 2.20374,-0.425698 3.73791,-2.440454 4.31702,-4.49799 0.0383,-2.01637 0.12548,-4.065583 1.23635,-5.84021"
         id="path555"
         sodipodi:nodetypes="caaaaaaaaaaaaaaaaaaaaaaaaaaaaaac" /><text
         xml:space="preserve"
         style="font-size:3.52778px;line-height:1.25;font-family:Cambria;-inkscape-font-specification:Cambria;letter-spacing:0px;word-spacing:0px;stroke-width:0.264583"
         x="103.44071"
         y="105.43233"
         id="text1166"><tspan
           sodipodi:role="line"
           id="tspan1164"
           style="font-style:normal;font-variant:normal;font-weight:normal;font-stretch:normal;font-size:3.52778px;font-family:arial;-inkscape-font-specification:arial;stroke-width:0.264583"
           x="103.44071"
           y="105.43233">Tempo</tspan></text><text
         xml:space="preserve"
         style="font-size:2.82222px;line-height:1.25;font-family:Cambria;-inkscape-font-specification:Cambria;letter-spacing:0px;word-spacing:0px;stroke-width:0.264583"
         x="40.394829"
         y="101.33466"
         id="text1166-3"><tspan
           sodipodi:role="line"
           id="tspan1164-7"
           style="font-style:normal;font-variant:normal;font-weight:normal;font-stretch:normal;font-size:2.82222px;font-family:arial;-inkscape-font-specification:arial;stroke-width:0.264583"
           x="40.394829"
           y="101.33466">0</tspan></text><text
         xml:space="preserve"
         style="font-size:2.82222px;line-height:1.25;font-family:Cambria;-inkscape-font-specification:Cambria;letter-spacing:0px;word-spacing:0px;stroke-width:0.264583"
         x="35.420326"
         y="98.480133"
         id="text1166-3-7"><tspan
           sodipodi:role="line"
           id="tspan1164-7-4"
           style="font-style:normal;font-variant:normal;font-weight:normal;font-stretch:normal;font-size:2.82222px;font-family:arial;-inkscape-font-specification:arial;stroke-width:0.264583"
           x="35.420326"
           y="98.480133">0.0</tspan></text><text
         xml:space="preserve"
         style="font-size:2.82222px;line-height:1.25;font-family:Cambria;-inkscape-font-specification:Cambria;letter-spacing:0px;word-spacing:0px;stroke-width:0.264583"
         x="35.420326"
         y="46.64621"
         id="text1166-3-7-4"><tspan
           sodipodi:role="line"
           id="tspan1164-7-4-1"
           style="font-style:normal;font-variant:normal;font-weight:normal;font-stretch:normal;font-size:2.82222px;font-family:arial;-inkscape-font-specification:arial;stroke-width:0.264583"
           x="35.420326"
           y="46.64621">1.0</tspan></text><text
         xml:space="preserve"
         style="font-size:2.82222px;line-height:1.25;font-family:Cambria;-inkscape-font-specification:Cambria;letter-spacing:0px;word-spacing:0px;stroke-width:0.264583"
         x="176.07719"
         y="101.34707"
         id="text1166-3-1"><tspan
           sodipodi:role="line"
           id="tspan1164-7-5"
           style="font-style:italic;font-variant:normal;font-weight:normal;font-stretch:normal;font-size:2.82222px;font-family:Cambria;-inkscape-font-specification:Cambria;stroke-width:0.264583"
           x="176.07719"
           y="101.34707">t</tspan></text><text
         xml:space="preserve"
         style="font-size:3.52778px;line-height:1.25;font-family:Cambria;-inkscape-font-specification:Cambria;letter-spacing:0px;word-spacing:0px;stroke-width:0.264583"
         x="61.047855"
         y="31.966951"
         id="text1166-57"><tspan
           sodipodi:role="line"
           id="tspan1164-33"
           style="font-style:normal;font-variant:normal;font-weight:normal;font-stretch:condensed;font-size:3.52778px;font-family:arial;-inkscape-font-specification:'arial Condensed';text-align:center;text-anchor:middle;stroke-width:0.264583"
           x="61.047855"
           y="31.966951">Gerações do nascimento</tspan><tspan
           sodipodi:role="line"
           style="font-style:normal;font-variant:normal;font-weight:normal;font-stretch:condensed;font-size:3.52778px;font-family:arial;-inkscape-font-specification:'arial Condensed';text-align:center;text-anchor:middle;stroke-width:0.264583"
           x="61.047855"
           y="36.384007"
           id="tspan1340">até a fixação</tspan></text><text
         xml:space="preserve"
         style="font-size:3.52778px;line-height:1.25;font-family:Cambria;-inkscape-font-specification:Cambria;letter-spacing:0px;word-spacing:0px;stroke-width:0.264583"
         x="141.31827"
         y="31.923887"
         id="text1166-57-8"><tspan
           sodipodi:role="line"
           id="tspan1164-33-4"
           style="font-style:normal;font-variant:normal;font-weight:normal;font-stretch:condensed;font-size:3.52778px;font-family:arial;-inkscape-font-specification:'arial Condensed';text-align:center;text-anchor:middle;stroke-width:0.264583"
           x="141.31827"
           y="31.923887">Tempo entre</tspan><tspan
           sodipodi:role="line"
           style="font-style:normal;font-variant:normal;font-weight:normal;font-stretch:condensed;font-size:3.52778px;font-family:arial;-inkscape-font-specification:'arial Condensed';text-align:center;text-anchor:middle;stroke-width:0.264583"
           x="141.31827"
           y="36.340942"
           id="tspan1340-4">eventos de fixação</tspan></text><text
         xml:space="preserve"
         style="font-size:2.82222px;line-height:1.25;font-family:Cambria;-inkscape-font-specification:Cambria;letter-spacing:0px;word-spacing:0px;stroke-width:0.264583"
         x="58.672119"
         y="43.630985"
         id="text1166-4-5"><tspan
           sodipodi:role="line"
           id="tspan1164-3-5"
           style="font-style:normal;font-variant:normal;font-weight:normal;font-stretch:normal;font-size:2.82222px;font-family:Cambria;-inkscape-font-specification:Cambria;stroke-width:0.264583"
           x="58.672119"
           y="43.630985">4<tspan
   style="font-style:italic;font-size:2.82222px"
   id="tspan1274-5">N</tspan><tspan
   style="font-style:italic;font-size:2.82222px;baseline-shift:sub"
   id="tspan1272-0">e</tspan></tspan></text><text
         xml:space="preserve"
         style="font-size:3.52778px;line-height:1.25;font-family:Cambria;-inkscape-font-specification:Cambria;letter-spacing:0px;word-spacing:0px;stroke-width:0.264583"
         x="-83.635429"
         y="35.045628"
         id="text1166-5"
         transform="rotate(-90)"><tspan
           sodipodi:role="line"
           id="tspan1164-0"
           style="font-style:normal;font-variant:normal;font-weight:normal;font-stretch:normal;font-size:3.52778px;font-family:arial;-inkscape-font-specification:arial;stroke-width:0.264583"
           x="-83.635429"
           y="35.045628">Frequência alélica</tspan></text><text
         xml:space="preserve"
         style="font-size:2.82222px;line-height:1.25;font-family:Cambria;-inkscape-font-specification:Cambria;letter-spacing:0px;word-spacing:0px;stroke-width:0.264583"
         x="140.51849"
         y="42.31744"
         id="text1166-4-5-3"><tspan
           sodipodi:role="line"
           id="tspan1164-3-5-4"
           style="font-style:normal;font-variant:normal;font-weight:normal;font-stretch:normal;font-size:2.82222px;font-family:Cambria;-inkscape-font-specification:Cambria;stroke-width:0.264583"
           x="140.51849"
           y="42.31744">1</tspan></text><text
         xml:space="preserve"
         style="font-size:2.82222px;line-height:1.25;font-family:Cambria;-inkscape-font-specification:Cambria;letter-spacing:0px;word-spacing:0px;stroke-width:0.264583"
         x="140.41652"
         y="44.959141"
         id="text1166-4-5-3-0"><tspan
           sodipodi:role="line"
           id="tspan1164-3-5-4-6"
           style="font-style:normal;font-variant:normal;font-weight:normal;font-stretch:normal;font-size:2.82222px;font-family:Cambria;-inkscape-font-specification:Cambria;stroke-width:0.264583"
           x="140.41652"
           y="44.959141">μ</tspan></text><path
         style="fill:none;stroke:#000000;stroke-width:0.264583px;stroke-linecap:butt;stroke-linejoin:miter;stroke-opacity:1"
         d="m 140.06224,42.978899 h 2.5"
         id="path2164" /><g
         id="g2771"><path
           style="fill:none;stroke:#000000;stroke-width:0.264583px;stroke-linecap:butt;stroke-linejoin:miter;stroke-opacity:1;marker-start:url(#TriangleStart-3)"
           d="M 41.908856,42.978899 H 56.302955"
           id="path423-4-8" /><path
           style="fill:none;stroke:#000000;stroke-width:0.264583px;stroke-linecap:butt;stroke-linejoin:miter;stroke-opacity:1;marker-start:url(#TriangleStart-3-9)"
           d="M 80.235089,42.978899 H 65.84099"
           id="path423-4-8-7" /></g></g></g></svg>
