<?xml version="1.0" encoding="UTF-8" standalone="no"?>
<!-- Created with Inkscape (http://www.inkscape.org/) -->

<svg
   width="170mm"
   height="80mm"
   viewBox="0 0 170 80"
   version="1.1"
   id="svg22531"
   inkscape:version="1.2 (dc2aedaf03, 2022-05-15)"
   sodipodi:docname="migration_unidirectional.svg"
   xmlns:inkscape="http://www.inkscape.org/namespaces/inkscape"
   xmlns:sodipodi="http://sodipodi.sourceforge.net/DTD/sodipodi-0.dtd"
   xmlns="http://www.w3.org/2000/svg"
   xmlns:svg="http://www.w3.org/2000/svg">
  <sodipodi:namedview
     id="namedview22533"
     pagecolor="#ffffff"
     bordercolor="#666666"
     borderopacity="1.0"
     inkscape:showpageshadow="2"
     inkscape:pageopacity="0.0"
     inkscape:pagecheckerboard="0"
     inkscape:deskcolor="#d1d1d1"
     inkscape:document-units="mm"
     showgrid="false"
     inkscape:zoom="0.84096521"
     inkscape:cx="356.73295"
     inkscape:cy="281.81903"
     inkscape:window-width="1920"
     inkscape:window-height="1017"
     inkscape:window-x="-8"
     inkscape:window-y="-8"
     inkscape:window-maximized="1"
     inkscape:current-layer="layer1" />
  <defs
     id="defs22528" />
  <g
     inkscape:label="Layer 1"
     inkscape:groupmode="layer"
     id="layer1">
    <g
       id="g23299"
       transform="translate(-6.9975386,-56.117623)">
      <g
         id="g23211">
        <rect
           style="fill:#5fbcd3;fill-opacity:1;stroke:none;stroke-width:0.264583;stroke-linecap:square;stroke-linejoin:miter;stroke-miterlimit:9.75;stroke-dasharray:0.264583, 0.529166;stroke-dashoffset:0;stroke-opacity:1;paint-order:stroke fill markers"
           id="rect4837-6-67-4"
           width="45"
           height="60"
           x="7.5975971"
           y="75.711868" />
        <rect
           style="fill:#2c89a0;fill-opacity:1;stroke:none;stroke-width:0.264583;stroke-linecap:square;stroke-linejoin:miter;stroke-miterlimit:9.75;stroke-dasharray:0.264583, 0.529166;stroke-dashoffset:0;stroke-opacity:1;paint-order:stroke fill markers"
           id="rect4837-6-6-2-9"
           width="15"
           height="60"
           x="52.597599"
           y="75.711868" />
      </g>
      <g
         id="g23179"
         transform="translate(0,-5)">
        <rect
           style="fill:#d3bc5f;fill-opacity:1;stroke:none;stroke-width:0.264583;stroke-linecap:square;stroke-linejoin:miter;stroke-miterlimit:9.75;stroke-dasharray:0.264583, 0.529166;stroke-dashoffset:0;stroke-opacity:1;paint-order:stroke fill markers"
           id="rect4837-6-0-6-4"
           width="25"
           height="40"
           x="-161.48749"
           y="90.711868"
           transform="scale(-1,1)" />
        <rect
           style="fill:#2c89a0;fill-opacity:1;stroke:none;stroke-width:0.264583;stroke-linecap:square;stroke-linejoin:miter;stroke-miterlimit:9.75;stroke-dasharray:0.264583, 0.529166;stroke-dashoffset:0;stroke-opacity:1;paint-order:stroke fill markers"
           id="rect4837-6-6-2-9-3"
           width="15"
           height="40"
           x="121.48749"
           y="90.711868" />
      </g>
      <path
         style="fill:#aa0000;stroke-width:1"
         d="m 67.3917,93.53428 c 8.6733,-5.10384 19.7352,-5.49407 29.4572,-3.70377 5.7684,1.01018 11.2024,3.01427 16.12,5.68804 1.5804,-0.96697 1.2672,-3.79431 1.8837,-5.45393 3.0298,5.007 5.9652,10.08488 9.4622,14.86265 -6.0188,-2.31677 -12.7392,-2.76662 -19.2023,-3.76867 0.6575,-1.02505 5.2164,-1.74046 5.5998,-3.25216 -5.1579,-2.65057 -11.2631,-4.00322 -17.3953,-3.5697 -11.7042,0.69889 -22.7185,5.66676 -31.6819,12.20983 -0.8329,0.59171 0.8624,-0.83846 1.1334,-1.12964 2.3552,-2.29147 5.1839,-4.5399 6.1653,-7.54414 0.3101,-2.04023 -2.4895,-2.0093 -4.1639,-1.94593 -1.724,0.19166 1.1662,-1.31781 1.4627,-1.66651 0.3807,-0.24879 0.7667,-0.49146 1.159,-0.72607 z"
         id="path4867-7-3-3"
         inkscape:connector-curvature="0" />
      <text
         xml:space="preserve"
         style="font-style:normal;font-variant:normal;font-weight:normal;font-stretch:normal;font-size:6.35px;line-height:1.25;font-family:Arial;-inkscape-font-specification:Arial;text-align:center;letter-spacing:0px;word-spacing:0px;text-anchor:middle;stroke-width:0.264583"
         x="37.484428"
         y="61.146351"
         id="text21184"><tspan
           sodipodi:role="line"
           id="tspan21182"
           style="font-style:normal;font-variant:normal;font-weight:normal;font-stretch:normal;font-size:6.35px;font-family:Arial;-inkscape-font-specification:Arial;text-align:center;text-anchor:middle;stroke-width:0.264583"
           x="37.484428"
           y="61.146351">População fonte</tspan><tspan
           sodipodi:role="line"
           style="font-style:normal;font-variant:normal;font-weight:normal;font-stretch:normal;font-size:6.35px;font-family:Arial;-inkscape-font-specification:Arial;text-align:center;text-anchor:middle;stroke-width:0.264583"
           x="37.484428"
           y="69.083847"
           id="tspan23205">(continente)</tspan></text>
      <text
         xml:space="preserve"
         style="font-style:normal;font-variant:normal;font-weight:normal;font-stretch:normal;font-size:6.35px;line-height:1.25;font-family:Arial;-inkscape-font-specification:Arial;text-align:center;letter-spacing:0px;word-spacing:0px;text-anchor:middle;stroke-width:0.264583"
         x="141.36037"
         y="61.068836"
         id="text21184-1"><tspan
           sodipodi:role="line"
           id="tspan21182-6"
           style="font-style:normal;font-variant:normal;font-weight:normal;font-stretch:normal;font-size:6.35px;font-family:Arial;-inkscape-font-specification:Arial;text-align:center;text-anchor:middle;stroke-width:0.264583"
           x="141.36037"
           y="61.068836">População dreno</tspan><tspan
           sodipodi:role="line"
           style="font-style:normal;font-variant:normal;font-weight:normal;font-stretch:normal;font-size:6.35px;font-family:Arial;-inkscape-font-specification:Arial;text-align:center;text-anchor:middle;stroke-width:0.264583"
           x="141.36037"
           y="69.006332"
           id="tspan23207">(ilha)</tspan></text>
      <text
         xml:space="preserve"
         style="font-size:6.35px;line-height:1.25;font-family:Cambria;-inkscape-font-specification:Cambria;letter-spacing:0px;word-spacing:0px;stroke-width:0.264583"
         x="90.395905"
         y="83.568451"
         id="text20038-6"><tspan
           sodipodi:role="line"
           id="tspan20036-1"
           style="font-style:italic;font-size:6.35px;stroke-width:0.264583"
           x="90.395905"
           y="83.568451">m</tspan></text>
      <text
         xml:space="preserve"
         style="font-size:6.35px;line-height:1.25;font-family:Cambria;-inkscape-font-specification:Cambria;letter-spacing:0px;word-spacing:0px;stroke-width:0.264583"
         x="35.726395"
         y="107.82802"
         id="text20038-7-1-4"><tspan
           sodipodi:role="line"
           id="tspan20036-0-8-9"
           style="font-size:6.35px;stroke-width:0.264583"
           x="35.726395"
           y="107.82802"><tspan
             style="font-style:italic"
             id="tspan23086">P</tspan></tspan></text>
      <text
         xml:space="preserve"
         style="font-size:6.35px;line-height:1.25;font-family:Cambria;-inkscape-font-specification:Cambria;letter-spacing:0px;word-spacing:0px;stroke-width:0.264583"
         x="124.51024"
         y="107.82802"
         id="text20038-7-1-0-1-1"><tspan
           sodipodi:role="line"
           id="tspan20036-0-8-1-8-3"
           style="font-size:6.35px;stroke-width:0.264583"
           x="124.51024"
           y="107.82802"><tspan
             style="font-style:italic"
             id="tspan21573-9-4">mP</tspan></tspan></text>
      <path
         style="fill:#aa0000;fill-opacity:1;stroke:none;stroke-width:0.39661;stroke-linecap:butt;stroke-linejoin:miter;stroke-miterlimit:10;stroke-dasharray:0.39661, 0.39661;stroke-dashoffset:0;stroke-opacity:1;paint-order:markers stroke fill"
         d="m 160.54787,118.46819 c 3.7276,-0.01 8.164,-1.38467 11.3879,-3.52943 1.2238,-0.81415 2.8577,-2.39451 3.3969,-3.28528 1.1983,-1.97967 1.3857,-3.96068 0.5597,-5.91767 -1.1544,-2.73474 -4.2274,-5.50529 -8.8183,-7.95047 -0.4639,-0.24706 -0.8576,-0.51853 -0.875,-0.60327 -0.027,-0.13298 0.1516,-0.42344 0.6469,-1.04974 0.7401,-0.93578 2.0534,-2.6684 2.1272,-2.80622 0.079,-0.14663 0.047,-0.37071 -0.052,-0.37071 -0.015,0 -0.44,0.17934 -0.9451,0.39844 -2.009,0.87132 -4.1607,1.49796 -6.52,1.89891 -1.0445,0.17751 -1.6935,0.2186 -3.5594,0.22498 -1.2552,0.004 -2.5946,-0.0251 -2.9766,-0.0651 -1.0668,-0.11189 -1.0949,-0.003 -0.1861,0.72652 1.0671,0.85611 3.3204,3.13217 4.1171,4.15846 1.4038,1.80858 2.7048,4.03492 3.5641,6.09962 0.2257,0.54229 0.4716,1.0736 0.5465,1.18055 0.1328,0.18965 0.1384,0.18854 0.2255,-0.0453 0.078,-0.20873 0.1987,-1.06918 0.3754,-2.67078 0.1391,-1.26098 0.2591,-2.0416 0.324,-2.10838 0.1,-0.10293 1.8211,0.92858 2.49,1.49235 2.7558,2.32278 3.2,4.69514 1.382,7.37957 -1.8079,2.66962 -6.0853,5.24421 -9.7902,5.89267 -1.0481,0.18344 -1.2515,0.32621 -0.7415,0.52052 0.877,0.33411 1.65,0.43415 3.3213,0.42981 z"
         id="rect5984-0"
         inkscape:connector-curvature="0" />
      <text
         xml:space="preserve"
         style="font-size:6.35px;line-height:1.25;font-family:Cambria;-inkscape-font-specification:Cambria;letter-spacing:0px;word-spacing:0px;stroke-width:0.264583"
         x="137.28897"
         y="107.26216"
         id="text20038-7-1-4-3"><tspan
           sodipodi:role="line"
           id="tspan20036-0-8-9-5"
           style="font-size:6.35px;stroke-width:0.264583"
           x="137.28897"
           y="107.26216"><tspan
             style="font-style:italic"
             id="tspan21571-0-1"><tspan
   style="font-style:normal"
   id="tspan21910-16">(1 −</tspan> m<tspan
   style="font-style:normal"
   id="tspan21908-2">)</tspan>p</tspan><tspan
             style="font-size:65%;baseline-shift:sub"
             id="tspan21148-5-5" /></tspan></text>
    </g>
  </g>
</svg>
