<?xml version="1.0" encoding="UTF-8" standalone="no"?>
<!-- Created with Inkscape (http://www.inkscape.org/) -->

<svg
   width="172mm"
   height="72mm"
   viewBox="0 0 172 72"
   version="1.1"
   id="svg5"
   xml:space="preserve"
   inkscape:version="1.2 (dc2aedaf03, 2022-05-15)"
   sodipodi:docname="migration_bettles.svg"
   xmlns:inkscape="http://www.inkscape.org/namespaces/inkscape"
   xmlns:sodipodi="http://sodipodi.sourceforge.net/DTD/sodipodi-0.dtd"
   xmlns="http://www.w3.org/2000/svg"
   xmlns:svg="http://www.w3.org/2000/svg"><sodipodi:namedview
     id="namedview7"
     pagecolor="#ffffff"
     bordercolor="#666666"
     borderopacity="1.0"
     inkscape:showpageshadow="2"
     inkscape:pageopacity="0.0"
     inkscape:pagecheckerboard="0"
     inkscape:deskcolor="#d1d1d1"
     inkscape:document-units="mm"
     showgrid="false"
     inkscape:zoom="0.5946522"
     inkscape:cx="438.91202"
     inkscape:cy="110.98925"
     inkscape:window-width="1920"
     inkscape:window-height="1017"
     inkscape:window-x="-8"
     inkscape:window-y="-8"
     inkscape:window-maximized="1"
     inkscape:current-layer="layer1" /><defs
     id="defs2" /><g
     inkscape:label="Layer 1"
     inkscape:groupmode="layer"
     id="layer1"><g
       id="g18811"
       transform="translate(14.738837,-15.754763)"><rect
         style="fill:#b3b3b3;fill-opacity:1;stroke:none;stroke-width:0.264583;stroke-linecap:square;stroke-linejoin:miter;stroke-miterlimit:9.75;stroke-dasharray:0.264583, 0.529166;stroke-dashoffset:0;stroke-opacity:1;paint-order:stroke fill markers"
         id="rect4837-4-0"
         width="60"
         height="60"
         x="-8.0265093"
         y="21.667816" /><rect
         style="fill:#b3b3b3;fill-opacity:1;stroke:none;stroke-width:0.264583;stroke-linecap:square;stroke-linejoin:miter;stroke-miterlimit:9.75;stroke-dasharray:0.264583, 0.529166;stroke-dashoffset:0;stroke-opacity:1;paint-order:stroke fill markers"
         id="rect4837-72-8"
         width="60"
         height="60"
         x="90.863503"
         y="21.667816" /><path
         style="fill:#2c89a0;fill-opacity:1;stroke:none;stroke-width:0.264583px;stroke-linecap:butt;stroke-linejoin:miter;stroke-opacity:1"
         d="m -6.8748,48.42639 -0.8096,1.84981 0.4068,2.06298 1.6391,1.91902 2.0482,1.71703 1.9542,0.91899 2.9277,0.12195 2.5843,-0.9506 L 5.1026,54.91423 5.9367,53.47728 6.3508,51.57925 6.0592,49.61286 5.3169,47.50826 4.298,46.30541 2.5661,44.67914 0.5932,43.54835 l -1.9583,-0.29021 -1.726,0.73283 -2.0922,2.36578 z"
         id="path4670-43-9"
         inkscape:connector-curvature="0" /><path
         style="fill:#000000;stroke-width:1"
         d="m -11.9206,43.75449 0.4879,0.43064 c 0.3049,0.2687 0.8833,0.38729 1.538,0.31556 1.2512,-0.13712 1.3198,-0.0966 1.1129,0.65446 -0.088,0.31974 -0.015,0.8309 0.1634,1.13634 0.3223,0.55312 0.3266,0.5508 1.1465,-0.66537 0.1452,-0.21549 0.3179,-0.44048 0.4953,-0.66165 l -1.3203,-1.10685 c -0.621,0.27452 -2.2249,0.36057 -2.9757,0.11169 z m -2.471,4.51607 c -0.021,0.0234 -0.034,0.0471 -0.037,0.0704 -0.031,0.21558 0.4096,0.29834 1.2498,0.23451 0.9351,-0.071 1.6068,0.0754 2.404,0.5244 0.6086,0.34278 1.3518,0.56287 1.6515,0.48898 0.6476,-0.15969 0.8207,-0.33171 0.7004,-0.69546 -0.049,-0.14809 -0.3187,-0.17705 -0.5996,-0.0643 -0.3381,0.13574 -0.8619,-0.009 -1.5494,-0.42973 -0.7987,-0.48842 -1.3573,-0.60692 -2.4229,-0.5132 -0.6804,0.0598 -1.2472,0.22001 -1.3964,0.38436 z m 7.7187,-3.05146 c -1.0841,1.36057 -1.6893,3.19528 -1.2432,3.82374 0.1651,0.23252 0.2159,0.62768 0.1128,0.87815 -0.2851,0.69303 0.088,2.32109 0.7033,3.07041 0.3378,0.41118 0.4964,0.92108 0.4121,1.32391 -0.1669,0.79781 0.7117,2.08827 2.3672,3.47612 0.9666,0.8103 1.1625,1.09322 1.0942,1.58012 -0.1034,0.73697 0.1192,0.95255 0.5065,0.49065 0.387,-0.4617 0.2669,-1.08134 -0.1714,-1.53547 -0.6882,-0.78838 -1.5562,-1.60874 -2.2185,-2.26036 -0.7449,-0.75694 -1.0787,-1.31304 -0.994,-1.45835 0.066,-0.11302 0.3848,0.0225 0.9604,0.50501 0.6812,0.57111 0.6052,0.62252 0.9861,1.37357 0.7711,0.9985 2.2621,1.78953 3.3147,2.24939 1.3441,0.55301 1.8119,0.84494 1.8385,1.14747 0.02,0.2232 0.1122,0.47028 0.2057,0.54865 0.093,0.0784 0.2692,-0.0352 0.3908,-0.25226 0.3279,-0.58559 -0.6992,-1.49098 -2.4498,-2.15895 -0.8245,-0.31458 -1.7772,-0.81806 -2.117,-1.11858 -0.5797,-0.51271 -0.5804,-0.53037 -0.01,-0.28698 3.1433,1.33407 6.252,0.76929 8.1391,-1.47846 z m 0.061,3.62504 c 0.6585,-0.86842 1.4416,-1.21911 2.2487,-0.99561 0.8531,0.23622 8.1739,6.35186 8.4617,7.06863 0.2333,0.58133 0.066,0.8331 -0.8435,1.27002 -1.2603,0.60514 -2.8828,0.78803 -4.3583,0.49079 -1.2461,-0.25105 -1.8097,-0.53267 -3.2304,-1.61233 -2.9292,-2.22618 -3.6892,-3.95883 -2.5523,-5.81811 0.089,-0.14505 0.18,-0.27934 0.2741,-0.4034 z"
         id="path4615-51-0"
         inkscape:connector-curvature="0"
         sodipodi:nodetypes="ccccccccccccccccccccccccsscscccsccssccccccccccccccc" /><path
         style="fill:#000000;stroke-width:1"
         d="m -9.0524,40.33316 0.5092,0.40533 c 0.3178,0.25326 0.5355,0.80212 0.5791,1.45925 0.083,1.256 0.1353,1.31646 0.8387,0.98158 0.2995,-0.14256 0.8156,-0.15939 1.1474,-0.0375 0.6009,0.22082 0.5994,0.22545 -0.455,1.24503 -0.1868,0.18066 -0.3783,0.38989 -0.5651,0.6032 l -1.3203,-1.10684 c 0.1619,-0.65935 -0.033,-2.25361 -0.4094,-2.94952 z m 4.0154,-3.22131 c 0.02,-0.0249 0.04,-0.0418 0.063,-0.0492 0.2069,-0.0684 0.3653,0.35124 0.4491,1.18972 0.093,0.93311 0.3547,1.56902 0.936,2.27558 0.4437,0.53936 0.7902,1.2328 0.7697,1.5408 -0.044,0.66546 -0.1833,0.866 -0.5625,0.81097 -0.1544,-0.0224 -0.23,-0.28281 -0.168,-0.5791 0.075,-0.35667 -0.1596,-0.8471 -0.6935,-1.45065 -0.6204,-0.70122 -0.8346,-1.2305 -0.9283,-2.29608 -0.06,-0.68041 0,-1.26654 0.1347,-1.44208 z m -1.6573,8.13286 c 1.1504,-1.30504 2.8513,-2.22117 3.548,-1.89158 0.2578,0.12199 0.6558,0.10304 0.8844,-0.0422 0.6326,-0.40174 2.3008,-0.31877 3.146,0.15651 0.4638,0.26082 0.9936,0.32799 1.3755,0.17468 0.7565,-0.30364 2.1805,0.33628 3.836,1.72414 0.9666,0.81029 1.2793,0.95386 1.7469,0.80155 0.7076,-0.23047 0.9587,-0.0489 0.5714,0.41306 -0.387,0.4617 -1.0181,0.45162 -1.5418,0.0993 C 5.9757,46.14013 5.0165,45.4287 4.2592,44.89028 3.3839,44.289 2.7781,44.05733 2.6498,44.16614 c -0.1,0.0846 0.089,0.37492 0.6649,0.85747 0.6812,0.5711 0.7186,0.4872 1.5246,0.73123 1.1177,0.58493 2.1569,1.91502 2.7934,2.87115 0.7792,1.22693 1.1483,1.63663 1.4508,1.61002 0.2232,-0.0196 0.4826,0.0283 0.5761,0.1067 0.093,0.0784 0.012,0.27127 -0.1801,0.42888 -0.5194,0.4251 -1.5902,-0.42823 -2.5535,-2.0354 -0.4536,-0.75694 -1.1157,-1.6071 -1.4709,-1.88923 -0.606,-0.48131 -0.6235,-0.47889 -0.2838,0.0433 1.8623,2.86221 1.8488,6.02175 -0.035,8.27226 z m 3.58,-0.57274 c -0.7401,0.79994 -0.9487,1.63224 -0.5878,2.38796 0.3815,0.7988 7.6812,6.93974 8.4372,7.09793 0.6131,0.12829 0.8319,-0.08 1.1033,-1.05224 C 6.2142,51.75905 6.1111,50.12957 5.5609,48.72858 5.0961,47.54537 4.7205,47.0396 3.4094,45.8292 c -2.7033,-2.49563 -4.542,-2.94157 -6.1743,-1.49757 -0.1273,0.11266 -0.2436,0.22604 -0.3494,0.34032 z"
         id="path4615-3-5-0"
         inkscape:connector-curvature="0"
         sodipodi:nodetypes="ccccccccccccccccccccccccsscscccsccssccccccccccccccc" /><path
         style="fill:#2c89a0;fill-opacity:1;stroke:none;stroke-width:0.264583px;stroke-linecap:butt;stroke-linejoin:miter;stroke-opacity:1"
         d="m 23.8289,26.84349 -0.074,-2.01786 -1.2624,-1.68155 -2.3099,-1.0166 -2.5907,-0.65697 -2.1595,0.0211 -2.69,1.16178 -1.9149,1.97874 -0.6049,1.56991 -0.1271,1.6566 0.4514,1.88949 1.1167,1.64459 1.5828,1.57325 1.4402,0.64093 2.2664,0.71259 2.2682,0.16162 1.89,-0.58919 1.2364,-1.40977 0.8569,-3.03973 z"
         id="path4670-9-80"
         inkscape:connector-curvature="0" /><path
         style="fill:#000000;stroke-width:1"
         d="m 30.4032,28.86 -0.6266,-0.17596 c -0.3913,-0.1096 -0.9638,0.0348 -1.5223,0.38378 -1.0675,0.667 -1.1469,0.66031 -1.2867,-0.10611 -0.06,-0.32628 -0.3478,-0.75476 -0.6408,-0.95258 -0.5305,-0.35822 -0.5334,-0.35427 -0.7436,1.0973 -0.037,0.25721 -0.095,0.53485 -0.1588,0.81113 l 1.67,0.4235 c 0.4401,-0.51698 1.8474,-1.29113 2.6319,-1.39311 z m 0.2642,-5.14108 c 0.01,-0.0304 0.01,-0.0572 0,-0.0797 -0.065,-0.20777 -0.4985,-0.0908 -1.2276,0.33163 -0.8114,0.47014 -1.4801,0.63006 -2.3932,0.57185 -0.697,-0.0444 -1.4621,0.0802 -1.7,0.27689 -0.5139,0.42509 -0.5952,0.65526 -0.3287,0.93063 0.1084,0.1121 0.3639,0.0211 0.5679,-0.20251 0.2457,-0.26915 0.7805,-0.36598 1.5823,-0.28593 0.9316,0.093 1.4862,-0.0429 2.4053,-0.59011 0.5869,-0.34944 1.0279,-0.73993 1.0909,-0.95274 z m -5.6272,6.10121 c 0.3856,-1.69644 0.1338,-3.6119 -0.541,-3.9842 -0.2497,-0.13774 -0.4672,-0.47159 -0.4831,-0.74198 -0.044,-0.74809 -1.0872,-2.0526 -1.9671,-2.46019 -0.4828,-0.22366 -0.8472,-0.61405 -0.9462,-1.01351 -0.1962,-0.79113 -1.5481,-1.57185 -3.6422,-2.10287 -1.2226,-0.31004 -1.5219,-0.47977 -1.6719,-0.94803 -0.2269,-0.70874 -0.5211,-0.80621 -0.6692,-0.22197 -0.1481,0.58399 0.2292,1.08996 0.8212,1.30863 0.9624,0.4112 2.1005,0.77313 2.9801,1.07239 0.9997,0.35829 1.542,0.71418 1.5288,0.88187 -0.01,0.13043 -0.3563,0.14689 -1.0844,-0.0377 -0.8617,-0.21851 -0.8155,-0.29787 -1.4849,-0.8089 -1.1282,-0.56448 -2.8148,-0.62937 -3.9627,-0.58639 -1.4509,0.0857 -1.9991,0.0259 -2.1545,-0.235 -0.1146,-0.19251 -0.3052,-0.3749 -0.4235,-0.40488 -0.1182,-0.03 -0.2272,0.14864 -0.2425,0.39699 -0.041,0.6699 1.2775,1.03928 3.1445,0.88056 0.8793,-0.0748 1.9561,-0.0351 2.3927,0.088 0.7449,0.21002 0.7531,0.22563 0.1309,0.25549 -3.4108,0.16366 -5.9656,2.02265 -6.6892,4.86698 z m -1.6295,-3.23875 c -0.2159,1.06823 -0.7689,1.72426 -1.593,1.87351 -0.8711,0.15778 -10.1216,-2.17102 -10.6921,-2.69166 -0.4627,-0.42227 -0.4217,-0.72155 0.2081,-1.51033 0.8724,-1.09249 2.2544,-1.96195 3.7125,-2.33511 1.2316,-0.31514 1.8615,-0.30627 3.6101,0.0492 3.6054,0.73292 5.0426,1.96347 4.8261,4.13202 -0.017,0.16917 -0.041,0.32982 -0.072,0.48242 z"
         id="path4615-1-5"
         inkscape:connector-curvature="0"
         sodipodi:nodetypes="ccccccccccccccccccccccccsscscccsccssccccccccccccccc" /><path
         style="fill:#000000;stroke-width:1"
         d="M 29.3058,33.18753 28.6711,33.0436 c -0.3963,-0.0901 -0.8308,-0.4899 -1.1555,-1.06285 -0.6207,-1.09511 -0.6937,-1.12704 -1.1818,-0.51987 -0.2078,0.25848 -0.6654,0.49782 -1.0173,0.53213 -0.6371,0.0621 -0.6377,0.0573 -0.1309,-1.31909 0.09,-0.24388 0.1714,-0.51549 0.247,-0.78877 l 1.67,0.4235 c 0.1406,0.66423 1.0089,2.01545 1.65,2.47892 z m -2.2177,4.64568 c -0.01,0.031 -0.018,0.0551 -0.035,0.0716 -0.1565,0.15148 -0.4815,-0.15771 -0.9212,-0.87657 -0.4893,-0.79998 -1.001,-1.25923 -1.8315,-1.64317 -0.634,-0.29309 -1.2472,-0.76721 -1.3626,-1.05352 -0.2492,-0.61861 -0.211,-0.85969 0.1545,-0.97482 0.1487,-0.0469 0.3299,0.15486 0.4028,0.44867 0.088,0.35368 0.5117,0.69367 1.2548,1.0054 0.8634,0.36217 1.2862,0.74589 1.8334,1.665 0.3495,0.58688 0.5511,1.14035 0.5051,1.35745 z m -2.0397,-8.04546 c -0.4694,1.67519 -1.6036,3.23918 -2.3743,3.24492 -0.2851,0.002 -0.6354,0.192 -0.7782,0.42213 -0.3954,0.63663 -1.934,1.28647 -2.9018,1.2255 -0.5311,-0.0335 -1.0374,0.13613 -1.3148,0.44012 -0.5495,0.60205 -2.1101,0.64417 -4.2042,0.11315 -1.2225,-0.31003 -1.5666,-0.30351 -1.9216,0.0368 -0.5372,0.51494 -0.8423,0.46045 -0.6942,-0.12384 0.1481,-0.58399 0.721,-0.84902 1.3457,-0.75912 1.042,0.0971 2.2151,0.32124 3.131,0.47731 1.0496,0.1614 1.6959,0.10692 1.7642,-0.0468 C 17.1532,34.69836 16.857,34.519 16.1289,34.33436 15.2672,34.11585 15.27,34.20765 14.438,34.33836 13.1771,34.29696 11.6634,33.55027 10.6747,32.96553 9.44,32.1988 8.9296,31.99009 8.6686,32.14547 c -0.1925,0.11462 -0.447,0.18411 -0.5652,0.15413 -0.1183,-0.03 -0.129,-0.23898 -0.024,-0.46457 0.2832,-0.60849 1.6184,-0.30496 3.1841,0.72429 0.7374,0.48475 1.703,0.96297 2.1455,1.06281 0.755,0.1703 0.7697,0.16051 0.2368,-0.16226 -2.9206,-1.76924 -4.2808,-4.62103 -3.5615,-7.46641 z m -2.976,2.07088 c 0.3193,-1.04203 0.1457,-1.88232 -0.5077,-2.40626 -0.6906,-0.55379 -9.933,-2.9146 -10.6827,-2.72871 -0.608,0.15075 -0.7146,0.4334 -0.5367,1.427 0.2463,1.37618 1.0469,2.79913 2.1511,3.82207 0.9325,0.86391 1.4906,1.15631 3.1972,1.6771 3.519,1.07374 5.3689,0.67676 6.212,-1.33289 0.066,-0.15678 0.1213,-0.30943 0.1669,-0.45829 z"
         id="path4615-3-9-0"
         inkscape:connector-curvature="0"
         sodipodi:nodetypes="ccccccccccccccccccccccccsscscccsccssccccccccccccccc" /><path
         style="fill:#2c89a0;fill-opacity:1;stroke:none;stroke-width:0.264583px;stroke-linecap:butt;stroke-linejoin:miter;stroke-opacity:1"
         d="m 17.9492,48.99522 -1.5864,1.24924 -0.6144,2.01093 0.5401,2.46526 0.9962,2.4801 1.2898,1.73212 2.524,1.48841 2.7271,0.38072 1.6248,-0.4366 1.4132,-0.87367 1.2604,-1.47832 0.6704,-1.87142 0.3381,-2.20596 -0.331,-1.54118 -0.7601,-2.2509 -1.2064,-1.92766 -1.5898,-1.17956 -1.8676,-0.16792 -2.9608,1.09925 z"
         id="path4670-7-3"
         inkscape:connector-curvature="0" /><path
         style="fill:#000000;stroke-width:1"
         d="m 15.7034,42.49569 0.2272,0.60989 c 0.1421,0.38073 0.5962,0.75812 1.2073,1.00365 1.168,0.46928 1.2094,0.53733 0.6726,1.10201 -0.2285,0.24039 -0.4048,0.72578 -0.3919,1.07906 0.023,0.63975 0.028,0.63973 1.3248,-0.0459 0.2297,-0.12149 0.4881,-0.23846 0.7488,-0.3498 l -0.6421,-1.59875 c -0.6771,-0.0508 -2.1319,-0.73143 -2.6766,-1.30506 z m -4.3089,2.81669 c -0.03,0.0106 -0.052,0.0254 -0.066,0.0444 -0.1293,0.17533 0.2204,0.45627 0.9914,0.7963 0.8581,0.37839 1.3814,0.82435 1.8725,1.5963 0.3749,0.58929 0.9265,1.13393 1.2256,1.21013 0.6463,0.16461 0.8802,0.0946 0.9456,-0.2829 0.027,-0.1537 -0.1975,-0.30641 -0.4983,-0.33947 -0.3622,-0.0398 -0.7557,-0.4148 -1.1636,-1.10975 -0.4739,-0.80741 -0.9105,-1.17535 -1.8944,-1.59532 -0.6282,-0.26815 -1.2036,-0.39429 -1.4126,-0.31972 z m 8.2455,0.94998 c -1.5978,0.68834 -2.9968,2.0207 -2.8998,2.78529 0.036,0.28289 -0.1057,0.65532 -0.3147,0.82754 -0.5783,0.47661 -1.0174,2.08807 -0.8281,3.03912 0.1039,0.52189 0,1.04632 -0.2611,1.36177 -0.5235,0.62475 -0.3574,2.17708 0.4478,4.18172 0.4701,1.1704 0.5094,1.51228 0.2195,1.90939 -0.4388,0.60107 -0.3441,0.89617 0.2152,0.67152 0.559,-0.22456 0.7454,-0.82758 0.5731,-1.43477 -0.235,-1.01979 -0.6134,-2.15255 -0.8901,-3.03952 -0.2997,-1.01878 -0.3318,-1.6666 -0.1886,-1.75476 0.1115,-0.0686 0.3287,0.20127 0.6087,0.89828 0.3313,0.82491 0.24,0.83436 0.2216,1.67631 0.209,1.24413 1.1506,2.64492 1.8619,3.54689 0.9243,1.12159 1.1992,1.59967 1.0799,1.87899 -0.088,0.20606 -0.1229,0.46756 -0.077,0.58077 0.045,0.11323 0.254,0.096 0.4636,-0.0381 0.5653,-0.36169 0.087,-1.64451 -1.1419,-3.05922 -0.5787,-0.66629 -1.1812,-1.55959 -1.3391,-1.98485 -0.2694,-0.72554 -0.2616,-0.74142 0.1293,-0.25631 2.1424,2.65896 5.15,3.62722 7.8742,2.53531 z m -1.6561,3.22522 c 0.9902,-0.45517 1.8462,-0.39504 2.4525,0.18274 0.6408,0.61068 4.2116,9.45631 4.1272,10.22407 -0.068,0.62266 -0.3343,0.76594 -1.3428,0.72202 -1.3967,-0.0608 -2.9136,-0.66484 -4.0745,-1.6229 -0.9804,-0.80914 -1.3445,-1.3233 -2.088,-2.9454 -1.5329,-3.3446 -1.3858,-5.2309 0.4936,-6.33412 0.1467,-0.0861 0.2906,-0.16139 0.432,-0.22641 z"
         id="path4615-58-9"
         inkscape:connector-curvature="0"
         sodipodi:nodetypes="ccccccccccccccccccccccccsscscccsccssccccccccccccccc" /><path
         style="fill:#000000;stroke-width:1"
         d="m 19.8463,40.83166 0.2578,0.59758 c 0.1608,0.37322 0.094,0.95988 -0.1776,1.5599 -0.5189,1.14685 -0.5017,1.22461 0.2765,1.26111 0.3313,0.0155 0.7944,0.24414 1.0294,0.50817 0.4257,0.47812 0.4222,0.48148 -0.9884,0.88321 -0.25,0.0712 -0.5175,0.16538 -0.7828,0.26537 l -0.6421,-1.59874 c 0.4537,-0.50503 1.0335,-2.00289 1.0301,-2.79394 z m 5.06,-0.94652 c 0.029,-0.0127 0.055,-0.0179 0.079,-0.0138 0.2146,0.0372 0.1564,0.482 -0.1652,1.26088 -0.3579,0.86679 -0.4273,1.55082 -0.248,2.44803 0.1369,0.68489 0.1153,1.45975 -0.048,1.7217 -0.3529,0.56594 -0.5701,0.67714 -0.8785,0.44976 -0.1256,-0.0926 -0.069,-0.35785 0.125,-0.58985 0.234,-0.27931 0.2588,-0.82226 0.073,-1.6063 -0.2162,-0.91091 -0.1554,-1.47864 0.2645,-2.46245 0.2682,-0.62819 0.5965,-1.11731 0.799,-1.20805 z m -5.2973,6.38967 c 1.6299,-0.60814 3.5619,-0.61368 4.0207,0.006 0.1698,0.22912 0.5296,0.40014 0.7998,0.37991 0.7473,-0.0558 2.1791,0.80413 2.7002,1.6219 0.286,0.44875 0.7214,0.75785 1.1305,0.80281 0.8102,0.089 1.7641,1.32498 2.5693,3.32961 0.4701,1.17041 0.6781,1.44451 1.1622,1.53073 0.7327,0.13053 0.8685,0.40911 0.3091,0.63378 -0.559,0.22456 -1.1108,-0.082 -1.4063,-0.63967 -0.5357,-0.89901 -1.046,-1.97879 -1.4598,-2.81071 -0.4882,-0.94306 -0.9132,-1.4331 -1.0776,-1.39766 -0.1279,0.0275 -0.098,0.3727 0.1818,1.0697 0.3314,0.82491 0.4039,0.76855 0.9995,1.3639 0.7097,1.04299 0.9986,2.70595 1.109,3.8493 0.1083,1.44936 0.2405,1.98472 0.5198,2.10396 0.2061,0.088 0.4122,0.25261 0.4577,0.36581 0.046,0.11323 -0.117,0.24504 -0.3611,0.29321 -0.6585,0.12987 -1.2002,-1.12763 -1.2916,-2.99914 -0.043,-0.88144 -0.2257,-1.94335 -0.4059,-2.35967 -0.3074,-0.71027 -0.324,-0.71638 -0.2707,-0.0957 0.2921,3.4022 -1.21,6.18184 -3.9326,7.27774 z m 3.4269,1.18356 c -1.03,0.35626 -1.6065,0.99176 -1.6446,1.82839 -0.04,0.88431 3.4997,9.74225 4.0918,10.23832 0.4801,0.40233 0.7713,0.32183 1.4691,-0.40745 0.9666,-1.01009 1.6442,-2.49557 1.8198,-3.99045 0.1484,-1.26252 0.056,-1.88569 -0.5295,-3.57138 -1.2066,-3.47566 -2.6176,-4.73614 -4.738,-4.23275 -0.1654,0.0393 -0.3215,0.0844 -0.4686,0.1353 z"
         id="path4615-3-7-68"
         inkscape:connector-curvature="0"
         sodipodi:nodetypes="ccccccccccccccccccccccccsscscccsccssccccccccccccccc" /><path
         style="fill:#2c89a0;fill-opacity:1;stroke:none;stroke-width:0.264583px;stroke-linecap:butt;stroke-linejoin:miter;stroke-opacity:1"
         d="m 44.9382,36.5967 -1.8907,-0.70896 -2.0381,0.5171 -1.8281,1.73992 -1.6044,2.13757 -0.8125,2.00088 0.036,2.92996 1.0882,2.52943 1.2156,1.16308 1.4797,0.75556 1.9176,0.31141 1.9479,-0.39686 2.0616,-0.85451 1.1463,-1.08202 1.5308,-1.81688 1.023,-2.03087 0.1845,-1.97105 -0.8246,-1.6841 -2.4749,-1.96197 z"
         id="path4670-8-5"
         inkscape:connector-curvature="0" /><path
         style="fill:#000000;stroke-width:1"
         d="m 49.332,31.30691 -0.4038,0.51042 c -0.2519,0.31888 -0.3393,0.90283 -0.2324,1.55269 0.2042,1.24209 0.1674,1.31274 -0.5937,1.14648 -0.324,-0.0708 -0.8305,0.0301 -1.1259,0.22428 -0.535,0.35159 -0.5324,0.35575 0.7261,1.10904 0.223,0.13348 0.4569,0.29376 0.6873,0.45903 l 1.0343,-1.37794 c -0.3076,-0.6053 -0.4797,-2.20221 -0.2716,-2.96539 z m -4.6425,-2.2245 c -0.024,-0.0201 -0.049,-0.0315 -0.072,-0.0336 -0.217,-0.0196 -0.2759,0.42506 -0.167,1.26063 0.1213,0.9299 0.011,1.60858 -0.3943,2.42876 -0.3096,0.62609 -0.4894,1.38011 -0.3995,1.67541 0.1943,0.638 0.3754,0.80168 0.7322,0.66193 0.1452,-0.0569 0.1596,-0.3277 0.032,-0.60212 -0.1537,-0.33039 -0.037,-0.86122 0.3458,-1.57032 0.4447,-0.82385 0.533,-1.38795 0.3821,-2.44695 -0.096,-0.67621 -0.2867,-1.23364 -0.4589,-1.37373 z m 3.4622,7.54344 c -1.4169,-1.00944 -3.2815,-1.51507 -3.8851,-1.03577 -0.2233,0.17734 -0.6151,0.24936 -0.8708,0.15988 -0.7074,-0.24746 -2.313,0.21244 -3.0281,0.86737 -0.3925,0.35939 -0.8931,0.54521 -1.2999,0.4827 -0.8056,-0.12379 -2.0469,0.823 -3.3437,2.55077 -0.7572,1.00876 -1.0292,1.21962 -1.519,1.17757 -0.7415,-0.0636 -0.9448,0.17028 -0.4627,0.5321 0.4818,0.36166 1.0941,0.20843 1.524,-0.2537 0.7502,-0.72962 1.5227,-1.64044 2.1378,-2.33685 0.7158,-0.78447 1.2531,-1.14776 1.4028,-1.07095 0.1164,0.0597 0,0.38539 -0.4527,0.98613 -0.5336,0.71098 -0.589,0.63778 -1.3185,1.05858 -0.9556,0.82364 -1.6653,2.35505 -2.0679,3.43085 -0.4799,1.37189 -0.7463,1.85476 -1.0469,1.8976 -0.2218,0.0316 -0.4636,0.13725 -0.5368,0.23482 -0.073,0.0976 0.05,0.267 0.2729,0.37672 0.6024,0.29595 1.4512,-0.77839 2.0241,-2.56241 0.2698,-0.84023 0.7213,-1.81861 1.0031,-2.17408 0.4808,-0.60645 0.4984,-0.60807 0.2862,-0.0223 -1.1631,3.21053 -0.432,6.28433 1.914,8.04785 z m -3.6165,0.25583 c 0.9025,0.61081 1.2948,1.37392 1.1151,2.19189 -0.19,0.8646 -5.9031,8.50374 -6.6033,8.82962 -0.568,0.26428 -0.8284,0.11115 -1.3136,-0.77397 -0.672,-1.22592 -0.9419,-2.83621 -0.7245,-4.32558 0.1837,-1.25786 0.4346,-1.83578 1.4363,-3.31245 2.0654,-3.04468 3.7547,-3.89681 5.6724,-2.86153 0.1496,0.0808 0.2886,0.16476 0.4176,0.25202 z"
         id="path4615-19-0"
         inkscape:connector-curvature="0"
         sodipodi:nodetypes="ccccccccccccccccccccccccsscscccsccssccccccccccccccc" /><path
         style="fill:#000000;stroke-width:1"
         d="m 52.9026,33.98691 -0.3773,0.53025 c -0.2358,0.33098 -0.7722,0.57788 -1.426,0.65681 -1.2497,0.15082 -1.3073,0.20584 -0.9351,0.89025 0.1585,0.29135 0.203,0.80583 0.099,1.14374 -0.1881,0.61189 -0.1929,0.61061 -1.2677,-0.38742 -0.1904,-0.17683 -0.4096,-0.35675 -0.6327,-0.53179 l 1.0343,-1.37794 c 0.6671,0.12622 2.2485,-0.15447 2.9232,-0.56748 z m 3.4326,3.83636 c 0.026,0.0182 0.044,0.038 0.053,0.06 0.08,0.20283 -0.3311,0.38364 -1.1638,0.51242 -0.9268,0.14331 -1.5477,0.43854 -2.222,1.057 -0.5147,0.4721 -1.1885,0.85535 -1.4972,0.85149 -0.6668,-0.008 -0.8746,-0.13651 -0.84,-0.51811 0.014,-0.15535 0.27,-0.24484 0.5692,-0.19885 0.3602,0.0553 0.8373,-0.20498 1.4113,-0.7706 0.6668,-0.65716 1.1838,-0.89949 2.2428,-1.05039 0.6762,-0.0964 1.2646,-0.0692 1.4472,0.057 z M 48.125,36.60579 c 1.365,1.07855 2.3713,2.72775 2.0796,3.44116 -0.1079,0.26392 -0.068,0.66032 0.09,0.88081 0.4352,0.61009 0.4421,2.2803 0.013,3.14989 -0.2355,0.47718 -0.2741,1.00978 -0.1005,1.38292 0.3439,0.739 -0.2185,2.19537 -1.5153,3.92314 -0.7572,1.00876 -0.8837,1.32877 -0.7065,1.78744 0.2682,0.69418 0.1004,0.95472 -0.3817,0.59287 -0.4819,-0.36166 -0.5057,-0.99237 -0.1821,-1.53423 0.4911,-0.92416 1.1499,-1.9203 1.6468,-2.70539 0.5533,-0.9064 0.7521,-1.52383 0.6365,-1.64608 -0.09,-0.0951 -0.3695,0.10932 -0.8204,0.71005 -0.5337,0.71098 -0.4479,0.74378 -0.6482,1.56174 -0.524,1.1476 -1.7963,2.25675 -2.7168,2.94382 -1.1832,0.84399 -1.5725,1.2346 -1.5296,1.53526 0.032,0.22182 0,0.48345 -0.076,0.58102 -0.073,0.0976 -0.2702,0.0269 -0.4379,-0.15683 -0.4525,-0.49575 0.342,-1.61088 1.8951,-2.65919 0.7314,-0.49374 1.5448,-1.20054 1.8074,-1.57042 0.448,-0.63105 0.4446,-0.64839 -0.058,-0.28103 -2.7579,2.0135 -5.9136,2.16996 -8.2622,0.40988 z m 0.7644,3.54404 c -0.8385,-0.69606 -1.6809,-0.85961 -2.4161,-0.45853 -0.7771,0.42392 -6.5166,8.04324 -6.6339,8.80667 -0.095,0.61914 0.1247,0.82639 1.1101,1.0451 1.3648,0.30289 2.9864,0.11229 4.3558,-0.5125 1.1565,-0.52768 1.6413,-0.93001 2.7794,-2.30427 2.3467,-2.83361 2.6931,-4.69366 1.1634,-6.24591 -0.1194,-0.12108 -0.2388,-0.23113 -0.3586,-0.33056 z"
         id="path4615-3-57-19"
         inkscape:connector-curvature="0"
         sodipodi:nodetypes="ccccccccccccccccccccccccsscscccsccssccccccccccccccc" /><path
         style="fill:#2c89a0;fill-opacity:1;stroke:none;stroke-width:0.264583px;stroke-linecap:butt;stroke-linejoin:miter;stroke-opacity:1"
         d="m 44.1583,70.57498 -1.0377,-1.73222 -1.9166,-0.86481 -2.5139,0.22269 -2.5865,0.67312 -1.8819,1.05935 -1.797,2.31453 -0.724,2.65669 0.2267,1.66708 0.6872,1.51274 1.3062,1.43791 1.7712,0.90268 2.1451,0.61548 1.5707,-0.1326 2.3293,-0.46807 2.0652,-0.95171 1.3719,-1.4272 0.4038,-1.83115 -0.7143,-3.07638 z"
         id="path4670-2-2"
         inkscape:connector-curvature="0" /><path
         style="fill:#000000;stroke-width:1"
         d="m 50.8904,69.17294 -0.6338,0.14785 c -0.3957,0.0926 -0.8277,0.49507 -1.1489,1.07004 -0.6138,1.09895 -0.6865,1.13134 -1.1785,0.52723 -0.2094,-0.25718 -0.6685,-0.49367 -1.0205,-0.52577 -0.6375,-0.0581 -0.6381,-0.0533 -0.1227,1.31988 0.091,0.24331 0.1745,0.51442 0.2519,0.78721 l 1.6673,-0.43391 c 0.1364,-0.66509 0.9963,-2.0217 1.6345,-2.48916 z m -2.2466,-4.63176 c -0.01,-0.031 -0.019,-0.055 -0.036,-0.0714 -0.1575,-0.1505 -0.4806,0.16073 -0.9157,0.88229 -0.4844,0.80302 -0.9932,1.26545 -1.8212,1.65457 -0.6322,0.29704 -1.2425,0.77498 -1.356,1.062 -0.2454,0.62016 -0.2057,0.861 0.1605,0.97385 0.1491,0.0459 0.329,-0.15694 0.4,-0.45118 0.085,-0.35423 0.5074,-0.69685 1.2485,-1.01322 0.8611,-0.36754 1.2815,-0.75388 1.823,-1.67639 0.3458,-0.58905 0.544,-1.14377 0.4966,-1.36057 z m -1.9895,8.05803 c -0.4799,-1.67223 -1.6238,-3.22912 -2.3945,-3.23005 -0.2851,-3.3e-4 -0.6366,-0.18803 -0.7808,-0.41726 -0.3993,-0.63416 -1.942,-1.27438 -2.9094,-1.20738 -0.5308,0.0368 -1.0382,-0.12966 -1.3176,-0.43191 -0.5532,-0.59862 -2.114,-0.631 -4.2047,-0.0869 -1.2206,0.31766 -1.5647,0.31324 -1.9218,-0.0248 -0.5405,-0.51159 -0.8452,-0.45519 -0.6934,0.12812 0.1517,0.58306 0.7262,0.84451 1.3504,0.75071 1.0413,-0.10358 2.213,-0.33505 3.1279,-0.49683 1.0486,-0.16794 1.6953,-0.1175 1.7645,0.0358 0.054,0.11923 -0.2414,0.30044 -0.9683,0.48961 -0.8603,0.22389 -0.8581,0.13209 -1.6909,0.007 -1.2606,0.0492 -2.7696,0.80534 -3.7546,1.39628 -1.2299,0.77442 -1.739,0.98631 -2.001,0.83257 -0.1932,-0.11342 -0.4481,-0.18133 -0.5662,-0.15061 -0.1181,0.0307 -0.1275,0.23979 -0.021,0.46471 0.287,0.60672 1.6202,0.29486 3.1795,-0.74412 0.7344,-0.48934 1.697,-0.97358 2.1388,-1.07617 0.7539,-0.17503 0.7687,-0.16533 0.2379,0.16078 -2.9096,1.78742 -4.252,4.64764 -3.5149,7.48848 z m -2.9888,-2.05228 c 0.3257,1.04002 0.1574,1.88138 -0.4927,2.40937 -0.6872,0.5581 -9.9147,2.97651 -10.6655,2.79534 -0.6089,-0.14696 -0.7173,-0.42893 -0.5456,-1.42363 0.2377,-1.37768 1.0295,-2.8056 2.1272,-3.8354 0.9271,-0.86972 1.4834,-1.1656 3.1868,-1.69703 3.5122,-1.09567 5.3645,-0.71024 6.2201,1.29412 0.067,0.15636 0.1232,0.30866 0.1697,0.45724 z"
         id="path4615-2-9"
         inkscape:connector-curvature="0"
         sodipodi:nodetypes="ccccccccccccccccccccccccsscscccsccssccccccccccccccc" /><path
         style="fill:#000000;stroke-width:1"
         d="m 52.0148,73.49353 -0.6255,0.17982 c -0.3906,0.1121 -0.964,-0.0288 -1.5247,-0.37426 -1.0717,-0.66034 -1.151,-0.65315 -1.2861,0.11413 -0.057,0.32664 -0.343,0.75691 -0.6347,0.95656 -0.5284,0.36152 -0.5312,0.35759 -0.7506,-1.09264 -0.039,-0.25697 -0.098,-0.53426 -0.1638,-0.81013 l 1.6674,-0.43391 c 0.4433,0.51423 1.8554,1.27958 2.6405,1.37666 z m 0.2962,5.13933 c 0.01,0.0304 0.011,0.057 0,0.0796 -0.064,0.20818 -0.4979,0.0939 -1.2296,-0.32396 -0.8144,-0.46507 -1.484,-0.62082 -2.3967,-0.55691 -0.6968,0.0488 -1.4626,-0.071 -1.7017,-0.26628 -0.5166,-0.42188 -0.5993,-0.65153 -0.3346,-0.92856 0.1078,-0.11277 0.3638,-0.0234 0.5692,0.19895 0.2474,0.26762 0.7828,0.36111 1.5841,0.27606 0.931,-0.0988 1.4864,0.0336 2.4089,0.57509 0.5891,0.34578 1.0325,0.73351 1.0968,0.94593 z m -5.6652,-6.06599 c 0.3962,1.69399 0.1564,3.61099 -0.5161,3.9875 -0.2489,0.13925 -0.4642,0.47449 -0.4784,0.74498 -0.039,0.74835 -1.0744,2.05934 -1.9518,2.47241 -0.4814,0.22666 -0.8433,0.61932 -0.9398,1.01939 -0.1913,0.79234 -1.5383,1.58148 -3.629,2.12555 -1.2206,0.31766 -1.5189,0.48922 -1.6659,0.95845 -0.2226,0.71014 -0.5161,0.80945 -0.6679,0.2261 -0.1518,-0.58306 0.2224,-1.09138 0.8131,-1.31373 0.9597,-0.4172 2.0956,-0.78622 2.9733,-1.09096 0.9974,-0.36452 1.5375,-0.72379 1.5232,-0.8914 -0.011,-0.13036 -0.3572,-0.14465 -1.0841,0.0445 -0.8603,0.22388 -0.8136,0.30297 -1.4798,0.81816 -1.1247,0.5715 -2.8109,0.64687 -3.959,0.61109 -1.4514,-0.0766 -1.9992,-0.0135 -2.1529,0.24844 -0.1135,0.19322 -0.303,0.37679 -0.421,0.40751 -0.1181,0.0307 -0.2282,-0.14721 -0.245,-0.39546 -0.045,-0.66964 1.2709,-1.04724 3.1389,-0.90015 0.8798,0.0693 1.9563,0.0229 2.3921,-0.10296 0.7436,-0.21469 0.7517,-0.23035 0.1293,-0.25631 -3.4118,-0.14238 -5.9781,-1.98539 -6.7193,-4.82514 z m -1.6092,3.24885 c -0.2225,-1.06686 -0.7797,-1.71942 -1.6047,-1.86354 -0.872,-0.15234 -10.1078,2.23412 -10.6751,2.75834 -0.46,0.42515 -0.4172,0.72417 0.2176,1.50901 0.8791,1.08702 2.2665,1.94785 3.727,2.3119 1.2334,0.30745 1.8633,0.29465 3.6097,-0.0717 3.6008,-0.7554 5.0302,-1.99489 4.8002,-4.16205 -0.018,-0.16905 -0.043,-0.32956 -0.075,-0.48196 z"
         id="path4615-3-3-4"
         inkscape:connector-curvature="0"
         sodipodi:nodetypes="ccccccccccccccccccccccccsscscccsccssccccccccccccccc" /><path
         style="fill:#2c89a0;fill-opacity:1;stroke:none;stroke-width:0.264583px;stroke-linecap:butt;stroke-linejoin:miter;stroke-opacity:1"
         d="m 12.1993,78.15739 1.5938,-1.23971 0.6265,-2.00721 -0.5254,-2.46845 -0.9813,-2.48603 -1.2793,-1.73983 -2.5151,-1.50352 -2.7248,-0.39708 -1.6273,0.42684 -1.4185,0.86518 -1.2692,1.47073 -0.6816,1.86737 -0.3513,2.20389 0.3218,1.54313 0.7466,2.25543 1.1947,1.93486 1.5827,1.18907 1.8666,0.17913 2.9673,-1.08147 z"
         id="path4670-6-9"
         inkscape:connector-curvature="0" /><path
         style="fill:#000000;stroke-width:1"
         d="m 14.406,84.67027 -0.2235,-0.61124 c -0.1398,-0.38158 -0.5916,-0.76168 -1.2012,-1.01087 -1.1652,-0.47628 -1.2062,-0.54458 -0.6661,-1.10603 0.23,-0.23901 0.4092,-0.72334 0.3984,-1.07669 -0.019,-0.63988 -0.024,-0.63989 -1.325,0.038 -0.2305,0.1201 -0.4895,0.23552 -0.751,0.34529 l 0.6326,1.60257 c 0.6767,0.0549 2.1274,0.74422 2.6687,1.3211 z m 4.3257,-2.79078 c 0.03,-0.0104 0.052,-0.0251 0.067,-0.044 0.1304,-0.17456 -0.2177,-0.45759 -0.9866,-0.80224 -0.8558,-0.38354 -1.3764,-0.83262 -1.8629,-1.60751 -0.3714,-0.59152 -0.9197,-1.13947 -1.2183,-1.21746 -0.6453,-0.16849 -0.8796,-0.0999 -0.9473,0.27723 -0.027,0.15353 0.1956,0.30758 0.4963,0.34245 0.362,0.042 0.7532,0.41932 1.1569,1.1167 0.4691,0.81025 0.9035,1.1808 1.8847,1.60666 0.6266,0.27192 1.2013,0.40151 1.4107,0.3282 z m -8.2396,-0.99943 c 1.6019,-0.67875 3.0088,-2.00269 2.9165,-2.76785 -0.034,-0.2831 0.1095,-0.65467 0.3196,-0.82564 0.5812,-0.47313 1.03,-2.08192 0.8463,-3.0341 -0.1007,-0.52249 0,-1.04631 0.2693,-1.36017 0.5272,-0.6216 0.3704,-2.1749 -0.4227,-4.18433 -0.4631,-1.1732 -0.5004,-1.51532 -0.2081,-1.91068 0.4424,-0.59842 0.3495,-0.89409 -0.2111,-0.6728 -0.5604,0.2212 -0.7504,0.82309 -0.5817,1.43131 0.2289,1.02118 0.6005,2.15619 0.8718,3.04481 0.2936,1.02055 0.3218,1.66856 0.1781,1.75586 -0.1119,0.0679 -0.3275,-0.20325 -0.6033,-0.90192 -0.3264,-0.82688 -0.235,-0.83579 -0.2116,-1.67761 -0.2015,-1.24536 -1.1347,-2.65177 -1.8405,-3.55799 -0.9176,-1.12712 -1.1896,-1.60685 -1.0687,-1.88544 0.089,-0.20553 0.1258,-0.46682 0.081,-0.5803 -0.045,-0.1135 -0.2535,-0.0975 -0.4639,0.0353 -0.5675,0.35829 -0.096,1.64396 1.1236,3.06602 0.5746,0.66975 1.1718,1.56664 1.3271,1.99285 0.265,0.72714 0.2572,0.74297 -0.1308,0.25552 -2.1264,-2.67176 -5.1281,-3.65805 -7.8589,-2.5825 z m 1.6754,-3.21523 C 11.1746,78.11405 10.319,78.04878 9.7162,77.46738 9.079,76.85286 5.5614,67.98597 5.6503,67.21873 c 0.072,-0.62224 0.339,-0.76392 1.3471,-0.71395 1.3964,0.0692 2.9096,0.6823 4.0648,1.64731 0.9755,0.81502 1.3365,1.33135 2.0703,2.95787 1.5127,3.35375 1.3544,5.23913 -0.5317,6.33105 -0.1471,0.0852 -0.2915,0.15965 -0.4333,0.22382 z"
         id="path4615-0-9"
         inkscape:connector-curvature="0"
         sodipodi:nodetypes="ccccccccccccccccccccccccsscscccsccssccccccccccccccc" /><path
         style="fill:#000000;stroke-width:1"
         d="M 10.2532,86.30941 9.999,85.7103 C 9.8405,85.33612 9.911,84.74988 10.186,84.15149 10.7117,83.00778 10.695,82.92991 9.917,82.88874 9.5858,82.87124 9.1241,82.63984 8.8906,82.37441 8.4678,81.89374 8.4714,81.8904 9.8844,81.49715 c 0.2503,-0.0697 0.5184,-0.16227 0.7843,-0.26067 l 0.6326,1.60256 c -0.4568,0.5023 -1.0456,1.99666 -1.0469,2.78771 z m -5.0656,0.91616 c -0.029,0.0126 -0.055,0.0175 -0.079,0.0133 -0.2144,-0.0385 -0.1535,-0.48293 0.1728,-1.25987 0.363,-0.86462 0.4366,-1.54822 0.2627,-2.44649 -0.1328,-0.6857 -0.1066,-1.46042 0.058,-1.72138 0.3562,-0.56381 0.5742,-0.67371 0.8812,-0.44449 0.125,0.0933 0.067,0.35826 -0.1286,0.58909 -0.2357,0.2779 -0.2637,0.8207 -0.082,1.60584 0.2108,0.91219 0.1466,1.47954 -0.2793,2.46082 -0.2719,0.62657 -0.6031,1.11371 -0.8062,1.20323 z m 5.3356,-6.35778 C 8.8896,81.46614 6.9576,81.46009 6.5025,80.83809 6.3342,80.60795 5.9753,80.43477 5.7051,80.45338 4.9575,80.50478 3.5308,79.6362 3.0146,78.81531 2.7313,78.36486 2.2977,78.05315 1.8889,78.00573 1.0793,77.91183 0.1329,76.6702 -0.6603,74.66077 c -0.4631,-1.1732 -0.6695,-1.44855 -1.153,-1.53767 -0.7319,-0.13492 -0.866,-0.41432 -0.3053,-0.63563 0.5604,-0.2212 1.1102,0.0887 1.4025,0.6481 0.5303,0.90221 1.0341,1.98502 1.4428,2.81941 0.4826,0.94598 0.9046,1.43855 1.0693,1.40411 0.128,-0.0268 0.1003,-0.37211 -0.1755,-1.07078 -0.3264,-0.82688 -0.3992,-0.77096 -0.9912,-1.36987 -0.7035,-1.04723 -0.9824,-2.71189 -1.0859,-3.85588 -0.1,-1.44999 -0.2286,-1.98613 -0.5072,-2.10704 -0.2056,-0.0892 -0.4107,-0.25508 -0.4555,-0.36855 -0.045,-0.1135 0.1185,-0.24434 0.3629,-0.29104 0.6592,-0.12592 1.1934,1.13481 1.2735,3.00683 0.038,0.88168 0.2141,1.94468 0.3918,2.36207 0.3031,0.71209 0.3196,0.71831 0.2701,0.0973 -0.2717,-3.40389 1.2471,-6.17447 3.9762,-7.25402 z M 7.1034,79.66369 C 8.1355,79.31362 8.7158,78.68158 8.759,77.84519 8.805,76.96115 5.3177,68.08213 4.7287,67.58251 4.251,67.17732 3.9593,67.25606 3.2571,67.98114 2.2845,68.98542 1.598,70.4668 1.4134,71.9606 c -0.1559,1.26161 -0.067,1.88533 0.5081,3.57449 1.1857,3.48284 2.5891,4.75176 4.7125,4.2611 0.1656,-0.0383 0.322,-0.0825 0.4694,-0.13248 z"
         id="path4615-3-21-0"
         inkscape:connector-curvature="0"
         sodipodi:nodetypes="ccccccccccccccccccccccccsscscccsccssccccccccccccccc" /><path
         style="fill:#d3bc5f;fill-opacity:1;stroke:none;stroke-width:0.264583px;stroke-linecap:butt;stroke-linejoin:miter;stroke-opacity:1"
         d="m 125.5925,23.77247 -1.9381,-0.56659 -1.9941,0.66704 -1.6938,1.8709 -1.4412,2.25082 -0.6617,2.0557 0.2532,2.91922 1.273,2.44162 1.2987,1.06958 1.5318,0.64358 1.9354,0.16813 1.913,-0.54043 1.9924,-1.00526 1.0628,-1.16417 1.3916,-1.92555 0.8694,-2.10124 0.038,-1.97931 -0.9474,-1.61821 -2.6137,-1.77274 z"
         id="path4670-4-9-0"
         inkscape:connector-curvature="0" /><path
         style="fill:#000000;stroke-width:1"
         d="m 129.5813,18.17097 -0.3647,0.53902 c -0.2276,0.33668 -0.2713,0.92553 -0.1165,1.56565 0.2959,1.2235 0.2645,1.29668 -0.5068,1.18741 -0.3284,-0.0465 -0.826,0.0917 -1.1062,0.30728 -0.5074,0.39035 -0.5045,0.3943 0.8064,1.05204 0.2323,0.11656 0.4776,0.25898 0.7196,0.4067 l 0.929,-1.45094 c -0.3516,-0.58079 -0.6419,-2.16051 -0.491,-2.93705 z m -4.7948,-1.87357 c -0.026,-0.0179 -0.051,-0.0279 -0.075,-0.0282 -0.2178,-0.003 -0.2436,0.44436 -0.073,1.26954 0.19,0.91833 0.1306,1.60331 -0.2129,2.45134 -0.2622,0.64736 -0.3855,1.41265 -0.2739,1.70045 0.2411,0.62182 0.4339,0.77159 0.7793,0.60572 0.1406,-0.0675 0.1349,-0.33864 -0.013,-0.60283 -0.1778,-0.31805 -0.1009,-0.85609 0.2282,-1.59166 0.3824,-0.85461 0.4285,-1.42371 0.1994,-2.46858 -0.1463,-0.66718 -0.3776,-1.20893 -0.5597,-1.33585 z m 4.0128,7.26547 c -1.4879,-0.90143 -3.385,-1.26716 -3.9513,-0.74437 -0.2094,0.19346 -0.5949,0.29437 -0.8565,0.22412 -0.7238,-0.19424 -2.2908,0.38363 -2.9553,1.08987 -0.3647,0.38754 -0.8501,0.61003 -1.2604,0.57791 -0.8126,-0.0636 -1.9802,0.97276 -3.1451,2.79207 -0.6802,1.06219 -0.9357,1.29269 -1.4274,1.28712 -0.7441,-0.008 -0.9295,0.23998 -0.4218,0.56502 0.5073,0.32488 1.1065,0.12659 1.5009,-0.36619 0.694,-0.78332 1.3967,-1.749 1.9584,-2.48917 0.6555,-0.83547 1.1644,-1.23766 1.3193,-1.17217 0.1205,0.0509 0.027,0.38446 -0.3781,1.01702 -0.4794,0.74866 -0.5401,0.67976 -1.2363,1.15358 -0.8918,0.89234 -1.4857,2.47225 -1.8074,3.57496 -0.3767,1.40374 -0.6064,1.90505 -0.9031,1.9701 -0.2188,0.048 -0.452,0.17131 -0.5178,0.27406 -0.066,0.10276 0.069,0.26257 0.3001,0.3554 0.6227,0.25039 1.3894,-0.88402 1.8282,-2.70567 0.2066,-0.85794 0.5842,-1.86715 0.8388,-2.24257 0.4345,-0.64048 0.4519,-0.6434 0.2838,-0.0435 -0.9215,3.28804 0.036,6.29906 2.5064,7.88347 z m -3.5875,0.52371 c 0.9454,0.54209 1.3933,1.27397 1.2748,2.10304 -0.1253,0.87632 -5.2552,8.91866 -5.9293,9.29564 -0.5468,0.30573 -0.8178,0.17235 -1.3674,-0.67428 -0.7613,-1.17263 -1.15,-2.75842 -1.0438,-4.25983 0.09,-1.26803 0.2971,-1.86299 1.1863,-3.40998 1.8336,-3.18966 3.4549,-4.1649 5.4443,-3.27491 0.1551,0.0694 0.3,0.14285 0.4351,0.2203 z"
         id="path4615-5-7-6"
         inkscape:connector-curvature="0"
         sodipodi:nodetypes="ccccccccccccccccccccccccsscscccsccssccccccccccccccc" /><path
         style="fill:#000000;stroke-width:1"
         d="m 133.3411,20.57838 -0.3369,0.55681 c -0.2106,0.34758 -0.7271,0.63363 -1.3733,0.7609 -1.2351,0.24322 -1.2884,0.30237 -0.8664,0.95724 0.1797,0.27878 0.2624,0.78853 0.1838,1.13322 -0.1422,0.62417 -0.147,0.62324 -1.2929,-0.2922 -0.2031,-0.1622 -0.4351,-0.32534 -0.6705,-0.48333 l 0.929,-1.45094 c 0.6747,0.0763 2.2309,-0.32105 2.873,-0.78302 z m 3.708,3.57083 c 0.027,0.0163 0.047,0.0346 0.057,0.056 0.094,0.19637 -0.3016,0.40716 -1.1225,0.59743 -0.9136,0.21175 -1.5109,0.55228 -2.1373,1.2191 -0.4783,0.50903 -1.1218,0.94127 -1.4298,0.96035 -0.6657,0.0412 -0.8824,-0.0712 -0.8763,-0.4543 0,-0.15596 0.2512,-0.26421 0.5529,-0.24058 0.3633,0.0284 0.8198,-0.2666 1.3502,-0.87328 0.6161,-0.70487 1.1137,-0.98493 2.1586,-1.21406 0.6672,-0.1463 1.256,-0.16293 1.4475,-0.0507 z m -8.2779,-0.60436 c 1.4413,0.9742 2.5673,2.54411 2.3295,3.27721 -0.088,0.27121 -0.018,0.66352 0.1548,0.87171 0.4793,0.57609 0.6102,2.24117 0.2468,3.14024 -0.1994,0.49335 -0.1983,1.02735 0,1.38656 0.3978,0.71142 -0.055,2.20554 -1.2198,4.02484 -0.6801,1.06221 -0.7826,1.39074 -0.5718,1.83497 0.3191,0.67235 0.171,0.94463 -0.3366,0.61959 -0.5074,-0.32488 -0.578,-0.95207 -0.2955,-1.51648 0.4211,-0.95807 1.0041,-2.00039 1.4413,-2.82021 0.4845,-0.945 0.6368,-1.57548 0.5125,-1.68881 -0.097,-0.0882 -0.3604,0.13646 -0.7654,0.76902 -0.4794,0.74865 -0.3914,0.77498 -0.5304,1.60557 -0.4373,1.18334 -1.6237,2.38392 -2.4907,3.13746 -1.1173,0.92953 -1.4764,1.34798 -1.4114,1.64463 0.048,0.21885 0.034,0.48229 -0.032,0.58502 -0.066,0.10276 -0.2675,0.0469 -0.4484,-0.12387 -0.488,-0.46078 0.2215,-1.63183 1.6924,-2.7926 0.6928,-0.54669 1.4514,-1.31194 1.6858,-1.70031 0.3999,-0.66259 0.3953,-0.67963 -0.079,-0.27591 -2.6008,2.21276 -5.7361,2.60317 -8.2089,1.02238 z m 1.0255,3.47748 c -0.8879,-0.63186 -1.7401,-0.73239 -2.4435,-0.27782 -0.7435,0.48046 -5.9012,8.50501 -5.9615,9.27504 -0.049,0.6245 0.1857,0.81486 1.1846,0.95977 1.3836,0.2007 2.9865,-0.10981 4.3057,-0.83457 1.1141,-0.61212 1.5677,-1.04935 2.6007,-2.50434 2.1297,-3.00008 2.337,-4.88071 0.6962,-6.31507 -0.128,-0.11188 -0.2553,-0.21275 -0.3822,-0.30301 z"
         id="path4615-3-2-6-6"
         inkscape:connector-curvature="0"
         sodipodi:nodetypes="ccccccccccccccccccccccccsscscccsccssccccccccccccccc" /><path
         style="fill:#d3bc5f;fill-opacity:1;stroke:none;stroke-width:0.264583px;stroke-linecap:butt;stroke-linejoin:miter;stroke-opacity:1"
         d="m 135.8341,68.87672 -1.9304,-0.59219 -2.0027,0.64058 -1.7185,1.84831 -1.4709,2.23155 -0.6888,2.04676 0.2145,2.92232 1.2406,2.45826 1.2844,1.08667 1.5231,0.66381 1.933,0.19373 1.92,-0.51505 2.0056,-0.9788 1.0781,-1.15 1.417,-1.90696 0.8971,-2.08955 0.064,-1.97864 -0.9259,-1.6306 -2.59,-1.8072 z"
         id="path4670-4-8-5"
         inkscape:connector-curvature="0" /><path
         style="fill:#000000;stroke-width:1"
         d="m 139.8967,63.32852 -0.3718,0.53414 c -0.2321,0.33365 -0.2835,0.92186 -0.1372,1.56398 0.2797,1.2273 0.2473,1.30006 -0.5225,1.18059 -0.3278,-0.0509 -0.8271,0.0808 -1.1101,0.29261 -0.5126,0.3836 -0.5098,0.38759 0.7924,1.06263 0.2307,0.11962 0.474,0.26527 0.7141,0.41618 l 0.9482,-1.43851 c -0.3439,-0.5854 -0.6133,-2.16881 -0.4522,-2.94329 z m -4.7696,-1.93688 c -0.026,-0.0183 -0.051,-0.0285 -0.074,-0.0292 -0.2177,-0.006 -0.2494,0.4411 -0.09,1.26847 0.1778,0.92076 0.1094,1.6049 -0.2453,2.44831 -0.2707,0.64382 -0.4042,1.40742 -0.2964,1.69667 0.2329,0.62496 0.4236,0.77727 0.7712,0.61598 0.1415,-0.0657 0.1394,-0.33682 0,-0.60294 -0.1736,-0.32038 -0.09,-0.85736 0.2493,-1.5885 0.3936,-0.84948 0.4473,-1.41792 0.232,-2.46573 -0.1375,-0.66906 -0.3616,-1.21382 -0.5419,-1.34314 z m 3.9163,7.31796 c -1.4759,-0.92106 -3.3679,-1.31187 -3.9411,-0.79661 -0.212,0.19066 -0.5987,0.28646 -0.8594,0.21275 -0.7211,-0.2038 -2.2957,0.35327 -2.9695,1.05065 -0.3697,0.38269 -0.8581,0.59872 -1.2679,0.56118 -0.8117,-0.0744 -1.9929,0.94646 -3.1818,2.75018 -0.6941,1.0531 -0.9527,1.2802 -1.4443,1.26812 -0.7439,-0.0182 -0.9326,0.22766 -0.4293,0.55939 0.5031,0.33156 1.1048,0.14123 1.5057,-0.34629 0.7043,-0.77407 1.4197,-1.73036 1.9911,-2.46303 0.6666,-0.82672 1.1807,-1.22213 1.3348,-1.1546 0.1198,0.0525 0.022,0.38478 -0.3916,1.01193 -0.4892,0.74224 -0.549,0.67255 -1.2514,1.13711 -0.9035,0.88045 -1.5184,2.45236 -1.8546,3.55072 -0.3952,1.39863 -0.6316,1.89685 -0.9291,1.95797 -0.2194,0.0451 -0.4543,0.16531 -0.5214,0.26718 -0.067,0.10188 0.066,0.26346 0.2954,0.35934 0.6193,0.25862 1.401,-0.86555 1.8638,-2.68123 0.218,-0.85513 0.6089,-1.85925 0.8685,-2.23127 0.4429,-0.63467 0.4603,-0.63736 0.2843,-0.0398 -0.9649,3.27556 -0.047,6.29899 2.4019,7.91597 z m -3.5941,0.47617 c 0.9382,0.55456 1.3763,1.2923 1.2468,2.11973 -0.1368,0.87458 -5.3728,8.84831 -6.0518,9.21633 -0.5508,0.29846 -0.82,0.16151 -1.3584,-0.69232 -0.7456,-1.18261 -1.1134,-2.7734 -0.9873,-4.27327 0.1066,-1.26674 0.3217,-1.8589 1.2314,-3.39398 1.8756,-3.16511 3.5097,-4.1188 5.4871,-3.20256 0.1542,0.0715 0.2981,0.14682 0.4322,0.22605 z"
         id="path4615-5-5-1"
         inkscape:connector-curvature="0"
         sodipodi:nodetypes="ccccccccccccccccccccccccsscscccsccssccccccccccccccc" /><path
         style="fill:#000000;stroke-width:1"
         d="m 143.6243,65.78549 -0.3443,0.5523 c -0.2151,0.34476 -0.7354,0.62396 -1.3832,0.74266 -1.2381,0.22685 -1.2923,0.28528 -0.8789,0.94568 0.1759,0.28114 0.2518,0.79194 0.1687,1.13555 -0.1504,0.62224 -0.1552,0.62125 -1.2889,-0.30928 -0.2009,-0.16487 -0.4307,-0.33107 -0.6641,-0.49217 l 0.9482,-1.43851 c 0.6736,0.0852 2.2349,-0.29149 2.8831,-0.74492 z m 3.6605,3.61961 c 0.027,0.0166 0.046,0.0352 0.056,0.0567 0.092,0.1976 -0.307,0.40314 -1.1304,0.58252 -0.9162,0.19964 -1.518,0.53223 -2.1532,1.1907 -0.485,0.50266 -1.1341,0.92633 -1.4424,0.94133 -0.6662,0.0324 -0.8813,-0.0829 -0.8701,-0.46585 0,-0.15592 0.2545,-0.26087 0.556,-0.23324 0.3629,0.0333 0.8232,-0.25572 1.3616,-0.85534 0.6254,-0.69665 1.1266,-0.97009 2.1745,-1.18537 0.669,-0.13746 1.258,-0.14629 1.448,-0.0315 z m -8.2693,-0.7139 c 1.4284,0.9932 2.5335,2.57788 2.2859,3.30776 -0.092,0.27002 -0.027,0.66322 0.1433,0.87369 0.4716,0.58238 0.5805,2.24905 0.2053,3.14323 -0.206,0.49066 -0.212,1.02463 -0.016,1.38647 0.3884,0.71662 -0.084,2.20462 -1.2729,4.00835 -0.6942,1.0531 -0.8009,1.38025 -0.596,1.82723 0.3101,0.67652 0.1585,0.94681 -0.3448,0.61508 -0.5031,-0.33156 -0.5654,-0.95964 -0.2754,-1.52025 0.4337,-0.95242 1.0304,-1.98693 1.4785,-2.80089 0.4969,-0.9385 0.6576,-1.56691 0.5348,-1.68188 -0.095,-0.0894 -0.3622,0.13168 -0.7756,0.75882 -0.4892,0.74224 -0.4016,0.76974 -0.5516,1.59841 -0.4529,1.17745 -1.6551,2.36222 -2.5319,3.10421 -1.1295,0.91467 -1.4942,1.32832 -1.4331,1.6258 0.045,0.21947 0.027,0.48269 -0.04,0.58455 -0.067,0.10188 -0.2681,0.0434 -0.4467,-0.1298 -0.4819,-0.4672 0.243,-1.62875 1.7292,-2.76994 0.6999,-0.53748 1.4686,-1.29262 1.7081,-1.67785 0.4087,-0.65724 0.4042,-0.67434 -0.075,-0.27694 -2.6299,2.17814 -5.7701,2.52701 -8.2218,0.91362 z m 0.9794,3.49076 c -0.8795,-0.64356 -1.7302,-0.75537 -2.4396,-0.31015 -0.7497,0.47058 -6.0133,8.42615 -6.0837,9.19531 -0.057,0.6238 0.1748,0.81725 1.1718,0.97537 1.3807,0.21899 2.9877,-0.0703 4.3163,-0.7775 1.1221,-0.59732 1.5815,-1.0285 2.6336,-2.46969 2.1692,-2.97162 2.4014,-4.84934 0.7798,-6.3053 -0.1265,-0.11357 -0.2525,-0.21612 -0.3781,-0.30804 z"
         id="path4615-3-2-2-2"
         inkscape:connector-curvature="0"
         sodipodi:nodetypes="ccccccccccccccccccccccccsscscccsccssccccccccccccccc" /><path
         style="fill:#d3bc5f;fill-opacity:1;stroke:none;stroke-width:0.264583px;stroke-linecap:butt;stroke-linejoin:miter;stroke-opacity:1"
         d="m 142.3994,52.23705 1.0045,1.75166 1.8998,0.90116 2.5177,-0.17477 2.5989,-0.62374 1.9017,-1.02331 1.8407,-2.27989 0.7744,-2.64242 -0.1949,-1.6711 -0.6582,-1.52554 -1.2786,-1.46253 -1.7536,-0.93625 -2.1331,-0.65622 -1.5729,0.10265 -2.3377,0.42363 -2.0831,0.91221 -1.3988,1.4008 -0.4386,1.82313 0.6556,3.08943 z"
         id="path4670-4-0-2"
         inkscape:connector-curvature="0" /><path
         style="fill:#000000;stroke-width:1"
         d="m 135.6418,53.51063 0.6365,-0.13579 c 0.3974,-0.085 0.837,-0.47922 1.1691,-1.04796 0.6346,-1.08708 0.7079,-1.11807 1.1883,-0.50469 0.2045,0.26112 0.659,0.5063 1.0104,0.54511 0.6363,0.0702 0.6369,0.0654 0.1477,-1.31731 -0.087,-0.245 -0.1647,-0.51764 -0.2368,-0.79186 l -1.6753,0.40208 c -0.1491,0.66237 -1.0346,2.00236 -1.6816,2.45758 z m 2.158,4.6737 c 0.01,0.0311 0.017,0.0554 0.034,0.072 0.1546,0.15346 0.4835,-0.15153 0.9324,-0.8647 0.4995,-0.79365 1.017,-1.24631 1.8524,-1.61958 0.6376,-0.28495 1.2569,-0.75118 1.3759,-1.03599 0.2572,-0.61537 0.222,-0.85691 -0.1419,-0.97672 -0.1482,-0.0488 -0.332,0.15063 -0.4086,0.44348 -0.092,0.35253 -0.5205,0.68706 -1.2676,0.98925 -0.8679,0.35108 -1.2956,0.72935 -1.8546,1.64138 -0.3569,0.58235 -0.5656,1.13319 -0.5223,1.35086 z m 2.1427,-8.01868 c 0.4478,1.68107 1.5619,3.25946 2.3324,3.27506 0.2851,0.006 0.6329,0.20013 0.7728,0.43207 0.3872,0.64165 1.9173,1.31113 2.8858,1.26257 0.5315,-0.0267 1.0356,0.1494 1.3092,0.45692 0.5417,0.60904 2.1016,0.67114 4.2023,0.16699 1.2264,-0.29435 1.5704,-0.28342 1.921,0.0614 0.5306,0.52179 0.8363,0.4712 0.6957,-0.11493 -0.1406,-0.58584 -0.71,-0.85819 -1.3359,-0.77629 -1.0431,0.0837 -2.219,0.29284 -3.1368,0.43717 -1.0516,0.14794 -1.6972,0.0852 -1.7635,-0.0694 -0.052,-0.12023 0.2471,-0.29578 0.9775,-0.47107 0.8644,-0.20747 0.8604,-0.11571 1.6907,0.0252 1.2613,-0.0252 2.7844,-0.75249 3.7805,-1.32452 1.2444,-0.75085 1.7575,-0.95301 2.0164,-0.7943 0.1911,0.11708 0.4447,0.18983 0.5633,0.16135 0.1187,-0.0285 0.132,-0.2373 0.03,-0.46421 -0.2754,-0.61207 -1.6143,-0.32567 -3.1931,0.68345 -0.7436,0.47526 -1.7152,0.94108 -2.159,1.03523 -0.757,0.16062 -0.7716,0.15065 -0.2347,-0.16527 2.9431,-1.73169 4.3397,-4.56582 3.6569,-7.42019 z m 2.9491,2.10883 c -0.3059,-1.04603 -0.1215,-1.88404 0.5385,-2.39956 0.6977,-0.5449 9.9695,-2.78714 10.7168,-2.59167 0.606,0.15853 0.709,0.44253 0.5184,1.43377 -0.2639,1.3729 -1.0827,2.78549 -2.1999,3.79419 -0.9435,0.85191 -1.5053,1.13714 -3.2185,1.63603 -3.5324,1.02857 -5.3771,0.60794 -6.1943,-1.41235 -0.064,-0.15761 -0.1173,-0.31095 -0.161,-0.46038 z"
         id="path4615-5-9-4"
         inkscape:connector-curvature="0"
         sodipodi:nodetypes="ccccccccccccccccccccccccsscscccsccssccccccccccccccc" /><path
         style="fill:#000000;stroke-width:1"
         d="m 134.5999,49.1694 0.6288,-0.16788 c 0.3927,-0.10463 0.9633,0.0471 1.5173,0.40323 1.0589,0.68063 1.1384,0.67495 1.288,-0.0896 0.064,-0.32548 0.3574,-0.75023 0.6529,-0.94429 0.5351,-0.3514 0.5379,-0.34741 0.7296,1.10674 0.034,0.25765 0.088,0.53603 0.1483,0.8131 l -1.6753,0.40207 c -0.4334,-0.52257 -1.8307,-1.31468 -2.6138,-1.4267 z m -0.1982,-5.14404 c -0.01,-0.0306 -0.01,-0.0572 0,-0.0797 0.068,-0.20692 0.4997,-0.0844 1.2233,0.34732 0.8053,0.48049 1.4719,0.64897 2.3857,0.60246 0.6975,-0.0355 1.4609,0.0989 1.6962,0.29864 0.5085,0.43164 0.5868,0.66282 0.3168,0.93476 -0.1099,0.1107 -0.3641,0.0164 -0.5653,-0.20976 -0.2421,-0.27228 -0.7757,-0.37595 -1.5785,-0.30618 -0.9327,0.0811 -1.4855,-0.0619 -2.3975,-0.62086 C 134.9,44.63511 134.464,44.239 134.4038,44.0254 Z m 5.5485,6.17278 c -0.3638,-1.70123 -0.087,-3.61331 0.5921,-3.97694 0.2514,-0.13449 0.4731,-0.46557 0.4925,-0.73574 0.054,-0.74746 1.1134,-2.0385 1.9984,-2.43479 0.4857,-0.21745 0.855,-0.60315 0.9591,-1.00131 0.2063,-0.78855 1.5682,-1.55189 3.6688,-2.05605 1.2265,-0.29435 1.528,-0.46019 1.6839,-0.92654 0.236,-0.70577 0.5314,-0.79947 0.6721,-0.21334 0.1406,0.58585 -0.2431,1.08694 -0.838,1.29801 -0.9675,0.39884 -2.1102,0.74617 -2.9936,1.03414 -1.0042,0.34545 -1.5509,0.69437 -1.5399,0.86222 0.01,0.13054 0.3544,0.15143 1.0848,-0.0239 0.8644,-0.20746 0.8193,-0.28743 1.4951,-0.78983 1.1354,-0.54998 2.8227,-0.59322 3.9699,-0.53558 1.4497,0.10426 1.9986,0.0515 2.1573,-0.2074 0.1171,-0.19102 0.3101,-0.37094 0.4287,-0.39941 0.1186,-0.0285 0.2253,0.15153 0.2374,0.40005 0.032,0.67038 -1.2907,1.02285 -3.1555,0.8402 -0.8783,-0.086 -1.9555,-0.0601 -2.3936,0.0574 -0.7475,0.20049 -0.756,0.21599 -0.1342,0.2538 3.4084,0.20733 5.9392,2.09889 6.6263,4.95224 z m 1.6708,-3.21761 c 0.2022,1.07091 0.7468,1.73396 1.569,1.89376 0.8689,0.16893 10.1485,-2.0412 10.7257,-2.55453 0.468,-0.4163 0.4309,-0.71609 -0.1888,-1.51287 -0.8583,-1.10357 -2.2291,-1.99067 -3.6823,-2.38247 -1.2274,-0.33089 -1.8574,-0.33008 -3.6105,0.003 -3.6144,0.68669 -5.0673,1.89872 -4.8786,4.06987 0.015,0.16937 0.037,0.33032 0.065,0.4833 z"
         id="path4615-3-2-7-9"
         inkscape:connector-curvature="0"
         sodipodi:nodetypes="ccccccccccccccccccccccccsscscccsccssccccccccccccccc" /><path
         style="fill:#d3bc5f;fill-opacity:1;stroke:none;stroke-width:0.264583px;stroke-linecap:butt;stroke-linejoin:miter;stroke-opacity:1"
         d="m 121.2447,56.27876 1.9677,0.45324 1.9521,-0.78155 1.5825,-1.96597 1.3082,-2.33061 0.5414,-2.09062 -0.422,-2.89962 -1.4126,-2.36369 -1.3585,-0.99247 -1.5665,-0.55367 -1.9418,-0.0556 -1.8785,0.65046 -1.9308,1.11911 -0.9935,1.22384 -1.2776,2.00301 -0.7461,2.14813 0.077,1.97815 1.0396,1.56054 2.7122,1.6182 z"
         id="path4670-4-3-1"
         inkscape:connector-curvature="0" /><path
         style="fill:#000000;stroke-width:1"
         d="m 117.5875,62.10214 0.3329,-0.55926 c 0.2076,-0.34932 0.2171,-0.9397 0.025,-1.56977 -0.3663,-1.20428 -0.3392,-1.27916 0.4372,-1.2148 0.3305,0.0274 0.8192,-0.13948 1.0864,-0.37091 0.4839,-0.41912 0.4809,-0.4229 -0.866,-1.00351 -0.2387,-0.10289 -0.4918,-0.23085 -0.742,-0.36429 l -0.8433,1.50238 c 0.3847,0.55942 0.7661,2.11964 0.6605,2.90362 z m 4.8954,1.59237 c 0.027,0.0164 0.052,0.0249 0.076,0.0238 0.2176,-0.009 0.2174,-0.45774 -9e-4,-1.27164 -0.2429,-0.90576 -0.2233,-1.59304 0.07,-2.45956 0.2242,-0.66147 0.3029,-1.43262 0.1748,-1.71347 -0.2767,-0.60679 -0.4778,-0.74513 -0.813,-0.55951 -0.1365,0.0756 -0.1151,0.34589 0.048,0.60107 0.1959,0.3072 0.1503,0.8488 -0.1355,1.60221 -0.3322,0.87535 -0.3453,1.44617 -0.056,2.47599 0.1847,0.65758 0.447,1.185 0.6362,1.30115 z m -4.4274,-7.02055 c 1.5377,0.81364 3.4527,1.06874 3.9878,0.51399 0.1979,-0.20528 0.5768,-0.32837 0.8421,-0.27341 0.7338,0.15194 2.2647,-0.51583 2.8872,-1.25941 0.3415,-0.40804 0.8132,-0.6583 1.2247,-0.65003 0.8149,0.0164 1.9205,-1.08595 2.9779,-2.96975 0.6174,-1.09985 0.8591,-1.34479 1.3503,-1.36773 0.7434,-0.0348 0.914,-0.29348 0.3884,-0.58854 -0.5254,-0.29491 -1.1121,-0.0622 -1.4772,0.45262 -0.6474,0.82225 -1.2929,1.82705 -1.8107,2.59854 -0.606,0.87208 -1.0907,1.3031 -1.2492,1.24671 -0.1232,-0.0438 -0.049,-0.38225 0.3186,-1.03724 0.4351,-0.77519 0.4997,-0.70993 1.1673,-1.22333 0.8385,-0.94255 1.3398,-2.55425 1.597,-3.67375 0.2946,-1.42322 0.4949,-1.93701 0.7873,-2.01916 0.2157,-0.0606 0.4414,-0.19724 0.5011,-0.30362 0.06,-0.10641 -0.084,-0.25811 -0.3202,-0.3374 -0.6362,-0.21387 -1.3358,0.9631 -1.6682,2.80713 -0.1565,0.86848 -0.475,1.89788 -0.7074,2.28744 -0.3966,0.66459 -0.4138,0.66852 -0.2808,0.0599 0.7292,-3.33594 -0.4012,-6.28638 -2.9594,-7.72486 z m 3.5511,-0.73087 c -0.9753,-0.48634 -1.4649,-1.19102 -1.3946,-2.02557 0.074,-0.8821 4.7291,-9.20839 5.3803,-9.62383 0.5281,-0.33692 0.8064,-0.21948 1.4042,0.59385 0.828,1.12651 1.308,2.68709 1.289,4.19213 -0.016,1.2711 -0.1885,1.87708 -0.9865,3.47303 -1.6456,3.29063 -3.2076,4.35825 -5.2452,3.58512 -0.159,-0.0603 -0.3079,-0.12522 -0.4472,-0.19471 z"
         id="path4615-5-2-2"
         inkscape:connector-curvature="0"
         sodipodi:nodetypes="ccccccccccccccccccccccccsscscccsccssccccccccccccccc" /><path
         style="fill:#000000;stroke-width:1"
         d="m 113.6944,59.91681 0.3041,-0.57541 c 0.1901,-0.35921 0.6891,-0.67473 1.3268,-0.83926 1.2189,-0.31443 1.2687,-0.37657 0.8094,-1.00586 -0.1955,-0.2679 -0.3076,-0.772 -0.2492,-1.12066 0.1058,-0.63137 0.1106,-0.63072 1.3078,0.21673 0.2121,0.15015 0.4531,0.29956 0.6973,0.44364 l -0.8433,1.50237 c -0.6779,-0.0371 -2.2085,0.44987 -2.8228,0.94831 z m -3.9089,-3.34979 c -0.028,-0.0147 -0.049,-0.0318 -0.06,-0.0526 -0.1055,-0.19057 0.2776,-0.42397 1.086,-0.66153 0.8998,-0.26437 1.4763,-0.63896 2.0631,-1.34099 0.4479,-0.53591 1.0652,-1.00473 1.3717,-1.04164 0.6621,-0.0797 0.8849,0.0199 0.901,0.40272 0.01,0.15584 -0.2353,0.27833 -0.538,0.27223 -0.3643,-0.007 -0.8029,0.31369 -1.2972,0.95011 -0.5743,0.73942 -1.0547,1.04786 -2.0846,1.33719 -0.6575,0.18475 -1.2444,0.2355 -1.4421,0.13454 z m 8.2991,0.1233 c -1.4954,-0.88897 -2.7105,-2.39095 -2.5156,-3.1366 0.072,-0.27586 -0.02,-0.66347 -0.2051,-0.86127 -0.5119,-0.54732 -0.7392,-2.20202 -0.4285,-3.12064 0.1704,-0.50408 0.1384,-1.03712 -0.083,-1.38408 -0.4384,-0.68715 -0.073,-2.20501 0.9844,-4.08881 0.6173,-1.09985 0.7005,-1.43377 0.4643,-1.86503 -0.3574,-0.65272 -0.2255,-0.93312 0.3002,-0.63807 0.5253,0.29491 0.6322,0.91695 0.3829,1.49679 -0.3648,0.98088 -0.8863,2.05525 -1.2753,2.89905 -0.4289,0.9715 -0.5444,1.60976 -0.4137,1.71569 0.1016,0.0824 0.3519,-0.15713 0.7196,-0.81212 0.4351,-0.77519 0.3457,-0.79637 0.4364,-1.63362 0.3679,-1.20671 1.4827,-2.47407 2.3044,-3.27661 1.0616,-0.99277 1.3959,-1.43133 1.3137,-1.72371 -0.061,-0.21571 -0.062,-0.47953 0,-0.58591 0.06,-0.1064 0.2643,-0.0624 0.4549,0.0977 0.5138,0.43171 -0.1265,1.64193 -1.5277,2.88604 -0.6598,0.58595 -1.3728,1.3939 -1.5843,1.79521 -0.3608,0.68466 -0.3552,0.70141 0.095,0.27085 2.4681,-2.35986 5.5755,-2.93142 8.1358,-1.49669 z m -1.2255,-3.41215 c 0.9232,0.5793 1.7797,0.63025 2.4555,0.13565 0.7144,-0.52277 5.3981,-8.83291 5.4137,-9.60514 0.013,-0.62628 -0.2326,-0.80272 -1.2383,-0.88946 -1.3929,-0.12012 -2.9751,0.28282 -4.25,1.08286 -1.0768,0.67569 -1.5043,1.13849 -2.4511,2.65093 -1.9522,3.11853 -2.0501,5.00802 -0.3289,6.34482 0.1343,0.10427 0.2672,0.19759 0.3991,0.28033 z"
         id="path4615-3-2-1-3"
         inkscape:connector-curvature="0"
         sodipodi:nodetypes="ccccccccccccccccccccccccsscscccsccssccccccccccccccc" /><path
         style="fill:#d3bc5f;fill-opacity:1;stroke:none;stroke-width:0.264583px;stroke-linecap:butt;stroke-linejoin:miter;stroke-opacity:1"
         d="m 112.4929,71.42923 -0.725,-1.88458 -1.7398,-1.18087 -2.5148,-0.21198 -2.6637,0.21929 -2.0357,0.72071 -2.1675,1.97185 -1.1691,2.49306 -0.063,1.68125 0.4173,1.6082 1.0402,1.64074 1.5899,1.19321 2.0078,0.97445 1.5702,0.1389 2.3749,-0.0614 2.198,-0.58321 1.5965,-1.17061 0.7119,-1.73471 -0.1758,-3.15333 z"
         id="path4670-4-06-0"
         inkscape:connector-curvature="0" /><path
         style="fill:#000000;stroke-width:1"
         d="m 119.3658,71.20317 -0.6498,0.0369 c -0.4057,0.0233 -0.9004,0.3457 -1.3154,0.85702 -0.7933,0.97734 -0.8705,0.99676 -1.2515,0.31719 -0.1622,-0.2893 -0.5739,-0.60105 -0.9152,-0.6931 -0.6181,-0.16665 -0.6195,-0.16199 -0.3473,1.27926 0.048,0.25537 0.084,0.53674 0.113,0.81875 l 1.7171,-0.14136 c 0.2485,-0.63182 1.3284,-1.82076 2.0373,-2.17178 z m -1.4185,-4.94856 c 0,-0.0317 -0.01,-0.0574 -0.023,-0.0764 -0.1293,-0.17528 -0.501,0.0759 -1.0535,0.71207 -0.615,0.708 -1.1956,1.07627 -2.0781,1.31752 -0.6738,0.18416 -1.357,0.55029 -1.5182,0.81357 -0.3481,0.56885 -0.3503,0.81293 -0.01,0.98694 0.1389,0.0708 0.351,-0.0981 0.4715,-0.37584 0.145,-0.33431 0.6194,-0.59945 1.4039,-0.78394 0.9113,-0.21435 1.3918,-0.52282 2.0836,-1.33872 0.4417,-0.52098 0.7321,-1.03346 0.7226,-1.25519 z m -3.3427,7.59712 c -0.1858,-1.72977 -1.0456,-3.45985 -1.8047,-3.59302 -0.2809,-0.0492 -0.5949,-0.29448 -0.6977,-0.54507 -0.2846,-0.69327 -1.6945,-1.5887 -2.659,-1.6887 -0.5293,-0.0549 -1.0006,-0.30589 -1.2239,-0.65159 -0.4423,-0.68466 -1.9745,-0.9844 -4.1275,-0.80715 -1.257,0.10349 -1.5952,0.0401 -1.889,-0.35417 -0.4447,-0.59674 -0.7546,-0.59347 -0.7051,0.007 0.049,0.60045 0.5705,0.95659 1.2015,0.97129 1.0437,0.0766 2.2377,0.0497 3.1668,0.0473 1.0619,0.0145 1.6903,0.17514 1.7322,0.33805 0.033,0.1267 -0.2894,0.25456 -1.038,0.31619 -0.8859,0.0729 -0.868,-0.0171 -1.667,-0.28327 -1.2503,-0.16781 -2.8667,0.31819 -3.9385,0.73129 -1.3446,0.55188 -1.8825,0.67327 -2.1141,0.47686 -0.1709,-0.14489 -0.4104,-0.25553 -0.532,-0.24552 -0.1216,0.01 -0.1668,0.21434 -0.1006,0.45419 0.1786,0.64695 1.5456,0.5685 3.26,-0.18752 0.8075,-0.35606 1.8389,-0.66794 2.2918,-0.69319 0.7728,-0.043 0.7857,-0.031 0.2067,0.1992 -3.1731,1.26165 -4.9863,3.84909 -4.7477,6.77427 z m -2.5923,-2.5347 c 0.1424,1.08048 -0.1678,1.88049 -0.8989,2.28909 -0.7727,0.4319 -10.2783,1.23105 -10.9869,0.9237 -0.5747,-0.24927 -0.6331,-0.54566 -0.2933,-1.49615 0.4706,-1.31645 1.4957,-2.58733 2.7539,-3.41349 1.0626,-0.69773 1.6613,-0.89377 3.4306,-1.12502 3.6481,-0.47674 5.4069,0.22083 5.9058,2.34227 0.039,0.1655 0.069,0.32522 0.089,0.47958 z"
         id="path4615-5-52-9"
         inkscape:connector-curvature="0"
         sodipodi:nodetypes="ccccccccccccccccccccccccsscscccsccssccccccccccccccc" /><path
         style="fill:#000000;stroke-width:1"
         d="m 119.7321,75.65263 -0.6471,0.0698 c -0.404,0.0434 -0.9447,-0.1938 -1.4378,-0.63035 -0.9425,-0.83443 -1.0219,-0.84096 -1.2866,-0.10823 -0.1126,0.31192 -0.4678,0.68681 -0.7895,0.83344 -0.5825,0.2655 -0.5847,0.26113 -0.5519,-1.20523 0.01,-0.25982 -0.01,-0.5432 -0.022,-0.82622 l 1.717,-0.14136 c 0.3485,0.58267 1.6084,1.57898 2.3651,1.80933 z m -0.5901,5.11393 c 0,0.0315 8e-4,0.058 -0.01,0.0791 -0.099,0.19408 -0.5067,0.007 -1.1559,-0.53017 -0.7224,-0.5979 -1.3554,-0.86625 -2.2656,-0.95991 -0.6947,-0.0715 -1.4287,-0.32095 -1.6307,-0.55433 -0.4365,-0.50426 -0.4785,-0.74469 -0.1702,-0.97219 0.1255,-0.0926 0.3623,0.0394 0.5266,0.29367 0.1977,0.30609 0.7091,0.49007 1.5132,0.54379 0.9341,0.0624 1.4586,0.28814 2.2745,0.97992 0.521,0.44172 0.8913,0.8998 0.9182,1.12009 z m -4.5402,-6.94813 c 0.1,1.73685 -0.4656,3.58426 -1.1927,3.83978 -0.2691,0.0945 -0.5387,0.38781 -0.5992,0.65184 -0.1673,0.73047 -1.4118,1.84444 -2.347,2.10084 -0.5132,0.14068 -0.9371,0.46541 -1.1009,0.84299 -0.3243,0.74777 -1.7868,1.29405 -3.9398,1.4713 -1.2571,0.10349 -1.5804,0.22132 -1.8057,0.65836 -0.3411,0.66143 -0.6474,0.70889 -0.6968,0.10814 -0.05,-0.60045 0.4064,-1.03702 1.0265,-1.15472 1.0171,-0.24631 2.1994,-0.41496 3.1164,-0.56457 1.0452,-0.18795 1.6389,-0.44922 1.6536,-0.61679 0.011,-0.13033 -0.3271,-0.20381 -1.0757,-0.14218 -0.886,0.0729 -0.8536,0.15887 -1.5983,0.5521 -1.206,0.37003 -2.8801,0.15494 -4.0051,-0.0773 -1.4167,-0.32456 -1.9672,-0.35633 -2.1636,-0.12468 -0.1449,0.17089 -0.3631,0.31921 -0.4847,0.32922 -0.1216,0.01 -0.1995,-0.18419 -0.1734,-0.43163 0.07,-0.66746 1.4317,-0.81362 3.2467,-0.34817 0.8549,0.21921 1.9234,0.3582 2.3744,0.30903 0.7693,-0.0839 0.78,-0.0979 0.1713,-0.23032 -3.3367,-0.72571 -5.5488,-2.98176 -5.7917,-5.90658 z m -2.1428,2.92453 c -0.036,-1.08923 -0.4731,-1.82772 -1.2611,-2.11126 -0.833,-0.29972 -10.3413,0.46652 -10.9901,0.88562 -0.5262,0.3399 -0.5353,0.64185 -0.045,1.52396 0.6796,1.22176 1.8987,2.30789 3.275,2.91715 1.1624,0.51455 1.7852,0.61003 3.5685,0.5488 3.6769,-0.12633 5.2979,-1.10214 5.4432,-3.27662 0.011,-0.16963 0.014,-0.33203 0.01,-0.48763 z"
         id="path4615-3-2-0-3"
         inkscape:connector-curvature="0"
         sodipodi:nodetypes="ccccccccccccccccccccccccsscscccsccssccccccccccccccc" /><path
         style="fill:#aa0000;stroke-width:1"
         d="M 101.5629,50.95861 C 94.6505,58.27256 84.1332,61.7228 74.2967,62.70596 68.4748,63.33933 62.698,62.92497 57.2309,61.72379 c -1.2493,1.36822 -0.1624,3.99704 -0.2932,5.76264 -4.3023,-3.9673 -8.5338,-8.02889 -13.2213,-11.64604 6.4257,0.55208 13.0062,-0.88419 19.4931,-1.71849 -0.3466,1.16743 -4.5269,3.12208 -4.4749,4.68077 5.6914,1.1121 11.9321,0.71408 17.7019,-1.40719 11.0486,-3.92533 20.2475,-11.75951 27.0384,-20.53657 0.6356,-0.79997 -0.5953,1.04516 -0.7747,1.4002 -1.6252,2.85591 -3.7173,5.80212 -3.8248,8.96078 0.2693,2.046 2.9499,1.23797 4.5407,0.7116 1.6027,-0.66342 -0.7538,1.59005 -0.9417,2.00744 -0.2965,0.34478 -0.5998,0.68523 -0.9115,1.01968 z"
         id="path4867-2"
         inkscape:connector-curvature="0" /><path
         style="fill:#d3bc5f;fill-opacity:1;stroke:none;stroke-width:0.264583px;stroke-linecap:butt;stroke-linejoin:miter;stroke-opacity:1"
         d="m 72.434,62.98345 1.1237,1.67765 1.9578,0.76702 2.4995,-0.34924 2.5493,-0.80275 1.826,-1.15294 1.6779,-2.40224 0.589,-2.68984 -0.3105,-1.65352 -0.7625,-1.47614 -1.3772,-1.37018 -1.8144,-0.81217 -2.1735,-0.50647 -1.562,0.21167 -2.3027,0.58498 -2.0146,1.0547 -1.2982,1.49459 -0.3108,1.84919 0.8686,3.03643 z"
         id="path4670-4-33-5"
         inkscape:connector-curvature="0" /><path
         style="fill:#000000;stroke-width:1"
         d="m 65.7812,64.72335 0.6255,-0.17968 c 0.3906,-0.11238 0.8017,-0.5362 1.0934,-1.12662 0.5576,-1.12854 0.6287,-1.16455 1.1504,-0.58602 0.2222,0.24628 0.6926,0.4593 1.0458,0.47361 0.6397,0.0259 0.64,0.021 0.056,-1.32439 -0.1035,-0.23839 -0.2004,-0.50495 -0.2913,-0.7735 l -1.6434,0.51748 c -0.1026,0.67113 -0.893,2.06939 -1.5067,2.56845 z m 2.4774,4.51251 c 0.01,0.0305 0.021,0.054 0.039,0.0694 0.1649,0.14235 0.4719,-0.18476 0.8701,-0.92737 0.4432,-0.82643 0.928,-1.31395 1.7354,-1.74435 0.6163,-0.32855 1.2017,-0.83667 1.3007,-1.12906 0.2137,-0.63174 0.1619,-0.87027 -0.2095,-0.9645 -0.1512,-0.0384 -0.3207,0.17332 -0.3767,0.47078 -0.067,0.35809 -0.4716,0.72157 -1.1958,1.07491 -0.8415,0.41053 -1.2419,0.81759 -1.7361,1.76624 -0.3157,0.60575 -0.4856,1.16975 -0.4273,1.38389 z m 1.5805,-8.14814 c 0.5636,1.6459 1.7846,3.14309 2.5543,3.10513 0.2848,-0.0141 0.6453,0.15568 0.801,0.37734 0.4307,0.61321 2.0037,1.17479 2.9665,1.05907 0.5283,-0.0635 1.0435,0.0771 1.3377,0.36488 0.5827,0.56994 2.1432,0.52353 4.2038,-0.12532 1.203,-0.37883 1.5469,-0.39182 1.9206,-0.0722 0.5656,0.48366 0.8671,0.41196 0.686,-0.16298 -0.1809,-0.57467 -0.7679,-0.8068 -1.3865,-0.68163 -1.0348,0.15598 -2.1933,0.44627 -3.0989,0.65401 -1.0388,0.22063 -1.6872,0.20287 -1.7641,0.0533 -0.06,-0.11636 0.226,-0.31223 0.9424,-0.53784 0.8479,-0.26701 0.8503,-0.17519 1.6884,-0.0923 1.2565,-0.11278 2.7254,-0.9441 3.6794,-1.58393 1.1893,-0.83548 1.687,-1.07279 1.9564,-0.93246 0.1987,0.10353 0.4567,0.15849 0.5731,0.12184 0.1164,-0.0366 0.1152,-0.2459 0,-0.46517 -0.3172,-0.59147 -1.633,-0.21275 -3.1379,0.9036 -0.7087,0.52576 -1.6457,1.05795 -2.0818,1.1827 -0.7441,0.21282 -0.7593,0.20389 -0.2456,-0.14857 2.8156,-1.93194 4.012,-4.85624 3.1326,-7.65628 z m 3.0885,1.89888 c -0.3778,-1.02226 -0.2521,-1.87105 0.3705,-2.43117 0.6581,-0.59205 9.7519,-3.47292 10.5109,-3.32983 0.6156,0.11605 0.738,0.39221 0.6168,1.39429 -0.168,1.38793 -0.8867,2.85398 -1.9311,3.93785 -0.882,0.91538 -1.4226,1.23894 -3.097,1.85563 -3.4525,1.27147 -5.3219,0.97999 -6.2775,-0.97866 -0.075,-0.15279 -0.1387,-0.30205 -0.1926,-0.44808 z"
         id="path4615-5-91-0"
         inkscape:connector-curvature="0"
         sodipodi:nodetypes="ccccccccccccccccccccccccsscscccsccssccccccccccccccc" /><path
         style="fill:#000000;stroke-width:1"
         d="m 64.4403,60.46498 0.6156,-0.21115 c 0.3844,-0.13166 0.9642,-0.0199 1.5416,0.29686 1.1036,0.60543 1.1825,0.59425 1.2787,-0.17887 0.041,-0.32912 0.3044,-0.77325 0.5857,-0.98736 0.5094,-0.38772 0.5125,-0.38394 0.8047,1.05339 0.052,0.25467 0.1251,0.52861 0.2044,0.80083 l -1.6433,0.51747 c -0.4687,-0.4912 -1.9176,-1.18434 -2.7066,-1.24169 z m -0.5552,-5.11784 c -0.01,-0.0299 -0.014,-0.0564 -0.01,-0.0794 0.053,-0.21115 0.4925,-0.11894 1.2444,0.26152 0.8368,0.42339 1.5134,0.54515 2.4218,0.43528 0.6934,-0.0839 1.4643,-0.003 1.7129,0.18009 0.5372,0.39528 0.6314,0.62047 0.381,0.9105 -0.102,0.11806 -0.3622,0.0417 -0.5785,-0.16999 -0.2605,-0.2548 -0.8,-0.32115 -1.596,-0.19579 -0.9248,0.14567 -1.4862,0.0415 -2.4349,-0.45282 -0.6057,-0.31562 -1.0682,-0.68048 -1.1431,-0.88939 z m 5.964,5.77245 c -0.4812,-1.67184 -0.3383,-3.59851 0.3143,-4.00846 0.2415,-0.15163 0.4397,-0.49731 0.4402,-0.76817 0,-0.74939 0.9692,-2.11092 1.8245,-2.56773 0.4694,-0.25065 0.8111,-0.66108 0.8873,-1.06551 0.151,-0.80098 1.4565,-1.65707 3.5171,-2.30593 1.2031,-0.37883 1.4923,-0.56522 1.6155,-1.04127 0.1864,-0.72046 0.4746,-0.83446 0.6556,-0.25951 0.181,0.57466 -0.167,1.10121 -0.7458,1.35308 -0.9375,0.46508 -2.0532,0.89095 -2.9145,1.23958 -0.9778,0.41437 -1.499,0.80043 -1.4763,0.96711 0.018,0.12963 0.3641,0.12645 1.0805,-0.0992 0.8479,-0.26701 0.7973,-0.34364 1.4367,-0.89178 1.0944,-0.62752 2.7746,-0.78786 3.9231,-0.81005 1.4534,0.003 1.9973,-0.0874 2.1376,-0.35674 0.1036,-0.1987 0.2836,-0.39159 0.3999,-0.42823 0.1164,-0.0367 0.2353,0.13551 0.2646,0.3826 0.079,0.6665 -1.2165,1.11002 -3.0895,1.05735 -0.8821,-0.0248 -1.9549,0.0759 -2.3838,0.22353 -0.7318,0.25192 -0.7392,0.26797 -0.1162,0.2625 3.4146,-0.0299 6.0706,1.68126 6.9542,4.48 z m 1.4433,-3.3259 c 0.2761,1.05428 0.8654,1.6779 1.6966,1.78021 0.8786,0.10815 9.9823,-2.74123 10.5224,-3.2934 0.438,-0.44781 0.3801,-0.74429 -0.2934,-1.49611 -0.9329,-1.04128 -2.362,-1.83102 -3.8389,-2.12092 -1.2474,-0.24484 -1.8759,-0.20027 -3.6015,0.2537 -3.5581,0.9361 -4.9232,2.24613 -4.5842,4.39892 0.026,0.16794 0.06,0.32698 0.099,0.47758 z"
         id="path4615-3-2-00-7"
         inkscape:connector-curvature="0"
         sodipodi:nodetypes="ccccccccccccccccccccccccsscscccsccssccccccccccccccc" /></g></g></svg>
