<?xml version="1.0" encoding="UTF-8" standalone="no"?>
<!-- Created with Inkscape (http://www.inkscape.org/) -->

<svg
   xmlns:dc="http://purl.org/dc/elements/1.1/"
   xmlns:cc="http://creativecommons.org/ns#"
   xmlns:rdf="http://www.w3.org/1999/02/22-rdf-syntax-ns#"
   xmlns:svg="http://www.w3.org/2000/svg"
   xmlns="http://www.w3.org/2000/svg"
   xmlns:sodipodi="http://sodipodi.sourceforge.net/DTD/sodipodi-0.dtd"
   xmlns:inkscape="http://www.inkscape.org/namespaces/inkscape"
   width="60mm"
   height="65mm"
   viewBox="0 0 60 65"
   version="1.1"
   id="svg18306"
   inkscape:version="0.92.4 (5da689c313, 2019-01-14)"
   sodipodi:docname="fitness_scheme.svg">
  <defs
     id="defs18300">
    <marker
       inkscape:isstock="true"
       style="overflow:visible"
       id="marker22042"
       refX="0"
       refY="0"
       orient="auto"
       inkscape:stockid="Arrow2Mend">
      <path
         transform="scale(-0.6)"
         d="M 8.7185878,4.0337352 -2.2072895,0.01601326 8.7185884,-4.0017078 c -1.7454984,2.3720609 -1.7354408,5.6174519 -6e-7,8.035443 z"
         style="fill:#000000;fill-opacity:1;fill-rule:evenodd;stroke:#000000;stroke-width:0.625;stroke-linejoin:round;stroke-opacity:1"
         id="path22040"
         inkscape:connector-curvature="0" />
    </marker>
    <marker
       inkscape:isstock="true"
       style="overflow:visible"
       id="marker21870"
       refX="0"
       refY="0"
       orient="auto"
       inkscape:stockid="Arrow2Mend">
      <path
         transform="scale(-0.6)"
         d="M 8.7185878,4.0337352 -2.2072895,0.01601326 8.7185884,-4.0017078 c -1.7454984,2.3720609 -1.7354408,5.6174519 -6e-7,8.035443 z"
         style="fill:#000000;fill-opacity:1;fill-rule:evenodd;stroke:#000000;stroke-width:0.625;stroke-linejoin:round;stroke-opacity:1"
         id="path21868"
         inkscape:connector-curvature="0" />
    </marker>
    <marker
       inkscape:stockid="Arrow2Send"
       orient="auto"
       refY="0"
       refX="0"
       id="marker21534"
       style="overflow:visible"
       inkscape:isstock="true">
      <path
         id="path21532"
         style="fill:#000000;fill-opacity:1;fill-rule:evenodd;stroke:#000000;stroke-width:0.625;stroke-linejoin:round;stroke-opacity:1"
         d="M 8.7185878,4.0337352 -2.2072895,0.01601326 8.7185884,-4.0017078 c -1.7454984,2.3720609 -1.7354408,5.6174519 -6e-7,8.035443 z"
         transform="matrix(-0.3,0,0,-0.3,0.69,0)"
         inkscape:connector-curvature="0" />
    </marker>
    <marker
       inkscape:stockid="Arrow2Send"
       orient="auto"
       refY="0"
       refX="0"
       id="marker21380"
       style="overflow:visible"
       inkscape:isstock="true">
      <path
         id="path21378"
         style="fill:#000000;fill-opacity:1;fill-rule:evenodd;stroke:#000000;stroke-width:0.625;stroke-linejoin:round;stroke-opacity:1"
         d="M 8.7185878,4.0337352 -2.2072895,0.01601326 8.7185884,-4.0017078 c -1.7454984,2.3720609 -1.7354408,5.6174519 -6e-7,8.035443 z"
         transform="matrix(-0.3,0,0,-0.3,0.69,0)"
         inkscape:connector-curvature="0" />
    </marker>
    <marker
       inkscape:stockid="Arrow2Send"
       orient="auto"
       refY="0"
       refX="0"
       id="marker21232"
       style="overflow:visible"
       inkscape:isstock="true">
      <path
         id="path21230"
         style="fill:#000000;fill-opacity:1;fill-rule:evenodd;stroke:#000000;stroke-width:0.625;stroke-linejoin:round;stroke-opacity:1"
         d="M 8.7185878,4.0337352 -2.2072895,0.01601326 8.7185884,-4.0017078 c -1.7454984,2.3720609 -1.7354408,5.6174519 -6e-7,8.035443 z"
         transform="matrix(-0.3,0,0,-0.3,0.69,0)"
         inkscape:connector-curvature="0" />
    </marker>
    <marker
       inkscape:isstock="true"
       style="overflow:visible"
       id="marker21078"
       refX="0"
       refY="0"
       orient="auto"
       inkscape:stockid="Arrow2Send">
      <path
         transform="matrix(-0.3,0,0,-0.3,0.69,0)"
         d="M 8.7185878,4.0337352 -2.2072895,0.01601326 8.7185884,-4.0017078 c -1.7454984,2.3720609 -1.7354408,5.6174519 -6e-7,8.035443 z"
         style="fill:#000000;fill-opacity:1;fill-rule:evenodd;stroke:#000000;stroke-width:0.625;stroke-linejoin:round;stroke-opacity:1"
         id="path21076"
         inkscape:connector-curvature="0" />
    </marker>
    <marker
       inkscape:isstock="true"
       style="overflow:visible"
       id="marker21068"
       refX="0"
       refY="0"
       orient="auto"
       inkscape:stockid="Arrow2Send">
      <path
         transform="matrix(-0.3,0,0,-0.3,0.69,0)"
         d="M 8.7185878,4.0337352 -2.2072895,0.01601326 8.7185884,-4.0017078 c -1.7454984,2.3720609 -1.7354408,5.6174519 -6e-7,8.035443 z"
         style="fill:#000000;fill-opacity:1;fill-rule:evenodd;stroke:#000000;stroke-width:0.625;stroke-linejoin:round;stroke-opacity:1"
         id="path21066"
         inkscape:connector-curvature="0" />
    </marker>
    <marker
       inkscape:isstock="true"
       style="overflow:visible"
       id="marker20932"
       refX="0"
       refY="0"
       orient="auto"
       inkscape:stockid="Arrow2Send">
      <path
         transform="matrix(-0.3,0,0,-0.3,0.69,0)"
         d="M 8.7185878,4.0337352 -2.2072895,0.01601326 8.7185884,-4.0017078 c -1.7454984,2.3720609 -1.7354408,5.6174519 -6e-7,8.035443 z"
         style="fill:#000000;fill-opacity:1;fill-rule:evenodd;stroke:#000000;stroke-width:0.625;stroke-linejoin:round;stroke-opacity:1"
         id="path20930"
         inkscape:connector-curvature="0" />
    </marker>
    <marker
       inkscape:stockid="Arrow1Lend"
       orient="auto"
       refY="0"
       refX="0"
       id="Arrow1Lend"
       style="overflow:visible"
       inkscape:isstock="true">
      <path
         id="path2901"
         d="M 0,0 5,-5 -12.5,0 5,5 Z"
         style="fill:#000000;fill-opacity:1;fill-rule:evenodd;stroke:#000000;stroke-width:1.00000003pt;stroke-opacity:1"
         transform="matrix(-0.8,0,0,-0.8,-10,0)"
         inkscape:connector-curvature="0" />
    </marker>
    <marker
       inkscape:stockid="Arrow1Mend"
       orient="auto"
       refY="0"
       refX="0"
       id="marker20632"
       style="overflow:visible"
       inkscape:isstock="true">
      <path
         id="path20630"
         d="M 0,0 5,-5 -12.5,0 5,5 Z"
         style="fill:#000000;fill-opacity:1;fill-rule:evenodd;stroke:#000000;stroke-width:1.00000003pt;stroke-opacity:1"
         transform="matrix(-0.4,0,0,-0.4,-4,0)"
         inkscape:connector-curvature="0" />
    </marker>
    <marker
       inkscape:stockid="Arrow1Mend"
       orient="auto"
       refY="0"
       refX="0"
       id="marker20508"
       style="overflow:visible"
       inkscape:isstock="true">
      <path
         id="path20506"
         d="M 0,0 5,-5 -12.5,0 5,5 Z"
         style="fill:#000000;fill-opacity:1;fill-rule:evenodd;stroke:#000000;stroke-width:1.00000003pt;stroke-opacity:1"
         transform="matrix(-0.4,0,0,-0.4,-4,0)"
         inkscape:connector-curvature="0" />
    </marker>
    <marker
       inkscape:isstock="true"
       style="overflow:visible"
       id="marker20458"
       refX="0"
       refY="0"
       orient="auto"
       inkscape:stockid="Arrow1Mend">
      <path
         transform="matrix(-0.4,0,0,-0.4,-4,0)"
         style="fill:#000000;fill-opacity:1;fill-rule:evenodd;stroke:#000000;stroke-width:1.00000003pt;stroke-opacity:1"
         d="M 0,0 5,-5 -12.5,0 5,5 Z"
         id="path20456"
         inkscape:connector-curvature="0" />
    </marker>
    <marker
       inkscape:isstock="true"
       style="overflow:visible"
       id="marker20230"
       refX="0"
       refY="0"
       orient="auto"
       inkscape:stockid="Arrow2Send">
      <path
         transform="matrix(-0.3,0,0,-0.3,0.69,0)"
         d="M 8.7185878,4.0337352 -2.2072895,0.01601326 8.7185884,-4.0017078 c -1.7454984,2.3720609 -1.7354408,5.6174519 -6e-7,8.035443 z"
         style="fill:#000000;fill-opacity:1;fill-rule:evenodd;stroke:#000000;stroke-width:0.625;stroke-linejoin:round;stroke-opacity:1"
         id="path20228"
         inkscape:connector-curvature="0" />
    </marker>
    <inkscape:path-effect
       effect="bspline"
       id="path-effect20103"
       is_visible="true"
       weight="33.333333"
       steps="2"
       helper_size="0"
       apply_no_weight="true"
       apply_with_weight="true"
       only_selected="false" />
    <inkscape:path-effect
       effect="bspline"
       id="path-effect20099"
       is_visible="true"
       weight="33.333333"
       steps="2"
       helper_size="0"
       apply_no_weight="true"
       apply_with_weight="true"
       only_selected="false" />
    <inkscape:path-effect
       effect="bspline"
       id="path-effect4073"
       is_visible="true"
       weight="33.333333"
       steps="2"
       helper_size="0"
       apply_no_weight="true"
       apply_with_weight="true"
       only_selected="false" />
    <marker
       inkscape:isstock="true"
       style="overflow:visible"
       id="marker4363"
       refX="0"
       refY="0"
       orient="auto"
       inkscape:stockid="Arrow2Send">
      <path
         transform="matrix(-0.3,0,0,-0.3,0.69,0)"
         d="M 8.7185878,4.0337352 -2.2072895,0.01601326 8.7185884,-4.0017078 c -1.7454984,2.3720609 -1.7354408,5.6174519 -6e-7,8.035443 z"
         style="fill:#000000;fill-opacity:1;fill-rule:evenodd;stroke:#000000;stroke-width:0.625;stroke-linejoin:round;stroke-opacity:1"
         id="path4361"
         inkscape:connector-curvature="0" />
    </marker>
    <inkscape:path-effect
       effect="bspline"
       id="path-effect4077"
       is_visible="true"
       weight="33.333333"
       steps="2"
       helper_size="0"
       apply_no_weight="true"
       apply_with_weight="true"
       only_selected="false" />
    <inkscape:path-effect
       effect="bspline"
       id="path-effect4073-5"
       is_visible="true"
       weight="33.333333"
       steps="2"
       helper_size="0"
       apply_no_weight="true"
       apply_with_weight="true"
       only_selected="false" />
    <marker
       inkscape:isstock="true"
       style="overflow:visible"
       id="marker4363-7"
       refX="0"
       refY="0"
       orient="auto"
       inkscape:stockid="Arrow2Send">
      <path
         inkscape:connector-curvature="0"
         transform="matrix(-0.3,0,0,-0.3,0.69,0)"
         d="M 8.7185878,4.0337352 -2.2072895,0.01601326 8.7185884,-4.0017078 c -1.7454984,2.3720609 -1.7354408,5.6174519 -6e-7,8.035443 z"
         style="fill:#000000;fill-opacity:1;fill-rule:evenodd;stroke:#000000;stroke-width:0.625;stroke-linejoin:round;stroke-opacity:1"
         id="path4361-6" />
    </marker>
    <inkscape:path-effect
       effect="bspline"
       id="path-effect4077-8"
       is_visible="true"
       weight="33.333333"
       steps="2"
       helper_size="0"
       apply_no_weight="true"
       apply_with_weight="true"
       only_selected="false" />
    <inkscape:path-effect
       effect="bspline"
       id="path-effect4077-5"
       is_visible="true"
       weight="33.333333"
       steps="2"
       helper_size="0"
       apply_no_weight="true"
       apply_with_weight="true"
       only_selected="false" />
    <marker
       inkscape:isstock="true"
       style="overflow:visible"
       id="marker4363-7-5"
       refX="0"
       refY="0"
       orient="auto"
       inkscape:stockid="Arrow2Send">
      <path
         inkscape:connector-curvature="0"
         transform="matrix(-0.3,0,0,-0.3,0.69,0)"
         d="M 8.7185878,4.0337352 -2.2072895,0.01601326 8.7185884,-4.0017078 c -1.7454984,2.3720609 -1.7354408,5.6174519 -6e-7,8.035443 z"
         style="fill:#000000;fill-opacity:1;fill-rule:evenodd;stroke:#000000;stroke-width:0.625;stroke-linejoin:round;stroke-opacity:1"
         id="path4361-6-6" />
    </marker>
    <inkscape:path-effect
       effect="bspline"
       id="path-effect4077-8-4"
       is_visible="true"
       weight="33.333333"
       steps="2"
       helper_size="0"
       apply_no_weight="true"
       apply_with_weight="true"
       only_selected="false" />
    <marker
       inkscape:stockid="Arrow2Send"
       orient="auto"
       refY="0"
       refX="0"
       id="marker4395-6-4"
       style="overflow:visible"
       inkscape:isstock="true">
      <path
         inkscape:connector-curvature="0"
         id="path4393-8-0"
         style="fill:#000000;fill-opacity:1;fill-rule:evenodd;stroke:#000000;stroke-width:0.625;stroke-linejoin:round;stroke-opacity:1"
         d="M 8.7185878,4.0337352 -2.2072895,0.01601326 8.7185884,-4.0017078 c -1.7454984,2.3720609 -1.7354408,5.6174519 -6e-7,8.035443 z"
         transform="matrix(-0.3,0,0,-0.3,0.69,0)" />
    </marker>
    <inkscape:path-effect
       effect="bspline"
       id="path-effect4391-1-2"
       is_visible="true"
       weight="33.333333"
       steps="2"
       helper_size="0"
       apply_no_weight="true"
       apply_with_weight="true"
       only_selected="false" />
    <inkscape:path-effect
       effect="bspline"
       id="path-effect4073-4"
       is_visible="true"
       weight="33.333333"
       steps="2"
       helper_size="0"
       apply_no_weight="true"
       apply_with_weight="true"
       only_selected="false" />
    <marker
       inkscape:isstock="true"
       style="overflow:visible"
       id="marker4363-4"
       refX="0"
       refY="0"
       orient="auto"
       inkscape:stockid="Arrow2Send">
      <path
         inkscape:connector-curvature="0"
         transform="matrix(-0.3,0,0,-0.3,0.69,0)"
         d="M 8.7185878,4.0337352 -2.2072895,0.01601326 8.7185884,-4.0017078 c -1.7454984,2.3720609 -1.7354408,5.6174519 -6e-7,8.035443 z"
         style="fill:#000000;fill-opacity:1;fill-rule:evenodd;stroke:#000000;stroke-width:0.625;stroke-linejoin:round;stroke-opacity:1"
         id="path4361-1" />
    </marker>
    <inkscape:path-effect
       effect="bspline"
       id="path-effect4077-6"
       is_visible="true"
       weight="33.333333"
       steps="2"
       helper_size="0"
       apply_no_weight="true"
       apply_with_weight="true"
       only_selected="false" />
    <inkscape:path-effect
       effect="bspline"
       id="path-effect4073-5-4"
       is_visible="true"
       weight="33.333333"
       steps="2"
       helper_size="0"
       apply_no_weight="true"
       apply_with_weight="true"
       only_selected="false" />
    <marker
       inkscape:isstock="true"
       style="overflow:visible"
       id="marker4363-7-7"
       refX="0"
       refY="0"
       orient="auto"
       inkscape:stockid="Arrow2Send">
      <path
         inkscape:connector-curvature="0"
         transform="matrix(-0.3,0,0,-0.3,0.69,0)"
         d="M 8.7185878,4.0337352 -2.2072895,0.01601326 8.7185884,-4.0017078 c -1.7454984,2.3720609 -1.7354408,5.6174519 -6e-7,8.035443 z"
         style="fill:#000000;fill-opacity:1;fill-rule:evenodd;stroke:#000000;stroke-width:0.625;stroke-linejoin:round;stroke-opacity:1"
         id="path4361-6-1" />
    </marker>
    <inkscape:path-effect
       effect="bspline"
       id="path-effect4077-8-49"
       is_visible="true"
       weight="33.333333"
       steps="2"
       helper_size="0"
       apply_no_weight="true"
       apply_with_weight="true"
       only_selected="false" />
    <marker
       inkscape:isstock="true"
       style="overflow:visible"
       id="marker4363-1-3"
       refX="0"
       refY="0"
       orient="auto"
       inkscape:stockid="Arrow2Send">
      <path
         inkscape:connector-curvature="0"
         transform="matrix(-0.3,0,0,-0.3,0.69,0)"
         d="M 8.7185878,4.0337352 -2.2072895,0.01601326 8.7185884,-4.0017078 c -1.7454984,2.3720609 -1.7354408,5.6174519 -6e-7,8.035443 z"
         style="fill:#000000;fill-opacity:1;fill-rule:evenodd;stroke:#000000;stroke-width:0.625;stroke-linejoin:round;stroke-opacity:1"
         id="path4361-60-4" />
    </marker>
    <inkscape:path-effect
       effect="bspline"
       id="path-effect4077-5-1"
       is_visible="true"
       weight="33.333333"
       steps="2"
       helper_size="0"
       apply_no_weight="true"
       apply_with_weight="true"
       only_selected="false" />
    <marker
       inkscape:isstock="true"
       style="overflow:visible"
       id="marker4363-7-5-7"
       refX="0"
       refY="0"
       orient="auto"
       inkscape:stockid="Arrow2Send">
      <path
         inkscape:connector-curvature="0"
         transform="matrix(-0.3,0,0,-0.3,0.69,0)"
         d="M 8.7185878,4.0337352 -2.2072895,0.01601326 8.7185884,-4.0017078 c -1.7454984,2.3720609 -1.7354408,5.6174519 -6e-7,8.035443 z"
         style="fill:#000000;fill-opacity:1;fill-rule:evenodd;stroke:#000000;stroke-width:0.625;stroke-linejoin:round;stroke-opacity:1"
         id="path4361-6-6-2" />
    </marker>
    <inkscape:path-effect
       effect="bspline"
       id="path-effect4077-8-4-1"
       is_visible="true"
       weight="33.333333"
       steps="2"
       helper_size="0"
       apply_no_weight="true"
       apply_with_weight="true"
       only_selected="false" />
    <inkscape:path-effect
       effect="bspline"
       id="path-effect4391-1-3"
       is_visible="true"
       weight="33.333333"
       steps="2"
       helper_size="0"
       apply_no_weight="true"
       apply_with_weight="true"
       only_selected="false" />
    <inkscape:path-effect
       effect="bspline"
       id="path-effect20103-7"
       is_visible="true"
       weight="33.333333"
       steps="2"
       helper_size="0"
       apply_no_weight="true"
       apply_with_weight="true"
       only_selected="false" />
    <marker
       inkscape:isstock="true"
       style="overflow:visible"
       id="marker22042-3"
       refX="0"
       refY="0"
       orient="auto"
       inkscape:stockid="Arrow2Mend">
      <path
         inkscape:connector-curvature="0"
         transform="scale(-0.6)"
         d="M 8.7185878,4.0337352 -2.2072895,0.01601326 8.7185884,-4.0017078 c -1.7454984,2.3720609 -1.7354408,5.6174519 -6e-7,8.035443 z"
         style="fill:#000000;fill-opacity:1;fill-rule:evenodd;stroke:#000000;stroke-width:0.625;stroke-linejoin:round;stroke-opacity:1"
         id="path22040-7" />
    </marker>
    <inkscape:path-effect
       effect="bspline"
       id="path-effect20103-7-0"
       is_visible="true"
       weight="33.333333"
       steps="2"
       helper_size="0"
       apply_no_weight="true"
       apply_with_weight="true"
       only_selected="false" />
  </defs>
  <sodipodi:namedview
     id="base"
     pagecolor="#ffffff"
     bordercolor="#666666"
     borderopacity="1.0"
     inkscape:pageopacity="0.0"
     inkscape:pageshadow="2"
     inkscape:zoom="1.979899"
     inkscape:cx="127.25572"
     inkscape:cy="131.06103"
     inkscape:document-units="mm"
     inkscape:current-layer="layer1"
     showgrid="false"
     showguides="false"
     inkscape:window-width="1920"
     inkscape:window-height="1017"
     inkscape:window-x="-8"
     inkscape:window-y="-8"
     inkscape:window-maximized="1" />
  <metadata
     id="metadata18303">
    <rdf:RDF>
      <cc:Work
         rdf:about="">
        <dc:format>image/svg+xml</dc:format>
        <dc:type
           rdf:resource="http://purl.org/dc/dcmitype/StillImage" />
        <dc:title />
      </cc:Work>
    </rdf:RDF>
  </metadata>
  <g
     inkscape:label="Layer 1"
     inkscape:groupmode="layer"
     id="layer1"
     transform="translate(0,-232)">
    <text
       xml:space="preserve"
       style="font-style:normal;font-variant:normal;font-weight:normal;font-stretch:normal;font-size:3.52777767px;line-height:1.25;font-family:Arial;-inkscape-font-specification:Arial;letter-spacing:0px;word-spacing:0px;fill:#000000;fill-opacity:1;stroke:none;stroke-width:0.26458332"
       x="50.647575"
       y="97.750565"
       id="text23332"><tspan
         sodipodi:role="line"
         id="tspan23330"
         x="50.647575"
         y="100.92822"
         style="stroke-width:0.26458332" /></text>
    <path
       style="fill:none;stroke:#000000;stroke-width:0.26458332px;stroke-linecap:butt;stroke-linejoin:miter;stroke-opacity:1"
       d="m 48.119493,284.14256 -36.238987,-4.49363 36.238988,13.48093"
       id="path23328"
       inkscape:connector-curvature="0" />
    <path
       style="fill:none;stroke:#000000;stroke-width:0.26458332px;stroke-linecap:butt;stroke-linejoin:miter;stroke-opacity:1"
       d="m 48.119493,261.89705 -36.238987,4.49364 36.238988,4.00208"
       id="path23326"
       inkscape:connector-curvature="0" />
    <path
       style="fill:none;stroke:#000000;stroke-width:0.26458332px;stroke-linecap:butt;stroke-linejoin:miter;stroke-opacity:1"
       d="m 48.119493,239.15997 -36.238987,13.48091 36.238988,-4.49362"
       id="path23324"
       inkscape:connector-curvature="0" />
    <path
       style="fill:#2c89a0;fill-opacity:1;stroke-width:0.01972272"
       d="m 1.195153,255.04908 c 0.4099,-0.004 0.90463,0.10608 1.67033,0.37129 1.11157,0.38501 1.33519,0.45687 1.57038,0.50462 0.30664,0.0623 0.54419,0.0642 0.7147,0.006 0.17037,-0.0584 0.25634,-0.12581 0.33966,-0.26653 0.17786,-0.30037 0.1457,-0.71901 -0.11355,-1.47836 -0.0702,-0.20585 -0.22515,-0.65971 -0.34418,-1.00859 -0.11901,-0.34887 -0.21927,-0.66234 -0.22278,-0.6966 l -0.007,-0.0623 0.28316,0.10015 c 0.15575,0.0551 0.29914,0.10843 0.31866,0.11855 0.0436,0.0226 0.29037,0.73995 0.389181,1.13113 0.20585,0.81502 0.16466,1.4114 -0.128101,1.85517 -0.28912,0.43822 -0.75294,0.67008 -1.34208,0.67089 -0.52929,7.4e-4 -0.93832,-0.0978 -2.10289,-0.50655 l -0.704379,-0.24723 -0.24491,-0.2449 -0.2449,-0.2449 z m 2.435,2.50008 c 0.15511,-0.21715 0.18225,-0.51071 0.0875,-0.94653 l -0.044,-0.20236 0.0808,0.0111 c 0.0445,0.006 0.14291,0.0178 0.21877,0.0259 l 0.13794,0.0148 -0.007,0.11681 c -0.0231,0.42531 -0.13276,0.738 -0.35033,0.99892 l -0.0957,0.11471 -0.0362,-0.0362 c -0.0309,-0.0309 -0.0298,-0.045 0.007,-0.0972 z m -1.22012,-1.52631 c 0.002,-0.002 0.10152,0.0321 0.22171,0.0753 l 0.21854,0.0785 0.38665,0.38665 0.38666,0.38666 -0.005,0.12729 -0.005,0.12729 -0.16378,-0.15698 c -0.256449,-0.2458 -1.042929,-1.02112 -1.03939,-1.02464 z m 0.80962,-0.96592 c -0.37643,-1.09263 -0.45515,-1.73082 -0.27918,-2.26371 0.0803,-0.24322 0.16652,-0.38089 0.35945,-0.57396 0.20382,-0.20403 0.32172,-0.27917 0.57057,-0.36381 0.53622,-0.1824 1.23893,-0.0935 2.341041,0.29617 1.47304,0.52082 1.87735,0.60828 2.24054,0.48466 0.121361,-0.0413 0.1528,-0.0611 0.243421,-0.15309 0.0861,-0.0875 0.111389,-0.12712 0.146679,-0.23037 0.0572,-0.16718 0.0553,-0.44434 -0.005,-0.73368 -0.0267,-0.12836 -0.0391,-0.23251 -0.0275,-0.23145 0.0116,0.001 0.10679,0.0141 0.21149,0.0289 l 0.19038,0.027 7.94e-4,0.13801 c 0.005,0.65082 -0.41664,1.23931 -1.035271,1.44521 -0.320649,0.10671 -0.74374,0.11356 -1.212479,0.0196 -0.375611,-0.0753 -0.685551,-0.17036 -1.460642,-0.44809 -0.66791,-0.23932 -0.95485,-0.32791 -1.226539,-0.3787 -0.720211,-0.13463 -1.117411,0.14025 -1.1027,0.7631 0.008,0.31972 0.0984,0.64792 0.462579,1.67154 0.18884,0.53081 0.354421,1.05821 0.33751,1.07512 -0.007,0.007 -0.53827,-0.17346 -0.61408,-0.20874 -0.0105,-0.005 -0.0741,-0.16852 -0.141269,-0.36367 z m 0.68159,-0.2301 c -0.0383,-0.1139 -0.0696,-0.21334 -0.0696,-0.221 0,-0.008 0.26775,0.25384 0.59502,0.58111 0.456831,0.45682 0.59112,0.59896 0.57814,0.61194 -0.009,0.009 -0.0702,0.0174 -0.1354,0.018 l -0.118479,0.001 -0.39009,-0.39204 -0.390101,-0.39205 z m -0.41726,-1.18884 c -0.015,-0.054 -0.0408,-0.14741 -0.0574,-0.20755 l -0.0302,-0.10933 1.02073,1.02009 1.02073,1.0201 -0.0176,0.0731 c -0.01,0.0402 -0.028,0.0878 -0.0407,0.10573 -0.0229,0.0323 -0.0315,0.0243 -0.94575,-0.88567 l -0.92258,-0.9183 -0.0273,-0.0982 z m -0.12955,-1.00859 c 0.01,-0.04 0.0278,-0.0912 0.0398,-0.11364 l 0.0219,-0.0409 0.92345,0.92345 0.92344,0.92345 0.0506,0.17539 c 0.0278,0.0965 0.0537,0.19113 0.0574,0.21039 0.005,0.0237 -0.32186,-0.29355 -1.01378,-0.98519 l -1.02065,-1.02021 z m 0.53071,-0.38275 0.13842,-10e-4 0.39728,0.3987 0.39727,0.39869 0.0642,0.2008 0.0642,0.2008 -0.59987,-0.59844 -0.59987,-0.59845 z m 0.79698,-0.81603 c 0.0109,-0.28323 0.076,-0.51887 0.20739,-0.75041 0.10068,-0.17746 0.38541,-0.45527 0.56232,-0.54864 0.448001,-0.23644 0.987161,-0.25992 1.718071,-0.0748 0.35655,0.0903 0.545,0.15075 1.17723,0.37768 0.922651,0.33116 1.28574,0.42718 1.61545,0.42718 0.247831,0 0.41983,-0.0631 0.560061,-0.20564 0.0829,-0.0843 0.111839,-0.12847 0.144029,-0.22026 0.0813,-0.23202 0.0578,-0.59822 -0.0643,-1.00253 l -0.058,-0.1919 0.241229,0.23294 0.241231,0.23294 -0.006,0.10359 c -0.0206,0.35709 -0.19987,0.71999 -0.48115,0.97389 -0.30737,0.27745 -0.64753,0.39729 -1.12444,0.39614 -0.41431,-0.001 -0.90404,-0.10305 -1.54776,-0.32255 -0.19448,-0.0663 -0.6015,-0.20528 -0.90449,-0.30881 -0.62199,-0.21254 -0.95054,-0.28793 -1.231201,-0.28253 -0.25193,0.005 -0.39438,0.0558 -0.52774,0.18876 -0.19971,0.19909 -0.24641,0.50119 -0.14947,0.96661 0.0272,0.1305 0.0394,0.23696 0.0271,0.23658 -0.0541,-0.002 -0.38846,-0.0544 -0.3966,-0.0626 -0.005,-0.005 -0.007,-0.0795 -0.003,-0.16562 z m 0.48253,-0.38065 c -0.002,-0.0441 -0.002,-0.11251 7.94e-4,-0.15197 l 0.005,-0.0717 0.604631,0.60656 0.60464,0.60657 -0.22777,-0.0763 -0.227779,-0.0763 -0.377541,-0.37828 -0.37755,-0.37829 z m 0.30732,-0.58447 c 0.0408,-0.0168 0.0898,-0.0306 0.10896,-0.0307 0.0275,-1.5e-4 0.247341,0.21381 1.038091,1.01022 l 1.00323,1.01037 -0.18459,-0.0521 -0.18458,-0.0521 -0.92758,-0.92758 -0.927581,-0.92758 z m 0.787681,0.0342 c 0.006,-0.006 0.0961,0.0153 0.20062,0.047 l 0.18997,0.0577 0.91825,0.92543 0.91826,0.92542 -0.10714,0.0393 -0.10714,0.0393 -1.01173,-1.01173 c -0.55645,-0.55645 -1.00694,-1.01652 -1.00109,-1.02238 z m 1.28271,0.41868 c 0.002,-0.002 0.0974,0.0279 0.21244,0.066 l 0.20906,0.0694 0.38268,0.38266 0.382661,0.38267 4e-5,0.13253 5e-5,0.13254 -0.162721,-0.15593 c -0.26257,-0.25161 -1.02787,-1.00617 -1.02421,-1.00983 z m 0.76245,-1.05529 c -0.36889,-1.09034 -0.43218,-1.75583 -0.21709,-2.28264 0.0612,-0.14989 0.18427,-0.34824 0.26805,-0.43202 0.0486,-0.0485 0.0587,-0.051 0.0881,-0.0216 0.0287,0.0287 0.026,0.0431 -0.0194,0.1046 -0.0848,0.1147 -0.14023,0.31617 -0.138839,0.50453 0.002,0.25692 0.071,0.55632 0.248149,1.07531 0.38329,1.12282 0.54036,1.59794 0.54723,1.65522 l 0.007,0.0613 -0.28675,-0.10202 c -0.157699,-0.0561 -0.302269,-0.11189 -0.321259,-0.12396 -0.0211,-0.0134 -0.0894,-0.18414 -0.17554,-0.43877 z m 0.70552,-0.16162 -0.0642,-0.2008 0.589929,0.58852 c 0.32444,0.3237 0.58547,0.59298 0.58001,0.59844 -0.006,0.006 -0.0632,0.0104 -0.12842,0.011 l -0.11849,0.001 -0.39734,-0.39875 -0.39734,-0.39875 z m -0.430799,-1.24273 c -0.0263,-0.0888 -0.0516,-0.17642 -0.0564,-0.19463 -0.005,-0.0191 0.42249,0.39777 1.01045,0.98525 l 1.019201,1.01835 -0.0324,0.0938 c -0.0178,0.0516 -0.0354,0.0968 -0.0391,0.1004 -0.003,0.004 -0.42228,-0.40926 -0.93033,-0.91752 l -0.923711,-0.92414 -0.0477,-0.16153 z m -0.112321,-0.92917 c 0.007,-0.0304 0.0238,-0.0757 0.0387,-0.10073 l 0.0272,-0.0454 0.92242,0.92242 0.92241,0.92242 0.0323,0.0993 c 0.0177,0.0546 0.0442,0.14375 0.059,0.1981 l 0.0267,0.0988 -1.02011,-1.01979 -1.020099,-1.01979 0.0115,-0.0553 z"
       id="path3758-0-6-9"
       inkscape:connector-curvature="0" />
    <path
       style="fill:#2ca05a;fill-opacity:1;stroke-width:0.01972272"
       d="m 1.195153,268.79888 c 0.4099,-0.004 0.90463,0.10608 1.67033,0.37129 1.11157,0.38501 1.33519,0.45687 1.57038,0.50462 0.30664,0.0623 0.54419,0.0642 0.7147,0.006 0.17037,-0.0584 0.25634,-0.12581 0.33966,-0.26653 0.17786,-0.30037 0.1457,-0.71901 -0.11355,-1.47836 -0.0702,-0.20585 -0.22515,-0.65971 -0.34418,-1.00859 -0.11901,-0.34887 -0.21927,-0.66234 -0.22278,-0.6966 l -0.007,-0.0623 0.28316,0.10015 c 0.15575,0.0551 0.29914,0.10843 0.31866,0.11855 0.0436,0.0226 0.29037,0.73995 0.389181,1.13113 0.20585,0.81502 0.16466,1.4114 -0.128101,1.85517 -0.289121,0.43822 -0.752941,0.67008 -1.342081,0.67089 -0.529289,7.4e-4 -0.938319,-0.0978 -2.102889,-0.50655 l -0.704379,-0.24723 -0.24491,-0.2449 -0.2449,-0.2449 z m 2.435,2.50008 c 0.15511,-0.21715 0.18225,-0.51071 0.0875,-0.94653 l -0.044,-0.20236 0.0808,0.0111 c 0.0445,0.006 0.14291,0.0178 0.21877,0.0259 l 0.13794,0.0148 -0.007,0.11681 c -0.0231,0.42531 -0.13276,0.738 -0.35033,0.99892 l -0.0957,0.11471 -0.0362,-0.0362 c -0.0309,-0.0309 -0.0298,-0.045 0.007,-0.0972 z m -1.22012,-1.52631 c 0.002,-0.002 0.10152,0.0321 0.22171,0.0753 l 0.21854,0.0785 0.38665,0.38665 0.38666,0.38666 -0.005,0.12729 -0.005,0.12729 -0.16378,-0.15698 c -0.256449,-0.2458 -1.042929,-1.02112 -1.03939,-1.02464 z m 0.80962,-0.96592 c -0.37643,-1.09263 -0.45515,-1.73082 -0.27918,-2.26371 0.0803,-0.24322 0.16652,-0.38089 0.35945,-0.57396 0.20382,-0.20403 0.32172,-0.27917 0.57057,-0.36381 0.53622,-0.1824 1.23893,-0.0935 2.341041,0.29617 1.47304,0.52082 1.87735,0.60828 2.24054,0.48466 0.121361,-0.0413 0.1528,-0.0611 0.243421,-0.15309 0.0861,-0.0875 0.111389,-0.12712 0.146679,-0.23037 0.0572,-0.16718 0.0553,-0.44434 -0.005,-0.73368 -0.0267,-0.12836 -0.0391,-0.23251 -0.0275,-0.23145 0.0116,0.001 0.10679,0.0141 0.21149,0.0289 l 0.19038,0.027 7.94e-4,0.13801 c 0.005,0.65082 -0.41664,1.23931 -1.035271,1.44521 -0.320649,0.10671 -0.74374,0.11356 -1.212479,0.0196 -0.375611,-0.0753 -0.685551,-0.17036 -1.460642,-0.44809 -0.66791,-0.23932 -0.95485,-0.32791 -1.226539,-0.3787 -0.720211,-0.13463 -1.117411,0.14025 -1.1027,0.7631 0.008,0.31972 0.0984,0.64792 0.462579,1.67154 0.18884,0.53081 0.354421,1.05821 0.33751,1.07512 -0.007,0.007 -0.53827,-0.17346 -0.61408,-0.20874 -0.0105,-0.005 -0.0741,-0.16852 -0.141269,-0.36367 z m 0.68159,-0.2301 c -0.0383,-0.1139 -0.0696,-0.21334 -0.0696,-0.221 0,-0.008 0.26775,0.25384 0.59502,0.58111 0.456831,0.45682 0.59112,0.59896 0.57814,0.61194 -0.009,0.009 -0.0702,0.0174 -0.1354,0.018 l -0.118479,10e-4 -0.39009,-0.39204 -0.390101,-0.39205 z m -0.41726,-1.18884 c -0.015,-0.054 -0.0408,-0.14741 -0.0574,-0.20755 l -0.0302,-0.10933 1.02073,1.02009 1.02073,1.0201 -0.0176,0.0731 c -0.01,0.0402 -0.028,0.0878 -0.0407,0.10573 -0.0229,0.0323 -0.0315,0.0243 -0.94575,-0.88567 l -0.92258,-0.9183 -0.0273,-0.0982 z m -0.12955,-1.00859 c 0.01,-0.04 0.0278,-0.0912 0.0398,-0.11364 l 0.0219,-0.0409 0.923449,0.92345 0.92344,0.92345 0.0506,0.17539 c 0.0278,0.0965 0.0537,0.19113 0.0574,0.21039 0.005,0.0237 -0.321859,-0.29355 -1.013779,-0.98519 l -1.02065,-1.02021 z m 0.53071,-0.38275 0.13842,-10e-4 0.39728,0.3987 0.39727,0.39869 0.0642,0.2008 0.0642,0.2008 -0.59987,-0.59844 -0.59987,-0.59845 z m 0.79698,-0.81603 c 0.0109,-0.28323 0.076,-0.51887 0.20739,-0.75041 0.10068,-0.17746 0.38541,-0.45527 0.56232,-0.54864 0.448001,-0.23644 0.987161,-0.25992 1.718071,-0.0748 0.35655,0.0903 0.545,0.15075 1.17723,0.37768 0.922651,0.33116 1.28574,0.42718 1.61545,0.42718 0.247831,0 0.41983,-0.0631 0.560061,-0.20564 0.0829,-0.0843 0.111839,-0.12847 0.144029,-0.22026 0.0813,-0.23202 0.0578,-0.59822 -0.0643,-1.00253 l -0.058,-0.1919 0.241229,0.23294 0.241231,0.23294 -0.006,0.10359 c -0.0206,0.35709 -0.19987,0.71999 -0.48115,0.97389 -0.30737,0.27745 -0.64753,0.39729 -1.12444,0.39614 -0.41431,-0.001 -0.90404,-0.10305 -1.54776,-0.32255 -0.19448,-0.0663 -0.6015,-0.20528 -0.90449,-0.30881 -0.62199,-0.21254 -0.95054,-0.28793 -1.231201,-0.28253 -0.25193,0.005 -0.39438,0.0558 -0.52774,0.18876 -0.19971,0.19909 -0.24641,0.50119 -0.14947,0.96661 0.0272,0.1305 0.0394,0.23696 0.0271,0.23658 -0.0541,-0.002 -0.38846,-0.0544 -0.3966,-0.0626 -0.005,-0.005 -0.007,-0.0795 -0.003,-0.16562 z m 0.48253,-0.38065 c -0.002,-0.0441 -0.002,-0.11251 7.93e-4,-0.15197 l 0.005,-0.0717 0.604631,0.60656 0.60464,0.60657 -0.22777,-0.0763 -0.227779,-0.0763 -0.37754,-0.37828 -0.37755,-0.37829 z m 0.30732,-0.58447 c 0.0408,-0.0168 0.0898,-0.0306 0.10896,-0.0307 0.0275,-1.5e-4 0.247341,0.21381 1.038091,1.01022 l 1.00323,1.01037 -0.18459,-0.0521 -0.18458,-0.0521 -0.92758,-0.92758 -0.927581,-0.92758 z m 0.787681,0.0342 c 0.006,-0.006 0.0961,0.0153 0.20062,0.047 l 0.18997,0.0577 0.91825,0.92543 0.91826,0.92542 -0.10714,0.0393 -0.10714,0.0393 -1.01173,-1.01173 c -0.55645,-0.55645 -1.00694,-1.01652 -1.00109,-1.02238 z m 1.28271,0.41868 c 0.002,-0.002 0.0974,0.0279 0.21244,0.066 l 0.20906,0.0694 0.38268,0.38266 0.382661,0.38267 4e-5,0.13253 5e-5,0.13254 -0.162721,-0.15593 c -0.26257,-0.25161 -1.02787,-1.00617 -1.02421,-1.00983 z m 0.76245,-1.05529 c -0.36889,-1.09034 -0.43218,-1.75583 -0.21709,-2.28264 0.0612,-0.14989 0.18427,-0.34824 0.26805,-0.43202 0.0486,-0.0485 0.0587,-0.051 0.0881,-0.0216 0.0287,0.0287 0.026,0.0431 -0.0194,0.1046 -0.0848,0.1147 -0.14023,0.31617 -0.138839,0.50453 0.002,0.25692 0.071,0.55632 0.248149,1.07531 0.38329,1.12282 0.54036,1.59794 0.54723,1.65522 l 0.007,0.0613 -0.28675,-0.10202 c -0.1577,-0.0561 -0.302269,-0.11189 -0.321259,-0.12396 -0.0211,-0.0134 -0.0894,-0.18414 -0.17554,-0.43877 z m 0.70552,-0.16162 -0.0642,-0.2008 0.589929,0.58852 c 0.32444,0.3237 0.58547,0.59298 0.58001,0.59844 -0.006,0.006 -0.0632,0.0104 -0.12842,0.011 l -0.11849,0.001 -0.39734,-0.39876 -0.39734,-0.39875 z m -0.430799,-1.24273 c -0.0263,-0.0888 -0.0516,-0.17642 -0.0564,-0.19463 -0.005,-0.0191 0.42249,0.39777 1.01045,0.98525 l 1.019201,1.01835 -0.0324,0.0938 c -0.0178,0.0516 -0.0354,0.0968 -0.0391,0.1004 -0.003,0.004 -0.42228,-0.40926 -0.93033,-0.91752 l -0.923711,-0.92414 -0.0477,-0.16153 z m -0.112321,-0.92917 c 0.007,-0.0304 0.0238,-0.0757 0.0387,-0.10073 l 0.0272,-0.0454 0.92242,0.92242 0.92241,0.92242 0.0323,0.0993 c 0.0177,0.0546 0.0442,0.14375 0.059,0.1981 l 0.0267,0.0988 -1.02011,-1.01979 -1.020099,-1.01979 0.0115,-0.0553 z"
       id="path3758-0-6-9-2"
       inkscape:connector-curvature="0" />
    <path
       style="fill:#c87137;fill-opacity:1;stroke-width:0.01972272"
       d="m 1.195153,282.54868 c 0.4099,-0.004 0.90463,0.10608 1.67033,0.37129 1.11157,0.38501 1.33519,0.45687 1.57038,0.50462 0.30664,0.0623 0.54419,0.0642 0.7147,0.006 0.17037,-0.0584 0.25634,-0.12581 0.33966,-0.26653 0.17786,-0.30037 0.1457,-0.71901 -0.11355,-1.47836 -0.0702,-0.20585 -0.22515,-0.65971 -0.34418,-1.00859 -0.11901,-0.34887 -0.21927,-0.66234 -0.22278,-0.6966 l -0.007,-0.0623 0.28316,0.10015 c 0.155751,0.0551 0.29914,0.10843 0.31866,0.11855 0.0436,0.0226 0.29037,0.73995 0.389181,1.13113 0.20585,0.81502 0.16466,1.4114 -0.128101,1.85517 -0.289121,0.43822 -0.75294,0.67008 -1.342081,0.67089 -0.529289,7.4e-4 -0.938319,-0.0978 -2.102889,-0.50655 l -0.704379,-0.24723 -0.24491,-0.2449 -0.2449,-0.2449 z m 2.435,2.50008 c 0.15511,-0.21715 0.18225,-0.51071 0.0875,-0.94653 l -0.044,-0.20236 0.0808,0.0111 c 0.0445,0.006 0.14291,0.0178 0.21877,0.0259 l 0.13794,0.0148 -0.007,0.11681 c -0.0231,0.42531 -0.13276,0.738 -0.35033,0.99892 l -0.0957,0.11471 -0.0362,-0.0362 c -0.0309,-0.0309 -0.0298,-0.045 0.007,-0.0972 z m -1.22012,-1.52631 c 0.002,-0.002 0.10152,0.0321 0.22171,0.0753 l 0.21854,0.0785 0.38665,0.38665 0.38666,0.38666 -0.005,0.12729 -0.005,0.12729 -0.16378,-0.15698 c -0.256449,-0.2458 -1.042929,-1.02112 -1.03939,-1.02464 z m 0.80962,-0.96592 c -0.37643,-1.09263 -0.45515,-1.73082 -0.27918,-2.26371 0.0803,-0.24322 0.16652,-0.38089 0.35945,-0.57396 0.20382,-0.20403 0.32172,-0.27917 0.57057,-0.36381 0.53622,-0.1824 1.23893,-0.0935 2.341041,0.29617 1.47304,0.52082 1.87735,0.60828 2.24054,0.48466 0.121361,-0.0413 0.1528,-0.0611 0.243421,-0.15309 0.0861,-0.0875 0.111389,-0.12712 0.146679,-0.23037 0.0572,-0.16718 0.0553,-0.44434 -0.005,-0.73368 -0.0267,-0.12836 -0.0391,-0.23251 -0.0275,-0.23145 0.0116,0.001 0.106791,0.0141 0.21149,0.0289 l 0.190381,0.027 7.93e-4,0.13801 c 0.005,0.65082 -0.41664,1.23931 -1.035271,1.44521 -0.320649,0.10671 -0.74374,0.11356 -1.212479,0.0196 -0.375611,-0.0753 -0.685551,-0.17036 -1.460642,-0.44809 -0.66791,-0.23932 -0.95485,-0.32791 -1.226539,-0.3787 -0.720211,-0.13463 -1.117411,0.14025 -1.1027,0.7631 0.008,0.31972 0.0984,0.64792 0.462579,1.67154 0.18884,0.53081 0.354421,1.05821 0.33751,1.07512 -0.007,0.007 -0.53827,-0.17346 -0.61408,-0.20874 -0.0105,-0.005 -0.0741,-0.16852 -0.141269,-0.36367 z m 0.68159,-0.2301 c -0.0383,-0.1139 -0.0696,-0.21334 -0.0696,-0.221 0,-0.008 0.26775,0.25384 0.59502,0.58111 0.456831,0.45682 0.59112,0.59896 0.57814,0.61194 -0.009,0.009 -0.0702,0.0174 -0.1354,0.018 l -0.118479,10e-4 -0.39009,-0.39204 -0.390101,-0.39205 z m -0.41726,-1.18884 c -0.015,-0.054 -0.0408,-0.14741 -0.0574,-0.20755 l -0.0302,-0.10933 1.02073,1.02009 1.02073,1.0201 -0.0176,0.0731 c -0.01,0.0402 -0.028,0.0878 -0.0407,0.10573 -0.0229,0.0323 -0.0315,0.0243 -0.94575,-0.88567 l -0.92258,-0.9183 -0.0273,-0.0982 z M 3.354433,280.129 c 0.01,-0.04 0.0278,-0.0912 0.0398,-0.11364 l 0.0219,-0.0409 0.92345,0.92345 0.92344,0.92345 0.0506,0.17539 c 0.0278,0.0965 0.0537,0.19113 0.0574,0.21039 0.005,0.0237 -0.32186,-0.29355 -1.01378,-0.98519 l -1.02065,-1.02021 z m 0.53071,-0.38275 0.13842,-10e-4 0.39728,0.3987 0.39727,0.39869 0.0642,0.2008 0.0642,0.2008 -0.59987,-0.59844 -0.59987,-0.59845 z m 0.79698,-0.81603 c 0.0109,-0.28323 0.076,-0.51887 0.20739,-0.75041 0.10068,-0.17746 0.38541,-0.45527 0.56232,-0.54864 0.448001,-0.23644 0.987161,-0.25992 1.718071,-0.0748 0.35655,0.0903 0.545,0.15075 1.17723,0.37768 0.922651,0.33116 1.28574,0.42718 1.61545,0.42718 0.247831,0 0.41983,-0.0631 0.560061,-0.20564 0.0829,-0.0843 0.111839,-0.12847 0.144029,-0.22026 0.0813,-0.23202 0.0578,-0.59822 -0.0643,-1.00253 l -0.058,-0.1919 0.241229,0.23294 0.241231,0.23294 -0.006,0.10359 c -0.0206,0.35709 -0.19987,0.71999 -0.48115,0.97389 -0.30737,0.27745 -0.64753,0.39729 -1.12444,0.39614 -0.41431,-0.001 -0.90404,-0.10305 -1.54776,-0.32255 -0.19448,-0.0663 -0.6015,-0.20528 -0.90449,-0.30881 -0.62199,-0.21254 -0.95054,-0.28793 -1.231201,-0.28253 -0.25193,0.005 -0.39438,0.0558 -0.52774,0.18876 -0.19971,0.19909 -0.24641,0.50119 -0.14947,0.96661 0.0272,0.1305 0.0394,0.23696 0.0271,0.23658 -0.0541,-0.002 -0.38846,-0.0544 -0.3966,-0.0626 -0.005,-0.005 -0.007,-0.0795 -0.003,-0.16562 z m 0.48253,-0.38065 c -0.002,-0.0441 -0.002,-0.11251 7.94e-4,-0.15197 l 0.005,-0.0717 0.604631,0.60656 0.60464,0.60657 -0.22777,-0.0763 -0.227779,-0.0763 -0.377541,-0.37828 -0.377549,-0.37829 z m 0.30732,-0.58447 c 0.0408,-0.0168 0.0898,-0.0306 0.10896,-0.0307 0.0275,-1.5e-4 0.247341,0.21381 1.038091,1.01022 l 1.00323,1.01037 -0.18459,-0.0521 -0.18458,-0.0521 -0.92758,-0.92758 -0.927581,-0.92758 z m 0.787681,0.0342 c 0.006,-0.006 0.0961,0.0153 0.20062,0.047 l 0.18997,0.0577 0.91825,0.92543 0.91826,0.92542 -0.10714,0.0393 -0.10714,0.0393 -1.01173,-1.01173 c -0.55645,-0.55645 -1.00694,-1.01652 -1.00109,-1.02238 z m 1.28271,0.41868 c 0.002,-0.002 0.0974,0.0279 0.21244,0.066 l 0.20906,0.0694 0.38268,0.38266 0.382661,0.38267 4e-5,0.13253 5e-5,0.13254 -0.162721,-0.15593 c -0.26257,-0.25161 -1.02787,-1.00617 -1.02421,-1.00983 z m 0.76245,-1.05529 c -0.36889,-1.09034 -0.43218,-1.75583 -0.21709,-2.28264 0.0612,-0.14989 0.18427,-0.34824 0.26805,-0.43202 0.0486,-0.0485 0.0587,-0.051 0.0881,-0.0216 0.0287,0.0287 0.026,0.0431 -0.0194,0.1046 -0.0848,0.1147 -0.14023,0.31617 -0.138839,0.50453 0.002,0.25692 0.071,0.55632 0.248149,1.07531 0.38329,1.12282 0.54036,1.59794 0.54723,1.65522 l 0.007,0.0613 -0.28675,-0.10202 c -0.157699,-0.0561 -0.302269,-0.11189 -0.321259,-0.12396 -0.0211,-0.0134 -0.0894,-0.18414 -0.17554,-0.43877 z m 0.70552,-0.16162 -0.0642,-0.2008 0.589929,0.58852 c 0.32444,0.3237 0.58547,0.59298 0.58001,0.59844 -0.006,0.006 -0.0632,0.0104 -0.12842,0.011 l -0.11849,10e-4 -0.39734,-0.39876 -0.39734,-0.39875 z m -0.430799,-1.24273 c -0.0263,-0.0888 -0.0516,-0.17642 -0.0564,-0.19463 -0.005,-0.0191 0.42249,0.39777 1.01045,0.98525 l 1.019201,1.01835 -0.0324,0.0938 c -0.0178,0.0516 -0.0354,0.0968 -0.0391,0.1004 -0.003,0.004 -0.42228,-0.40926 -0.93033,-0.91752 l -0.923711,-0.92414 -0.0477,-0.16153 z m -0.112321,-0.92917 c 0.007,-0.0304 0.0238,-0.0757 0.0387,-0.10073 l 0.0272,-0.0454 0.92242,0.92242 0.92241,0.92242 0.0323,0.0993 c 0.0177,0.0546 0.0442,0.14375 0.059,0.1981 l 0.0267,0.0988 -1.02011,-1.01979 -1.020099,-1.01979 0.0115,-0.0553 z"
       id="path3758-0-6-9-7"
       inkscape:connector-curvature="0" />
    <rect
       style="opacity:1;fill:#808080;fill-opacity:1;stroke:none;stroke-width:0.62142265;stroke-linecap:butt;stroke-linejoin:round;stroke-miterlimit:4;stroke-dasharray:none;stroke-dashoffset:0;stroke-opacity:1;paint-order:stroke markers fill"
       id="rect22224"
       width="25.891369"
       height="50.680084"
       x="17.55722"
       y="244.69312"
       rx="3"
       ry="3" />
    <rect
       style="opacity:1;fill:#e6e6e6;fill-opacity:1;stroke:none;stroke-width:0.22853756;stroke-linecap:butt;stroke-linejoin:round;stroke-miterlimit:4;stroke-dasharray:none;stroke-dashoffset:0;stroke-opacity:1;paint-order:stroke markers fill"
       id="rect22224-4"
       width="22.416864"
       height="7.9169607"
       x="19.294472"
       y="247.41609"
       rx="2"
       ry="2" />
    <rect
       style="opacity:1;fill:#e6e6e6;fill-opacity:1;stroke:none;stroke-width:0.22853756;stroke-linecap:butt;stroke-linejoin:round;stroke-miterlimit:4;stroke-dasharray:none;stroke-dashoffset:0;stroke-opacity:1;paint-order:stroke markers fill"
       id="rect22224-4-4"
       width="22.416864"
       height="7.9169607"
       x="19.294472"
       y="257.44974"
       rx="2"
       ry="2" />
    <rect
       style="opacity:1;fill:#e6e6e6;fill-opacity:1;stroke:none;stroke-width:0.22853756;stroke-linecap:butt;stroke-linejoin:round;stroke-miterlimit:4;stroke-dasharray:none;stroke-dashoffset:0;stroke-opacity:1;paint-order:stroke markers fill"
       id="rect22224-4-5"
       width="22.416864"
       height="7.9169607"
       x="19.294472"
       y="267.48337"
       rx="2"
       ry="2" />
    <rect
       style="opacity:1;fill:#e6e6e6;fill-opacity:1;stroke:none;stroke-width:0.22853756;stroke-linecap:butt;stroke-linejoin:round;stroke-miterlimit:4;stroke-dasharray:none;stroke-dashoffset:0;stroke-opacity:1;paint-order:stroke markers fill"
       id="rect22224-4-57"
       width="22.416864"
       height="7.9169607"
       x="19.294472"
       y="277.517"
       rx="2"
       ry="2" />
    <text
       xml:space="preserve"
       style="font-style:normal;font-variant:normal;font-weight:normal;font-stretch:normal;font-size:2.82222223px;line-height:1.25;font-family:Arial;-inkscape-font-specification:Arial;letter-spacing:0px;word-spacing:0px;fill:#000000;fill-opacity:1;stroke:none;stroke-width:0.26458332"
       x="22.280151"
       y="272.43542"
       id="text22228-0"><tspan
         sodipodi:role="line"
         id="tspan22226-3"
         x="22.280151"
         y="272.43542"
         style="font-size:2.82222223px;stroke-width:0.26458332">Fecundidade</tspan></text>
    <text
       xml:space="preserve"
       style="font-style:normal;font-variant:normal;font-weight:normal;font-stretch:normal;font-size:2.82222223px;line-height:0.75;font-family:Arial;-inkscape-font-specification:Arial;text-align:center;letter-spacing:0px;word-spacing:0px;text-anchor:middle;fill:#000000;fill-opacity:1;stroke:none;stroke-width:0.26458332"
       x="30.446404"
       y="282.46906"
       id="text22228-6-9"><tspan
         sodipodi:role="line"
         x="30.446404"
         y="282.46906"
         style="font-size:2.82222223px;line-height:0.75;text-align:center;text-anchor:middle;stroke-width:0.26458332"
         id="tspan22248-9">Fertilidade</tspan></text>
    <text
       xml:space="preserve"
       style="font-style:normal;font-variant:normal;font-weight:normal;font-stretch:normal;font-size:2.82222223px;line-height:0.75;font-family:Arial;-inkscape-font-specification:Arial;text-align:center;letter-spacing:0px;word-spacing:0px;text-anchor:middle;fill:#ffffff;fill-opacity:1;stroke:none;stroke-width:0.26458332"
       x="30.564232"
       y="290.82767"
       id="text22228-6-98-4"><tspan
         sodipodi:role="line"
         x="30.564232"
         y="290.82767"
         style="font-size:2.82222223px;line-height:1;text-align:center;text-anchor:middle;fill:#ffffff;stroke-width:0.26458332"
         id="tspan22248-0-2">Adaptabilidade</tspan><tspan
         sodipodi:role="line"
         x="30.564232"
         y="293.64987"
         style="font-size:2.82222223px;line-height:1;text-align:center;text-anchor:middle;fill:#ffffff;stroke-width:0.26458332"
         id="tspan22886">reprodutiva</tspan></text>
    <text
       xml:space="preserve"
       style="font-style:normal;font-variant:normal;font-weight:normal;font-stretch:normal;font-size:2.82222223px;line-height:0.75;font-family:Arial;-inkscape-font-specification:Arial;text-align:center;letter-spacing:0px;word-spacing:0px;text-anchor:middle;fill:#000000;fill-opacity:1;stroke:none;stroke-width:0.26458332"
       x="30.555958"
       y="252.36813"
       id="text22228-6-98"><tspan
         sodipodi:role="line"
         x="30.555958"
         y="252.36813"
         style="font-size:2.82222223px;line-height:0.75;text-align:center;text-anchor:middle;stroke-width:0.26458332"
         id="tspan22248-0">Viabilidade</tspan></text>
    <path
       style="fill:#2c89a0;fill-opacity:1;stroke-width:0.01972272"
       d="m 49.141866,241.56816 c 0.4099,-0.004 0.90463,0.10608 1.67033,0.37129 1.11157,0.38501 1.33519,0.45687 1.57038,0.50462 0.30664,0.0623 0.54419,0.0642 0.7147,0.006 0.17037,-0.0584 0.25634,-0.12581 0.33966,-0.26653 0.17786,-0.30037 0.1457,-0.71901 -0.11355,-1.47836 -0.0702,-0.20585 -0.22515,-0.65971 -0.34418,-1.00859 -0.11901,-0.34887 -0.21927,-0.66234 -0.22278,-0.6966 l -0.007,-0.0623 0.28316,0.10015 c 0.15575,0.0551 0.29914,0.10843 0.31866,0.11855 0.0436,0.0226 0.29037,0.73995 0.389181,1.13113 0.20585,0.81502 0.16466,1.4114 -0.128101,1.85517 -0.289121,0.43822 -0.752941,0.67008 -1.342081,0.67089 -0.529289,7.4e-4 -0.938319,-0.0978 -2.102889,-0.50655 l -0.704379,-0.24723 -0.24491,-0.2449 -0.2449,-0.2449 z m 2.435,2.50008 c 0.15511,-0.21715 0.18225,-0.51071 0.0875,-0.94653 l -0.044,-0.20236 0.0808,0.0111 c 0.0445,0.006 0.14291,0.0178 0.21877,0.0259 l 0.13794,0.0148 -0.007,0.11681 c -0.0231,0.42531 -0.13276,0.738 -0.35033,0.99892 l -0.0957,0.11471 -0.0362,-0.0362 c -0.0309,-0.0309 -0.0298,-0.045 0.007,-0.0972 z m -1.22012,-1.52631 c 0.002,-0.002 0.10152,0.0321 0.22171,0.0753 l 0.21854,0.0785 0.38665,0.38665 0.38666,0.38666 -0.005,0.12729 -0.005,0.12729 -0.16378,-0.15698 c -0.256449,-0.2458 -1.042929,-1.02112 -1.03939,-1.02464 z m 0.80962,-0.96592 c -0.37643,-1.09263 -0.45515,-1.73082 -0.27918,-2.26371 0.0803,-0.24322 0.16652,-0.38089 0.35945,-0.57396 0.20382,-0.20403 0.32172,-0.27917 0.57057,-0.36381 0.53622,-0.1824 1.23893,-0.0935 2.341041,0.29617 1.47304,0.52082 1.87735,0.60828 2.24054,0.48466 0.121361,-0.0413 0.1528,-0.0611 0.243421,-0.15309 0.0861,-0.0875 0.111389,-0.12712 0.146679,-0.23037 0.0572,-0.16718 0.0553,-0.44434 -0.005,-0.73368 -0.0267,-0.12836 -0.0391,-0.23251 -0.0275,-0.23145 0.0116,0.001 0.10679,0.0141 0.21149,0.0289 l 0.19038,0.027 7.94e-4,0.13801 c 0.005,0.65082 -0.41664,1.23931 -1.035271,1.44521 -0.320649,0.10671 -0.74374,0.11356 -1.212479,0.0196 -0.375611,-0.0753 -0.685551,-0.17036 -1.460642,-0.44809 -0.66791,-0.23932 -0.95485,-0.32791 -1.226539,-0.3787 -0.720212,-0.13463 -1.117412,0.14025 -1.102701,0.7631 0.008,0.31972 0.0984,0.64792 0.462579,1.67154 0.18884,0.53081 0.354421,1.05821 0.33751,1.07512 -0.007,0.007 -0.53827,-0.17346 -0.61408,-0.20874 -0.0105,-0.005 -0.0741,-0.16852 -0.141269,-0.36367 z m 0.68159,-0.2301 c -0.0383,-0.1139 -0.0696,-0.21334 -0.0696,-0.221 0,-0.008 0.26775,0.25384 0.59502,0.58111 0.456831,0.45682 0.59112,0.59896 0.57814,0.61194 -0.009,0.009 -0.0702,0.0174 -0.1354,0.018 l -0.118479,0.001 -0.39009,-0.39204 -0.390101,-0.39205 z m -0.41726,-1.18884 c -0.015,-0.054 -0.0408,-0.14741 -0.0574,-0.20755 l -0.0302,-0.10933 1.02073,1.02009 1.02073,1.0201 -0.0176,0.0731 c -0.01,0.0402 -0.028,0.0878 -0.0407,0.10573 -0.0229,0.0323 -0.0315,0.0243 -0.94575,-0.88567 l -0.92258,-0.9183 -0.0273,-0.0982 z m -0.12955,-1.00859 c 0.01,-0.04 0.0278,-0.0912 0.0398,-0.11364 l 0.0219,-0.0409 0.92345,0.92345 0.92344,0.92345 0.0506,0.17539 c 0.0278,0.0965 0.0537,0.19113 0.0574,0.21039 0.005,0.0237 -0.32186,-0.29355 -1.01378,-0.98519 l -1.02065,-1.02021 z m 0.53071,-0.38275 0.13842,-0.001 0.39728,0.3987 0.39727,0.39869 0.0642,0.2008 0.0642,0.2008 -0.59987,-0.59844 -0.59987,-0.59844 z m 0.79698,-0.81603 c 0.0109,-0.28323 0.076,-0.51887 0.20739,-0.75041 0.10068,-0.17746 0.38541,-0.45527 0.56232,-0.54864 0.448001,-0.23644 0.987161,-0.25992 1.718071,-0.0748 0.35655,0.0903 0.545,0.15075 1.17723,0.37768 0.922651,0.33116 1.28574,0.42718 1.61545,0.42718 0.247831,0 0.41983,-0.0631 0.560061,-0.20564 0.0829,-0.0843 0.111839,-0.12847 0.144029,-0.22026 0.0813,-0.23202 0.0578,-0.59822 -0.0643,-1.00253 l -0.058,-0.1919 0.241229,0.23294 0.241231,0.23294 -0.006,0.10359 c -0.0206,0.35709 -0.19987,0.71999 -0.48115,0.97389 -0.30737,0.27745 -0.64753,0.39729 -1.12444,0.39614 -0.414311,-0.001 -0.904041,-0.10305 -1.547761,-0.32255 -0.19448,-0.0663 -0.6015,-0.20528 -0.90449,-0.30881 -0.62199,-0.21254 -0.95054,-0.28793 -1.231201,-0.28253 -0.25193,0.005 -0.39438,0.0558 -0.52774,0.18876 -0.19971,0.19909 -0.24641,0.50119 -0.14947,0.96661 0.0272,0.1305 0.0394,0.23696 0.0271,0.23658 -0.0541,-0.002 -0.38846,-0.0544 -0.3966,-0.0626 -0.005,-0.005 -0.007,-0.0795 -0.003,-0.16562 z m 0.48253,-0.38065 c -0.002,-0.0441 -0.002,-0.11251 7.94e-4,-0.15197 l 0.005,-0.0717 0.604631,0.60656 0.60464,0.60657 -0.22777,-0.0763 -0.227779,-0.0763 -0.377541,-0.37828 -0.37755,-0.37829 z m 0.30732,-0.58447 c 0.0408,-0.0168 0.0898,-0.0306 0.10896,-0.0307 0.0275,-1.5e-4 0.247341,0.21381 1.038091,1.01022 l 1.00323,1.01037 -0.18459,-0.0521 -0.18458,-0.0521 -0.92758,-0.92758 -0.927581,-0.92758 z m 0.787681,0.0342 c 0.006,-0.006 0.0961,0.0153 0.20062,0.047 l 0.18997,0.0577 0.91825,0.92543 0.91826,0.92542 -0.10714,0.0393 -0.10714,0.0393 -1.01173,-1.01173 c -0.55645,-0.55645 -1.00694,-1.01652 -1.00109,-1.02238 z m 1.28271,0.41868 c 0.002,-0.002 0.0974,0.0279 0.21244,0.066 l 0.20906,0.0694 0.38268,0.38266 0.382661,0.38267 4e-5,0.13253 5e-5,0.13254 -0.162721,-0.15593 c -0.26257,-0.25161 -1.02787,-1.00617 -1.02421,-1.00983 z m 0.76245,-1.05529 c -0.36889,-1.09034 -0.43218,-1.75583 -0.21709,-2.28264 0.0612,-0.14989 0.18427,-0.34824 0.26805,-0.43202 0.0486,-0.0485 0.0587,-0.051 0.0881,-0.0216 0.0287,0.0287 0.026,0.0431 -0.0194,0.1046 -0.0848,0.1147 -0.14023,0.31617 -0.138839,0.50453 0.002,0.25692 0.071,0.55632 0.248149,1.07531 0.38329,1.12282 0.54036,1.59794 0.54723,1.65522 l 0.007,0.0613 -0.28675,-0.10202 c -0.157699,-0.0561 -0.302269,-0.11189 -0.321259,-0.12396 -0.0211,-0.0134 -0.0894,-0.18414 -0.17554,-0.43877 z m 0.70552,-0.16162 -0.0642,-0.2008 0.589929,0.58852 c 0.32444,0.3237 0.58547,0.59298 0.58001,0.59844 -0.006,0.006 -0.0632,0.0104 -0.12842,0.011 l -0.11849,10e-4 -0.39734,-0.39875 -0.39734,-0.39875 z m -0.430799,-1.24273 c -0.0263,-0.0888 -0.0516,-0.17642 -0.0564,-0.19463 -0.005,-0.0191 0.42249,0.39777 1.01045,0.98525 l 1.019201,1.01835 -0.0324,0.0938 c -0.0178,0.0516 -0.0354,0.0968 -0.0391,0.1004 -0.003,0.004 -0.42228,-0.40926 -0.93033,-0.91752 l -0.923711,-0.92414 -0.0477,-0.16153 z m -0.112321,-0.92917 c 0.007,-0.0304 0.0238,-0.0757 0.0387,-0.10073 l 0.0272,-0.0454 0.92242,0.92242 0.92241,0.92242 0.0323,0.0993 c 0.0177,0.0546 0.0442,0.14375 0.059,0.1981 l 0.0267,0.0988 -1.02011,-1.01979 -1.020099,-1.01979 0.0115,-0.0553 z"
       id="path3758-0-6-9-1"
       inkscape:connector-curvature="0" />
    <path
       style="fill:#2c89a0;fill-opacity:1;stroke-width:0.01972272"
       d="m 49.141866,250.55546 c 0.4099,-0.004 0.90463,0.10608 1.67033,0.37129 1.11157,0.38501 1.33519,0.45687 1.57038,0.50462 0.30664,0.0623 0.54419,0.0642 0.7147,0.006 0.17037,-0.0584 0.25634,-0.12581 0.33966,-0.26653 0.17786,-0.30037 0.1457,-0.71901 -0.11355,-1.47836 -0.0702,-0.20585 -0.22515,-0.65971 -0.34418,-1.00859 -0.11901,-0.34887 -0.21927,-0.66234 -0.22278,-0.6966 l -0.007,-0.0623 0.28316,0.10015 c 0.15575,0.0551 0.29914,0.10843 0.31866,0.11855 0.0436,0.0226 0.29037,0.73995 0.389181,1.13113 0.20585,0.81502 0.16466,1.4114 -0.128101,1.85517 -0.289121,0.43822 -0.752941,0.67008 -1.342081,0.67089 -0.529289,7.4e-4 -0.938319,-0.0978 -2.102889,-0.50655 l -0.704379,-0.24723 -0.24491,-0.2449 -0.2449,-0.2449 z m 2.435,2.50008 c 0.15511,-0.21715 0.18225,-0.51071 0.0875,-0.94653 l -0.044,-0.20236 0.0808,0.0111 c 0.0445,0.006 0.14291,0.0178 0.21877,0.0259 l 0.13794,0.0148 -0.007,0.11681 c -0.0231,0.42531 -0.13276,0.738 -0.35033,0.99892 l -0.0957,0.11471 -0.0362,-0.0362 c -0.0309,-0.0309 -0.0298,-0.045 0.007,-0.0972 z m -1.22012,-1.52631 c 0.002,-0.002 0.10152,0.0321 0.22171,0.0753 l 0.21854,0.0785 0.38665,0.38665 0.38666,0.38666 -0.005,0.12729 -0.005,0.12729 -0.16378,-0.15698 c -0.256449,-0.2458 -1.042929,-1.02112 -1.03939,-1.02464 z m 0.80962,-0.96592 c -0.37643,-1.09263 -0.45515,-1.73082 -0.27918,-2.26371 0.0803,-0.24322 0.16652,-0.38089 0.35945,-0.57396 0.20382,-0.20403 0.32172,-0.27917 0.57057,-0.36381 0.53622,-0.1824 1.23893,-0.0935 2.341041,0.29617 1.47304,0.52082 1.87735,0.60828 2.24054,0.48466 0.121361,-0.0413 0.1528,-0.0611 0.243421,-0.15309 0.0861,-0.0875 0.111389,-0.12712 0.146679,-0.23037 0.0572,-0.16718 0.0553,-0.44434 -0.005,-0.73368 -0.0267,-0.12836 -0.0391,-0.23251 -0.0275,-0.23145 0.0116,0.001 0.10679,0.0141 0.21149,0.0289 l 0.19038,0.027 7.94e-4,0.13801 c 0.005,0.65082 -0.41664,1.23931 -1.035271,1.44521 -0.320649,0.10671 -0.74374,0.11356 -1.212479,0.0196 -0.375611,-0.0753 -0.685551,-0.17036 -1.460642,-0.44809 -0.66791,-0.23932 -0.95485,-0.32791 -1.226539,-0.3787 -0.720211,-0.13463 -1.117411,0.14025 -1.1027,0.7631 0.008,0.31972 0.0984,0.64792 0.462579,1.67154 0.18884,0.53081 0.354421,1.05821 0.33751,1.07512 -0.007,0.007 -0.53827,-0.17346 -0.61408,-0.20874 -0.0105,-0.005 -0.0741,-0.16852 -0.141269,-0.36367 z m 0.68159,-0.2301 c -0.0383,-0.1139 -0.0696,-0.21334 -0.0696,-0.221 0,-0.008 0.26775,0.25384 0.59502,0.58111 0.456831,0.45682 0.59112,0.59896 0.57814,0.61194 -0.009,0.009 -0.0702,0.0174 -0.1354,0.018 l -0.118479,0.001 -0.39009,-0.39204 -0.390101,-0.39205 z m -0.41726,-1.18884 c -0.015,-0.054 -0.0408,-0.14741 -0.0574,-0.20755 l -0.0302,-0.10933 1.02073,1.02009 1.02073,1.0201 -0.0176,0.0731 c -0.01,0.0402 -0.028,0.0878 -0.0407,0.10573 -0.0229,0.0323 -0.0315,0.0243 -0.94575,-0.88567 l -0.92258,-0.9183 -0.0273,-0.0982 z m -0.12955,-1.00859 c 0.01,-0.04 0.0278,-0.0912 0.0398,-0.11364 l 0.0219,-0.0409 0.923449,0.92345 0.92344,0.92345 0.0506,0.17539 c 0.0278,0.0965 0.0537,0.19113 0.0574,0.21039 0.005,0.0237 -0.321859,-0.29355 -1.013779,-0.98519 l -1.02065,-1.02021 z m 0.53071,-0.38275 0.13842,-0.001 0.39728,0.3987 0.39727,0.39869 0.0642,0.2008 0.0642,0.2008 -0.59987,-0.59844 -0.59987,-0.59845 z m 0.79698,-0.81603 c 0.0109,-0.28323 0.076,-0.51887 0.20739,-0.75041 0.10068,-0.17746 0.38541,-0.45527 0.56232,-0.54864 0.448001,-0.23644 0.987161,-0.25992 1.718071,-0.0748 0.35655,0.0903 0.545,0.15075 1.17723,0.37768 0.922651,0.33116 1.28574,0.42718 1.61545,0.42718 0.247831,0 0.41983,-0.0631 0.560061,-0.20564 0.0829,-0.0843 0.111839,-0.12847 0.144029,-0.22026 0.0813,-0.23202 0.0578,-0.59822 -0.0643,-1.00253 l -0.058,-0.1919 0.241229,0.23294 0.241231,0.23294 -0.006,0.10359 c -0.0206,0.35709 -0.19987,0.71999 -0.48115,0.97389 -0.30737,0.27745 -0.64753,0.39729 -1.12444,0.39614 -0.41431,-0.001 -0.90404,-0.10305 -1.54776,-0.32255 -0.19448,-0.0663 -0.6015,-0.20528 -0.90449,-0.30881 -0.62199,-0.21254 -0.95054,-0.28793 -1.231201,-0.28253 -0.25193,0.005 -0.39438,0.0558 -0.52774,0.18876 -0.19971,0.19909 -0.24641,0.50119 -0.14947,0.96661 0.0272,0.1305 0.0394,0.23696 0.0271,0.23658 -0.0541,-0.002 -0.38846,-0.0544 -0.3966,-0.0626 -0.005,-0.005 -0.007,-0.0795 -0.003,-0.16562 z m 0.48253,-0.38065 c -0.002,-0.0441 -0.002,-0.11251 7.94e-4,-0.15197 l 0.005,-0.0717 0.604631,0.60656 0.60464,0.60657 -0.22777,-0.0763 -0.227779,-0.0763 -0.37754,-0.37828 -0.37755,-0.37829 z m 0.30732,-0.58447 c 0.0408,-0.0168 0.0898,-0.0306 0.10896,-0.0307 0.0275,-1.5e-4 0.247341,0.21381 1.038091,1.01022 l 1.00323,1.01037 -0.18459,-0.0521 -0.18458,-0.0521 -0.92758,-0.92758 -0.927581,-0.92758 z m 0.787681,0.0342 c 0.006,-0.006 0.0961,0.0153 0.20062,0.047 l 0.18997,0.0577 0.91825,0.92543 0.91826,0.92542 -0.10714,0.0393 -0.10714,0.0393 -1.01173,-1.01173 c -0.55645,-0.55645 -1.00694,-1.01652 -1.00109,-1.02238 z m 1.28271,0.41868 c 0.002,-0.002 0.0974,0.0279 0.21244,0.066 l 0.20906,0.0694 0.38268,0.38266 0.382661,0.38267 4e-5,0.13253 5e-5,0.13254 -0.162721,-0.15593 c -0.26257,-0.25161 -1.02787,-1.00617 -1.02421,-1.00983 z m 0.76245,-1.05529 c -0.36889,-1.09034 -0.43218,-1.75583 -0.21709,-2.28264 0.0612,-0.14989 0.18427,-0.34824 0.26805,-0.43202 0.0486,-0.0485 0.0587,-0.051 0.0881,-0.0216 0.0287,0.0287 0.026,0.0431 -0.0194,0.1046 -0.0848,0.1147 -0.14023,0.31617 -0.138839,0.50453 0.002,0.25692 0.071,0.55632 0.248149,1.07531 0.38329,1.12282 0.54036,1.59794 0.54723,1.65522 l 0.007,0.0613 -0.28675,-0.10202 c -0.1577,-0.0561 -0.302269,-0.11189 -0.321259,-0.12396 -0.0211,-0.0134 -0.0894,-0.18414 -0.17554,-0.43877 z m 0.70552,-0.16162 -0.0642,-0.2008 0.589929,0.58852 c 0.32444,0.3237 0.58547,0.59298 0.58001,0.59844 -0.006,0.006 -0.0632,0.0104 -0.12842,0.011 l -0.11849,0.001 -0.39734,-0.39876 -0.39734,-0.39875 z m -0.430799,-1.24273 c -0.0263,-0.0888 -0.0516,-0.17642 -0.0564,-0.19463 -0.005,-0.0191 0.42249,0.39777 1.01045,0.98525 l 1.019201,1.01835 -0.0324,0.0938 c -0.0178,0.0516 -0.0354,0.0968 -0.0391,0.1004 -0.003,0.004 -0.42228,-0.40926 -0.93033,-0.91752 l -0.923711,-0.92414 -0.0477,-0.16153 z m -0.112321,-0.92917 c 0.007,-0.0304 0.0238,-0.0757 0.0387,-0.10073 l 0.0272,-0.0454 0.92242,0.92242 0.92241,0.92242 0.0323,0.0993 c 0.0177,0.0546 0.0442,0.14375 0.059,0.1981 l 0.0267,0.0988 -1.02011,-1.01979 -1.020099,-1.01979 0.0115,-0.0553 z"
       id="path3758-0-6-9-2-1"
       inkscape:connector-curvature="0" />
    <path
       style="fill:#2ca05a;fill-opacity:1;stroke-width:0.01972272"
       d="m 49.141866,273.29253 c 0.4099,-0.004 0.90463,0.10608 1.67033,0.37129 1.11157,0.38501 1.33519,0.45687 1.57038,0.50462 0.30664,0.0623 0.54419,0.0642 0.7147,0.006 0.17037,-0.0584 0.25634,-0.12581 0.33966,-0.26653 0.17786,-0.30037 0.1457,-0.71901 -0.11355,-1.47836 -0.0702,-0.20585 -0.22515,-0.65971 -0.34418,-1.0086 -0.11901,-0.34886 -0.21927,-0.66233 -0.22278,-0.6966 l -0.007,-0.0623 0.28316,0.10015 c 0.155751,0.0551 0.29914,0.10844 0.31866,0.11856 0.0436,0.0226 0.29037,0.73994 0.389181,1.13113 0.20585,0.81501 0.16466,1.4114 -0.128101,1.85516 -0.289122,0.43823 -0.752941,0.67009 -1.342082,0.6709 -0.529289,7.9e-4 -0.938319,-0.0978 -2.102889,-0.50655 l -0.704378,-0.24723 -0.24491,-0.24491 -0.2449,-0.24489 z m 2.435,2.50007 c 0.15511,-0.21715 0.18225,-0.5107 0.0875,-0.94652 l -0.044,-0.20236 0.0808,0.0111 c 0.0445,0.006 0.14291,0.0178 0.21877,0.0259 l 0.13794,0.0148 -0.007,0.11681 c -0.0231,0.4253 -0.13276,0.73799 -0.35033,0.99892 l -0.0957,0.1147 -0.0362,-0.0362 c -0.0309,-0.0309 -0.0298,-0.045 0.007,-0.0972 z m -1.22012,-1.5263 c 0.002,-0.002 0.10152,0.0321 0.22171,0.0753 l 0.21854,0.0785 0.38665,0.38665 0.38666,0.38666 -0.005,0.12728 -0.005,0.12729 -0.16378,-0.15697 c -0.256449,-0.2458 -1.042929,-1.02112 -1.03939,-1.02464 z m 0.80962,-0.96592 c -0.37643,-1.09263 -0.45515,-1.73082 -0.27918,-2.26371 0.0803,-0.24322 0.16652,-0.38089 0.35945,-0.57396 0.20382,-0.20403 0.32172,-0.27918 0.57057,-0.36381 0.53622,-0.1824 1.23893,-0.0935 2.341041,0.29617 1.47304,0.52082 1.87735,0.60828 2.24054,0.48466 0.121361,-0.0413 0.1528,-0.0611 0.243421,-0.15309 0.0861,-0.0875 0.111389,-0.12712 0.146679,-0.23037 0.0572,-0.16718 0.0553,-0.44434 -0.005,-0.73368 -0.0267,-0.12836 -0.0391,-0.23251 -0.0275,-0.23146 0.0116,0.001 0.106791,0.0141 0.21149,0.0289 l 0.190381,0.027 7.94e-4,0.13801 c 0.005,0.65081 -0.41664,1.2393 -1.035271,1.4452 -0.320651,0.10671 -0.743742,0.11356 -1.212481,0.0196 -0.375611,-0.0753 -0.685551,-0.17037 -1.460641,-0.4481 -0.667911,-0.23932 -0.95485,-0.32791 -1.226539,-0.3787 -0.720211,-0.13463 -1.117411,0.14025 -1.1027,0.76311 0.008,0.31972 0.0984,0.64791 0.462579,1.67153 0.18884,0.53082 0.354421,1.05822 0.33751,1.07513 -0.007,0.007 -0.53827,-0.17347 -0.61408,-0.20875 -0.0105,-0.005 -0.0741,-0.16851 -0.141269,-0.36366 z m 0.68159,-0.2301 c -0.0383,-0.1139 -0.0696,-0.21334 -0.0696,-0.221 0,-0.008 0.26775,0.25384 0.59502,0.58111 0.456831,0.45682 0.59112,0.59896 0.57814,0.61194 -0.009,0.009 -0.0702,0.0174 -0.1354,0.018 l -0.118479,0.001 -0.39009,-0.39204 -0.390101,-0.39205 z m -0.41726,-1.18884 c -0.015,-0.054 -0.0408,-0.14741 -0.0574,-0.20755 l -0.0302,-0.10933 1.02073,1.02009 1.02073,1.0201 -0.0176,0.0731 c -0.01,0.0402 -0.028,0.0878 -0.0407,0.10573 -0.0229,0.0323 -0.0315,0.0243 -0.94575,-0.88567 l -0.92258,-0.9183 -0.0273,-0.0982 z m -0.12955,-1.00859 c 0.01,-0.04 0.0278,-0.0912 0.0398,-0.11365 l 0.0219,-0.0409 0.92345,0.92345 0.92344,0.92345 0.0506,0.17539 c 0.0278,0.0965 0.0537,0.19114 0.0574,0.21039 0.005,0.0237 -0.32186,-0.29355 -1.01378,-0.98519 l -1.02065,-1.0202 z m 0.53071,-0.38275 0.13842,-0.001 0.39728,0.3987 0.39727,0.39869 0.0642,0.2008 0.0642,0.2008 -0.59987,-0.59844 -0.59987,-0.59845 z m 0.79698,-0.81603 c 0.0109,-0.28323 0.076,-0.51888 0.20739,-0.75041 0.10068,-0.17746 0.38541,-0.45527 0.56232,-0.54864 0.448001,-0.23644 0.987161,-0.25992 1.718071,-0.0748 0.35655,0.0903 0.545,0.15074 1.17723,0.37768 0.922651,0.33115 1.28574,0.42717 1.61545,0.42717 0.247831,0 0.41983,-0.0631 0.560061,-0.20563 0.0829,-0.0843 0.111839,-0.12848 0.144029,-0.22026 0.0813,-0.23203 0.0578,-0.59823 -0.0643,-1.00254 l -0.058,-0.19189 0.241229,0.23294 0.241231,0.23294 -0.006,0.10359 c -0.0206,0.35709 -0.19987,0.71999 -0.48115,0.97388 -0.30737,0.27746 -0.64753,0.3973 -1.12444,0.39615 -0.41431,-0.001 -0.90404,-0.10305 -1.54776,-0.32255 -0.194481,-0.0663 -0.601501,-0.20529 -0.904491,-0.30882 -0.62199,-0.21253 -0.95054,-0.28793 -1.231201,-0.28253 -0.25193,0.005 -0.39438,0.0558 -0.52774,0.18876 -0.19971,0.1991 -0.24641,0.5012 -0.14947,0.96661 0.0272,0.13051 0.0394,0.23697 0.0271,0.23658 -0.0541,-0.002 -0.38846,-0.0544 -0.3966,-0.0626 -0.005,-0.005 -0.007,-0.0795 -0.003,-0.16563 z m 0.48253,-0.38065 c -0.002,-0.0441 -0.002,-0.11251 7.94e-4,-0.15197 l 0.005,-0.0717 0.604631,0.60656 0.60464,0.60657 -0.22777,-0.0763 -0.227779,-0.0763 -0.377541,-0.37828 -0.377549,-0.37829 z m 0.30732,-0.58447 c 0.0408,-0.0168 0.0898,-0.0306 0.10896,-0.0307 0.0275,-1.6e-4 0.247341,0.21381 1.038091,1.01021 l 1.00323,1.01037 -0.18459,-0.0521 -0.18458,-0.0521 -0.92758,-0.92758 -0.927581,-0.92758 z m 0.787681,0.0342 c 0.006,-0.006 0.0961,0.0153 0.20062,0.047 l 0.18997,0.0577 0.91825,0.92542 0.91826,0.92543 -0.10714,0.0393 -0.10714,0.0393 -1.01173,-1.01174 c -0.55645,-0.55644 -1.00694,-1.01651 -1.00109,-1.02237 z m 1.28271,0.41868 c 0.002,-0.002 0.0974,0.0279 0.21244,0.066 l 0.20906,0.0694 0.38268,0.38265 0.382661,0.38268 4e-5,0.13253 5e-5,0.13254 -0.162721,-0.15594 c -0.26257,-0.2516 -1.02787,-1.00616 -1.02421,-1.00982 z m 0.76245,-1.0553 c -0.36889,-1.09034 -0.43218,-1.75582 -0.21709,-2.28264 0.0612,-0.14988 0.18427,-0.34823 0.26805,-0.43201 0.0486,-0.0485 0.0587,-0.051 0.0881,-0.0216 0.0287,0.0287 0.026,0.0431 -0.0194,0.1046 -0.0848,0.1147 -0.14023,0.31617 -0.138839,0.50453 0.002,0.25692 0.071,0.55632 0.248149,1.07531 0.38329,1.12282 0.54036,1.59794 0.54723,1.65522 l 0.007,0.0613 -0.286749,-0.10202 c -0.157699,-0.0561 -0.302269,-0.11189 -0.321259,-0.12396 -0.0211,-0.0134 -0.0894,-0.18414 -0.17554,-0.43877 z m 0.70552,-0.16161 -0.0642,-0.2008 0.589929,0.58852 c 0.32444,0.3237 0.58547,0.59298 0.58001,0.59844 -0.006,0.006 -0.0632,0.0104 -0.12842,0.011 l -0.11849,0.001 -0.39734,-0.3988 -0.39734,-0.39875 z m -0.430799,-1.24273 c -0.0263,-0.0888 -0.0516,-0.17643 -0.0564,-0.19463 -0.005,-0.0191 0.42249,0.39777 1.01045,0.98525 l 1.019201,1.01835 -0.0324,0.0938 c -0.0178,0.0516 -0.0354,0.0968 -0.0391,0.1004 -0.003,0.004 -0.42228,-0.40926 -0.93033,-0.91752 l -0.923711,-0.92414 -0.0477,-0.16153 z m -0.112321,-0.92917 c 0.007,-0.0304 0.0238,-0.0757 0.0387,-0.10073 l 0.0272,-0.0454 0.92242,0.92241 0.92241,0.92242 0.0323,0.0993 c 0.0177,0.0546 0.0442,0.14375 0.059,0.19809 l 0.0267,0.0988 -1.02011,-1.01978 -1.020099,-1.0198 0.0115,-0.0553 z"
       id="path3758-0-6-9-7-7-8"
       inkscape:connector-curvature="0" />
    <path
       style="fill:#c83737;stroke:#c83737;stroke-width:0.70555556;stroke-linecap:butt;stroke-linejoin:miter;stroke-miterlimit:4;stroke-dasharray:none;stroke-opacity:1"
       d="m 52.503374,260.18129 2.939965,2.93996"
       id="path23334"
       inkscape:connector-curvature="0" />
    <path
       style="fill:#c83737;stroke:#c83737;stroke-width:0.70555556;stroke-linecap:butt;stroke-linejoin:miter;stroke-miterlimit:4;stroke-dasharray:none;stroke-opacity:1"
       d="m 52.503374,263.12125 2.939965,-2.93996"
       id="path23334-9"
       inkscape:connector-curvature="0" />
    <path
       style="fill:#c83737;stroke:#c83737;stroke-width:0.70555556;stroke-linecap:butt;stroke-linejoin:miter;stroke-miterlimit:4;stroke-dasharray:none;stroke-opacity:1"
       d="m 52.503374,282.91835 2.939965,2.93996"
       id="path23334-4"
       inkscape:connector-curvature="0" />
    <path
       style="fill:#c83737;stroke:#c83737;stroke-width:0.70555556;stroke-linecap:butt;stroke-linejoin:miter;stroke-miterlimit:4;stroke-dasharray:none;stroke-opacity:1"
       d="m 52.503374,285.85831 2.939965,-2.93996"
       id="path23334-9-2"
       inkscape:connector-curvature="0" />
    <path
       style="fill:#c83737;stroke:#c83737;stroke-width:0.70555556;stroke-linecap:butt;stroke-linejoin:miter;stroke-miterlimit:4;stroke-dasharray:none;stroke-opacity:1"
       d="m 52.503374,291.90565 2.939965,2.93996"
       id="path23334-7"
       inkscape:connector-curvature="0" />
    <path
       style="fill:#c83737;stroke:#c83737;stroke-width:0.70555556;stroke-linecap:butt;stroke-linejoin:miter;stroke-miterlimit:4;stroke-dasharray:none;stroke-opacity:1"
       d="m 52.503374,294.84561 2.939965,-2.93996"
       id="path23334-9-5"
       inkscape:connector-curvature="0" />
    <text
       xml:space="preserve"
       style="font-style:normal;font-variant:normal;font-weight:normal;font-stretch:normal;font-size:2.82222223px;line-height:1.25;font-family:Arial;-inkscape-font-specification:Arial;letter-spacing:0px;word-spacing:0px;fill:#000000;fill-opacity:1;stroke:none;stroke-width:0.26458332"
       x="21.628338"
       y="262.41833"
       id="text22228"><tspan
         sodipodi:role="line"
         id="tspan22226"
         x="21.628338"
         y="262.41833"
         style="font-size:2.82222223px;stroke-width:0.26458332">Sobrevivncia</tspan></text>
  </g>
</svg>
