<?xml version="1.0" encoding="UTF-8" standalone="no"?>
<!-- Created with Inkscape (http://www.inkscape.org/) -->

<svg
   width="182mm"
   height="167mm"
   viewBox="0 0 182 167"
   version="1.1"
   id="svg23337"
   inkscape:version="1.2 (dc2aedaf03, 2022-05-15)"
   sodipodi:docname="migration_islandl.svg"
   xmlns:inkscape="http://www.inkscape.org/namespaces/inkscape"
   xmlns:sodipodi="http://sodipodi.sourceforge.net/DTD/sodipodi-0.dtd"
   xmlns="http://www.w3.org/2000/svg"
   xmlns:svg="http://www.w3.org/2000/svg">
  <sodipodi:namedview
     id="namedview23339"
     pagecolor="#ffffff"
     bordercolor="#666666"
     borderopacity="1.0"
     inkscape:showpageshadow="2"
     inkscape:pageopacity="0.0"
     inkscape:pagecheckerboard="0"
     inkscape:deskcolor="#d1d1d1"
     inkscape:document-units="mm"
     showgrid="false"
     inkscape:zoom="0.5946522"
     inkscape:cx="647.43727"
     inkscape:cy="566.71782"
     inkscape:window-width="1920"
     inkscape:window-height="1017"
     inkscape:window-x="-8"
     inkscape:window-y="-8"
     inkscape:window-maximized="1"
     inkscape:current-layer="layer1" />
  <defs
     id="defs23334" />
  <g
     inkscape:label="Layer 1"
     inkscape:groupmode="layer"
     id="layer1">
    <g
       id="g23807"
       transform="translate(-15.341134,-19.694916)">
      <g
         transform="rotate(30,-1791.4802,2898.1999)"
         id="g5867-2-3">
        <rect
           y="-503.91388"
           x="-1634.0498"
           height="60"
           width="60"
           id="rect4837-6-67-6-2"
           style="opacity:1;fill:#5fbcd3;fill-opacity:1;stroke:none;stroke-width:0.264583;stroke-linecap:square;stroke-linejoin:miter;stroke-miterlimit:9.75;stroke-dasharray:0.264583, 0.529166;stroke-dashoffset:0;stroke-opacity:1;paint-order:stroke fill markers" />
        <rect
           y="-503.91388"
           x="-1589.0498"
           height="60"
           width="15"
           id="rect4837-6-6-2-1-0"
           style="opacity:1;fill:#2c89a0;fill-opacity:1;stroke:none;stroke-width:0.264583;stroke-linecap:square;stroke-linejoin:miter;stroke-miterlimit:9.75;stroke-dasharray:0.264583, 0.529166;stroke-dashoffset:0;stroke-opacity:1;paint-order:stroke fill markers" />
      </g>
      <g
         transform="rotate(-30,234.18792,-3672.5869)"
         id="g5886-5-5">
        <rect
           transform="scale(-1,1)"
           y="-499.24509"
           x="1675.793"
           height="60"
           width="60"
           id="rect4837-6-0-4-1-2"
           style="opacity:1;fill:#d3bc5f;fill-opacity:1;stroke:none;stroke-width:0.264583;stroke-linecap:square;stroke-linejoin:miter;stroke-miterlimit:9.75;stroke-dasharray:0.264583, 0.529166;stroke-dashoffset:0;stroke-opacity:1;paint-order:stroke fill markers" />
        <rect
           transform="scale(-1,1)"
           y="-499.24509"
           x="1720.793"
           height="60"
           width="15"
           id="rect4837-6-6-0-6-5-0"
           style="opacity:1;fill:#a0892c;fill-opacity:1;stroke:none;stroke-width:0.264583;stroke-linecap:square;stroke-linejoin:miter;stroke-miterlimit:9.75;stroke-dasharray:0.264583, 0.529166;stroke-dashoffset:0;stroke-opacity:1;paint-order:stroke fill markers" />
      </g>
      <g
         id="g6050"
         transform="translate(1237.1703,443.57599)">
        <rect
           transform="matrix(0,-1,-1,0,0,0)"
           y="1100.8291"
           x="257.72916"
           height="60"
           width="60"
           id="rect4837-6-0-4-1-8"
           style="opacity:1;fill:#5fd38d;fill-opacity:1;stroke:none;stroke-width:0.264583;stroke-linecap:square;stroke-linejoin:miter;stroke-miterlimit:9.75;stroke-dasharray:0.264583, 0.529166;stroke-dashoffset:0;stroke-opacity:1;paint-order:stroke fill markers" />
        <rect
           transform="matrix(0,-1,-1,0,0,0)"
           y="1100.8291"
           x="302.72916"
           height="60"
           width="15"
           id="rect4837-6-6-0-6-5-1"
           style="opacity:1;fill:#2ca05a;fill-opacity:1;stroke:none;stroke-width:0.264583;stroke-linecap:square;stroke-linejoin:miter;stroke-miterlimit:9.75;stroke-dasharray:0.264583, 0.529166;stroke-dashoffset:0;stroke-opacity:1;paint-order:stroke fill markers" />
      </g>
      <path
         style="fill:#aa0000;stroke-width:1"
         d="m 106.3412,20.542999 c -7.172003,0 -14.906103,3.30217 -20.562103,6.33553 -1.5804,-0.96698 -1.2671,-3.7943 -1.8836,-5.45393 -3.0297,5.00702 -5.9654,10.0849 -9.4625,14.86266 6.0189,-2.31677 12.7394,-2.7667 19.2025,-3.76876 -0.6575,-1.02506 -5.2163,-1.7403 -5.5997,-3.252 6.485,-2.60826 12.092703,-3.50521 18.305403,-3.50521 6.2126,0 13.4445,1.07109 18.3053,3.50521 -0.3834,1.5117 -4.9422,2.22694 -5.5997,3.252 6.4631,1.00206 13.1836,1.45199 19.2025,3.76876 -3.4971,-4.77776 -6.4328,-9.85564 -9.4625,-14.86266 -0.6165,1.65963 -0.3032,4.48695 -1.8836,5.45393 -7.246,-3.52685 -13.3901,-6.33553 -20.562,-6.33553 z"
         id="path4867-7-3-7-8-8"
         inkscape:connector-curvature="0"
         sodipodi:nodetypes="acccccaccccca" />
      <path
         style="fill:#aa0000;stroke-width:1"
         d="m 41.460497,143.28318 c 3.586,6.21112 10.3128,11.25794 15.7678,14.6395 -0.047,1.85217 -2.6525,2.99445 -3.7815,4.35822 5.8511,0.12031 11.7165,0.12375 17.6027,0.7634 -5.0158,-4.0541 -8.7657,-9.64925 -12.8651,-14.74544 -0.559,1.08194 1.101,5.38758 -0.016,6.47547 -5.5013,-4.31202 -9.0819,-8.71998 -12.1882,-14.10028 -3.1064,-5.38031 -5.7947,-12.17888 -6.1171,-17.60551 1.5009,-0.42381 4.3997,3.16658 5.6161,3.22342 -2.3637,-6.09823 -5.3343,-12.14329 -6.3373,-18.51417 -2.3892,5.4174 -5.3189,10.49872 -8.1402,15.62606 1.7455,-0.29589 4.0374,-1.98089 5.665,-1.0957 0.5686,8.0386 1.2083,14.76388 4.7943,20.97501 z"
         id="path4867-7-3-7-8-9-8"
         inkscape:connector-curvature="0"
         sodipodi:nodetypes="acccccaccccca" />
      <path
         style="fill:#aa0000;stroke-width:1"
         d="m 171.2218,143.28318 c 3.586,-6.21112 4.5933,-14.56013 4.7943,-20.97503 1.6277,-0.88519 3.9195,0.79984 5.6651,1.09572 -2.8214,-5.12733 -5.7511,-10.20866 -8.1402,-15.62608 -1.0031,6.37088 -3.9737,12.41595 -6.3374,18.51419 1.2164,-0.0569 4.1153,-3.64728 5.6161,-3.22344 -0.9837,6.92028 -3.0107,12.22518 -6.1171,17.60548 -3.1063,5.38033 -7.6498,11.10779 -12.1882,14.10031 -1.1175,-1.08789 0.5425,-5.39353 -0.016,-6.47547 -4.0994,5.09619 -7.8493,10.69134 -12.8651,14.74544 5.8862,-0.63965 11.7516,-0.64309 17.6027,-0.76343 -1.1291,-1.36374 -3.7342,-2.50602 -3.7815,-4.35821 6.6774,-4.51176 12.1818,-8.42836 15.7678,-14.63948 z"
         id="path4867-7-3-7-8-95-5"
         inkscape:connector-curvature="0"
         sodipodi:nodetypes="acccccaccccca" />
      <text
         xml:space="preserve"
         style="font-size:8.46667px;line-height:1.25;font-family:Cambria;-inkscape-font-specification:Cambria;letter-spacing:0px;word-spacing:0px;stroke-width:0.264583"
         x="103.05453"
         y="36.287258"
         id="text20038-5"><tspan
           sodipodi:role="line"
           id="tspan20036-5"
           style="font-style:italic;font-size:8.46667px;stroke-width:0.264583"
           x="103.05453"
           y="36.287258">m</tspan></text>
      <text
         xml:space="preserve"
         style="font-size:8.46667px;line-height:1.25;font-family:Cambria;-inkscape-font-specification:Cambria;letter-spacing:0px;word-spacing:0px;stroke-width:0.264583"
         x="52.988091"
         y="72.699249"
         id="text20038-5-1"><tspan
           sodipodi:role="line"
           id="tspan20036-5-2"
           style="font-style:italic;font-size:8.46667px;stroke-width:0.264583"
           x="52.988091"
           y="72.699249">p<tspan
   style="font-size:65%;baseline-shift:sub"
   id="tspan23725">X</tspan></tspan></text>
      <text
         xml:space="preserve"
         style="font-size:8.46667px;line-height:1.25;font-family:Cambria;-inkscape-font-specification:Cambria;letter-spacing:0px;word-spacing:0px;stroke-width:0.264583"
         x="152.28108"
         y="72.151611"
         id="text20038-5-1-2"><tspan
           sodipodi:role="line"
           id="tspan20036-5-2-9"
           style="font-style:italic;font-size:8.46667px;stroke-width:0.264583"
           x="152.28108"
           y="72.151611">p<tspan
   style="font-size:65%;baseline-shift:sub"
   id="tspan23725-3">y</tspan></tspan></text>
      <text
         xml:space="preserve"
         style="font-size:8.46667px;line-height:1.25;font-family:Cambria;-inkscape-font-specification:Cambria;letter-spacing:0px;word-spacing:0px;stroke-width:0.264583"
         x="102.87381"
         y="156.96718"
         id="text20038-5-1-5"><tspan
           sodipodi:role="line"
           id="tspan20036-5-2-2"
           style="font-style:italic;font-size:8.46667px;stroke-width:0.264583"
           x="102.87381"
           y="156.96718">p<tspan
   style="font-size:65%;baseline-shift:sub"
   id="tspan23725-8">z</tspan></tspan></text>
      <text
         xml:space="preserve"
         style="font-size:8.46667px;line-height:1.25;font-family:Cambria;-inkscape-font-specification:Cambria;letter-spacing:0px;word-spacing:0px;stroke-width:0.264583"
         x="47.738976"
         y="137.42023"
         id="text20038-3"><tspan
           sodipodi:role="line"
           id="tspan20036-8"
           style="font-style:italic;font-size:8.46667px;stroke-width:0.264583"
           x="47.738976"
           y="137.42023">m</tspan></text>
      <text
         xml:space="preserve"
         style="font-size:8.46667px;line-height:1.25;font-family:Cambria;-inkscape-font-specification:Cambria;letter-spacing:0px;word-spacing:0px;stroke-width:0.264583"
         x="158.37064"
         y="137.42023"
         id="text20038-8"><tspan
           sodipodi:role="line"
           id="tspan20036-7"
           style="font-style:italic;font-size:8.46667px;stroke-width:0.264583"
           x="158.37064"
           y="137.42023">m</tspan></text>
    </g>
  </g>
</svg>
