<?xml version="1.0" encoding="UTF-8" standalone="no"?>
<!-- Created with Inkscape (http://www.inkscape.org/) -->

<svg
   xmlns:dc="http://purl.org/dc/elements/1.1/"
   xmlns:cc="http://creativecommons.org/ns#"
   xmlns:rdf="http://www.w3.org/1999/02/22-rdf-syntax-ns#"
   xmlns:svg="http://www.w3.org/2000/svg"
   xmlns="http://www.w3.org/2000/svg"
   xmlns:sodipodi="http://sodipodi.sourceforge.net/DTD/sodipodi-0.dtd"
   xmlns:inkscape="http://www.inkscape.org/namespaces/inkscape"
   width="150mm"
   height="55mm"
   viewBox="0 0 150 55"
   version="1.1"
   id="svg4847"
   inkscape:version="0.92.4 (5da689c313, 2019-01-14)"
   sodipodi:docname="population_pool_gene.svg">
  <defs
     id="defs4841" />
  <sodipodi:namedview
     id="base"
     pagecolor="#ffffff"
     bordercolor="#666666"
     borderopacity="1.0"
     inkscape:pageopacity="0.0"
     inkscape:pageshadow="2"
     inkscape:zoom="1.4"
     inkscape:cx="167.29521"
     inkscape:cy="-11.27452"
     inkscape:document-units="mm"
     inkscape:current-layer="layer1"
     showgrid="false"
     inkscape:window-width="1920"
     inkscape:window-height="1017"
     inkscape:window-x="-8"
     inkscape:window-y="-8"
     inkscape:window-maximized="1" />
  <metadata
     id="metadata4844">
    <rdf:RDF>
      <cc:Work
         rdf:about="">
        <dc:format>image/svg+xml</dc:format>
        <dc:type
           rdf:resource="http://purl.org/dc/dcmitype/StillImage" />
        <dc:title></dc:title>
      </cc:Work>
    </rdf:RDF>
  </metadata>
  <g
     inkscape:label="Layer 1"
     inkscape:groupmode="layer"
     id="layer1"
     transform="translate(0,-242)">
    <g
       id="g6829"
       transform="translate(-21.152195,214.22591)">
      <rect
         y="27.774094"
         x="21.152191"
         height="54.545456"
         width="68.181831"
         id="rect4837-0-0-3-7"
         style="opacity:1;fill:#b3b3b3;fill-opacity:1;stroke:none;stroke-width:0.26892099;stroke-linecap:square;stroke-linejoin:miter;stroke-miterlimit:9.75;stroke-dasharray:0.26892096, 0.5378419;stroke-dashoffset:0;stroke-opacity:1;paint-order:stroke fill markers" />
      <rect
         y="27.774094"
         x="102.97037"
         height="55"
         width="68.181831"
         id="rect4837-0-0-3-7-0"
         style="opacity:1;fill:#b3b3b3;fill-opacity:1;stroke:none;stroke-width:0.27003917;stroke-linecap:square;stroke-linejoin:miter;stroke-miterlimit:9.75;stroke-dasharray:0.27003914, 0.54007825;stroke-dashoffset:0;stroke-opacity:1;paint-order:stroke fill markers" />
      <g
         transform="matrix(0.54545457,0,0,0.54545457,738.58972,518.07001)"
         id="g4651">
        <g
           id="g3829"
           transform="matrix(-1,0,0,1,-2602.5984,-3.405042)">
          <path
             id="path2157-7"
             d="m -1300.1796,-854.1147 c -0.7049,0.003 -1.3459,0.27707 -1.958,0.81856 -0.1273,0.11266 -0.2435,0.22625 -0.3493,0.34055 -0.7401,0.79991 -0.9485,1.63224 -0.5876,2.38797 0.3815,0.79878 7.6812,6.93957 8.4372,7.09777 0.6131,0.12829 0.8319,-0.0799 1.1033,-1.05215 0.3758,-1.34657 0.2727,-2.97603 -0.2775,-4.377 -0.4647,-1.18322 -0.8407,-1.68918 -2.1518,-2.89957 -1.6896,-1.55977 -3.0415,-2.31867 -4.2163,-2.31613 z"
             style="fill:#d7eef4;fill-opacity:1;stroke:none;stroke-width:0.26458332px;stroke-linecap:butt;stroke-linejoin:miter;stroke-opacity:1"
             inkscape:connector-curvature="0" />
          <path
             id="path4670-43-4-4-1-7-7"
             d="m -1304.4326,-851.04668 -1.6164,1.97766 -0.8098,1.84952 0.4072,2.06343 1.6387,1.91876 2.0484,1.71719 1.9539,0.91882 2.928,0.12195 2.5843,-0.95033 1.1033,-1.03508 z"
             style="fill:#2c89a0;fill-opacity:1;stroke:none;stroke-width:0.26458332px;stroke-linecap:butt;stroke-linejoin:miter;stroke-opacity:1"
             inkscape:connector-curvature="0" />
          <path
             sodipodi:nodetypes="ccccccccccccccccccccccccsscscccsccssccccccccccccccc"
             inkscape:connector-curvature="0"
             id="path4615-51-4-5-1-0"
             d="m -1311.2519,-853.87281 0.4879,0.43063 c 0.3049,0.2687 0.8833,0.3873 1.538,0.31556 1.2512,-0.13712 1.3198,-0.0966 1.1129,0.65446 -0.088,0.31975 -0.015,0.83091 0.1634,1.13635 0.3223,0.55311 0.3266,0.55079 1.1465,-0.66538 0.1452,-0.21549 0.3179,-0.44047 0.4953,-0.66164 l -1.3203,-1.10685 c -0.621,0.27452 -2.2249,0.36056 -2.9757,0.11168 z m -2.471,4.51607 c -0.021,0.0234 -0.034,0.0471 -0.037,0.0704 -0.031,0.21558 0.4096,0.29833 1.2498,0.2345 0.9351,-0.071 1.6068,0.0754 2.404,0.52441 0.6086,0.34277 1.3518,0.56286 1.6515,0.48897 0.6476,-0.15968 0.8207,-0.33171 0.7004,-0.69546 -0.049,-0.14809 -0.3187,-0.17704 -0.5996,-0.0643 -0.3381,0.13574 -0.8619,-0.009 -1.5494,-0.42973 -0.7987,-0.48842 -1.3573,-0.60692 -2.4229,-0.5132 -0.6804,0.0598 -1.2472,0.22001 -1.3964,0.38436 z m 7.7187,-3.05147 c -1.0841,1.36057 -1.6893,3.19529 -1.2432,3.82374 0.1651,0.23253 0.2159,0.62769 0.1128,0.87815 -0.2851,0.69304 0.088,2.3211 0.7033,3.07041 0.3378,0.41119 0.4964,0.92108 0.4121,1.32392 -0.1669,0.7978 0.7117,2.08826 2.3672,3.47612 0.9666,0.8103 1.1625,1.09321 1.0942,1.58012 -0.1034,0.73696 0.1192,0.95254 0.5065,0.49064 0.387,-0.4617 0.2669,-1.08133 -0.1714,-1.53546 -0.6882,-0.78838 -1.5562,-1.60875 -2.2185,-2.26036 -0.7449,-0.75695 -1.0787,-1.31304 -0.994,-1.45836 0.066,-0.11302 0.3848,0.0225 0.9604,0.50501 0.6812,0.57112 0.6052,0.62252 0.9861,1.37358 0.7711,0.9985 2.2621,1.78953 3.3147,2.2494 1.3441,0.553 1.8119,0.84492 1.8385,1.14745 0.02,0.2232 0.1122,0.47029 0.2057,0.54865 0.093,0.0784 0.2692,-0.0352 0.3908,-0.25225 0.3279,-0.5856 -0.6992,-1.49098 -2.4498,-2.15895 -0.8245,-0.31459 -1.7772,-0.81806 -2.117,-1.11859 -0.5797,-0.51271 -0.5804,-0.53037 -0.01,-0.28698 3.1433,1.33408 6.252,0.7693 8.1391,-1.47846 z m 0.061,3.62505 c 0.6585,-0.86843 1.4416,-1.21911 2.2487,-0.99562 0.8531,0.23622 8.1739,6.35186 8.4617,7.06864 0.2333,0.58133 0.066,0.83309 -0.8435,1.27001 -1.2603,0.60514 -2.8828,0.78803 -4.3583,0.4908 -1.2461,-0.25105 -1.8097,-0.53268 -3.2304,-1.61234 -2.9292,-2.22618 -3.6892,-3.95883 -2.5523,-5.81811 0.089,-0.14505 0.18,-0.27933 0.2741,-0.4034 z"
             style="fill:#000000;stroke-width:1" />
          <path
             sodipodi:nodetypes="ccccccccccccccccccccccccsscscccsccssccccccccccccccc"
             inkscape:connector-curvature="0"
             id="path4615-3-5-8-3-7-2"
             d="m -1308.3837,-857.29415 0.5092,0.40533 c 0.3178,0.25325 0.5355,0.80212 0.5791,1.45925 0.083,1.256 0.1353,1.31646 0.8387,0.98158 0.2995,-0.14256 0.8156,-0.15939 1.1474,-0.0375 0.6009,0.2208 0.5994,0.22543 -0.455,1.24501 -0.1868,0.18067 -0.3783,0.38989 -0.5651,0.60321 l -1.3203,-1.10685 c 0.1619,-0.65933 -0.033,-2.25359 -0.4094,-2.9495 z m 4.0154,-3.22131 c 0.02,-0.0249 0.04,-0.0418 0.063,-0.0492 0.2069,-0.0684 0.3653,0.35124 0.4491,1.18971 0.093,0.93311 0.3547,1.56903 0.936,2.27559 0.4437,0.53936 0.7902,1.23279 0.7697,1.54079 -0.044,0.66547 -0.1833,0.86602 -0.5625,0.81098 -0.1544,-0.0224 -0.23,-0.28282 -0.1679,-0.5791 0.075,-0.35668 -0.1597,-0.8471 -0.6936,-1.45066 -0.6204,-0.70121 -0.8346,-1.23049 -0.9283,-2.29608 -0.06,-0.68041 0,-1.26653 0.1347,-1.44207 z m -1.6573,8.13286 c 1.1504,-1.30505 2.8514,-2.22117 3.548,-1.89157 0.2578,0.12197 0.6558,0.10304 0.8844,-0.0422 0.6326,-0.40173 2.3008,-0.31876 3.146,0.15652 0.4638,0.26081 0.9936,0.32798 1.3755,0.17467 0.7565,-0.30364 2.1805,0.33629 3.836,1.72414 0.9666,0.8103 1.2793,0.95386 1.7469,0.80155 0.7076,-0.23047 0.9587,-0.0489 0.5715,0.41307 -0.3871,0.46169 -1.0182,0.45162 -1.5419,0.0993 -0.8964,-0.54005 -1.8556,-1.25148 -2.6129,-1.78989 -0.8753,-0.60128 -1.4811,-0.83295 -1.6094,-0.72414 -0.1,0.0846 0.089,0.37492 0.6649,0.85746 0.6812,0.57111 0.7186,0.48721 1.5246,0.73124 1.1177,0.58493 2.1569,1.91502 2.7934,2.87115 0.7792,1.22693 1.1483,1.63663 1.4508,1.61002 0.2232,-0.0196 0.4826,0.0283 0.5761,0.10669 0.093,0.0784 0.012,0.27128 -0.1801,0.42889 -0.5194,0.4251 -1.5902,-0.42823 -2.5534,-2.0354 -0.4537,-0.75694 -1.1158,-1.60711 -1.471,-1.88924 -0.606,-0.48131 -0.6235,-0.47888 -0.2838,0.0433 1.8623,2.86221 1.8488,6.02175 -0.035,8.27227 z m 3.58,-0.57273 c -0.7401,0.79993 -0.9487,1.63223 -0.5878,2.38796 0.3815,0.79879 7.6812,6.93974 8.4372,7.09791 0.6131,0.12831 0.8319,-0.08 1.1033,-1.05223 0.3758,-1.34657 0.2727,-2.97605 -0.2775,-4.37703 -0.4647,-1.18322 -0.8404,-1.689 -2.1515,-2.89939 -2.7033,-2.49564 -4.542,-2.94156 -6.1743,-1.49757 -0.1273,0.11266 -0.2436,0.22603 -0.3494,0.34032 z"
             style="fill:#000000;stroke-width:1" />
        </g>
        <g
           id="g3823"
           inkscape:transform-center-x="9.7286108"
           inkscape:transform-center-y="-8.9802561"
           transform="translate(-0.57212231,5.2010368)">
          <path
             inkscape:connector-curvature="0"
             id="path4670-9-8-1-4-3"
             d="m -1294.1836,-885.57855 -0.074,-2.01787 -1.2624,-1.68154 -2.3099,-1.01661 -2.5907,-0.65697 -2.1595,0.0211 -2.69,1.16179 -1.9149,1.97873 -0.6049,1.56992 -0.1271,1.6566 0.4514,1.88949 1.1167,1.6446 1.5828,1.57323 1.4402,0.64094 2.2664,0.71258 2.2682,0.16161 1.89,-0.58918 1.2364,-1.40977 0.8569,-3.03973 z"
             style="fill:#2c89a0;fill-opacity:1;stroke:none;stroke-width:0.26458332px;stroke-linecap:butt;stroke-linejoin:miter;stroke-opacity:1" />
          <path
             sodipodi:nodetypes="ccccccccccccccccccccccccsscscccsccssccccccccccccccc"
             inkscape:connector-curvature="0"
             id="path4615-1-0-4-1-6"
             d="m -1287.6093,-883.56204 -0.6266,-0.17596 c -0.3913,-0.1096 -0.9638,0.0348 -1.5223,0.38378 -1.0675,0.667 -1.1469,0.66031 -1.2867,-0.10611 -0.06,-0.32628 -0.3478,-0.75476 -0.6408,-0.95258 -0.5305,-0.35822 -0.5334,-0.35427 -0.7436,1.0973 -0.037,0.25721 -0.095,0.53485 -0.1588,0.81113 l 1.67,0.4235 c 0.4401,-0.51698 1.8474,-1.29113 2.6319,-1.39311 z m 0.2642,-5.14108 c 0.01,-0.0304 0.01,-0.0572 0,-0.0797 -0.065,-0.20777 -0.4985,-0.0908 -1.2276,0.33163 -0.8114,0.47014 -1.4801,0.63006 -2.3932,0.57185 -0.697,-0.0444 -1.4621,0.0802 -1.7,0.27689 -0.5139,0.42509 -0.5952,0.65526 -0.3287,0.93063 0.1084,0.1121 0.3639,0.0211 0.5679,-0.20251 0.2457,-0.26915 0.7805,-0.36598 1.5823,-0.28593 0.9316,0.093 1.4862,-0.0429 2.4053,-0.59011 0.5869,-0.34944 1.0279,-0.73993 1.0909,-0.95274 z m -5.6272,6.10121 c 0.3856,-1.69644 0.1338,-3.6119 -0.541,-3.9842 -0.2497,-0.13774 -0.4672,-0.47159 -0.4831,-0.74198 -0.044,-0.74809 -1.0872,-2.0526 -1.9671,-2.46019 -0.4828,-0.22366 -0.8472,-0.61405 -0.9462,-1.01351 -0.1962,-0.79113 -1.5481,-1.57185 -3.6422,-2.10287 -1.2226,-0.31004 -1.5219,-0.47977 -1.6719,-0.94803 -0.2269,-0.70874 -0.5211,-0.80621 -0.6692,-0.22197 -0.1481,0.58399 0.2292,1.08996 0.8212,1.30863 0.9624,0.4112 2.1005,0.77313 2.9801,1.07239 0.9997,0.35829 1.542,0.71418 1.5288,0.88187 -0.01,0.13043 -0.3563,0.14689 -1.0844,-0.0377 -0.8617,-0.21851 -0.8155,-0.29787 -1.4849,-0.8089 -1.1282,-0.56448 -2.8148,-0.62937 -3.9627,-0.58639 -1.4509,0.0857 -1.9991,0.0259 -2.1545,-0.235 -0.1146,-0.19251 -0.3052,-0.3749 -0.4235,-0.40488 -0.1182,-0.03 -0.2272,0.14864 -0.2425,0.39699 -0.041,0.6699 1.2775,1.03928 3.1445,0.88056 0.8793,-0.0748 1.9561,-0.0351 2.3927,0.088 0.7449,0.21002 0.7531,0.22563 0.1309,0.25549 -3.4108,0.16366 -5.9656,2.02265 -6.6892,4.86698 z m -1.6295,-3.23875 c -0.2159,1.06823 -0.7689,1.72426 -1.593,1.87351 -0.8711,0.15778 -10.1216,-2.17102 -10.6921,-2.69166 -0.4627,-0.42227 -0.4217,-0.72155 0.2081,-1.51033 0.8724,-1.09249 2.2544,-1.96195 3.7125,-2.33511 1.2316,-0.31514 1.8615,-0.30627 3.6101,0.0492 3.6054,0.73292 5.0426,1.96347 4.8261,4.13202 -0.017,0.16917 -0.041,0.32982 -0.072,0.48242 z"
             style="fill:#000000;stroke-width:1" />
          <path
             sodipodi:nodetypes="ccccccccccccccccccccccccsscscccsccssccccccccccccccc"
             inkscape:connector-curvature="0"
             id="path4615-3-9-7-3-7-0"
             d="m -1288.7067,-879.23452 -0.6347,-0.14393 c -0.3963,-0.0901 -0.8308,-0.4899 -1.1555,-1.06284 -0.6207,-1.09512 -0.6936,-1.12705 -1.1818,-0.51987 -0.2078,0.25848 -0.6654,0.49782 -1.0173,0.53212 -0.6371,0.0621 -0.6377,0.0573 -0.1309,-1.31909 0.09,-0.24388 0.1714,-0.51549 0.247,-0.78876 l 1.67,0.4235 c 0.1406,0.66423 1.0089,2.01544 1.65,2.47891 z m -2.2177,4.64569 c -0.01,0.031 -0.018,0.0551 -0.035,0.0716 -0.1565,0.15147 -0.4815,-0.15772 -0.9212,-0.87657 -0.4893,-0.79998 -1.001,-1.25924 -1.8315,-1.64318 -0.634,-0.29308 -1.2472,-0.76721 -1.3626,-1.05352 -0.2492,-0.61861 -0.211,-0.85969 0.1545,-0.97482 0.1487,-0.0469 0.33,0.15486 0.4028,0.44867 0.088,0.35369 0.5117,0.69368 1.2548,1.00541 0.8634,0.36217 1.2862,0.74588 1.8334,1.66499 0.3495,0.58688 0.5511,1.14035 0.5051,1.35745 z m -2.0397,-8.04547 c -0.4694,1.67519 -1.6036,3.23919 -2.3743,3.24492 -0.2851,0.002 -0.6354,0.19201 -0.7782,0.42213 -0.3954,0.63664 -1.934,1.28647 -2.9018,1.22551 -0.5311,-0.0335 -1.0374,0.13613 -1.3148,0.44012 -0.5495,0.60205 -2.1101,0.64417 -4.2041,0.11315 -1.2226,-0.31004 -1.5667,-0.30351 -1.9217,0.0367 -0.5372,0.51496 -0.8423,0.46047 -0.6941,-0.12382 0.148,-0.58401 0.7209,-0.84902 1.3456,-0.75912 1.042,0.0971 2.2151,0.32124 3.131,0.47731 1.0496,0.1614 1.6959,0.10692 1.7642,-0.0468 0.053,-0.11956 -0.2432,-0.29893 -0.9713,-0.48356 -0.8617,-0.21853 -0.8589,-0.12671 -1.6909,0.004 -1.2609,-0.0414 -2.7746,-0.7881 -3.7633,-1.37283 -1.2347,-0.76673 -1.7451,-0.97544 -2.0061,-0.82007 -0.1925,0.11463 -0.447,0.18412 -0.5652,0.15413 -0.1183,-0.03 -0.129,-0.23897 -0.024,-0.46456 0.2831,-0.6085 1.6183,-0.30497 3.184,0.72429 0.7374,0.48475 1.703,0.96297 2.1455,1.0628 0.755,0.1703 0.7697,0.16052 0.2368,-0.16226 -2.9206,-1.76924 -4.2808,-4.62103 -3.5615,-7.46641 z m -2.9759,2.07089 c 0.3192,-1.04203 0.1456,-1.88233 -0.5078,-2.40626 -0.6906,-0.5538 -9.933,-2.9146 -10.6827,-2.72872 -0.608,0.15075 -0.7146,0.43341 -0.5367,1.42701 0.2463,1.37617 1.0469,2.79913 2.1511,3.82206 0.9325,0.86392 1.4906,1.15632 3.1972,1.67711 3.519,1.07374 5.3689,0.67676 6.212,-1.3329 0.066,-0.15678 0.1213,-0.30942 0.1669,-0.45828 z"
             style="fill:#000000;stroke-width:1" />
        </g>
        <g
           id="g3818"
           transform="translate(31.609001,34.679923)">
          <g
             id="g3834"
             transform="translate(-5.9868374,0.74835468)">
            <path
               style="fill:#d7eef4;fill-opacity:1;stroke:none;stroke-width:0.26458332px;stroke-linecap:butt;stroke-linejoin:miter;stroke-opacity:1"
               d="m -1288.6786,-868.08929 -1.5864,1.24924 -0.6144,2.01092 0.5401,2.46527 0.9962,2.4801 1.2898,1.73211 2.524,1.48842 2.7271,0.3807 1.6248,-0.43658 1.4132,-0.87367 1.2604,-1.47832 0.6704,-1.87144 0.3381,-2.20594 -0.331,-1.54119 -0.7601,-2.2509 -1.2064,-1.92767 -1.5898,-1.17955 -1.8676,-0.16792 -2.9608,1.09926 z"
               id="path4670-7-9-2-8-5"
               inkscape:connector-curvature="0" />
            <path
               style="fill:#000000;stroke-width:1"
               d="m -1290.9244,-874.58883 0.2272,0.60989 c 0.1421,0.38073 0.5962,0.75813 1.2073,1.00365 1.168,0.46928 1.2094,0.53734 0.6726,1.10201 -0.2285,0.24039 -0.4048,0.72579 -0.3919,1.07907 0.023,0.63974 0.028,0.63973 1.3248,-0.0459 0.2297,-0.1215 0.4881,-0.23847 0.7488,-0.3498 l -0.6421,-1.59876 c -0.6771,-0.0508 -2.1319,-0.73143 -2.6766,-1.30506 z m -4.3089,2.81669 c -0.03,0.0106 -0.052,0.0254 -0.066,0.0444 -0.1293,0.17534 0.2204,0.45628 0.9914,0.79631 0.8581,0.37839 1.3814,0.82435 1.8725,1.5963 0.3749,0.58929 0.9265,1.13394 1.2256,1.21014 0.6463,0.1646 0.8802,0.0946 0.9456,-0.28291 0.027,-0.15369 -0.1975,-0.30641 -0.4983,-0.33947 -0.3622,-0.0398 -0.7557,-0.4148 -1.1636,-1.10975 -0.4739,-0.80741 -0.9105,-1.17535 -1.8944,-1.59532 -0.6282,-0.26815 -1.2036,-0.39429 -1.4126,-0.31972 z m 8.2455,0.94999 c -1.5978,0.68834 -2.9968,2.02069 -2.8998,2.78529 0.036,0.28289 -0.1057,0.65532 -0.3147,0.82754 -0.5783,0.4766 -1.0174,2.08807 -0.8281,3.03912 0.1039,0.52188 0,1.04631 -0.2611,1.36176 -0.5235,0.62475 -0.3574,2.17709 0.4478,4.18172 0.4701,1.17042 0.5094,1.51228 0.2195,1.90939 -0.4388,0.60107 -0.3441,0.89617 0.2152,0.67152 0.559,-0.22456 0.7454,-0.82756 0.5731,-1.43476 -0.235,-1.0198 -0.6134,-2.15255 -0.8901,-3.03952 -0.2997,-1.01879 -0.3318,-1.6666 -0.1886,-1.75477 0.1115,-0.0686 0.3287,0.20127 0.6087,0.89829 0.3313,0.82491 0.24,0.83436 0.2216,1.67631 0.209,1.24412 1.1506,2.64492 1.8619,3.54689 0.9243,1.12159 1.1992,1.59966 1.0799,1.87898 -0.088,0.20606 -0.1229,0.46757 -0.077,0.58078 0.045,0.11322 0.254,0.096 0.4636,-0.0381 0.5653,-0.3617 0.087,-1.64451 -1.1419,-3.05923 -0.5787,-0.66629 -1.1812,-1.55958 -1.3391,-1.98484 -0.2694,-0.72554 -0.2616,-0.74142 0.1293,-0.25631 2.1424,2.65896 5.15,3.62721 7.8742,2.53532 z m -1.6561,3.22522 c 0.9902,-0.45517 1.8462,-0.39505 2.4525,0.18274 0.6408,0.61068 4.2116,9.4563 4.1272,10.22406 -0.068,0.62266 -0.3343,0.76594 -1.3428,0.72203 -1.3967,-0.0609 -2.9136,-0.66484 -4.0745,-1.62291 -0.9804,-0.80914 -1.3445,-1.3233 -2.088,-2.9454 -1.5329,-3.3446 -1.3858,-5.2309 0.4936,-6.33411 0.1467,-0.0861 0.2906,-0.1614 0.432,-0.22641 z"
               id="path4615-58-5-9-9-1"
               inkscape:connector-curvature="0"
               sodipodi:nodetypes="ccccccccccccccccccccccccsscscccsccssccccccccccccccc" />
            <path
               style="fill:#000000;stroke-width:1"
               d="m -1286.7815,-876.25286 0.2578,0.59758 c 0.1608,0.37322 0.094,0.95988 -0.1776,1.5599 -0.5189,1.14685 -0.5017,1.22461 0.2765,1.26111 0.3313,0.0155 0.7944,0.24415 1.0295,0.50817 0.4256,0.47812 0.4221,0.48148 -0.9885,0.8832 -0.25,0.0712 -0.5175,0.16538 -0.7828,0.26539 l -0.6421,-1.59875 c 0.4537,-0.50502 1.0335,-2.00289 1.0301,-2.79394 z m 5.06,-0.94653 c 0.029,-0.0127 0.055,-0.0179 0.079,-0.0138 0.2146,0.0372 0.1564,0.482 -0.1652,1.26089 -0.3579,0.86678 -0.4273,1.55082 -0.248,2.44801 0.1369,0.68491 0.1153,1.45977 -0.048,1.72171 -0.3528,0.56594 -0.5701,0.67714 -0.8785,0.44976 -0.1256,-0.0926 -0.069,-0.35784 0.125,-0.58984 0.234,-0.27931 0.2588,-0.82226 0.073,-1.6063 -0.2162,-0.91092 -0.1554,-1.47865 0.2645,-2.46246 0.2682,-0.6282 0.5965,-1.11731 0.799,-1.20805 z m -5.2973,6.38968 c 1.6299,-0.60815 3.5619,-0.61368 4.0207,0.006 0.1698,0.22914 0.5297,0.40015 0.7998,0.37993 0.7473,-0.0559 2.1791,0.80412 2.7002,1.62189 0.286,0.44876 0.7214,0.75785 1.1305,0.80281 0.8102,0.089 1.7641,1.32498 2.5693,3.32961 0.4701,1.17041 0.6781,1.44452 1.1622,1.53074 0.7327,0.13051 0.8685,0.40911 0.3091,0.63378 -0.559,0.22455 -1.1107,-0.082 -1.4063,-0.63968 -0.5357,-0.89901 -1.046,-1.97879 -1.4598,-2.8107 -0.4882,-0.94308 -0.9132,-1.4331 -1.0776,-1.39767 -0.1279,0.0276 -0.098,0.3727 0.1818,1.0697 0.3314,0.82492 0.4039,0.76855 0.9995,1.3639 0.7097,1.04299 0.9986,2.70596 1.109,3.84929 0.1083,1.44937 0.2405,1.98473 0.5198,2.10397 0.2061,0.088 0.4122,0.25261 0.4577,0.36581 0.046,0.11324 -0.117,0.24505 -0.3611,0.2932 -0.6585,0.12988 -1.2002,-1.12761 -1.2916,-2.99913 -0.043,-0.88143 -0.2257,-1.94336 -0.4059,-2.35968 -0.3074,-0.71026 -0.324,-0.71636 -0.2706,-0.0957 0.292,3.40219 -1.2101,6.18184 -3.9327,7.27774 z m 3.4269,1.18356 c -1.03,0.35627 -1.6065,0.99177 -1.6446,1.82839 -0.04,0.88431 3.4997,9.74225 4.0918,10.23832 0.4801,0.40232 0.7713,0.32183 1.4691,-0.40744 0.9666,-1.0101 1.6442,-2.49558 1.8199,-3.99046 0.1483,-1.26252 0.056,-1.8857 -0.5296,-3.57138 -1.2066,-3.47565 -2.6176,-4.73613 -4.738,-4.23274 -0.1654,0.0393 -0.3214,0.0844 -0.4686,0.1353 z"
               id="path4615-3-7-6-6-0-75"
               inkscape:connector-curvature="0"
               sodipodi:nodetypes="ccccccccccccccccccccccccsscscccsccssccccccccccccccc" />
          </g>
        </g>
        <g
           id="g4589"
           transform="translate(-3.7041668,2.6458334)">
          <path
             id="path2188-1"
             d="m -1265.8106,-887.10988 -2.0382,0.51678 -1.8277,1.73993 -1.6046,2.13786 -0.8124,2.00091 0.036,2.93005 1.0878,2.52905 1.0935,1.04592 8.0181,-10.68409 -2.0619,-1.50741 z"
             style="fill:#2c89a0;fill-opacity:1;stroke:none;stroke-width:0.26458332px;stroke-linecap:butt;stroke-linejoin:miter;stroke-opacity:1"
             inkscape:connector-curvature="0" />
          <path
             id="path4670-8-8-6-9-9-7"
             d="m -1261.5184,-883.52094 c -0.3,-0.007 -0.5904,0.0641 -0.8661,0.21445 -0.7771,0.42394 -6.5169,8.0433 -6.6342,8.8067 -0.095,0.61916 0.1251,0.82619 1.1105,1.0449 1.3648,0.30289 2.9864,0.11268 4.3558,-0.5121 1.1565,-0.52769 1.6411,-0.92999 2.7792,-2.30426 2.3467,-2.83363 2.6929,-4.69389 1.1632,-6.24612 -0.1194,-0.1211 -0.2388,-0.2313 -0.3586,-0.33073 -0.5242,-0.43506 -1.0498,-0.66167 -1.5498,-0.67284 z"
             style="fill:#d7eef4;fill-opacity:1;stroke:none;stroke-width:0.26458332px;stroke-linecap:butt;stroke-linejoin:miter;stroke-opacity:1"
             inkscape:connector-curvature="0" />
          <path
             sodipodi:nodetypes="ccccccccccccccccccccccccsscscccsccssccccccccccccccc"
             inkscape:connector-curvature="0"
             id="path4615-19-1-3-0-8"
             d="m -1259.4022,-891.8551 -0.4038,0.51042 c -0.2519,0.31888 -0.3393,0.90283 -0.2324,1.55269 0.2042,1.24209 0.1674,1.31274 -0.5937,1.14648 -0.324,-0.0708 -0.8305,0.0301 -1.1259,0.22428 -0.535,0.35159 -0.5324,0.35575 0.7261,1.10904 0.223,0.13348 0.4569,0.29376 0.6873,0.45903 l 1.0343,-1.37794 c -0.3076,-0.6053 -0.4797,-2.20221 -0.2716,-2.96539 z m -4.6425,-2.2245 c -0.024,-0.0201 -0.049,-0.0315 -0.072,-0.0336 -0.217,-0.0197 -0.2759,0.42506 -0.167,1.26063 0.1213,0.9299 0.011,1.60858 -0.3943,2.42876 -0.3096,0.62609 -0.4894,1.38011 -0.3995,1.67541 0.1943,0.638 0.3754,0.80168 0.7322,0.66193 0.1452,-0.0569 0.1596,-0.3277 0.032,-0.60212 -0.1537,-0.33039 -0.037,-0.86122 0.3458,-1.57032 0.4447,-0.82385 0.533,-1.38795 0.3821,-2.44695 -0.096,-0.67621 -0.2867,-1.23364 -0.4589,-1.37373 z m 3.4622,7.54344 c -1.4169,-1.00944 -3.2815,-1.51507 -3.8851,-1.03577 -0.2233,0.17734 -0.6151,0.24936 -0.8708,0.15988 -0.7074,-0.24746 -2.313,0.21244 -3.0281,0.86737 -0.3925,0.35939 -0.8931,0.54521 -1.2999,0.4827 -0.8056,-0.12379 -2.0469,0.823 -3.3437,2.55077 -0.7572,1.00876 -1.0292,1.21962 -1.519,1.17757 -0.7415,-0.0636 -0.9448,0.17028 -0.4627,0.5321 0.4818,0.36166 1.0941,0.20843 1.524,-0.2537 0.7502,-0.72962 1.5227,-1.64044 2.1378,-2.33685 0.7158,-0.78447 1.2531,-1.14776 1.4028,-1.07095 0.1164,0.0597 0,0.38539 -0.4527,0.98613 -0.5336,0.71098 -0.589,0.63778 -1.3185,1.05858 -0.9556,0.82364 -1.6653,2.35505 -2.0679,3.43085 -0.4799,1.37189 -0.7463,1.85476 -1.0469,1.89761 -0.2218,0.0316 -0.4636,0.13725 -0.5368,0.23481 -0.073,0.0976 0.05,0.26701 0.2729,0.37673 0.6024,0.29595 1.4512,-0.7784 2.0241,-2.56241 0.2698,-0.84024 0.7213,-1.81862 1.0031,-2.17409 0.4808,-0.60645 0.4984,-0.60807 0.2862,-0.0223 -1.1631,3.21053 -0.432,6.28433 1.914,8.04785 z m -3.6165,0.25583 c 0.9025,0.61081 1.2948,1.37392 1.1151,2.19189 -0.19,0.8646 -5.9031,8.50374 -6.6033,8.82962 -0.568,0.26429 -0.8284,0.11115 -1.3136,-0.77397 -0.672,-1.22591 -0.9419,-2.83621 -0.7245,-4.32558 0.1837,-1.25786 0.4346,-1.83578 1.4363,-3.31245 2.0654,-3.04468 3.7547,-3.89681 5.6724,-2.86153 0.1496,0.0808 0.2886,0.16476 0.4176,0.25202 z"
             style="fill:#000000;stroke-width:1" />
          <path
             sodipodi:nodetypes="ccccccccccccccccccccccccsscscccsccssccccccccccccccc"
             inkscape:connector-curvature="0"
             id="path4615-3-57-1-2-3-4"
             d="m -1255.8316,-889.17509 -0.3774,0.53025 c -0.2357,0.33098 -0.7721,0.57788 -1.4259,0.65681 -1.2497,0.15082 -1.3073,0.20584 -0.9351,0.89025 0.1585,0.29135 0.203,0.80583 0.099,1.14373 -0.1882,0.61189 -0.1929,0.61061 -1.2677,-0.38741 -0.1904,-0.17683 -0.4096,-0.35675 -0.6327,-0.53179 l 1.0342,-1.37794 c 0.6671,0.12622 2.2486,-0.15447 2.9233,-0.56748 z m 3.4326,3.83636 c 0.026,0.0182 0.044,0.038 0.053,0.06 0.08,0.20283 -0.3311,0.38364 -1.1638,0.51241 -0.9268,0.14332 -1.5477,0.43855 -2.222,1.057 -0.5147,0.47211 -1.1885,0.85536 -1.4972,0.8515 -0.6668,-0.008 -0.8746,-0.13651 -0.84,-0.51811 0.014,-0.15535 0.27,-0.24484 0.5692,-0.19885 0.3602,0.0553 0.8373,-0.20498 1.4113,-0.77061 0.6668,-0.65715 1.1838,-0.89949 2.2428,-1.05038 0.6762,-0.0964 1.2646,-0.0692 1.4472,0.057 z m -8.2102,-1.21749 c 1.365,1.07856 2.3713,2.72776 2.0796,3.44117 -0.1079,0.26392 -0.068,0.66032 0.09,0.88081 0.4352,0.61009 0.4421,2.2803 0.013,3.1499 -0.2355,0.47717 -0.2741,1.00977 -0.1005,1.38291 0.3439,0.739 -0.2185,2.19537 -1.5153,3.92315 -0.7572,1.00876 -0.8837,1.32876 -0.7065,1.78742 0.2682,0.69419 0.1004,0.95472 -0.3817,0.59289 -0.4819,-0.36167 -0.5057,-0.99237 -0.1821,-1.53424 0.4911,-0.92416 1.1499,-1.9203 1.6468,-2.70538 0.5533,-0.90641 0.7521,-1.52383 0.6365,-1.64609 -0.09,-0.0951 -0.3695,0.10931 -0.8204,0.71005 -0.5337,0.71098 -0.4479,0.74377 -0.6482,1.56174 -0.524,1.1476 -1.7963,2.25675 -2.7168,2.94382 -1.1832,0.844 -1.5725,1.23461 -1.5296,1.53526 0.032,0.22183 0,0.48345 -0.076,0.58102 -0.073,0.0976 -0.2702,0.0269 -0.438,-0.15682 -0.4524,-0.49575 0.3421,-1.61089 1.8952,-2.65919 0.7314,-0.49375 1.5448,-1.20055 1.8074,-1.57043 0.448,-0.63106 0.4446,-0.6484 -0.058,-0.28103 -2.7579,2.01351 -5.9136,2.16996 -8.2622,0.40988 z m 0.7644,3.54405 c -0.8386,-0.69607 -1.6809,-0.85961 -2.4161,-0.45853 -0.7771,0.42392 -6.5166,8.04325 -6.6339,8.80666 -0.095,0.61916 0.1247,0.8264 1.1101,1.04511 1.3648,0.3029 2.9864,0.1123 4.3558,-0.51249 1.1565,-0.52768 1.6413,-0.93001 2.7794,-2.30428 2.3467,-2.83362 2.6931,-4.69366 1.1634,-6.24591 -0.1194,-0.12108 -0.2388,-0.23113 -0.3586,-0.33056 z"
             style="fill:#000000;stroke-width:1" />
        </g>
        <g
           id="g3807"
           transform="translate(-4.7256796,-8.2959395)">
          <path
             inkscape:connector-curvature="0"
             id="path4670-2-3-1-0-3"
             d="m -1262.4695,-846.50956 -1.0377,-1.7322 -1.9166,-0.86483 -2.5139,0.22271 -2.5865,0.67311 -1.8819,1.05935 -1.797,2.31453 -0.724,2.6567 0.2267,1.66707 0.6872,1.51274 1.3062,1.43791 1.7712,0.90267 2.1451,0.61548 1.5707,-0.13258 2.3293,-0.46808 2.0652,-0.95172 1.3719,-1.42718 0.4038,-1.83115 -0.7143,-3.0764 z"
             style="fill:#2c89a0;fill-opacity:1;stroke:none;stroke-width:0.26458332px;stroke-linecap:butt;stroke-linejoin:miter;stroke-opacity:1" />
          <path
             sodipodi:nodetypes="ccccccccccccccccccccccccsscscccsccssccccccccccccccc"
             inkscape:connector-curvature="0"
             id="path4615-2-4-4-9-7"
             d="m -1255.7374,-847.9116 -0.6338,0.14786 c -0.3957,0.0926 -0.8277,0.49507 -1.1489,1.07003 -0.6138,1.09895 -0.6865,1.13134 -1.1785,0.52723 -0.2094,-0.25718 -0.6685,-0.49367 -1.0205,-0.52576 -0.6375,-0.0581 -0.6381,-0.0533 -0.1227,1.31987 0.091,0.24332 0.1745,0.51443 0.2519,0.78721 l 1.6673,-0.4339 c 0.1364,-0.6651 0.9963,-2.0217 1.6345,-2.48915 z m -2.2466,-4.63175 c -0.01,-0.031 -0.019,-0.055 -0.036,-0.0714 -0.1575,-0.15051 -0.4806,0.16072 -0.9157,0.88229 -0.4844,0.80301 -0.9932,1.26544 -1.8212,1.65456 -0.6322,0.29704 -1.2425,0.775 -1.356,1.06202 -0.2454,0.62014 -0.2057,0.86098 0.1605,0.97383 0.1491,0.0459 0.329,-0.15694 0.4,-0.45117 0.085,-0.35424 0.5074,-0.69686 1.2485,-1.01323 0.8611,-0.36754 1.2815,-0.75388 1.823,-1.67639 0.3458,-0.58903 0.544,-1.14375 0.4966,-1.36056 z m -1.9895,8.05802 c -0.4799,-1.67223 -1.6238,-3.22911 -2.3945,-3.23005 -0.2851,-2.5e-4 -0.6366,-0.18802 -0.7808,-0.41725 -0.3993,-0.63415 -1.942,-1.27439 -2.9094,-1.20738 -0.5308,0.0368 -1.0382,-0.12966 -1.3176,-0.43192 -0.5532,-0.59862 -2.114,-0.631 -4.2047,-0.0869 -1.2206,0.31767 -1.5647,0.31324 -1.9218,-0.0248 -0.5405,-0.51159 -0.8452,-0.45518 -0.6934,0.12812 0.1517,0.58306 0.7262,0.84451 1.3504,0.75071 1.0413,-0.10357 2.213,-0.33505 3.1279,-0.49682 1.0486,-0.16794 1.6953,-0.1175 1.7645,0.0358 0.054,0.11923 -0.2414,0.30044 -0.9683,0.48961 -0.8603,0.2239 -0.8581,0.13209 -1.6909,0.007 -1.2606,0.0492 -2.7696,0.80533 -3.7546,1.39627 -1.2299,0.77443 -1.739,0.98631 -2.001,0.83258 -0.1932,-0.11343 -0.4481,-0.18134 -0.5662,-0.15062 -0.1181,0.0307 -0.1275,0.23979 -0.021,0.46472 0.287,0.60671 1.6202,0.29486 3.1795,-0.74413 0.7344,-0.48933 1.697,-0.97358 2.1388,-1.07616 0.7539,-0.17503 0.7687,-0.16534 0.2379,0.16077 -2.9096,1.78743 -4.252,4.64765 -3.5149,7.48849 z m -2.9888,-2.05227 c 0.3257,1.04003 0.1574,1.88137 -0.4927,2.40937 -0.6872,0.55811 -9.9147,2.97651 -10.6655,2.79535 -0.6089,-0.14698 -0.7173,-0.42894 -0.5456,-1.42365 0.2377,-1.37768 1.0295,-2.80559 2.1272,-3.8354 0.9271,-0.86972 1.4834,-1.1656 3.1868,-1.69701 3.5122,-1.09569 5.3645,-0.71025 6.2201,1.2941 0.067,0.15637 0.1232,0.30866 0.1697,0.45724 z"
             style="fill:#000000;stroke-width:1" />
          <path
             sodipodi:nodetypes="ccccccccccccccccccccccccsscscccsccssccccccccccccccc"
             inkscape:connector-curvature="0"
             id="path4615-3-3-0-0-0-3"
             d="m -1254.613,-843.59099 -0.6255,0.17981 c -0.3906,0.11209 -0.9641,-0.0288 -1.5247,-0.37425 -1.0717,-0.66035 -1.151,-0.65315 -1.2861,0.11413 -0.057,0.32665 -0.343,0.75691 -0.6348,0.95657 -0.5283,0.3615 -0.5312,0.35757 -0.7505,-1.09266 -0.039,-0.25697 -0.098,-0.53425 -0.1638,-0.81012 l 1.6674,-0.43392 c 0.4433,0.51422 1.8554,1.27958 2.6405,1.37667 z m 0.2962,5.13933 c 0.01,0.0304 0.011,0.057 0,0.0796 -0.064,0.20817 -0.4979,0.0939 -1.2297,-0.32397 -0.8143,-0.46506 -1.4839,-0.62081 -2.3967,-0.55691 -0.6967,0.0488 -1.4625,-0.071 -1.7016,-0.26628 -0.5166,-0.42187 -0.5993,-0.65154 -0.3346,-0.92855 0.1078,-0.11279 0.3638,-0.0234 0.5692,0.19894 0.2474,0.26764 0.7828,0.36112 1.5841,0.27607 0.931,-0.0988 1.4864,0.0336 2.4089,0.57509 0.5891,0.34577 1.0325,0.73351 1.0968,0.94592 z m -5.6652,-6.06601 c 0.3962,1.694 0.1564,3.61101 -0.5161,3.9875 -0.2489,0.13927 -0.4642,0.47451 -0.4784,0.74498 -0.04,0.74838 -1.0744,2.05935 -1.9518,2.47242 -0.4814,0.22668 -0.8433,0.61934 -0.9398,1.0194 -0.1913,0.79234 -1.5383,1.58147 -3.629,2.12556 -1.2206,0.31764 -1.5189,0.48922 -1.6659,0.95844 -0.2226,0.71013 -0.5161,0.80944 -0.668,0.22608 -0.1517,-0.58304 0.2225,-1.09136 0.8132,-1.31372 0.9597,-0.4172 2.0956,-0.78623 2.9733,-1.09095 0.9974,-0.36453 1.5375,-0.7238 1.5232,-0.8914 -0.011,-0.13036 -0.3572,-0.14465 -1.0841,0.0445 -0.8603,0.22388 -0.8136,0.30298 -1.4798,0.81815 -1.1247,0.5715 -2.8109,0.64688 -3.959,0.6111 -1.4514,-0.0766 -1.9992,-0.0135 -2.1529,0.24845 -0.1135,0.19322 -0.303,0.37678 -0.421,0.4075 -0.1181,0.0307 -0.2282,-0.14722 -0.245,-0.39547 -0.045,-0.66962 1.2709,-1.04722 3.1389,-0.90013 0.8798,0.0693 1.9563,0.0229 2.3921,-0.10298 0.7436,-0.21468 0.7517,-0.23033 0.1293,-0.25629 -3.4118,-0.14238 -5.9781,-1.9854 -6.7193,-4.82516 z m -1.6092,3.24888 c -0.2226,-1.06688 -0.7797,-1.71944 -1.6047,-1.86354 -0.872,-0.15236 -10.1078,2.23411 -10.6751,2.75832 -0.46,0.42516 -0.4172,0.72417 0.2176,1.50902 0.8791,1.08702 2.2665,1.94783 3.727,2.3119 1.2334,0.30744 1.8633,0.29464 3.6097,-0.0717 3.6008,-0.7554 5.0302,-1.99489 4.8002,-4.16205 -0.018,-0.16906 -0.043,-0.32956 -0.075,-0.48196 z"
             style="fill:#000000;stroke-width:1" />
        </g>
        <g
           id="g4594"
           transform="translate(0,1.0583333)">
          <path
             inkscape:connector-curvature="0"
             id="path4670-4-9-3-3-9-4"
             d="m -1209.3342,-883.86116 -0.5666,1.9381 0.6671,1.9941 1.8709,1.6938 2.2508,1.4412 2.0557,0.6617 2.9192,-0.2532 2.4416,-1.273 1.0696,-1.2987 0.6436,-1.5318 0.1681,-1.9353 -0.5404,-1.9131 -1.0053,-1.9924 -1.1641,-1.0628 -1.9256,-1.3916 -2.1013,-0.8694 -1.9793,-0.038 -1.6182,0.9474 -1.7727,2.6138 z"
             style="fill:#d7eef4;fill-opacity:1;stroke:none;stroke-width:0.26458332px;stroke-linecap:butt;stroke-linejoin:miter;stroke-opacity:1" />
          <path
             sodipodi:nodetypes="ccccccccccccccccccccccccsscscccsccssccccccccccccccc"
             inkscape:connector-curvature="0"
             id="path4615-5-7-7-9-9-4"
             d="m -1214.9357,-887.84996 0.539,0.3647 c 0.3367,0.2276 0.9256,0.2713 1.5657,0.1165 1.2235,-0.2959 1.2967,-0.2645 1.1874,0.5068 -0.046,0.3284 0.092,0.826 0.3073,1.1062 0.3903,0.5074 0.3943,0.5045 1.052,-0.8064 0.1166,-0.2323 0.259,-0.4776 0.4067,-0.7196 l -1.4509,-0.929 c -0.5808,0.3516 -2.1605,0.6419 -2.9371,0.491 z m -1.8736,4.7948 c -0.018,0.026 -0.028,0.051 -0.028,0.075 0,0.2178 0.4444,0.2436 1.2696,0.073 0.9183,-0.19 1.6033,-0.1306 2.4513,0.2129 0.6474,0.2622 1.4127,0.3855 1.7005,0.2739 0.6218,-0.2411 0.7716,-0.4339 0.6057,-0.7793 -0.068,-0.1406 -0.3386,-0.1349 -0.6028,0.013 -0.3181,0.1778 -0.8561,0.1009 -1.5917,-0.2282 -0.8546,-0.3824 -1.4237,-0.4285 -2.4686,-0.1994 -0.6672,0.1463 -1.2089,0.3776 -1.3358,0.5597 z m 7.2655,-4.0128 c -0.9014,1.4879 -1.2672,3.385 -0.7444,3.9513 0.1935,0.2094 0.2944,0.5949 0.2242,0.8565 -0.1943,0.7238 0.3836,2.2908 1.0898,2.9553 0.3876,0.3647 0.6101,0.8501 0.5779,1.2604 -0.064,0.8126 0.9728,1.9802 2.7921,3.1451 1.0622,0.6802 1.2927,0.9357 1.2871,1.4274 -0.01,0.7441 0.24,0.9295 0.565,0.4218 0.3249,-0.5073 0.1266,-1.1065 -0.3661,-1.5009 -0.7834,-0.694 -1.749,-1.3967 -2.4892,-1.9584 -0.8355,-0.6555 -1.2377,-1.1644 -1.1722,-1.3193 0.051,-0.1205 0.3845,-0.027 1.017,0.3781 0.7487,0.4794 0.6798,0.5401 1.1536,1.2363 0.8924,0.8918 2.4723,1.4857 3.575,1.8074 1.4037,0.3767 1.905,0.6064 1.9701,0.9031 0.048,0.2188 0.1713,0.4521 0.274,0.5178 0.1028,0.066 0.2626,-0.069 0.3554,-0.3001 0.2504,-0.6227 -0.884,-1.3894 -2.7056,-1.8282 -0.858,-0.2066 -1.8672,-0.5842 -2.2426,-0.8388 -0.6405,-0.4345 -0.6434,-0.4519 -0.043,-0.2838 3.2881,0.9215 6.2991,-0.036 7.8835,-2.5064 z m 0.5237,3.5875 c 0.5421,-0.9454 1.274,-1.3933 2.1031,-1.2748 0.8763,0.1253 8.9186,5.2552 9.2956,5.9293 0.3057,0.5468 0.1723,0.8178 -0.6743,1.3674 -1.1726,0.7613 -2.7584,1.15 -4.2598,1.0438 -1.268,-0.09 -1.863,-0.2971 -3.41,-1.1863 -3.1896,-1.8336 -4.1649,-3.4549 -3.2749,-5.4442 0.069,-0.1552 0.1429,-0.3001 0.2203,-0.4352 z"
             style="fill:#000000;stroke-width:1" />
          <path
             sodipodi:nodetypes="ccccccccccccccccccccccccsscscccsccssccccccccccccccc"
             inkscape:connector-curvature="0"
             id="path4615-3-2-6-2-8-5-2"
             d="m -1212.5283,-891.60976 0.5568,0.3369 c 0.3476,0.2106 0.6337,0.7271 0.7609,1.3733 0.2432,1.2351 0.3024,1.2884 0.9573,0.8664 0.2787,-0.1797 0.7885,-0.2623 1.1332,-0.1838 0.6242,0.1422 0.6232,0.147 -0.2922,1.2929 -0.1622,0.2031 -0.3254,0.4351 -0.4833,0.6705 l -1.451,-0.929 c 0.076,-0.6747 -0.321,-2.2309 -0.783,-2.873 z m 3.5708,-3.708 c 0.016,-0.027 0.035,-0.047 0.056,-0.057 0.1964,-0.094 0.4072,0.3016 0.5975,1.1225 0.2117,0.9136 0.5523,1.5109 1.2191,2.1373 0.509,0.4783 0.9412,1.1218 0.9603,1.4298 0.041,0.6657 -0.071,0.8824 -0.4543,0.8763 -0.1559,0 -0.2642,-0.2512 -0.2405,-0.5529 0.028,-0.3633 -0.2666,-0.8198 -0.8733,-1.3502 -0.7049,-0.6161 -0.985,-1.1137 -1.2141,-2.1586 -0.1463,-0.6672 -0.1629,-1.256 -0.051,-1.4475 z m -0.6043,8.2779 c 0.9742,-1.4413 2.5441,-2.5673 3.2772,-2.3295 0.2712,0.088 0.6635,0.018 0.8717,-0.1548 0.5761,-0.4793 2.2412,-0.6102 3.1402,-0.2468 0.4934,0.1994 1.0274,0.1983 1.3866,0 0.7114,-0.3978 2.2055,0.055 4.0248,1.2198 1.0622,0.6801 1.3908,0.7826 1.835,0.5718 0.6724,-0.3191 0.9446,-0.171 0.6196,0.3366 -0.3249,0.5074 -0.9521,0.578 -1.5165,0.2955 -0.9581,-0.4211 -2.0004,-1.0041 -2.8202,-1.4413 -0.945,-0.4845 -1.5755,-0.6368 -1.6888,-0.5125 -0.088,0.097 0.1365,0.3604 0.769,0.7655 0.7487,0.4793 0.775,0.3913 1.6056,0.5304 1.1833,0.4372 2.3839,1.6236 3.1374,2.4906 0.9296,1.1173 1.348,1.4764 1.6447,1.4114 0.2188,-0.048 0.4823,-0.034 0.585,0.032 0.1028,0.066 0.047,0.2675 -0.1239,0.4484 -0.4608,0.488 -1.6318,-0.2215 -2.7926,-1.6924 -0.5467,-0.6928 -1.3119,-1.4514 -1.7003,-1.6858 -0.6626,-0.3999 -0.6796,-0.3953 -0.2759,0.079 2.2128,2.6008 2.6032,5.7361 1.0224,8.2089 z m 3.4775,-1.0255 c -0.6319,0.8879 -0.7324,1.7401 -0.2779,2.4435 0.4805,0.7435 8.5051,5.9012 9.2751,5.9615 0.6245,0.049 0.8148,-0.1857 0.9598,-1.1846 0.2006,-1.3836 -0.1099,-2.9865 -0.8346,-4.3057 -0.6121,-1.1141 -1.0494,-1.5677 -2.5044,-2.6007 -3,-2.1297 -4.8807,-2.337 -6.315,-0.6962 -0.1119,0.128 -0.2128,0.2553 -0.303,0.3822 z"
             style="fill:#000000;stroke-width:1" />
        </g>
        <g
           id="g3839"
           transform="rotate(103.49057,-1205.9746,-840.51075)">
          <path
             inkscape:connector-curvature="0"
             id="path4670-4-8-0-8-9-1"
             d="m -1200.6628,-836.94655 2.0167,0.10046 1.7843,-1.11239 1.2125,-2.21345 0.8784,-2.52422 0.1655,-2.15321 -0.9249,-2.78036 -1.8058,-2.07873 -1.5118,-0.73833 -1.6394,-0.2698 -1.9215,0.28647 -1.7349,0.97039 -1.7041,1.44097 -0.763,1.37938 -0.9058,2.19634 -0.357,2.24579 0.4234,1.93385 1.2977,1.35358 2.9542,1.11648 z"
             style="fill:#2c89a0;fill-opacity:1;stroke:none;stroke-width:0.26458332px;stroke-linecap:butt;stroke-linejoin:miter;stroke-opacity:1" />
          <path
             sodipodi:nodetypes="ccccccccccccccccccccccccsscscccsccssccccccccccccccc"
             inkscape:connector-curvature="0"
             id="path4615-5-5-2-3-1-0"
             d="m -1203.2399,-830.57113 0.2294,-0.60904 c 0.1431,-0.38041 0.049,-0.96325 -0.2508,-1.54985 -0.5722,-1.12115 -0.5587,-1.19964 0.2169,-1.2727 0.3303,-0.0311 0.782,-0.28126 1.0044,-0.55604 0.4028,-0.49763 0.3991,-0.50081 -1.0289,-0.83572 -0.253,-0.0593 -0.5246,-0.14087 -0.7944,-0.22826 l -0.5662,1.62718 c 0.477,0.48312 1.1266,1.95206 1.1605,2.7424 z m 5.099,0.70741 c 0.03,0.0114 0.057,0.0151 0.079,0.0101 0.2126,-0.0476 0.1336,-0.48881 -0.224,-1.25179 -0.3982,-0.84898 -0.4998,-1.52899 -0.3629,-2.43364 0.1045,-0.69058 0.047,-1.46358 -0.1289,-1.71755 -0.3791,-0.5487 -0.6014,-0.64956 -0.8988,-0.40792 -0.121,0.0984 -0.053,0.36072 0.148,0.58451 0.2469,0.268 0.2976,0.80906 0.1481,1.60109 -0.1732,0.9201 -0.086,1.48434 0.38,2.44731 0.2975,0.61487 0.6484,1.08799 0.8549,1.16911 z m -5.5921,-6.13337 c 1.6568,0.53078 3.5868,0.44542 4.0161,-0.19472 0.1587,-0.23686 0.5101,-0.42461 0.7809,-0.41713 0.7491,0.0207 2.1389,-0.90574 2.621,-1.74712 0.2645,-0.4617 0.6849,-0.79097 1.0914,-0.8551 0.8052,-0.12703 1.6998,-1.40651 2.4098,-3.44681 0.4145,-1.19121 0.6095,-1.47482 1.089,-1.58372 0.7256,-0.16488 0.8482,-0.44953 0.2789,-0.64763 -0.5691,-0.19799 -1.1057,0.13417 -1.3747,0.70514 -0.4928,0.92322 -0.9517,2.02582 -1.3259,2.87627 -0.4434,0.96501 -0.8448,1.47448 -1.0107,1.44682 -0.129,-0.0215 -0.1157,-0.36761 0.1313,-1.07707 0.2922,-0.83959 0.3672,-0.78669 0.9342,-1.40939 0.6598,-1.07523 0.8703,-2.74996 0.9267,-3.89724 0.04,-1.45284 0.1469,-1.99384 0.4203,-2.12608 0.2016,-0.0976 0.3998,-0.27173 0.4399,-0.38693 0.04,-0.11522 -0.1286,-0.23923 -0.3745,-0.27589 -0.6639,-0.0988 -1.1458,1.18284 -1.149,3.05658 0,0.88247 -0.1341,1.9518 -0.2945,2.37614 -0.2736,0.72395 -0.2898,0.73083 -0.2658,0.10834 0.1317,-3.41218 -1.5,-6.11799 -4.2708,-7.08467 z m 3.3674,-1.34346 c -1.0456,-0.30742 -1.6513,-0.91511 -1.7288,-1.74903 -0.082,-0.88141 3.0376,-9.89609 3.6055,-10.41946 0.4608,-0.42448 0.7554,-0.35777 1.4868,0.33785 1.0131,0.9635 1.7598,2.41545 2.0056,3.90041 0.2075,1.25416 0.1442,1.88102 -0.361,3.59237 -1.0417,3.52855 -2.3919,4.85403 -4.5336,4.45097 -0.1671,-0.0315 -0.325,-0.0692 -0.4745,-0.1131 z"
             style="fill:#000000;stroke-width:1" />
          <path
             sodipodi:nodetypes="ccccccccccccccccccccccccsscscccsccssccccccccccccccc"
             inkscape:connector-curvature="0"
             id="path4615-3-2-2-7-3-0-8"
             d="m -1207.4564,-832.03841 0.1983,-0.61989 c 0.1239,-0.38701 0.5598,-0.78533 1.1587,-1.05935 1.1446,-0.52368 1.1828,-0.59364 0.62,-1.13241 -0.2395,-0.22939 -0.4385,-0.70595 -0.4422,-1.05945 -0.01,-0.64012 0,-0.64033 1.3255,-0.0164 0.2351,0.11056 0.4987,0.21531 0.7644,0.3142 l -0.5662,1.6272 c -0.6739,0.0827 -2.0951,0.83091 -2.6122,1.42954 z m -4.4367,-2.61084 c -0.03,-0.009 -0.053,-0.0228 -0.068,-0.0412 -0.1377,-0.16899 0.1987,-0.46615 0.9529,-0.84207 0.8392,-0.41833 1.341,-0.88842 1.7952,-1.68262 0.3469,-0.60628 0.8722,-1.17627 1.1674,-1.26646 0.6379,-0.19487 0.8747,-0.13587 0.9578,0.23813 0.038,0.15115 -0.1827,0.31534 -0.4818,0.36252 -0.3599,0.0569 -0.7353,0.4499 -1.11,1.16325 -0.4355,0.82883 -0.8542,1.2169 -1.8173,1.68271 -0.6148,0.2974 -1.1836,0.45047 -1.396,0.38581 z m 8.1917,-1.33687 c -1.6285,-0.61236 -3.0886,-1.87745 -3.0276,-2.64577 0.023,-0.28435 -0.1366,-0.64958 -0.3533,-0.81183 -0.6001,-0.44888 -1.1146,-2.03788 -0.9702,-2.99679 0.079,-0.52619 -0.046,-1.04531 -0.3246,-1.34803 -0.5524,-0.59942 -0.4595,-2.15783 0.2505,-4.19813 0.4146,-1.19125 0.4376,-1.53454 0.1294,-1.91763 -0.4666,-0.57973 -0.386,-0.87895 0.1834,-0.68087 0.569,0.19799 0.7834,0.79162 0.64,1.40622 -0.1868,1.02971 -0.5115,2.17903 -0.7461,3.07804 -0.2515,1.03172 -0.2531,1.68036 -0.1058,1.76168 0.114,0.0634 0.3187,-0.2165 0.5657,-0.92592 0.292,-0.83956 0.2005,-0.84475 0.1425,-1.6849 0.1501,-1.25255 1.0249,-2.69607 1.6928,-3.63051 0.8707,-1.16387 1.1226,-1.65434 0.9904,-1.92774 -0.098,-0.20172 -0.1446,-0.46131 -0.1046,-0.57648 0.04,-0.11522 0.2493,-0.10788 0.4649,0.0162 0.5818,0.33471 0.164,1.63863 -0.9967,3.10956 -0.5466,0.69278 -1.1065,1.61344 -1.2442,2.04566 -0.2349,0.73741 -0.2265,0.75291 0.1407,0.25007 2.0151,-2.75685 4.9737,-3.86552 7.7463,-2.90298 z m -1.806,-3.14373 c 1.0105,0.40809 1.8627,0.30776 2.4411,-0.29792 0.6115,-0.64015 3.7621,-9.64399 3.6416,-10.40691 -0.098,-0.61871 -0.3699,-0.74939 -1.3753,-0.65805 -1.3922,0.12646 -2.8791,0.80121 -3.9936,1.81277 -0.9412,0.85437 -1.2808,1.38511 -1.9471,3.04038 -1.3738,3.41301 -1.1382,5.29032 0.7911,6.30389 0.1505,0.0791 0.2978,0.14755 0.4421,0.20586 z"
             style="fill:#000000;stroke-width:1" />
        </g>
        <g
           id="g3844"
           transform="matrix(-0.95627971,0.29245362,0.29245362,0.95627971,-2163.7802,320.05706)">
          <path
             inkscape:connector-curvature="0"
             id="path4670-4-33-3-8-4-4"
             d="m -1241.4176,-875.87014 -1.3759,-1.4779 -0.2985,-2.08139 0.9121,-2.35316 1.3649,-2.29787 1.5403,-1.51367 2.7226,-1.08345 2.7532,0.0423 1.5386,0.68076 1.2624,1.08019 1.0185,1.65423 0.3753,1.95213 v 2.2317 l -0.5636,1.47213 -1.0965,2.1076 -1.4879,1.71972 -1.752,0.9216 -1.8713,-0.12066 -2.757,-1.54058 z"
             style="fill:#d7eef4;fill-opacity:1;stroke:none;stroke-width:0.26458332px;stroke-linecap:butt;stroke-linejoin:miter;stroke-opacity:1" />
          <path
             sodipodi:nodetypes="ccccccccccccccccccccccccsscscccsccssccccccccccccccc"
             inkscape:connector-curvature="0"
             id="path4615-5-91-8-1-6-1"
             d="m -1244.6341,-869.79223 0.3181,-0.56779 c 0.1988,-0.35444 0.7055,-0.65765 1.347,-0.8065 1.2262,-0.28447 1.2775,-0.34537 0.8338,-0.98572 -0.1889,-0.27261 -0.2886,-0.77931 -0.2217,-1.12643 0.1212,-0.62859 0.126,-0.62782 1.302,0.2487 0.2084,0.1553 0.4457,0.31058 0.6863,0.46059 l -0.8799,1.48126 c -0.6768,-0.0537 -2.2188,0.39564 -2.8451,0.87888 z m -3.8256,-3.44455 c -0.028,-0.0153 -0.048,-0.033 -0.059,-0.054 -0.1008,-0.1931 0.2879,-0.41704 1.1019,-0.63471 0.906,-0.24225 1.4915,-0.60262 2.0953,-1.29006 0.4609,-0.52477 1.0895,-0.97833 1.3968,-1.00772 0.6639,-0.0635 0.8842,0.0416 0.891,0.42467 0,0.15595 -0.2422,0.27248 -0.5446,0.25897 -0.364,-0.0162 -0.8103,0.29393 -1.32,0.91804 -0.5923,0.72513 -1.0802,1.02171 -2.1168,1.28573 -0.6619,0.16858 -1.2498,0.20493 -1.4449,0.0992 z m 8.2935,0.32659 c -1.4732,-0.92535 -2.6511,-2.45664 -2.438,-3.19729 0.079,-0.27402 0,-0.66377 -0.184,-0.86604 -0.4983,-0.5597 -0.6849,-2.21946 -0.3519,-3.13019 0.1828,-0.49977 0.1638,-1.03344 -0.049,-1.38571 -0.4214,-0.69768 -0.019,-2.20614 1.0842,-4.06347 0.6442,-1.08438 0.7355,-1.41617 0.51,-1.85309 -0.3414,-0.66129 -0.2026,-0.93838 0.3156,-0.63053 0.518,0.30769 0.6096,0.93217 0.3462,1.50572 -0.3887,0.97166 -0.9365,2.03293 -1.346,2.86695 -0.4525,0.96071 -0.5836,1.59594 -0.4556,1.70503 0.1,0.0849 0.3557,-0.14845 0.7393,-0.79424 0.454,-0.76431 0.3651,-0.78767 0.4762,-1.62244 0.3974,-1.19733 1.5429,-2.43701 2.3841,-3.21917 1.0855,-0.96646 1.4305,-1.39671 1.3555,-1.69101 -0.055,-0.21712 -0.05,-0.4809 0.013,-0.58578 0.062,-0.10491 0.2658,-0.0559 0.4523,0.10877 0.5031,0.44418 -0.1667,1.63835 -1.5979,2.84775 -0.674,0.5696 -1.4065,1.35985 -1.6278,1.75586 -0.3774,0.67561 -0.3723,0.6925 0.088,0.2731 2.5251,-2.29869 5.6457,-2.79395 8.1701,-1.29693 z m -1.1415,-3.44115 c 0.9087,0.60174 1.7637,0.67366 2.4515,0.19576 0.7269,-0.50511 5.6128,-8.698 5.6473,-9.46962 0.028,-0.62579 -0.2129,-0.80818 -1.2161,-0.91953 -1.3895,-0.15422 -2.9812,0.20983 -4.2753,0.9784 -1.093,0.64911 -1.5317,1.10131 -2.5153,2.59011 -2.028,3.06974 -2.1721,4.95628 -0.4842,6.33485 0.1317,0.10753 0.2623,0.20408 0.3921,0.29003 z"
             style="fill:#000000;stroke-width:1" />
          <path
             sodipodi:nodetypes="ccccccccccccccccccccccccsscscccsccssccccccccccccccc"
             inkscape:connector-curvature="0"
             id="path4615-3-2-00-3-9-2-1"
             d="m -1240.7957,-867.51216 0.3464,-0.55094 c 0.2162,-0.34413 0.2401,-0.9341 0.064,-1.56868 -0.3367,-1.21289 -0.3078,-1.28709 0.4668,-1.20373 0.3298,0.0355 0.8224,-0.11935 1.0953,-0.34417 0.494,-0.40714 0.491,-0.411 -0.8413,-1.02444 -0.236,-0.1087 -0.4859,-0.24283 -0.7327,-0.38235 l -0.8799,1.48126 c 0.3708,0.56868 0.7139,2.13778 0.5892,2.91893 z m 4.8549,1.71182 c 0.027,0.017 0.052,0.0261 0.076,0.0256 0.2178,-0.004 0.2285,-0.45229 0.03,-1.27129 -0.2207,-0.91144 -0.1842,-1.59802 0.1306,-2.45709 0.2403,-0.65577 0.3379,-1.42477 0.2167,-1.70867 -0.2618,-0.61339 -0.4594,-0.75661 -0.7991,-0.57926 -0.1382,0.0722 -0.1235,0.34296 0.033,0.60206 0.1884,0.31191 0.1295,0.85223 -0.1748,1.59842 -0.3534,0.86693 -0.3805,1.43726 -0.1165,2.47387 0.1686,0.6619 0.4179,1.1956 0.6041,1.31634 z m -4.2541,-7.12691 c 1.5173,0.85107 3.4255,1.15301 3.974,0.61153 0.2029,-0.20036 0.5847,-0.31413 0.8485,-0.25269 0.7299,0.16987 2.2767,-0.46021 2.9172,-1.18831 0.3515,-0.39956 0.8292,-0.63818 1.2403,-0.61982 0.8143,0.0363 1.9465,-1.03858 3.0498,-2.89591 0.6441,-1.0844 0.8918,-1.32334 1.3834,-1.33424 0.744,-0.0165 0.9209,-0.271 0.4027,-0.57884 -0.518,-0.3077 -1.1102,-0.0894 -1.4879,0.41628 -0.6673,0.80615 -1.3373,1.79483 -1.8738,2.5534 -0.6272,0.85697 -1.1223,1.27599 -1.2793,1.21574 -0.1222,-0.0468 -0.04,-0.38335 0.3438,-1.02912 0.454,-0.7643 0.517,-0.69748 1.197,-1.19437 0.8613,-0.92173 1.402,-2.52067 1.6865,-3.63353 0.3294,-1.41559 0.5422,-1.92431 0.8366,-1.99926 0.2171,-0.0553 0.446,-0.18637 0.5083,-0.29126 0.062,-0.10491 -0.078,-0.26009 -0.3118,-0.34514 -0.6307,-0.2294 -1.359,0.93009 -1.7365,2.76542 -0.1778,0.86439 -0.5213,1.88568 -0.7632,2.26942 -0.4128,0.65469 -0.4301,0.65819 -0.2821,0.053 0.8107,-3.31708 -0.2471,-6.29431 -2.7692,-7.79504 z m 3.568,-0.64365 c -0.9631,-0.5101 -1.4353,-1.22655 -1.3446,-2.05912 0.096,-0.88003 4.9533,-9.0898 5.6145,-9.48914 0.5361,-0.32389 0.8115,-0.19966 1.3892,0.62807 0.8001,1.14645 1.2418,2.71833 1.1859,4.22246 -0.047,1.27032 -0.2344,1.87189 -1.0713,3.44781 -1.7257,3.24933 -3.3134,4.27835 -5.3315,3.45554 -0.1574,-0.0642 -0.3046,-0.13272 -0.4422,-0.20561 z"
             style="fill:#000000;stroke-width:1" />
        </g>
        <g
           id="g3813"
           transform="translate(-7.3715131,-8.2959395)">
          <path
             id="path2157-6-84"
             d="m -1241.0369,-853.16885 c -0.4348,0.55479 -0.6168,1.22794 -0.5712,2.04392 0.01,0.16972 0.027,0.33133 0.051,0.48521 0.169,1.07658 0.6931,1.75598 1.5098,1.94118 0.8633,0.1957 10.2067,-1.72665 10.7995,-2.22187 0.4806,-0.4016 0.4529,-0.70234 -0.1419,-1.51793 -0.8238,-1.12954 -2.1664,-2.05858 -3.6068,-2.49514 -1.2166,-0.36869 -1.8467,-0.38722 -3.6092,-0.10855 -2.2712,0.35913 -3.7047,0.94968 -4.4309,1.87318 z"
             style="fill:#d7eef4;fill-opacity:1;stroke:none;stroke-width:0.26458332px;stroke-linecap:butt;stroke-linejoin:miter;stroke-opacity:1"
             inkscape:connector-curvature="0" />
          <path
             id="path4670-43-4-4-1-7-5-2"
             d="m -1241.3986,-847.94954 0.5501,2.49427 0.9495,1.78181 1.8717,0.95939 2.5214,-0.0967 2.6172,-0.5432 1.9321,-0.96383 1.9105,-2.22216 0.856,-2.61707 -0.1284,-1.50738 z"
             style="fill:#2c89a0;fill-opacity:1;stroke:none;stroke-width:0.26458332px;stroke-linecap:butt;stroke-linejoin:miter;stroke-opacity:1"
             inkscape:connector-curvature="0" />
          <path
             sodipodi:nodetypes="ccccccccccccccccccccccccsscscccsccssccccccccccccccc"
             inkscape:connector-curvature="0"
             id="path4615-51-4-5-1-6-57"
             d="m -1247.8431,-844.34971 0.6403,-0.11598 c 0.3999,-0.0727 0.8514,-0.45312 1.2009,-1.01136 0.6679,-1.06687 0.7422,-1.09559 1.2034,-0.46771 0.1964,0.26724 0.6428,0.52678 0.993,0.57609 0.6339,0.0899 0.6347,0.0851 0.1885,-1.31212 -0.079,-0.24751 -0.1486,-0.52248 -0.2123,-0.79879 l -1.6869,0.35007 c -0.1695,0.65749 -1.096,1.96948 -1.7567,2.40442 z m 2.0124,4.73822 c 0.01,0.031 0.016,0.0559 0.032,0.0727 0.15,0.15795 0.488,-0.13652 0.9587,-0.83543 0.5239,-0.77783 1.0551,-1.21421 1.9016,-1.56151 0.6462,-0.26515 1.2795,-0.71197 1.4073,-0.99295 0.2761,-0.60718 0.2484,-0.84965 -0.1117,-0.9807 -0.1465,-0.0533 -0.3364,0.14037 -0.4221,0.43069 -0.103,0.34945 -0.5412,0.6708 -1.2975,0.94954 -0.8783,0.32405 -1.3176,0.68897 -1.9045,1.58329 -0.3748,0.57101 -0.6004,1.11511 -0.5639,1.33406 z m 2.3895,-7.94859 c 0.3958,1.69404 1.4605,3.30614 2.2301,3.34559 0.2849,0.0146 0.6264,0.21962 0.7591,0.45577 0.3671,0.65328 1.876,1.36958 2.8454,1.35115 0.5321,-0.0102 1.0305,0.18134 1.2944,0.49718 0.5226,0.62546 2.0799,0.73582 4.1951,0.29687 1.235,-0.25632 1.5784,-0.23469 1.9182,0.1207 0.5142,0.53792 0.8214,0.49685 0.699,-0.0934 -0.1225,-0.58986 -0.6832,-0.87966 -1.3112,-0.81719 -1.0453,0.0514 -2.2271,0.22412 -3.1489,0.33999 -1.0557,0.11539 -1.699,0.0327 -1.7605,-0.12386 -0.048,-0.12185 0.2561,-0.28803 0.9915,-0.44067 0.8704,-0.18059 0.8637,-0.0891 1.6891,0.0775 1.2615,0.0138 2.8064,-0.66602 3.8197,-1.20702 1.2671,-0.71203 1.7861,-0.8982 2.04,-0.73156 0.1876,0.12265 0.4386,0.20343 0.5581,0.17863 0.1191,-0.0244 0.1392,-0.23307 0.044,-0.46302 -0.2563,-0.62028 -1.6034,-0.37543 -3.2126,0.58434 -0.7579,0.45205 -1.7435,0.88762 -2.19,0.96801 -0.7616,0.13714 -0.7759,0.12674 -0.2314,-0.17002 2.9952,-1.63984 4.4788,-4.42945 3.8845,-7.30354 z m 2.8826,2.19897 c -0.2734,-1.05502 -0.063,-1.88692 0.6124,-2.38177 0.7142,-0.52306 10.0509,-2.47754 10.7918,-2.25913 0.6008,0.17724 0.6947,0.46457 0.4738,1.44911 -0.3062,1.36409 -1.1683,2.75071 -2.3161,3.72438 -0.9694,0.82228 -1.5397,1.09001 -3.2675,1.53572 -3.5626,0.91889 -5.3933,0.44139 -6.1478,-1.60319 -0.059,-0.15975 -0.1076,-0.3144 -0.1466,-0.46514 z"
             style="fill:#000000;stroke-width:1" />
          <path
             sodipodi:nodetypes="ccccccccccccccccccccccccsscscccsccssccccccccccccccc"
             inkscape:connector-curvature="0"
             id="path4615-3-5-8-3-7-8-66"
             d="m -1248.7503,-848.72112 0.6337,-0.14837 c 0.3957,-0.0924 0.9614,0.0769 1.5041,0.45 1.0371,0.71336 1.1169,0.70979 1.2901,-0.0498 0.074,-0.32339 0.3805,-0.73884 0.6818,-0.92367 0.5457,-0.3347 0.5484,-0.33065 0.695,1.12873 0.026,0.25858 0.072,0.53853 0.1231,0.81734 l -1.687,0.35008 c -0.417,-0.53572 -1.7889,-1.37091 -2.5683,-1.50686 z m -0.039,-5.1477 c -0.01,-0.0311 -0.01,-0.0573 4e-4,-0.0799 0.075,-0.20476 0.5021,-0.069 1.212,0.38496 0.7899,0.50537 1.4511,0.69415 2.3659,0.6759 0.6983,-0.0139 1.4572,0.14399 1.6862,0.35098 0.495,0.44699 0.566,0.68061 0.2878,0.94407 -0.1133,0.10728 -0.3645,0.005 -0.5585,-0.22717 -0.2335,-0.27993 -0.7638,-0.39972 -1.5683,-0.35483 -0.9348,0.0522 -1.483,-0.10771 -2.3773,-0.69465 -0.5711,-0.37464 -0.9939,-0.785 -1.0481,-0.99951 z m 5.355,6.3414 c -0.3111,-1.71166 0.024,-3.61434 0.7147,-3.95671 0.2555,-0.12671 0.4873,-0.45078 0.5151,-0.72019 0.077,-0.74543 1.1759,-2.00313 2.0727,-2.37182 0.4921,-0.20232 0.8732,-0.57644 0.9896,-0.97116 0.2306,-0.78187 1.6154,-1.50272 3.7306,-1.94167 1.235,-0.25631 1.5415,-0.41273 1.7118,-0.87408 0.2577,-0.69814 0.5558,-0.78265 0.6784,-0.19246 0.1224,0.58994 -0.2767,1.07895 -0.8778,1.27156 -0.9794,0.36872 -2.1322,0.6805 -3.0241,0.94108 -1.0144,0.31422 -1.5717,0.64603 -1.5658,0.81415 0,0.13092 0.3494,0.16254 1.085,0.01 0.8704,-0.18059 0.8277,-0.26194 1.5188,-0.7432 1.1518,-0.51457 2.8397,-0.50568 3.9845,-0.41256 1.4458,0.14899 1.9961,0.11327 2.1627,-0.14061 0.123,-0.18731 0.3213,-0.36118 0.4408,-0.38597 0.1192,-0.0244 0.2203,0.15873 0.225,0.40716 0.012,0.67109 -1.3217,0.9825 -3.1799,0.74223 -0.8753,-0.11312 -1.9528,-0.12048 -2.3944,-0.0166 -0.7533,0.17724 -0.7622,0.19248 -0.1419,0.24955 3.4004,0.31258 5.8715,2.28149 6.47,5.15469 z m 1.7695,-3.16439 c 0.169,1.0766 0.6929,1.75616 1.5096,1.94135 0.8633,0.19572 10.2069,-1.72652 10.7996,-2.22175 0.4807,-0.40161 0.4528,-0.70242 -0.1419,-1.518 -0.8238,-1.12953 -2.1665,-2.0586 -3.6069,-2.49516 -1.2165,-0.3687 -1.8463,-0.38735 -3.6088,-0.10868 -3.634,0.5746 -5.1236,1.74114 -5.0021,3.91709 0.01,0.16973 0.026,0.33126 0.051,0.48513 z"
             style="fill:#000000;fill-opacity:1;stroke-width:1" />
        </g>
        <g
           id="g3850"
           transform="translate(0.53939521,2.9183662)">
          <path
             id="path2157-6-1-5"
             d="m -1211.4581,-863.40051 c -0.069,-0.70145 -0.4034,-1.31358 -1.0005,-1.87159 -0.1243,-0.11604 -0.2483,-0.22097 -0.3722,-0.31547 -0.8664,-0.66091 -1.7148,-0.78942 -2.4329,-0.3585 -0.759,0.45552 -6.18,8.3046 -6.2658,9.07218 -0.07,0.6225 0.1584,0.82056 1.152,0.99856 1.3761,0.24645 2.9885,-0.0107 4.331,-0.69125 1.1338,-0.5748 1.6018,-0.99708 2.6825,-2.41703 1.3925,-1.82985 2.0198,-3.24763 1.9059,-4.4169 z"
             style="fill:#d7eef4;fill-opacity:1;stroke:none;stroke-width:0.26458332px;stroke-linecap:butt;stroke-linejoin:miter;stroke-opacity:1"
             inkscape:connector-curvature="0" />
          <path
             id="path4670-43-4-4-1-7-5-1-6"
             d="m -1214.8027,-867.55351 -2.122,-1.42165 -1.9179,-0.63075 -2.0156,0.601 -1.7547,1.81322 -1.5153,2.20204 -0.7294,2.03221 0.1562,2.92636 1.1911,2.48257 1.135,1.0002 z"
             style="fill:#2c89a0;fill-opacity:1;stroke:none;stroke-width:0.26458332px;stroke-linecap:butt;stroke-linejoin:miter;stroke-opacity:1"
             inkscape:connector-curvature="0" />
          <path
             sodipodi:nodetypes="ccccccccccccccccccccccccsscscccsccssccccccccccccccc"
             inkscape:connector-curvature="0"
             id="path4615-51-4-5-1-6-7-4"
             d="m -1212.6359,-874.6101 -0.3824,0.52653 c -0.2386,0.329 -0.3018,0.91604 -0.1683,1.56099 0.2551,1.23257 0.2213,1.3047 -0.546,1.16994 -0.3267,-0.0573 -0.8286,0.0639 -1.1157,0.27041 -0.5201,0.37329 -0.5174,0.37735 0.771,1.07825 0.2283,0.12411 0.4687,0.2747 0.7057,0.43033 l 0.9767,-1.4193 c -0.3322,-0.59217 -0.5699,-2.18069 -0.3934,-2.9517 z m -4.73,-2.03168 c -0.025,-0.0187 -0.05,-0.0294 -0.074,-0.0302 -0.2175,-0.0104 -0.2581,0.43604 -0.1149,1.26641 0.1593,0.92415 0.077,1.60671 -0.2941,2.44289 -0.2836,0.63836 -0.4322,1.39907 -0.3302,1.69042 0.2203,0.62954 0.408,0.78555 0.7587,0.6313 0.1428,-0.0628 0.146,-0.33405 0.01,-0.60299 -0.1672,-0.32371 -0.073,-0.85887 0.2809,-1.58317 0.4105,-0.84141 0.4755,-1.40873 0.2811,-2.46064 -0.124,-0.67166 -0.3372,-1.22072 -0.515,-1.35367 z m 3.7696,7.3946 c -1.4572,-0.95021 -3.3411,-1.37873 -3.9244,-0.87505 -0.2158,0.1864 -0.6044,0.27444 -0.8635,0.19555 -0.7169,-0.2181 -2.3023,0.30768 -2.9899,0.99125 -0.3773,0.37527 -0.8699,0.5815 -1.2789,0.53577 -0.81,-0.0905 -2.0114,0.9065 -3.236,2.68613 -0.715,1.03907 -0.9781,1.26091 -1.4692,1.23909 -0.7435,-0.0331 -0.937,0.20897 -0.4405,0.55073 0.4964,0.34148 1.1018,0.16318 1.5123,-0.31621 0.7196,-0.75985 1.454,-1.70172 2.0399,-2.42282 0.6829,-0.81331 1.2048,-1.19833 1.3575,-1.12779 0.1188,0.055 0.014,0.3852 -0.4117,1.00395 -0.5039,0.73228 -0.5623,0.6615 -1.2739,1.11189 -0.9208,0.8623 -1.5669,2.42159 -1.9249,3.51305 -0.4231,1.39047 -0.6694,1.88385 -0.968,1.93901 -0.2203,0.0411 -0.4575,0.15628 -0.5267,0.25679 -0.069,0.10002 0.061,0.26465 0.2882,0.36513 0.614,0.27089 1.418,-0.83742 1.9169,-2.64347 0.235,-0.85061 0.6459,-1.84676 0.9129,-2.21352 0.4554,-0.6257 0.4729,-0.62807 0.2847,-0.0372 -1.03,3.25563 -0.1731,6.29677 2.2435,7.96225 z m -3.603,0.40444 c 0.927,0.57319 1.3504,1.31951 1.2044,2.14417 -0.1543,0.87165 -5.5482,8.73932 -6.2345,9.09379 -0.5566,0.28736 -0.8231,0.14469 -1.3443,-0.71929 -0.7219,-1.19725 -1.0578,-2.7951 -0.9018,-4.29213 0.1318,-1.26429 0.3587,-1.85205 1.2988,-3.36872 1.9384,-3.12708 3.5912,-4.04793 5.5499,-3.09244 0.1528,0.0748 0.2951,0.1527 0.4276,0.23461 z"
             style="fill:#000000;stroke-width:1" />
          <path
             sodipodi:nodetypes="ccccccccccccccccccccccccsscscccsccssccccccccccccccc"
             inkscape:connector-curvature="0"
             id="path4615-3-5-8-3-7-8-4-7"
             d="m -1208.958,-872.07921 -0.3552,0.54533 c -0.222,0.34038 -0.7478,0.60914 -1.3978,0.71485 -1.2425,0.20172 -1.2977,0.25951 -0.8976,0.92799 0.1703,0.28464 0.236,0.79682 0.1461,1.13868 -0.1628,0.61913 -0.1676,0.61807 -1.2825,-0.33491 -0.1976,-0.16883 -0.4241,-0.33963 -0.6541,-0.50536 l 0.9767,-1.4193 c 0.6717,0.0987 2.2403,-0.24652 2.8974,-0.68721 z m 3.5875,3.69188 c 0.027,0.0176 0.045,0.0359 0.055,0.058 0.088,0.19948 -0.315,0.39696 -1.1418,0.55988 -0.9201,0.18105 -1.5283,0.50187 -2.1766,1.14754 -0.4948,0.49284 -1.1523,0.90353 -1.4609,0.91232 -0.6666,0.0193 -0.8794,-0.10036 -0.8606,-0.48307 0.01,-0.15583 0.2597,-0.25578 0.5606,-0.22205 0.3621,0.0408 0.8281,-0.2393 1.3783,-0.82802 0.6393,-0.68409 1.1458,-0.94751 2.1977,-1.14182 0.6717,-0.12424 1.2609,-0.12009 1.4484,-0.003 z m -8.2533,-0.87872 c 1.4082,1.02148 2.4815,2.62795 2.2194,3.35267 -0.097,0.2682 -0.04,0.66261 0.1259,0.87641 0.4599,0.59166 0.5354,2.26021 0.1424,3.14667 -0.2156,0.48644 -0.2322,1.02022 -0.043,1.38586 0.374,0.72431 -0.1281,2.20257 -1.3527,3.9822 -0.715,1.03907 -0.8283,1.36397 -0.6323,1.81502 0.2965,0.68256 0.1396,0.94975 -0.357,0.60809 -0.4963,-0.34158 -0.5461,-0.97079 -0.2451,-1.52553 0.4527,-0.94357 1.0699,-1.9659 1.5341,-2.77084 0.5156,-0.92837 0.6888,-1.5534 0.5683,-1.67081 -0.094,-0.0915 -0.3648,0.12415 -0.7905,0.74321 -0.504,0.73228 -0.4169,0.76155 -0.5834,1.58706 -0.4764,1.16812 -1.7019,2.32875 -2.5934,3.05304 -1.1475,0.89202 -1.5204,1.2983 -1.4652,1.59692 0.041,0.22033 0.018,0.48311 -0.052,0.58362 -0.069,0.10001 -0.2689,0.0377 -0.444,-0.13862 -0.4725,-0.47676 0.2755,-1.62364 1.7841,-2.73489 0.7105,-0.52342 1.4941,-1.26315 1.7413,-1.6435 0.4216,-0.6489 0.4176,-0.66609 -0.07,-0.27841 -2.6727,2.12529 -5.8193,2.41142 -8.2383,0.74948 z m 0.9095,3.50957 c -0.8665,-0.66092 -1.7148,-0.78967 -2.4329,-0.35874 -0.759,0.45552 -6.1802,8.30458 -6.266,9.07217 -0.07,0.62251 0.1586,0.82057 1.1521,0.99857 1.3762,0.24643 2.9886,-0.0107 4.331,-0.69126 1.1339,-0.57479 1.6018,-0.99675 2.6824,-2.41671 2.2281,-2.92774 2.4976,-4.80044 0.9054,-6.28848 -0.1242,-0.11604 -0.2481,-0.22107 -0.3719,-0.31556 z"
             style="fill:#000000;stroke-width:1" />
        </g>
        <g
           id="g3796"
           transform="rotate(-176.80148,-1279.3118,-823.33865)">
          <path
             id="path2157-6-3-2"
             d="m -1269.351,-822.996 c -0.6181,0.33874 -1.0505,0.88584 -1.3299,1.65382 -0.058,0.15976 -0.106,0.31504 -0.1445,0.46599 -0.2686,1.05615 -0.054,1.88701 0.6234,2.37887 0.7165,0.51985 10.062,2.43223 10.8018,2.21043 0.6,-0.17986 0.6929,-0.46724 0.4674,-1.45114 -0.3124,-1.36267 -1.1807,-2.74537 -2.3329,-3.71389 -0.9731,-0.81797 -1.5449,-1.08314 -3.2748,-1.52104 -2.2291,-0.56429 -3.7793,-0.58596 -4.8105,-0.023 z"
             style="fill:#d7eef4;fill-opacity:1;stroke:none;stroke-width:0.26458332px;stroke-linecap:butt;stroke-linejoin:miter;stroke-opacity:1"
             inkscape:connector-curvature="0" />
          <path
             id="path4670-43-4-4-1-7-5-9-1"
             d="m -1271.8616,-818.29169 -0.4766,2.50936 0.1712,2.01175 1.3426,1.61892 2.3558,0.90404 2.6196,0.53135 2.1555,-0.12511 2.6312,-1.29026 1.8175,-2.06852 0.4755,-1.43615 z"
             style="fill:#2c89a0;fill-opacity:1;stroke:none;stroke-width:0.26458332px;stroke-linecap:butt;stroke-linejoin:miter;stroke-opacity:1"
             inkscape:connector-curvature="0" />
          <path
             sodipodi:nodetypes="ccccccccccccccccccccccccsscscccsccssccccccccccccccc"
             inkscape:connector-curvature="0"
             id="path4615-51-4-5-1-6-3-0"
             d="m -1279.203,-817.52054 0.6343,0.14556 c 0.3962,0.0906 0.9611,-0.0812 1.5021,-0.45673 1.0341,-0.71765 1.1137,-0.71479 1.2904,0.044 0.075,0.32298 0.3834,0.73733 0.6859,0.92059 0.5472,0.33223 0.5499,0.32814 0.6899,-1.13189 0.025,-0.25866 0.069,-0.53879 0.1195,-0.81782 l -1.6885,-0.34252 c -0.4147,0.53763 -1.783,1.37872 -2.5616,1.51835 z m -0.016,5.14786 c -0.01,0.0306 -0.01,0.0576 0,0.0795 0.076,0.20424 0.5023,0.0667 1.2102,-0.39041 0.7878,-0.50869 1.4479,-0.70062 2.3628,-0.68652 0.6984,0.0108 1.4565,-0.15055 1.6846,-0.35852 0.4929,-0.44939 0.5629,-0.68318 0.2836,-0.94542 -0.1137,-0.10675 -0.3646,-0.003 -0.5576,0.22967 -0.2323,0.28064 -0.7617,0.40344 -1.5666,0.36184 -0.935,-0.048 -1.4824,0.11446 -2.3741,0.70539 -0.5694,0.37728 -0.991,0.78858 -1.0437,1.00421 z m 5.3265,-6.36538 c -0.3033,1.71302 0.04,3.61413 0.7325,3.95349 0.256,0.12554 0.4893,0.44854 0.5182,0.71784 0.08,0.74508 1.1851,1.99769 2.0834,2.36249 0.4931,0.20012 0.8759,0.5725 0.994,0.96673 0.2341,0.78073 1.6221,1.49541 3.7393,1.92489 1.2361,0.25072 1.5433,0.40585 1.7156,0.86632 0.2609,0.69696 0.5594,0.78016 0.6793,0.18942 0.1197,-0.59043 -0.2815,-1.07761 -0.8834,-1.26751 -0.9811,-0.36433 -2.1354,-0.67097 -3.0284,-0.92749 -1.0158,-0.30966 -1.5745,-0.63902 -1.5695,-0.80714 0,-0.13082 0.3489,-0.16388 1.085,-0.0146 0.8712,0.17676 0.8289,0.2582 1.5221,0.73641 1.1542,0.50942 2.8419,0.49294 3.9864,0.39468 1.4451,-0.15553 1.9955,-0.12227 2.1632,0.13089 0.1241,0.18659 0.3231,0.35971 0.4427,0.38396 0.1191,0.0245 0.2197,-0.15942 0.223,-0.40819 0.01,-0.67109 -1.326,-0.9765 -3.1832,-0.72799 -0.8747,0.11706 -1.9522,0.12932 -2.3942,0.0274 -0.7541,-0.17388 -0.7632,-0.18906 -0.1457,-0.24741 3.3989,-0.32786 5.8611,-2.30784 6.4466,-5.18372 z m 1.7837,3.15644 c 0.1642,-1.07742 0.685,-1.75934 1.5009,-1.94814 0.8624,-0.19958 10.2144,1.68063 10.8094,2.17315 0.4825,0.39951 0.4556,0.70059 -0.1351,1.51861 -0.8187,1.13327 -2.1572,2.06835 -3.5956,2.51136 -1.2149,0.37411 -1.8445,0.39561 -3.6083,0.1249 -3.6365,-0.55827 -5.1313,-1.71813 -5.0196,-3.89459 0.01,-0.16994 0.025,-0.33138 0.048,-0.48531 z"
             style="fill:#000000;stroke-width:1" />
          <path
             sodipodi:nodetypes="ccccccccccccccccccccccccsscscccsccssccccccccccccccc"
             inkscape:connector-curvature="0"
             id="path4615-3-5-8-3-7-8-9-4"
             d="m -1278.3154,-821.89597 0.6409,0.11317 c 0.4002,0.0709 0.8534,0.44929 1.2054,1.00593 0.6723,1.06412 0.7472,1.09229 1.2055,0.4623 0.1951,-0.26822 0.6406,-0.52932 0.9903,-0.58057 0.6335,-0.0928 0.6344,-0.088 0.1944,1.31122 -0.078,0.24792 -0.1463,0.52317 -0.2087,0.79978 l -1.6885,-0.34252 c -0.1724,-0.65666 -1.1045,-1.96462 -1.7674,-2.39652 z m 1.9912,-4.74717 c 0.01,-0.0314 0.015,-0.0558 0.032,-0.0733 0.1492,-0.15885 0.4887,0.13431 0.9625,0.83113 0.5271,0.77559 1.0605,1.20952 1.9086,1.55298 0.6473,0.2622 1.2827,0.70619 1.4117,0.98663 0.279,0.60579 0.2523,0.8485 -0.1072,0.98112 -0.1464,0.054 -0.3371,-0.13876 -0.424,-0.42876 -0.1043,-0.34923 -0.5446,-0.66818 -1.3018,-0.94375 -0.8799,-0.3201 -1.3207,-0.68298 -1.9116,-1.57466 -0.3775,-0.56928 -0.6045,-1.11297 -0.5699,-1.33151 z m 2.4251,7.9378 c 0.3881,-1.69587 1.4456,-3.31275 2.2151,-3.35557 0.2847,-0.0159 0.6254,-0.22244 0.757,-0.45918 0.3642,-0.65494 1.8697,-1.3782 2.8393,-1.36393 0.532,0.008 1.0297,-0.186 1.2921,-0.50299 0.5199,-0.62787 2.0766,-0.74516 4.1938,-0.31568 1.2361,0.25073 1.5794,0.22764 1.9176,-0.12937 0.5119,-0.54024 0.8192,-0.50052 0.6994,0.0902 -0.1198,0.59047 -0.6792,0.88282 -1.3076,0.82316 -1.0454,-0.0467 -2.2279,-0.21414 -3.1503,-0.32584 -1.0562,-0.11063 -1.6991,-0.0251 -1.7599,0.13177 -0.047,0.12207 0.2571,0.28699 0.9935,0.43617 0.8712,0.17675 0.864,0.0852 1.6888,-0.0851 1.2613,-0.0194 2.8093,0.65343 3.825,1.18986 1.2703,0.70629 1.7902,0.89016 2.0433,0.7224 0.1868,-0.12375 0.4376,-0.20546 0.5572,-0.1812 0.1191,0.0245 0.14,0.23267 0.046,0.46285 -0.2535,0.62145 -1.6018,0.38264 -3.2153,-0.56998 -0.7599,-0.44863 -1.7475,-0.87973 -2.1943,-0.95813 -0.7622,-0.13373 -0.7764,-0.12324 -0.2287,0.1735 3.0025,1.62638 4.4986,4.4093 3.9173,7.28603 z m 2.8726,-2.2119 c -0.2686,1.05617 -0.055,1.88712 0.6232,2.37898 0.7165,0.51987 10.062,2.43238 10.8018,2.21057 0.6001,-0.17986 0.6929,-0.46734 0.4674,-1.45123 -0.3124,-1.36266 -1.1807,-2.74539 -2.3329,-3.71391 -0.973,-0.81798 -1.5446,-1.08313 -3.2744,-1.52103 -3.5666,-0.90287 -5.3952,-0.41718 -6.1405,1.63078 -0.058,0.15975 -0.1061,0.31489 -0.1446,0.46581 z"
             style="fill:#000000;stroke-width:1" />
        </g>
        <g
           id="g3802"
           transform="rotate(-65.173061,-1231.0692,-808.14882)">
          <path
             id="path2157-6-5-6"
             d="m -1208.5471,-827.11194 c -0.6182,0.33874 -1.0505,0.88584 -1.33,1.65382 -0.058,0.15976 -0.106,0.31504 -0.1444,0.46599 -0.2686,1.05615 -0.054,1.88701 0.6233,2.37887 0.7165,0.51985 10.062,2.43223 10.8019,2.21043 0.5999,-0.17986 0.6928,-0.46724 0.4673,-1.45114 -0.3124,-1.36267 -1.1807,-2.74537 -2.3328,-3.71389 -0.9731,-0.81797 -1.545,-1.08314 -3.2748,-1.52104 -2.2292,-0.56429 -3.7794,-0.58596 -4.8105,-0.023 z"
             style="fill:#d7eef4;fill-opacity:1;stroke:none;stroke-width:0.26458332px;stroke-linecap:butt;stroke-linejoin:miter;stroke-opacity:1"
             inkscape:connector-curvature="0" />
          <path
             id="path4670-43-4-4-1-7-5-12-9"
             d="m -1211.0577,-822.40763 -0.4766,2.50936 0.1711,2.01175 1.3427,1.61892 2.3557,0.90404 2.6197,0.53135 2.1555,-0.12511 2.6312,-1.29026 1.8174,-2.06852 0.4756,-1.43615 z"
             style="fill:#2c89a0;fill-opacity:1;stroke:none;stroke-width:0.26458332px;stroke-linecap:butt;stroke-linejoin:miter;stroke-opacity:1"
             inkscape:connector-curvature="0" />
          <path
             sodipodi:nodetypes="ccccccccccccccccccccccccsscscccsccssccccccccccccccc"
             inkscape:connector-curvature="0"
             id="path4615-51-4-5-1-6-9-4"
             d="m -1218.3991,-821.63649 0.6343,0.14556 c 0.3961,0.0906 0.961,-0.0812 1.5021,-0.45673 1.0341,-0.71765 1.1137,-0.71478 1.2903,0.044 0.075,0.32298 0.3834,0.73732 0.686,0.92059 0.5472,0.33223 0.5498,0.32814 0.6899,-1.13189 0.025,-0.25867 0.069,-0.53879 0.1195,-0.81783 l -1.6885,-0.34252 c -0.4147,0.53763 -1.7831,1.37873 -2.5616,1.51835 z m -0.016,5.14786 c -0.01,0.0306 -0.01,0.0576 0,0.0795 0.076,0.20424 0.5024,0.0667 1.2102,-0.39042 0.7879,-0.50868 1.448,-0.70061 2.3628,-0.68652 0.6984,0.0108 1.4566,-0.15055 1.6847,-0.35851 0.4929,-0.4494 0.5629,-0.68319 0.2835,-0.94542 -0.1137,-0.10675 -0.3645,-0.003 -0.5575,0.22966 -0.2324,0.28065 -0.7617,0.40345 -1.5667,0.36185 -0.935,-0.048 -1.4824,0.11445 -2.3741,0.70539 -0.5693,0.37728 -0.991,0.78858 -1.0436,1.00421 z m 5.3266,-6.36537 c -0.3033,1.71301 0.041,3.61412 0.7324,3.95348 0.2561,0.12554 0.4893,0.44855 0.5183,0.71785 0.08,0.74507 1.1851,1.99769 2.0834,2.36249 0.4931,0.20011 0.8758,0.57249 0.994,0.96672 0.2341,0.78073 1.6221,1.49541 3.7392,1.92489 1.2362,0.25073 1.5433,0.40585 1.7157,0.86632 0.2609,0.69696 0.5594,0.78017 0.6793,0.18942 0.1197,-0.59042 -0.2816,-1.07761 -0.8835,-1.2675 -0.981,-0.36433 -2.1353,-0.67098 -3.0283,-0.92749 -1.0159,-0.30966 -1.5746,-0.63902 -1.5695,-0.80715 0,-0.13081 0.3489,-0.16388 1.085,-0.0146 0.8712,0.17676 0.8289,0.2582 1.5221,0.73641 1.1541,0.50943 2.8419,0.49295 3.9864,0.39468 1.445,-0.15553 1.9954,-0.12226 2.1632,0.13089 0.1241,0.1866 0.323,0.35972 0.4426,0.38396 0.1191,0.0245 0.2198,-0.15941 0.223,-0.40818 0.01,-0.6711 -1.326,-0.97651 -3.1831,-0.72799 -0.8747,0.11705 -1.9522,0.12931 -2.3942,0.0274 -0.7542,-0.17388 -0.7632,-0.18907 -0.1458,-0.24742 3.3989,-0.32785 5.8612,-2.30783 6.4467,-5.18372 z m 1.7837,3.15643 c 0.1642,-1.07742 0.685,-1.75934 1.5009,-1.94814 0.8624,-0.19957 10.2144,1.68064 10.8094,2.17316 0.4824,0.3995 0.4556,0.70058 -0.1351,1.51861 -0.8187,1.13327 -2.1572,2.06834 -3.5957,2.51136 -1.2148,0.3741 -1.8445,0.39561 -3.6082,0.1249 -3.6366,-0.55827 -5.1314,-1.71813 -5.0197,-3.8946 0.01,-0.16994 0.025,-0.33138 0.048,-0.48531 z"
             style="fill:#000000;stroke-width:1" />
          <path
             sodipodi:nodetypes="ccccccccccccccccccccccccsscscccsccssccccccccccccccc"
             inkscape:connector-curvature="0"
             id="path4615-3-5-8-3-7-8-0-3"
             d="m -1217.5115,-826.01191 0.6409,0.11316 c 0.4001,0.0709 0.8534,0.44929 1.2053,1.00594 0.6724,1.06411 0.7472,1.09228 1.2055,0.46229 0.1952,-0.26821 0.6407,-0.52932 0.9904,-0.58056 0.6334,-0.0928 0.6343,-0.088 0.1944,1.31122 -0.078,0.24792 -0.1464,0.52317 -0.2087,0.79978 l -1.6885,-0.34253 c -0.1724,-0.65666 -1.1046,-1.96462 -1.7675,-2.39651 z m 1.9911,-4.74718 c 0.01,-0.0314 0.015,-0.0558 0.032,-0.0733 0.1492,-0.15886 0.4886,0.13431 0.9624,0.83113 0.5271,0.77559 1.0606,1.20951 1.9086,1.55297 0.6474,0.26221 1.2828,0.70619 1.4118,0.98663 0.2789,0.60579 0.2522,0.84851 -0.1073,0.98112 -0.1463,0.054 -0.3371,-0.13876 -0.4239,-0.42876 -0.1043,-0.34923 -0.5446,-0.66817 -1.3019,-0.94374 -0.8798,-0.3201 -1.3206,-0.68298 -1.9116,-1.57466 -0.3774,-0.56928 -0.6044,-1.11298 -0.5698,-1.33152 z m 2.4252,7.93781 c 0.388,-1.69587 1.4456,-3.31275 2.215,-3.35558 0.2848,-0.0159 0.6255,-0.22244 0.7571,-0.45917 0.3641,-0.65495 1.8697,-1.37821 2.8392,-1.36394 0.5321,0.008 1.0297,-0.18599 1.2921,-0.50298 0.5199,-0.62788 2.0767,-0.74516 4.1938,-0.31569 1.2362,0.25073 1.5795,0.22765 1.9177,-0.12936 0.5118,-0.54025 0.8191,-0.50053 0.6993,0.0902 -0.1198,0.59046 -0.6792,0.88281 -1.3075,0.82315 -1.0455,-0.0467 -2.2279,-0.21413 -3.1504,-0.32583 -1.0561,-0.11063 -1.699,-0.0251 -1.7599,0.13176 -0.048,0.12207 0.2572,0.28699 0.9936,0.43617 0.8711,0.17676 0.864,0.0852 1.6887,-0.0851 1.2614,-0.0194 2.8094,0.65342 3.825,1.18985 1.2703,0.70629 1.7902,0.89016 2.0434,0.72241 0.1867,-0.12375 0.4375,-0.20546 0.5571,-0.1812 0.1192,0.0245 0.14,0.23266 0.046,0.46284 -0.2536,0.62146 -1.6018,0.38264 -3.2153,-0.56997 -0.76,-0.44864 -1.7475,-0.87973 -2.1943,-0.95813 -0.7623,-0.13373 -0.7765,-0.12325 -0.2287,0.1735 3.0025,1.62638 4.4986,4.4093 3.9173,7.28603 z m 2.8726,-2.21191 c -0.2686,1.05617 -0.055,1.88712 0.6231,2.37898 0.7165,0.51987 10.0621,2.43238 10.8019,2.21057 0.6,-0.17986 0.6929,-0.46734 0.4673,-1.45122 -0.3124,-1.36267 -1.1807,-2.74539 -2.3328,-3.71392 -0.9731,-0.81798 -1.5446,-1.08313 -3.2744,-1.52102 -3.5667,-0.90288 -5.3953,-0.41719 -6.1405,1.63077 -0.058,0.15976 -0.1062,0.31489 -0.1446,0.46582 z"
             style="fill:#000000;stroke-width:1" />
        </g>
      </g>
      <path
         style="fill:#000000;stroke-width:0.03331244"
         d="m 95.866342,58.117692 c -0.01091,-0.04342 0.06311,-0.511811 0.163527,-1.040793 0.100418,-0.528976 0.175636,-0.969027 0.167073,-0.977896 -0.0082,-0.0088 -0.755019,0.06375 -1.658891,0.161356 -2.434419,0.262877 -2.366182,0.257078 -2.425419,0.205931 -0.04527,-0.03878 -0.05127,-0.225196 -0.05127,-1.547198 0,-1.258293 0.0076,-1.509655 0.04636,-1.543227 0.04473,-0.03867 0.666055,0.02111 3.4974,0.336676 0.322855,0.036 0.591819,0.06036 0.597819,0.05422 0.006,-0.0062 -0.07364,-0.457593 -0.176728,-1.003118 -0.194836,-1.030418 -0.198054,-1.093909 -0.05722,-1.113971 0.03764,-0.0049 0.356727,0.217816 0.813437,0.569073 0.413345,0.317852 0.986727,0.756905 1.274236,0.975665 1.926927,1.466106 2.155204,1.648217 2.166164,1.727875 0.012,0.08705 0.46293,-0.267971 -3.628364,2.856442 -0.571636,0.436538 -0.691364,0.492262 -0.728346,0.339005 z"
         id="path3217"
         inkscape:connector-curvature="0" />
      <text
         y="78.029228"
         x="45.312336"
         id="text2746-9"
         font-size="27"
         font-weight="400"
         style="font-weight:400;font-size:3.89659142px;font-family:Arial, Arial_MSFontService, sans-serif;fill:#ffffff;stroke-width:0.14431818">
        <tspan
           id="tspan4108"
           style="font-weight:bold;fill:#000000;stroke-width:0.14431818">Populao</tspan>
      </text>
      <g
         transform="matrix(0.54545457,0,0,0.54545457,737.18021,516.96388)"
         id="g4717">
        <g
           id="g4420"
           transform="translate(0,-1.0583333)">
          <rect
             id="rect2692-6-9"
             height="15"
             width="15"
             y="-891.16254"
             x="-1158.5283"
             style="fill:#2c89a0;stroke-width:0.26315787" />
          <text
             y="-881.18958"
             x="-1153.3951"
             id="text2694-3-0"
             font-size="27"
             font-weight="400"
             style="font-weight:400;font-size:7.14375067px;font-family:Arial, Arial_MSFontService, sans-serif;fill:#ffffff;stroke-width:0.26458332">A</text>
          <rect
             id="rect2684-1-9"
             height="15.08125"
             width="15.08125"
             y="-891.24377"
             x="-1138.2367"
             style="fill:#d7eef4;stroke-width:0.26458332" />
          <text
             y="-881.18958"
             x="-1132.7487"
             id="text2686-3-7"
             font-size="27"
             font-weight="400"
             style="font-weight:400;font-size:7.14375067px;font-family:Arial, Arial_MSFontService, sans-serif;stroke-width:0.26458332">a</text>
          <rect
             id="rect2692-6-7-0"
             height="15"
             width="15"
             y="-891.16254"
             x="-1117.8638"
             style="fill:#2c89a0;stroke-width:0.26315787" />
          <text
             y="-881.18958"
             x="-1112.7306"
             id="text2694-3-1-6"
             font-size="27"
             font-weight="400"
             style="font-weight:400;font-size:7.14375067px;font-family:Arial, Arial_MSFontService, sans-serif;fill:#ffffff;stroke-width:0.26458332">A</text>
          <rect
             id="rect2684-1-0-1"
             height="15.08125"
             width="15.08125"
             y="-891.24377"
             x="-1097.5721"
             style="fill:#d7eef4;stroke-width:0.26458332" />
          <text
             y="-881.18958"
             x="-1092.0841"
             id="text2686-3-0-2"
             font-size="27"
             font-weight="400"
             style="font-weight:400;font-size:7.14375067px;font-family:Arial, Arial_MSFontService, sans-serif;stroke-width:0.26458332">a</text>
          <rect
             id="rect2692-6-1-2"
             height="15"
             width="15"
             y="-891.16254"
             x="-1077.1992"
             style="fill:#2c89a0;stroke-width:0.26315787" />
          <text
             y="-881.18958"
             x="-1072.066"
             id="text2694-3-3-6"
             font-size="27"
             font-weight="400"
             style="font-weight:400;font-size:7.14375067px;font-family:Arial, Arial_MSFontService, sans-serif;fill:#ffffff;stroke-width:0.26458332">A</text>
          <rect
             id="rect2684-1-4-9"
             height="15.08125"
             width="15.08125"
             y="-891.24377"
             x="-1056.9076"
             style="fill:#d7eef4;stroke-width:0.26458332" />
          <text
             y="-881.18958"
             x="-1051.4196"
             id="text2686-3-8-3"
             font-size="27"
             font-weight="400"
             style="font-weight:400;font-size:7.14375067px;font-family:Arial, Arial_MSFontService, sans-serif;stroke-width:0.26458332">a</text>
          <rect
             id="rect2692-3"
             height="15"
             width="15"
             y="-870.78961"
             x="-1056.9075"
             style="fill:#2c89a0;stroke-width:0.26315787" />
          <text
             y="-860.81665"
             x="-1051.7743"
             id="text2694-1"
             font-size="27"
             font-weight="400"
             style="font-weight:400;font-size:7.14375019px;font-family:Arial, Arial_MSFontService, sans-serif;fill:#ffffff;stroke-width:0.26458332">A</text>
          <rect
             id="rect2684-1-2"
             height="15.08125"
             width="15.08125"
             y="-870.87085"
             x="-1158.6096"
             style="fill:#d7eef4;stroke-width:0.26458332" />
          <text
             y="-860.81665"
             x="-1153.1216"
             id="text2686-3-83"
             font-size="27"
             font-weight="400"
             style="font-weight:400;font-size:7.14375067px;font-family:Arial, Arial_MSFontService, sans-serif;stroke-width:0.26458332">a</text>
          <rect
             id="rect2692-6-7-2"
             height="15"
             width="15"
             y="-870.78961"
             x="-1138.2367"
             style="fill:#2c89a0;stroke-width:0.26315787" />
          <text
             y="-860.81665"
             x="-1133.1035"
             id="text2694-3-1-60"
             font-size="27"
             font-weight="400"
             style="font-weight:400;font-size:7.14375067px;font-family:Arial, Arial_MSFontService, sans-serif;fill:#ffffff;stroke-width:0.26458332">A</text>
          <rect
             id="rect2684-1-0-9"
             height="15.08125"
             width="15.08125"
             y="-870.87085"
             x="-1117.9451"
             style="fill:#d7eef4;stroke-width:0.26458332" />
          <text
             y="-860.81665"
             x="-1112.457"
             id="text2686-3-0-3"
             font-size="27"
             font-weight="400"
             style="font-weight:400;font-size:7.14375067px;font-family:Arial, Arial_MSFontService, sans-serif;stroke-width:0.26458332">a</text>
          <rect
             id="rect2692-6-1-7"
             height="15"
             width="15"
             y="-870.78961"
             x="-1097.5721"
             style="fill:#2c89a0;stroke-width:0.26315787" />
          <text
             y="-860.81665"
             x="-1092.439"
             id="text2694-3-3-7"
             font-size="27"
             font-weight="400"
             style="font-weight:400;font-size:7.14375067px;font-family:Arial, Arial_MSFontService, sans-serif;fill:#ffffff;stroke-width:0.26458332">A</text>
          <rect
             id="rect2684-1-4-3"
             height="15.08125"
             width="15.08125"
             y="-870.87085"
             x="-1077.2804"
             style="fill:#d7eef4;stroke-width:0.26458332" />
          <text
             y="-860.81665"
             x="-1071.7924"
             id="text2686-3-8-1"
             font-size="27"
             font-weight="400"
             style="font-weight:400;font-size:7.14375067px;font-family:Arial, Arial_MSFontService, sans-serif;stroke-width:0.26458332">a</text>
          <rect
             id="rect2692-6-9-5"
             height="15"
             width="15"
             y="-850.41669"
             x="-1158.5283"
             style="fill:#2c89a0;stroke-width:0.26315787" />
          <text
             y="-840.44373"
             x="-1153.3951"
             id="text2694-3-0-8"
             font-size="27"
             font-weight="400"
             style="font-weight:400;font-size:7.14375067px;font-family:Arial, Arial_MSFontService, sans-serif;fill:#ffffff;stroke-width:0.26458332">A</text>
          <rect
             id="rect2684-1-9-6"
             height="15.08125"
             width="15.08125"
             y="-850.49792"
             x="-1138.2367"
             style="fill:#d7eef4;stroke-width:0.26458332" />
          <text
             y="-840.44373"
             x="-1132.7487"
             id="text2686-3-7-7"
             font-size="27"
             font-weight="400"
             style="font-weight:400;font-size:7.14375067px;font-family:Arial, Arial_MSFontService, sans-serif;stroke-width:0.26458332">a</text>
          <rect
             id="rect2692-6-7-0-7"
             height="15"
             width="15"
             y="-850.41669"
             x="-1117.8638"
             style="fill:#2c89a0;stroke-width:0.26315787" />
          <text
             y="-840.44373"
             x="-1112.7306"
             id="text2694-3-1-6-9"
             font-size="27"
             font-weight="400"
             style="font-weight:400;font-size:7.14375067px;font-family:Arial, Arial_MSFontService, sans-serif;fill:#ffffff;stroke-width:0.26458332">A</text>
          <rect
             id="rect2684-1-0-1-3"
             height="15.08125"
             width="15.08125"
             y="-850.49792"
             x="-1097.5721"
             style="fill:#d7eef4;stroke-width:0.26458332" />
          <text
             y="-840.44373"
             x="-1092.0841"
             id="text2686-3-0-2-9"
             font-size="27"
             font-weight="400"
             style="font-weight:400;font-size:7.14375067px;font-family:Arial, Arial_MSFontService, sans-serif;stroke-width:0.26458332">a</text>
          <rect
             id="rect2692-6-1-2-3"
             height="15"
             width="15"
             y="-850.41669"
             x="-1077.1992"
             style="fill:#2c89a0;stroke-width:0.26315787" />
          <text
             y="-840.44373"
             x="-1072.066"
             id="text2694-3-3-6-7"
             font-size="27"
             font-weight="400"
             style="font-weight:400;font-size:7.14375067px;font-family:Arial, Arial_MSFontService, sans-serif;fill:#ffffff;stroke-width:0.26458332">A</text>
          <rect
             id="rect2684-1-4-9-6"
             height="15.08125"
             width="15.08125"
             y="-850.49792"
             x="-1056.9076"
             style="fill:#d7eef4;stroke-width:0.26458332" />
          <text
             y="-840.44373"
             x="-1051.4196"
             id="text2686-3-8-3-9"
             font-size="27"
             font-weight="400"
             style="font-weight:400;font-size:7.14375067px;font-family:Arial, Arial_MSFontService, sans-serif;stroke-width:0.26458332">a</text>
          <rect
             id="rect2692-3-7"
             height="15"
             width="15"
             y="-830.04376"
             x="-1056.9075"
             style="fill:#2c89a0;stroke-width:0.26315787" />
          <text
             y="-820.0708"
             x="-1051.7743"
             id="text2694-1-4"
             font-size="27"
             font-weight="400"
             style="font-weight:400;font-size:7.14375067px;font-family:Arial, Arial_MSFontService, sans-serif;fill:#ffffff;stroke-width:0.26458332">A</text>
          <rect
             id="rect2684-1-2-4"
             height="15.08125"
             width="15.08125"
             y="-830.125"
             x="-1158.6096"
             style="fill:#d7eef4;stroke-width:0.26458332" />
          <text
             y="-820.0708"
             x="-1153.1216"
             id="text2686-3-83-0"
             font-size="27"
             font-weight="400"
             style="font-weight:400;font-size:7.14375067px;font-family:Arial, Arial_MSFontService, sans-serif;stroke-width:0.26458332">a</text>
          <rect
             id="rect2692-6-7-2-2"
             height="15"
             width="15"
             y="-830.04376"
             x="-1138.2367"
             style="fill:#2c89a0;stroke-width:0.26315787" />
          <text
             y="-820.0708"
             x="-1133.1035"
             id="text2694-3-1-60-5"
             font-size="27"
             font-weight="400"
             style="font-weight:400;font-size:7.14375067px;font-family:Arial, Arial_MSFontService, sans-serif;fill:#ffffff;stroke-width:0.26458332">A</text>
          <rect
             id="rect2684-1-0-9-5"
             height="15.08125"
             width="15.08125"
             y="-830.125"
             x="-1117.9451"
             style="fill:#d7eef4;stroke-width:0.26458332" />
          <text
             y="-820.0708"
             x="-1112.457"
             id="text2686-3-0-3-9"
             font-size="27"
             font-weight="400"
             style="font-weight:400;font-size:7.14375067px;font-family:Arial, Arial_MSFontService, sans-serif;stroke-width:0.26458332">a</text>
          <rect
             id="rect2692-6-1-7-4"
             height="15"
             width="15"
             y="-830.04376"
             x="-1097.5721"
             style="fill:#2c89a0;stroke-width:0.26315787" />
          <text
             y="-820.0708"
             x="-1092.439"
             id="text2694-3-3-7-3"
             font-size="27"
             font-weight="400"
             style="font-weight:400;font-size:7.14375067px;font-family:Arial, Arial_MSFontService, sans-serif;fill:#ffffff;stroke-width:0.26458332">A</text>
          <rect
             id="rect2684-1-4-3-0"
             height="15.08125"
             width="15.08125"
             y="-830.125"
             x="-1077.2804"
             style="fill:#d7eef4;stroke-width:0.26458332" />
          <text
             y="-820.0708"
             x="-1071.7924"
             id="text2686-3-8-1-6"
             font-size="27"
             font-weight="400"
             style="font-weight:400;font-size:7.14375067px;font-family:Arial, Arial_MSFontService, sans-serif;stroke-width:0.26458332">a</text>
        </g>
      </g>
      <text
         y="78.076797"
         x="126.00603"
         id="text2746-9-4"
         font-size="27"
         font-weight="400"
         style="font-weight:400;font-size:3.89659142px;font-family:Arial, Arial_MSFontService, sans-serif;fill:#ffffff;stroke-width:0.14431818">
        <tspan
           id="tspan4108-9"
           style="font-weight:bold;fill:#000000;stroke-width:0.14431818"><tspan
   id="tspan4128"
   style="font-style:italic;stroke-width:0.14431818">Pool</tspan>
 gnico</tspan>
      </text>
    </g>
  </g>
</svg>
