<?xml version="1.0" encoding="UTF-8" standalone="no"?>
<!-- Created with Inkscape (http://www.inkscape.org/) -->

<svg
   xmlns:dc="http://purl.org/dc/elements/1.1/"
   xmlns:cc="http://creativecommons.org/ns#"
   xmlns:rdf="http://www.w3.org/1999/02/22-rdf-syntax-ns#"
   xmlns:svg="http://www.w3.org/2000/svg"
   xmlns="http://www.w3.org/2000/svg"
   xmlns:sodipodi="http://sodipodi.sourceforge.net/DTD/sodipodi-0.dtd"
   xmlns:inkscape="http://www.inkscape.org/namespaces/inkscape"
   width="75mm"
   height="75mm"
   viewBox="0 0 75 75"
   version="1.1"
   id="svg2293"
   inkscape:version="0.92.4 (5da689c313, 2019-01-14)"
   sodipodi:docname="punnett_3alelles.svg">
  <defs
     id="defs2287">
    <marker
       inkscape:isstock="true"
       style="overflow:visible"
       id="marker15092-7"
       refX="0"
       refY="0"
       orient="auto"
       inkscape:stockid="Arrow2Mstart">
      <path
         inkscape:connector-curvature="0"
         transform="scale(0.6)"
         d="M 8.7185878,4.0337352 -2.2072895,0.01601326 8.7185884,-4.0017078 c -1.7454984,2.3720609 -1.7354408,5.6174519 -6e-7,8.035443 z"
         style="fill:#000000;fill-opacity:1;fill-rule:evenodd;stroke:#000000;stroke-width:0.625;stroke-linejoin:round;stroke-opacity:1"
         id="path15094-3" />
    </marker>
    <marker
       inkscape:stockid="Arrow2Mend"
       orient="auto"
       refY="0"
       refX="0"
       id="marker16136-6"
       style="overflow:visible"
       inkscape:isstock="true">
      <path
         id="path16138-9"
         style="fill:#000000;fill-opacity:1;fill-rule:evenodd;stroke:#000000;stroke-width:0.625;stroke-linejoin:round;stroke-opacity:1"
         d="M 8.7185878,4.0337352 -2.2072895,0.01601326 8.7185884,-4.0017078 c -1.7454984,2.3720609 -1.7354408,5.6174519 -6e-7,8.035443 z"
         transform="scale(-0.6)"
         inkscape:connector-curvature="0" />
    </marker>
    <marker
       inkscape:isstock="true"
       style="overflow:visible"
       id="marker14596-7"
       refX="0"
       refY="0"
       orient="auto"
       inkscape:stockid="Arrow2Mstart">
      <path
         inkscape:connector-curvature="0"
         transform="scale(0.6)"
         d="M 8.7185878,4.0337352 -2.2072895,0.01601326 8.7185884,-4.0017078 c -1.7454984,2.3720609 -1.7354408,5.6174519 -6e-7,8.035443 z"
         style="fill:#000000;fill-opacity:1;fill-rule:evenodd;stroke:#000000;stroke-width:0.625;stroke-linejoin:round;stroke-opacity:1"
         id="path14598-4" />
    </marker>
    <marker
       inkscape:stockid="Arrow2Mend"
       orient="auto"
       refY="0"
       refX="0"
       id="marker15628-5"
       style="overflow:visible"
       inkscape:isstock="true">
      <path
         id="path15630-1"
         style="fill:#000000;fill-opacity:1;fill-rule:evenodd;stroke:#000000;stroke-width:0.625;stroke-linejoin:round;stroke-opacity:1"
         d="M 8.7185878,4.0337352 -2.2072895,0.01601326 8.7185884,-4.0017078 c -1.7454984,2.3720609 -1.7354408,5.6174519 -6e-7,8.035443 z"
         transform="scale(-0.6)"
         inkscape:connector-curvature="0" />
    </marker>
    <marker
       inkscape:isstock="true"
       style="overflow:visible"
       id="marker15102-60"
       refX="0"
       refY="0"
       orient="auto"
       inkscape:stockid="Arrow2Mstart">
      <path
         inkscape:connector-curvature="0"
         transform="scale(0.6)"
         d="M 8.7185878,4.0337352 -2.2072895,0.01601326 8.7185884,-4.0017078 c -1.7454984,2.3720609 -1.7354408,5.6174519 -6e-7,8.035443 z"
         style="fill:#000000;fill-opacity:1;fill-rule:evenodd;stroke:#000000;stroke-width:0.625;stroke-linejoin:round;stroke-opacity:1"
         id="path15104-3" />
    </marker>
    <marker
       inkscape:stockid="Arrow2Mend"
       orient="auto"
       refY="0"
       refX="0"
       id="marker16656-4"
       style="overflow:visible"
       inkscape:isstock="true">
      <path
         id="path16658-7"
         style="fill:#000000;fill-opacity:1;fill-rule:evenodd;stroke:#000000;stroke-width:0.625;stroke-linejoin:round;stroke-opacity:1"
         d="M 8.7185878,4.0337352 -2.2072895,0.01601326 8.7185884,-4.0017078 c -1.7454984,2.3720609 -1.7354408,5.6174519 -6e-7,8.035443 z"
         transform="scale(-0.6)"
         inkscape:connector-curvature="0" />
    </marker>
    <marker
       inkscape:isstock="true"
       style="overflow:visible"
       id="marker17783-2"
       refX="0"
       refY="0"
       orient="auto"
       inkscape:stockid="Arrow2Mstart">
      <path
         inkscape:connector-curvature="0"
         transform="scale(0.6)"
         d="M 8.7185878,4.0337352 -2.2072895,0.01601326 8.7185884,-4.0017078 c -1.7454984,2.3720609 -1.7354408,5.6174519 -6e-7,8.035443 z"
         style="fill:#000000;fill-opacity:1;fill-rule:evenodd;stroke:#000000;stroke-width:0.625;stroke-linejoin:round;stroke-opacity:1"
         id="path17785-1" />
    </marker>
    <marker
       inkscape:stockid="Arrow2Mend"
       orient="auto"
       refY="0"
       refX="0"
       id="marker18887-5"
       style="overflow:visible"
       inkscape:isstock="true">
      <path
         id="path18889-4"
         style="fill:#000000;fill-opacity:1;fill-rule:evenodd;stroke:#000000;stroke-width:0.625;stroke-linejoin:round;stroke-opacity:1"
         d="M 8.7185878,4.0337352 -2.2072895,0.01601326 8.7185884,-4.0017078 c -1.7454984,2.3720609 -1.7354408,5.6174519 -6e-7,8.035443 z"
         transform="scale(-0.6)"
         inkscape:connector-curvature="0" />
    </marker>
    <marker
       inkscape:isstock="true"
       style="overflow:visible"
       id="marker17257-7"
       refX="0"
       refY="0"
       orient="auto"
       inkscape:stockid="Arrow2Mstart">
      <path
         inkscape:connector-curvature="0"
         transform="scale(0.6)"
         d="M 8.7185878,4.0337352 -2.2072895,0.01601326 8.7185884,-4.0017078 c -1.7454984,2.3720609 -1.7354408,5.6174519 -6e-7,8.035443 z"
         style="fill:#000000;fill-opacity:1;fill-rule:evenodd;stroke:#000000;stroke-width:0.625;stroke-linejoin:round;stroke-opacity:1"
         id="path17259-8" />
    </marker>
    <marker
       inkscape:stockid="Arrow2Mend"
       orient="auto"
       refY="0"
       refX="0"
       id="marker18349-5"
       style="overflow:visible"
       inkscape:isstock="true">
      <path
         id="path18351-3"
         style="fill:#000000;fill-opacity:1;fill-rule:evenodd;stroke:#000000;stroke-width:0.625;stroke-linejoin:round;stroke-opacity:1"
         d="M 8.7185878,4.0337352 -2.2072895,0.01601326 8.7185884,-4.0017078 c -1.7454984,2.3720609 -1.7354408,5.6174519 -6e-7,8.035443 z"
         transform="scale(-0.6)"
         inkscape:connector-curvature="0" />
    </marker>
    <marker
       inkscape:isstock="true"
       style="overflow:visible"
       id="marker17793-8"
       refX="0"
       refY="0"
       orient="auto"
       inkscape:stockid="Arrow2Mstart">
      <path
         inkscape:connector-curvature="0"
         transform="scale(0.6)"
         d="M 8.7185878,4.0337352 -2.2072895,0.01601326 8.7185884,-4.0017078 c -1.7454984,2.3720609 -1.7354408,5.6174519 -6e-7,8.035443 z"
         style="fill:#000000;fill-opacity:1;fill-rule:evenodd;stroke:#000000;stroke-width:0.625;stroke-linejoin:round;stroke-opacity:1"
         id="path17795-4" />
    </marker>
    <marker
       inkscape:stockid="Arrow2Mend"
       orient="auto"
       refY="0"
       refX="0"
       id="marker19437-8"
       style="overflow:visible"
       inkscape:isstock="true">
      <path
         id="path19439-5"
         style="fill:#000000;fill-opacity:1;fill-rule:evenodd;stroke:#000000;stroke-width:0.625;stroke-linejoin:round;stroke-opacity:1"
         d="M 8.7185878,4.0337352 -2.2072895,0.01601326 8.7185884,-4.0017078 c -1.7454984,2.3720609 -1.7354408,5.6174519 -6e-7,8.035443 z"
         transform="scale(-0.6)"
         inkscape:connector-curvature="0" />
    </marker>
  </defs>
  <sodipodi:namedview
     id="base"
     pagecolor="#ffffff"
     bordercolor="#666666"
     borderopacity="1.0"
     inkscape:pageopacity="0.0"
     inkscape:pageshadow="2"
     inkscape:zoom="1.4"
     inkscape:cx="104.54942"
     inkscape:cy="137.92893"
     inkscape:document-units="mm"
     inkscape:current-layer="layer1"
     showgrid="false"
     inkscape:window-width="1920"
     inkscape:window-height="1017"
     inkscape:window-x="-8"
     inkscape:window-y="-8"
     inkscape:window-maximized="1" />
  <metadata
     id="metadata2290">
    <rdf:RDF>
      <cc:Work
         rdf:about="">
        <dc:format>image/svg+xml</dc:format>
        <dc:type
           rdf:resource="http://purl.org/dc/dcmitype/StillImage" />
        <dc:title></dc:title>
      </cc:Work>
    </rdf:RDF>
  </metadata>
  <g
     inkscape:label="Layer 1"
     inkscape:groupmode="layer"
     id="layer1"
     transform="translate(0,-222)">
    <g
       transform="matrix(0.54480287,0,0,0.54480287,-8.504854,269.84477)"
       id="g14220">
      <rect
         y="-82.754364"
         x="127.37885"
         height="20.541941"
         width="20.643042"
         id="rect9229-5-1"
         style="opacity:1;fill:#d7eef4;fill-opacity:1;fill-rule:nonzero;stroke:none;stroke-width:0.26493609;stroke-linecap:round;stroke-linejoin:miter;stroke-miterlimit:8;stroke-dasharray:none;stroke-dashoffset:0;stroke-opacity:1;paint-order:stroke markers fill" />
      <rect
         y="-62.214668"
         x="96.513374"
         height="30.893959"
         width="31.056084"
         id="rect9229-6-3"
         style="opacity:1;fill:#d3bc5f;fill-opacity:1;fill-rule:nonzero;stroke:none;stroke-width:0.26493609;stroke-linecap:round;stroke-linejoin:miter;stroke-miterlimit:8;stroke-dasharray:none;stroke-dashoffset:0;stroke-opacity:1;paint-order:stroke markers fill" />
      <rect
         y="-31.13604"
         x="45.068855"
         height="51.31348"
         width="51.407352"
         id="rect9229-4"
         style="opacity:1;fill:#2c89a0;fill-opacity:1;fill-rule:nonzero;stroke:none;stroke-width:0.26493609;stroke-linecap:round;stroke-linejoin:miter;stroke-miterlimit:8;stroke-dasharray:none;stroke-dashoffset:0;stroke-opacity:1;paint-order:stroke markers fill" />
      <path
         sodipodi:nodetypes="cc"
         inkscape:connector-curvature="0"
         id="path4524-63-7-7-7-5"
         d="m 36.926519,-0.02329674 h 2.316089"
         style="fill:none;fill-rule:evenodd;stroke:#ffffff;stroke-width:0.81457013px;stroke-linecap:butt;stroke-linejoin:miter;stroke-opacity:1" />
      <path
         sodipodi:nodetypes="cc"
         inkscape:connector-curvature="0"
         id="path4524-5-5-3-5-9-2"
         d="m 36.926519,-10.368604 h 2.316089"
         style="fill:none;fill-rule:evenodd;stroke:#ffffff;stroke-width:0.81457007px;stroke-linecap:butt;stroke-linejoin:miter;stroke-opacity:1" />
      <path
         sodipodi:nodetypes="cc"
         inkscape:connector-curvature="0"
         id="path4524-4-92-1-0-8-0"
         d="m 36.926519,-20.71394 h 2.316089"
         style="fill:none;fill-rule:evenodd;stroke:#ffffff;stroke-width:0.81457007px;stroke-linecap:butt;stroke-linejoin:miter;stroke-opacity:1" />
      <path
         sodipodi:nodetypes="cc"
         inkscape:connector-curvature="0"
         id="path4524-1-5-2-2-3-4"
         d="m 36.926519,-41.404583 h 2.316089"
         style="fill:none;fill-rule:evenodd;stroke:#ffffff;stroke-width:0.81457007px;stroke-linecap:butt;stroke-linejoin:miter;stroke-opacity:1" />
      <path
         sodipodi:nodetypes="cc"
         inkscape:connector-curvature="0"
         id="path4524-6-79-6-1-9-4"
         d="m 36.926519,-62.0952 h 2.316089"
         style="fill:none;fill-rule:evenodd;stroke:#000000;stroke-width:0.81457007px;stroke-linecap:butt;stroke-linejoin:miter;stroke-opacity:1" />
      <path
         sodipodi:nodetypes="cc"
         inkscape:connector-curvature="0"
         id="path4524-14-8-4-2-7-6"
         d="m 36.926519,-31.059263 h 2.316089"
         style="fill:none;fill-rule:evenodd;stroke:#000000;stroke-width:0.81457007px;stroke-linecap:butt;stroke-linejoin:miter;stroke-opacity:1" />
      <path
         sodipodi:nodetypes="cc"
         inkscape:connector-curvature="0"
         id="path4524-3-7-0-3-4-0"
         d="m 36.926519,-51.749906 h 2.316089"
         style="fill:none;fill-rule:evenodd;stroke:#ffffff;stroke-width:0.81457007px;stroke-linecap:butt;stroke-linejoin:miter;stroke-opacity:1" />
      <path
         sodipodi:nodetypes="cc"
         inkscape:connector-curvature="0"
         id="path4524-2-1-9-7-3-04"
         d="m 36.926519,-72.440552 h 2.316089"
         style="fill:none;fill-rule:evenodd;stroke:#ffffff;stroke-width:0.81457007px;stroke-linecap:butt;stroke-linejoin:miter;stroke-opacity:1" />
      <path
         sodipodi:nodetypes="cc"
         inkscape:connector-curvature="0"
         id="path4524-20-9-2-2-1-2"
         d="m 36.926519,-82.785844 h 2.316089"
         style="fill:none;fill-rule:evenodd;stroke:#000000;stroke-width:0.81457007px;stroke-linecap:butt;stroke-linejoin:miter;stroke-opacity:1" />
      <path
         sodipodi:nodetypes="cc"
         inkscape:connector-curvature="0"
         id="path4524-21-0-2-2-1-8"
         d="m 36.926519,20.667336 h 2.316089"
         style="fill:none;fill-rule:evenodd;stroke:#000000;stroke-width:0.81457007px;stroke-linecap:butt;stroke-linejoin:miter;stroke-opacity:1" />
      <path
         sodipodi:nodetypes="cc"
         inkscape:connector-curvature="0"
         id="path4524-4-92-6-9-7-6-07"
         d="m 36.926519,10.322024 h 2.316089"
         style="fill:none;fill-rule:evenodd;stroke:#ffffff;stroke-width:0.81457001px;stroke-linecap:butt;stroke-linejoin:miter;stroke-opacity:1" />
      <path
         id="rect5499-1-3-3-6"
         d="m 127.37885,-82.754367 v 20.452449 H 96.48713 v -20.452449 z"
         style="opacity:1;fill:#e9ddaf;fill-opacity:1;fill-rule:evenodd;stroke:none;stroke-width:6.02937031;stroke-linecap:round;stroke-linejoin:round;stroke-miterlimit:4;stroke-dasharray:none;stroke-dashoffset:0;stroke-opacity:1"
         inkscape:connector-curvature="0" />
      <path
         id="rect5499-1-3-0"
         d="m 127.56946,-62.212427 h 20.45244 v 30.891716 h -20.45244 z"
         style="opacity:1;fill:#e9ddaf;fill-opacity:1;fill-rule:evenodd;stroke:none;stroke-width:6.02937031;stroke-linecap:round;stroke-linejoin:round;stroke-miterlimit:4;stroke-dasharray:none;stroke-dashoffset:0;stroke-opacity:1"
         inkscape:connector-curvature="0" />
      <path
         id="rect5499-1-0-2"
         d="m 127.43014,20.648189 v -51.81704 h 20.65831 v 51.81704 z"
         style="opacity:1;fill:#87cdde;fill-opacity:1;fill-rule:evenodd;stroke:none;stroke-width:6.02937031;stroke-linecap:round;stroke-linejoin:round;stroke-miterlimit:4;stroke-dasharray:none;stroke-dashoffset:0;stroke-opacity:1"
         inkscape:connector-curvature="0" />
      <path
         id="rect5499-1-9"
         d="m 44.60392,-83.066447 h 51.81704 v 20.658301 H 44.60392 Z"
         style="opacity:1;fill:#87cdde;fill-opacity:1;fill-rule:evenodd;stroke:none;stroke-width:6.02937031;stroke-linecap:round;stroke-linejoin:round;stroke-miterlimit:4;stroke-dasharray:none;stroke-dashoffset:0;stroke-opacity:1"
         inkscape:connector-curvature="0" />
      <path
         id="rect5499-9-6"
         d="m 96.71277,-31.298031 h 30.76502 v 51.68094 H 96.71277 Z"
         style="opacity:1;fill:#2ca05a;fill-opacity:1;fill-rule:evenodd;stroke:none;stroke-width:6.02937031;stroke-linecap:round;stroke-linejoin:round;stroke-miterlimit:4;stroke-dasharray:none;stroke-dashoffset:0;stroke-opacity:1"
         inkscape:connector-curvature="0" />
      <path
         id="rect5499-11"
         d="m 44.37261,-62.214668 h 52.14076 v 30.909187 H 44.37261 Z"
         style="opacity:1;fill:#2ca05a;fill-opacity:1;fill-rule:evenodd;stroke:none;stroke-width:6.02937031;stroke-linecap:round;stroke-linejoin:round;stroke-miterlimit:4;stroke-dasharray:none;stroke-dashoffset:0;stroke-opacity:1"
         inkscape:connector-curvature="0" />
      <path
         sodipodi:nodetypes="cc"
         inkscape:connector-curvature="0"
         id="path4524-63-81"
         d="m 45.06886,-62.172004 h 2.31608"
         style="fill:none;fill-rule:evenodd;stroke:#000000;stroke-width:0.81457013px;stroke-linecap:butt;stroke-linejoin:miter;stroke-opacity:1" />
      <path
         sodipodi:nodetypes="cc"
         inkscape:connector-curvature="0"
         id="path4524-5-5-7"
         d="m 45.06886,-51.826696 h 2.31608"
         style="fill:none;fill-rule:evenodd;stroke:#000000;stroke-width:0.81457007px;stroke-linecap:butt;stroke-linejoin:miter;stroke-opacity:1" />
      <path
         sodipodi:nodetypes="cc"
         inkscape:connector-curvature="0"
         id="path4524-4-92-7"
         d="m 45.06886,-41.481361 h 2.31608"
         style="fill:none;fill-rule:evenodd;stroke:#000000;stroke-width:0.81457007px;stroke-linecap:butt;stroke-linejoin:miter;stroke-opacity:1" />
      <path
         sodipodi:nodetypes="cc"
         inkscape:connector-curvature="0"
         id="path4524-1-5-7"
         d="m 45.06886,-20.790721 h 2.31608"
         style="fill:none;fill-rule:evenodd;stroke:#000000;stroke-width:0.81457007px;stroke-linecap:butt;stroke-linejoin:miter;stroke-opacity:1" />
      <path
         sodipodi:nodetypes="cc"
         inkscape:connector-curvature="0"
         id="path4524-6-79-9"
         d="m 45.06886,-0.100101 h 2.31608"
         style="fill:none;fill-rule:evenodd;stroke:#000000;stroke-width:0.81457007px;stroke-linecap:butt;stroke-linejoin:miter;stroke-opacity:1" />
      <path
         sodipodi:nodetypes="cc"
         inkscape:connector-curvature="0"
         id="path4524-14-8-2"
         d="m 45.06886,-31.136041 h 2.31608"
         style="fill:none;fill-rule:evenodd;stroke:#000000;stroke-width:0.81457007px;stroke-linecap:butt;stroke-linejoin:miter;stroke-opacity:1" />
      <path
         sodipodi:nodetypes="cc"
         inkscape:connector-curvature="0"
         id="path4524-3-7-3"
         d="m 45.06886,-10.445391 h 2.31608"
         style="fill:none;fill-rule:evenodd;stroke:#000000;stroke-width:0.81457007px;stroke-linecap:butt;stroke-linejoin:miter;stroke-opacity:1" />
      <path
         sodipodi:nodetypes="cc"
         inkscape:connector-curvature="0"
         id="path4524-2-1-6"
         d="m 45.06886,10.245259 h 2.31608"
         style="fill:none;fill-rule:evenodd;stroke:#000000;stroke-width:0.81457007px;stroke-linecap:butt;stroke-linejoin:miter;stroke-opacity:1" />
      <path
         sodipodi:nodetypes="cc"
         inkscape:connector-curvature="0"
         id="path4524-20-9-8"
         d="m 45.06886,20.590549 h 2.31608"
         style="fill:none;fill-rule:evenodd;stroke:#000000;stroke-width:0.81457007px;stroke-linecap:butt;stroke-linejoin:miter;stroke-opacity:1" />
      <path
         sodipodi:nodetypes="cc"
         inkscape:connector-curvature="0"
         id="path4524-21-0-9"
         d="m 45.06886,-82.862637 h 2.31608"
         style="fill:none;fill-rule:evenodd;stroke:#000000;stroke-width:0.81457007px;stroke-linecap:butt;stroke-linejoin:miter;stroke-opacity:1" />
      <path
         sodipodi:nodetypes="cc"
         inkscape:connector-curvature="0"
         id="path4524-4-92-6-93"
         d="m 45.06886,-72.517327 h 2.31608"
         style="fill:none;fill-rule:evenodd;stroke:#000000;stroke-width:0.81457001px;stroke-linecap:butt;stroke-linejoin:miter;stroke-opacity:1" />
      <path
         sodipodi:nodetypes="cc"
         inkscape:connector-curvature="0"
         id="path4524-63-7-4"
         d="m 65.44026,20.177439 v -2.31609"
         style="fill:none;fill-rule:evenodd;stroke:#000000;stroke-width:0.81457013px;stroke-linecap:butt;stroke-linejoin:miter;stroke-opacity:1" />
      <path
         sodipodi:nodetypes="cc"
         inkscape:connector-curvature="0"
         id="path4524-5-5-3-04"
         d="m 75.78556,20.177439 v -2.31609"
         style="fill:none;fill-rule:evenodd;stroke:#000000;stroke-width:0.81457007px;stroke-linecap:butt;stroke-linejoin:miter;stroke-opacity:1" />
      <path
         sodipodi:nodetypes="cc"
         inkscape:connector-curvature="0"
         id="path4524-4-92-1-2"
         d="m 86.1309,20.177439 v -2.31609"
         style="fill:none;fill-rule:evenodd;stroke:#000000;stroke-width:0.81457007px;stroke-linecap:butt;stroke-linejoin:miter;stroke-opacity:1" />
      <path
         sodipodi:nodetypes="cc"
         inkscape:connector-curvature="0"
         id="path4524-1-5-2-5"
         d="m 106.82155,20.177439 v -2.31609"
         style="fill:none;fill-rule:evenodd;stroke:#000000;stroke-width:0.81457007px;stroke-linecap:butt;stroke-linejoin:miter;stroke-opacity:1" />
      <path
         sodipodi:nodetypes="cc"
         inkscape:connector-curvature="0"
         id="path4524-6-79-6-47"
         d="m 127.51216,20.177439 v -2.31609"
         style="fill:none;fill-rule:evenodd;stroke:#000000;stroke-width:0.81457007px;stroke-linecap:butt;stroke-linejoin:miter;stroke-opacity:1" />
      <path
         sodipodi:nodetypes="cc"
         inkscape:connector-curvature="0"
         id="path4524-14-8-4-6"
         d="m 96.47622,20.177439 v -2.31609"
         style="fill:none;fill-rule:evenodd;stroke:#000000;stroke-width:0.81457007px;stroke-linecap:butt;stroke-linejoin:miter;stroke-opacity:1" />
      <path
         sodipodi:nodetypes="cc"
         inkscape:connector-curvature="0"
         id="path4524-3-7-0-32"
         d="m 117.16687,20.177439 v -2.31609"
         style="fill:none;fill-rule:evenodd;stroke:#000000;stroke-width:0.81457007px;stroke-linecap:butt;stroke-linejoin:miter;stroke-opacity:1" />
      <path
         sodipodi:nodetypes="cc"
         inkscape:connector-curvature="0"
         id="path4524-2-1-9-4"
         d="m 137.85752,20.177439 v -2.31609"
         style="fill:none;fill-rule:evenodd;stroke:#000000;stroke-width:0.81457007px;stroke-linecap:butt;stroke-linejoin:miter;stroke-opacity:1" />
      <path
         sodipodi:nodetypes="cc"
         inkscape:connector-curvature="0"
         id="path4524-20-9-2-7"
         d="m 148.20281,20.177439 v -2.31609"
         style="fill:none;fill-rule:evenodd;stroke:#000000;stroke-width:0.81457007px;stroke-linecap:butt;stroke-linejoin:miter;stroke-opacity:1" />
      <path
         sodipodi:nodetypes="cc"
         inkscape:connector-curvature="0"
         id="path4524-21-0-2-00"
         d="m 44.74962,20.177439 v -2.31609"
         style="fill:none;fill-rule:evenodd;stroke:#000000;stroke-width:0.81457007px;stroke-linecap:butt;stroke-linejoin:miter;stroke-opacity:1" />
      <path
         sodipodi:nodetypes="cc"
         inkscape:connector-curvature="0"
         id="path4524-4-92-6-9-8"
         d="m 55.09493,20.177439 v -2.31609"
         style="fill:none;fill-rule:evenodd;stroke:#000000;stroke-width:0.81457001px;stroke-linecap:butt;stroke-linejoin:miter;stroke-opacity:1" />
      <path
         sodipodi:nodetypes="cc"
         inkscape:connector-curvature="0"
         id="path4735-2-2"
         d="M 44.19417,-31.166841 H 148.46674"
         style="fill:none;fill-rule:evenodd;stroke:#000000;stroke-width:0.81457007px;stroke-linecap:butt;stroke-linejoin:miter;stroke-opacity:1" />
      <path
         sodipodi:nodetypes="cc"
         inkscape:connector-curvature="0"
         id="path4735-2-7-2"
         d="M 96.43732,21.079619 V -83.192947"
         style="fill:none;fill-rule:evenodd;stroke:#000000;stroke-width:0.81457007px;stroke-linecap:butt;stroke-linejoin:miter;stroke-opacity:1" />
      <path
         id="rect4482-67"
         d="m 44.70087,-82.879797 h 103.4562 V 20.576399 H 44.70087 Z"
         style="opacity:1;fill:none;fill-opacity:1;fill-rule:evenodd;stroke:#000000;stroke-width:1.05894101;stroke-linecap:round;stroke-linejoin:round;stroke-miterlimit:4;stroke-dasharray:none;stroke-dashoffset:0;stroke-opacity:1"
         inkscape:connector-curvature="0" />
      <path
         sodipodi:nodetypes="cc"
         inkscape:connector-curvature="0"
         id="path4735-2-7-6-6"
         d="M 127.51171,20.942249 V -83.330307"
         style="fill:none;fill-rule:evenodd;stroke:#000000;stroke-width:0.81457007px;stroke-linecap:butt;stroke-linejoin:miter;stroke-opacity:1" />
      <path
         sodipodi:nodetypes="cc"
         inkscape:connector-curvature="0"
         id="path4735-2-3-9"
         d="M 44.19417,-62.19929 H 148.46674"
         style="fill:none;fill-rule:evenodd;stroke:#000000;stroke-width:0.81457007px;stroke-linecap:butt;stroke-linejoin:miter;stroke-opacity:1" />
      <path
         inkscape:connector-curvature="0"
         d="m 46.877577,16.762686 0.880687,-4.214105 h 0.479073 l -0.08893,0.424565 q 0.266789,-0.278262 0.476202,-0.384403 0.212282,-0.109011 0.447516,-0.109011 0.43604,0 0.72291,0.318425 0.286868,0.315555 0.286868,0.906507 0,0.476201 -0.157779,0.869212 -0.157776,0.390141 -0.387272,0.628242 -0.229495,0.238103 -0.464727,0.349982 -0.235234,0.111878 -0.48194,0.111878 -0.54792,0 -0.849132,-0.556525 l -0.344243,1.655233 z m 1.026991,-2.412567 q 0,0.341374 0.04877,0.473332 0.07172,0.186465 0.235231,0.301212 0.163517,0.114748 0.378669,0.114748 0.447514,0 0.722908,-0.50202 0.275396,-0.504889 0.275396,-1.02986 0,-0.387272 -0.186467,-0.596688 -0.183595,-0.212282 -0.458988,-0.212282 -0.197941,0 -0.367193,0.106142 -0.169253,0.103273 -0.315555,0.312687 -0.143435,0.206546 -0.238103,0.507758 -0.09467,0.301212 -0.09467,0.524971 z"
         style="font-style:italic;font-variant:normal;font-weight:normal;font-stretch:normal;font-size:27.5px;line-height:125%;font-family:Arial;-inkscape-font-specification:'Arial Italic';letter-spacing:0px;word-spacing:0px;fill:#ffffff;fill-opacity:1;stroke:none;stroke-width:0.21363913px;stroke-linecap:butt;stroke-linejoin:miter;stroke-opacity:1"
         id="path14771-2" />
      <path
         inkscape:connector-curvature="0"
         d="m 50.431883,13.245098 q 0.05221,-0.244268 0.143578,-0.408358 0.09323,-0.165953 0.246134,-0.313259 0.152901,-0.149174 0.589229,-0.497863 0.26478,-0.210703 0.36174,-0.311396 0.139851,-0.145441 0.203248,-0.285291 0.04289,-0.0951 0.04289,-0.206976 0,-0.188329 -0.134253,-0.318854 -0.13239,-0.13239 -0.326315,-0.13239 -0.192059,0 -0.335635,0.134255 -0.143579,0.13239 -0.205113,0.427005 l -0.330043,-0.04848 q 0.04848,-0.363608 0.281562,-0.572449 0.234947,-0.210703 0.583636,-0.210703 0.233081,0 0.42141,0.09696 0.190194,0.09696 0.285291,0.27224 0.0951,0.175276 0.0951,0.36174 0,0.272241 -0.193925,0.523967 -0.119337,0.15663 -0.701106,0.6172 -0.249864,0.197652 -0.37293,0.324447 -0.121202,0.126797 -0.182737,0.238675 h 1.22321 l -0.06526,0.309531 z"
         style="font-style:italic;font-variant:normal;font-weight:normal;font-stretch:normal;font-size:17.875px;line-height:125%;font-family:Arial;-inkscape-font-specification:'Arial Italic';letter-spacing:0px;word-spacing:0px;baseline-shift:super;fill:#ffffff;fill-opacity:1;stroke:none;stroke-width:0.21363913px;stroke-linecap:butt;stroke-linejoin:miter;stroke-opacity:1"
         id="path14773-8" />
      <path
         inkscape:connector-curvature="0"
         d="m 100.25212,-34.264191 q -0.444643,0.41309 -0.851995,0.41309 -0.424568,0 -0.717174,-0.321292 -0.292607,-0.324162 -0.292607,-0.917981 0,-0.568 0.22089,-1.026991 0.223757,-0.45899 0.568,-0.688485 0.347113,-0.229495 0.714305,-0.229495 0.278261,0 0.504891,0.157778 0.22949,0.154909 0.37006,0.470465 l 0.11761,-0.559395 h 0.44752 l -0.87782,4.214106 h -0.519232 z m -1.348279,-0.895031 q 0,0.450384 0.186464,0.668404 0.186464,0.215152 0.464727,0.215152 0.235234,0 0.473338,-0.195071 0.24097,-0.195071 0.39301,-0.585212 0.15491,-0.390142 0.15491,-0.754466 0,-0.372929 -0.19221,-0.585212 -0.1922,-0.212284 -0.470461,-0.212284 -0.272525,0 -0.476202,0.177859 -0.266788,0.229496 -0.418828,0.662667 -0.114748,0.332769 -0.114748,0.608163 z"
         style="font-style:italic;font-variant:normal;font-weight:normal;font-stretch:normal;font-size:27.5px;line-height:125%;font-family:Arial;-inkscape-font-specification:'Arial Italic';letter-spacing:0px;word-spacing:0px;fill:#ffffff;fill-opacity:1;stroke:none;stroke-width:0.21363913px;stroke-linecap:butt;stroke-linejoin:miter;stroke-opacity:1"
         id="path14766-0" />
      <path
         inkscape:connector-curvature="0"
         d="m 101.5832,-36.269979 q 0.0522,-0.244269 0.14357,-0.408358 0.0932,-0.165953 0.24614,-0.313261 0.1529,-0.149171 0.58923,-0.497861 0.26478,-0.210705 0.36174,-0.311396 0.13985,-0.145442 0.20325,-0.285291 0.0429,-0.0951 0.0429,-0.206976 0,-0.188329 -0.13425,-0.318855 -0.13239,-0.13239 -0.32632,-0.13239 -0.19206,0 -0.33563,0.134255 -0.14358,0.13239 -0.20511,0.427004 l -0.33005,-0.04848 q 0.0485,-0.363606 0.28156,-0.572447 0.23495,-0.210705 0.58364,-0.210705 0.23308,0 0.42141,0.09696 0.19019,0.09696 0.28529,0.272239 0.0951,0.175276 0.0951,0.361741 0,0.272239 -0.19393,0.523966 -0.11933,0.156631 -0.7011,0.617199 -0.24987,0.197652 -0.37293,0.324449 -0.1212,0.126796 -0.18274,0.238675 h 1.22321 l -0.0653,0.309531 z"
         style="font-style:italic;font-variant:normal;font-weight:normal;font-stretch:normal;font-size:21.9174118px;line-height:125%;font-family:Arial;-inkscape-font-specification:'Arial Italic';letter-spacing:0px;word-spacing:0px;baseline-shift:super;fill:#ffffff;fill-opacity:1;stroke:none;stroke-width:0.21363913px;stroke-linecap:butt;stroke-linejoin:miter;stroke-opacity:1"
         id="path14768-1" />
      <path
         inkscape:connector-curvature="0"
         d="m 128.92653,-63.667142 0.63684,-3.046548 h 0.459 l -0.1291,0.622505 q 0.23524,-0.352848 0.45899,-0.522101 0.22663,-0.169253 0.46186,-0.169253 0.15491,0 0.38154,0.111879 l -0.21228,0.48194 q -0.13483,-0.09754 -0.29548,-0.09754 -0.27252,0 -0.55939,0.304081 -0.28687,0.304082 -0.45039,1.092971 l -0.25818,1.222062 z"
         style="font-style:italic;font-variant:normal;font-weight:normal;font-stretch:normal;font-size:27.5px;line-height:125%;font-family:Arial;-inkscape-font-specification:'Arial Italic';letter-spacing:0px;word-spacing:0px;fill:#000000;fill-opacity:1;stroke:none;stroke-width:0.21363913px;stroke-linecap:butt;stroke-linejoin:miter;stroke-opacity:1"
         id="path14761-6" />
      <path
         inkscape:connector-curvature="0"
         d="m 130.9174,-66.017173 q 0.0522,-0.244268 0.14357,-0.408358 0.0932,-0.165953 0.24614,-0.31326 0.1529,-0.149172 0.58923,-0.497862 0.26478,-0.210705 0.36174,-0.311396 0.13985,-0.145442 0.20325,-0.285291 0.0429,-0.0951 0.0429,-0.206976 0,-0.188329 -0.13425,-0.318855 -0.13239,-0.13239 -0.32632,-0.13239 -0.19206,0 -0.33563,0.134255 -0.14358,0.13239 -0.20511,0.427004 l -0.33005,-0.04848 q 0.0485,-0.363607 0.28156,-0.572447 0.23495,-0.210706 0.58364,-0.210706 0.23308,0 0.42141,0.09696 0.19019,0.09696 0.28529,0.272239 0.0951,0.175277 0.0951,0.361741 0,0.272239 -0.19393,0.523967 -0.11933,0.15663 -0.7011,0.617198 -0.24987,0.197653 -0.37293,0.324449 -0.1212,0.126796 -0.18274,0.238675 h 1.22321 l -0.0653,0.309531 z"
         style="font-style:italic;font-variant:normal;font-weight:normal;font-stretch:normal;font-size:21.9174118px;line-height:125%;font-family:Arial;-inkscape-font-specification:'Arial Italic';letter-spacing:0px;word-spacing:0px;baseline-shift:super;fill:#000000;fill-opacity:1;stroke:none;stroke-width:0.21363913px;stroke-linecap:butt;stroke-linejoin:miter;stroke-opacity:1"
         id="path14763-3" />
      <path
         inkscape:connector-curvature="0"
         d="m 98.496709,16.762686 0.880686,-4.214105 h 0.479071 l -0.08893,0.424565 q 0.266794,-0.278262 0.476204,-0.384403 0.21228,-0.109011 0.44751,-0.109011 0.43605,0 0.72291,0.318425 0.28687,0.315555 0.28687,0.906507 0,0.476201 -0.15777,0.869212 -0.15778,0.390141 -0.38728,0.628242 -0.22949,0.238103 -0.46473,0.349982 -0.23523,0.111878 -0.48194,0.111878 -0.547914,0 -0.849126,-0.556525 l -0.344243,1.655233 z M 99.5237,14.350119 q 0,0.341374 0.04877,0.473332 0.07172,0.186465 0.235232,0.301212 0.163515,0.114748 0.378668,0.114748 0.44751,0 0.72291,-0.50202 0.27539,-0.504889 0.27539,-1.02986 0,-0.387272 -0.18647,-0.596688 -0.18359,-0.212282 -0.45899,-0.212282 -0.19793,0 -0.36719,0.106142 -0.16925,0.103273 -0.315551,0.312687 -0.143433,0.206546 -0.238101,0.507758 -0.09466,0.301212 -0.09466,0.524971 z"
         style="font-style:italic;font-variant:normal;font-weight:normal;font-stretch:normal;font-size:27.5px;line-height:125%;font-family:Arial;-inkscape-font-specification:'Arial Italic';letter-spacing:0px;word-spacing:0px;fill:#ffffff;fill-opacity:1;stroke:none;stroke-width:0.21363913px;stroke-linecap:butt;stroke-linejoin:miter;stroke-opacity:1"
         id="path14756-3" />
      <path
         inkscape:connector-curvature="0"
         d="m 103.99025,15.250886 q -0.44465,0.413092 -0.852,0.413092 -0.42457,0 -0.71717,-0.321294 -0.29261,-0.324161 -0.29261,-0.917979 0,-0.568001 0.22089,-1.026991 0.22376,-0.458991 0.568,-0.688487 0.34711,-0.229495 0.7143,-0.229495 0.27826,0 0.50489,0.157779 0.2295,0.15491 0.37006,0.470465 l 0.11762,-0.559395 h 0.44751 l -0.87781,4.214105 h -0.51924 z m -1.34829,-0.895031 q 0,0.450386 0.18647,0.668404 0.18646,0.215152 0.46473,0.215152 0.23523,0 0.47333,-0.19507 0.24097,-0.195071 0.39301,-0.585213 0.15491,-0.390141 0.15491,-0.754464 0,-0.372931 -0.1922,-0.585213 -0.1922,-0.212283 -0.47047,-0.212283 -0.27252,0 -0.4762,0.177859 -0.26679,0.229493 -0.41883,0.662666 -0.11475,0.332769 -0.11475,0.608162 z"
         style="font-style:italic;font-variant:normal;font-weight:normal;font-stretch:normal;font-size:27.5px;line-height:125%;font-family:Arial;-inkscape-font-specification:'Arial Italic';letter-spacing:0px;word-spacing:0px;fill:#ffffff;fill-opacity:1;stroke:none;stroke-width:0.21363913px;stroke-linecap:butt;stroke-linejoin:miter;stroke-opacity:1"
         id="path14758-7" />
      <path
         inkscape:connector-curvature="0"
         d="m 128.94206,16.762686 0.88068,-4.214105 h 0.47907 l -0.0889,0.424565 q 0.26679,-0.278262 0.47621,-0.384403 0.21228,-0.109011 0.44751,-0.109011 0.43604,0 0.72291,0.318425 0.28687,0.315555 0.28687,0.906507 0,0.476201 -0.15778,0.869212 -0.15777,0.390141 -0.38727,0.628242 -0.22949,0.238103 -0.46473,0.349982 -0.23523,0.111878 -0.48194,0.111878 -0.54792,0 -0.84913,-0.556525 l -0.34424,1.655233 z m 1.02699,-2.412567 q 0,0.341374 0.0488,0.473332 0.0717,0.186465 0.23523,0.301212 0.16351,0.114748 0.37866,0.114748 0.44752,0 0.72291,-0.50202 0.2754,-0.504889 0.2754,-1.02986 0,-0.387272 -0.18647,-0.596688 -0.18359,-0.212282 -0.45899,-0.212282 -0.19794,0 -0.36719,0.106142 -0.16925,0.103273 -0.31556,0.312687 -0.14343,0.206546 -0.2381,0.507758 -0.0947,0.301212 -0.0947,0.524971 z"
         style="font-style:italic;font-variant:normal;font-weight:normal;font-stretch:normal;font-size:27.5px;line-height:125%;font-family:Arial;-inkscape-font-specification:'Arial Italic';letter-spacing:0px;word-spacing:0px;fill:#000000;fill-opacity:1;stroke:none;stroke-width:0.21363913px;stroke-linecap:butt;stroke-linejoin:miter;stroke-opacity:1"
         id="path14751-8" />
      <path
         inkscape:connector-curvature="0"
         d="m 132.46767,15.595129 0.63685,-3.046548 h 0.459 l -0.1291,0.622506 q 0.23524,-0.352848 0.45899,-0.522102 0.22663,-0.169253 0.46186,-0.169253 0.15491,0 0.38154,0.111878 l -0.21228,0.48194 q -0.13483,-0.09753 -0.29548,-0.09753 -0.27252,0 -0.55939,0.304081 -0.28687,0.304081 -0.45039,1.092971 l -0.25818,1.222061 z"
         style="font-style:italic;font-variant:normal;font-weight:normal;font-stretch:normal;font-size:27.5px;line-height:125%;font-family:Arial;-inkscape-font-specification:'Arial Italic';letter-spacing:0px;word-spacing:0px;fill:#000000;fill-opacity:1;stroke:none;stroke-width:0.21363913px;stroke-linecap:butt;stroke-linejoin:miter;stroke-opacity:1"
         id="path14753-1" />
      <path
         inkscape:connector-curvature="0"
         d="m 130.69747,-34.264191 q -0.44464,0.41309 -0.852,0.41309 -0.42456,0 -0.71717,-0.321292 -0.29261,-0.324162 -0.29261,-0.917981 0,-0.568 0.22089,-1.026991 0.22376,-0.45899 0.568,-0.688485 0.34711,-0.229495 0.71431,-0.229495 0.27826,0 0.50489,0.157778 0.22949,0.154909 0.37006,0.470465 l 0.11761,-0.559395 h 0.44752 l -0.87782,4.214106 h -0.51923 z m -1.34828,-0.895031 q 0,0.450384 0.18646,0.668404 0.18647,0.215152 0.46473,0.215152 0.23523,0 0.47333,-0.195071 0.24097,-0.195071 0.39301,-0.585212 0.15491,-0.390142 0.15491,-0.754466 0,-0.372929 -0.1922,-0.585212 -0.1922,-0.212284 -0.47046,-0.212284 -0.27253,0 -0.4762,0.177859 -0.26679,0.229496 -0.41883,0.662667 -0.11475,0.332769 -0.11475,0.608163 z"
         style="font-style:italic;font-variant:normal;font-weight:normal;font-stretch:normal;font-size:27.5px;line-height:125%;font-family:Arial;-inkscape-font-specification:'Arial Italic';letter-spacing:0px;word-spacing:0px;fill:#000000;fill-opacity:1;stroke:none;stroke-width:0.21363913px;stroke-linecap:butt;stroke-linejoin:miter;stroke-opacity:1"
         id="path14746-8" />
      <path
         inkscape:connector-curvature="0"
         d="m 131.99986,-33.919948 0.63685,-3.046549 h 0.45899 l -0.12909,0.622506 q 0.23523,-0.352849 0.45899,-0.522102 0.22662,-0.169252 0.46185,-0.169252 0.15491,0 0.38154,0.111879 l -0.21228,0.48194 q -0.13483,-0.09754 -0.29548,-0.09754 -0.27252,0 -0.55939,0.304081 -0.28687,0.304081 -0.45039,1.092971 l -0.25818,1.222062 z"
         style="font-style:italic;font-variant:normal;font-weight:normal;font-stretch:normal;font-size:27.5px;line-height:125%;font-family:Arial;-inkscape-font-specification:'Arial Italic';letter-spacing:0px;word-spacing:0px;fill:#000000;fill-opacity:1;stroke:none;stroke-width:0.21363913px;stroke-linecap:butt;stroke-linejoin:miter;stroke-opacity:1"
         id="path14748-4" />
      <path
         inkscape:connector-curvature="0"
         d="m 46.877577,-32.752391 0.880687,-4.214106 h 0.479073 l -0.08893,0.424566 q 0.266789,-0.278262 0.476202,-0.384404 0.212282,-0.10901 0.447516,-0.10901 0.43604,0 0.72291,0.318424 0.286868,0.315556 0.286868,0.906506 0,0.476203 -0.157779,0.869213 -0.157776,0.390142 -0.387272,0.628243 -0.229495,0.238101 -0.464727,0.34998 -0.235234,0.111878 -0.48194,0.111878 -0.54792,0 -0.849132,-0.556525 l -0.344243,1.655235 z m 1.026991,-2.412569 q 0,0.341374 0.04877,0.473334 0.07172,0.186465 0.235231,0.301212 0.163517,0.114748 0.378669,0.114748 0.447514,0 0.722908,-0.502021 0.275396,-0.504889 0.275396,-1.029859 0,-0.387273 -0.186467,-0.596688 -0.183595,-0.212283 -0.458988,-0.212283 -0.197941,0 -0.367193,0.106142 -0.169253,0.103273 -0.315555,0.312687 -0.143435,0.206546 -0.238103,0.507758 -0.09467,0.301212 -0.09467,0.52497 z"
         style="font-style:italic;font-variant:normal;font-weight:normal;font-stretch:normal;font-size:27.5px;line-height:125%;font-family:Arial;-inkscape-font-specification:'Arial Italic';letter-spacing:0px;word-spacing:0px;fill:#ffffff;fill-opacity:1;stroke:none;stroke-width:0.21363913px;stroke-linecap:butt;stroke-linejoin:miter;stroke-opacity:1"
         id="path14741-7" />
      <path
         inkscape:connector-curvature="0"
         d="m 52.371117,-34.264191 q -0.444647,0.41309 -0.852001,0.41309 -0.424565,0 -0.717172,-0.321292 -0.292607,-0.324162 -0.292607,-0.917981 0,-0.568 0.22089,-1.026991 0.223758,-0.45899 0.568001,-0.688485 0.34711,-0.229495 0.714302,-0.229495 0.278263,0 0.504891,0.157778 0.229494,0.154909 0.37006,0.470465 l 0.117616,-0.559395 h 0.447517 l -0.87782,4.214106 h -0.519233 z m -1.348283,-0.895031 q 0,0.450384 0.186464,0.668404 0.186464,0.215152 0.464727,0.215152 0.235234,0 0.473335,-0.195071 0.24097,-0.195071 0.39301,-0.585212 0.15491,-0.390142 0.15491,-0.754466 0,-0.372929 -0.192202,-0.585212 -0.192203,-0.212284 -0.470466,-0.212284 -0.272526,0 -0.476204,0.177859 -0.266786,0.229496 -0.418826,0.662667 -0.114748,0.332769 -0.114748,0.608163 z"
         style="font-style:italic;font-variant:normal;font-weight:normal;font-stretch:normal;font-size:27.5px;line-height:125%;font-family:Arial;-inkscape-font-specification:'Arial Italic';letter-spacing:0px;word-spacing:0px;fill:#ffffff;fill-opacity:1;stroke:none;stroke-width:0.21363913px;stroke-linecap:butt;stroke-linejoin:miter;stroke-opacity:1"
         id="path14743-0" />
      <path
         inkscape:connector-curvature="0"
         d="m 46.877577,-63.781421 0.880687,-4.214104 h 0.479073 l -0.08893,0.424566 q 0.266789,-0.278263 0.476202,-0.384404 0.212282,-0.109011 0.447516,-0.109011 0.43604,0 0.72291,0.318425 0.286868,0.315556 0.286868,0.906506 0,0.476202 -0.157779,0.869213 -0.157776,0.390141 -0.387272,0.628243 -0.229495,0.238101 -0.464727,0.34998 -0.235234,0.111879 -0.48194,0.111879 -0.54792,0 -0.849132,-0.556526 l -0.344243,1.655233 z m 1.026991,-2.412567 q 0,0.341374 0.04877,0.473334 0.07172,0.186464 0.235231,0.301212 0.163517,0.114747 0.378669,0.114747 0.447514,0 0.722908,-0.50202 0.275396,-0.504889 0.275396,-1.02986 0,-0.387273 -0.186467,-0.596687 -0.183595,-0.212283 -0.458988,-0.212283 -0.197941,0 -0.367193,0.106141 -0.169253,0.103273 -0.315555,0.312688 -0.143435,0.206545 -0.238103,0.507758 -0.09467,0.301212 -0.09467,0.52497 z"
         style="font-style:italic;font-variant:normal;font-weight:normal;font-stretch:normal;font-size:27.5px;line-height:125%;font-family:Arial;-inkscape-font-specification:'Arial Italic';letter-spacing:0px;word-spacing:0px;fill:#000000;fill-opacity:1;stroke:none;stroke-width:0.21363913px;stroke-linecap:butt;stroke-linejoin:miter;stroke-opacity:1"
         id="path14736-4" />
      <path
         inkscape:connector-curvature="0"
         d="m 50.403197,-64.948977 0.636848,-3.046548 h 0.458991 l -0.129092,0.622506 q 0.235234,-0.352849 0.458991,-0.522102 0.226626,-0.169253 0.461858,-0.169253 0.15491,0 0.381536,0.111879 l -0.212283,0.48194 q -0.134827,-0.09753 -0.295475,-0.09753 -0.272525,0 -0.559393,0.304081 -0.28687,0.304081 -0.450385,1.09297 l -0.258181,1.222062 z"
         style="font-style:italic;font-variant:normal;font-weight:normal;font-stretch:normal;font-size:27.5px;line-height:125%;font-family:Arial;-inkscape-font-specification:'Arial Italic';letter-spacing:0px;word-spacing:0px;fill:#000000;fill-opacity:1;stroke:none;stroke-width:0.21363913px;stroke-linecap:butt;stroke-linejoin:miter;stroke-opacity:1"
         id="path14738-0" />
      <path
         inkscape:connector-curvature="0"
         d="m 100.25212,-65.29322 q -0.444643,0.413092 -0.851995,0.413092 -0.424568,0 -0.717174,-0.321294 -0.292607,-0.324162 -0.292607,-0.91798 0,-0.568001 0.22089,-1.026991 0.223757,-0.45899 0.568,-0.688485 0.347113,-0.229496 0.714305,-0.229496 0.278261,0 0.504891,0.157778 0.22949,0.15491 0.37006,0.470465 l 0.11761,-0.559394 h 0.44752 l -0.87782,4.214104 h -0.519232 z m -1.348279,-0.895031 q 0,0.450384 0.186464,0.668405 0.186464,0.215151 0.464727,0.215151 0.235234,0 0.473338,-0.19507 0.24097,-0.195071 0.39301,-0.585213 0.15491,-0.390142 0.15491,-0.754465 0,-0.37293 -0.19221,-0.585213 -0.1922,-0.212283 -0.470461,-0.212283 -0.272525,0 -0.476202,0.177859 -0.266788,0.229495 -0.418828,0.662667 -0.114748,0.332768 -0.114748,0.608162 z"
         style="font-style:italic;font-variant:normal;font-weight:normal;font-stretch:normal;font-size:27.5px;line-height:125%;font-family:Arial;-inkscape-font-specification:'Arial Italic';letter-spacing:0px;word-spacing:0px;fill:#000000;fill-opacity:1;stroke:none;stroke-width:0.21363913px;stroke-linecap:butt;stroke-linejoin:miter;stroke-opacity:1"
         id="path14731-6" />
      <path
         inkscape:connector-curvature="0"
         d="m 101.55451,-64.948977 0.63685,-3.046548 h 0.45899 l -0.12909,0.622506 q 0.23523,-0.352849 0.45899,-0.522102 0.22662,-0.169253 0.46186,-0.169253 0.15491,0 0.38153,0.111879 l -0.21228,0.48194 q -0.13483,-0.09753 -0.29548,-0.09753 -0.27252,0 -0.55939,0.304081 -0.28687,0.304081 -0.45038,1.09297 l -0.25819,1.222062 z"
         style="font-style:italic;font-variant:normal;font-weight:normal;font-stretch:normal;font-size:27.5px;line-height:125%;font-family:Arial;-inkscape-font-specification:'Arial Italic';letter-spacing:0px;word-spacing:0px;fill:#000000;fill-opacity:1;stroke:none;stroke-width:0.21363913px;stroke-linecap:butt;stroke-linejoin:miter;stroke-opacity:1"
         id="path14733-5" />
      <path
         inkscape:connector-curvature="0"
         d="m 65.291874,-3.3165715 1.980317,-5.156569 h 0.735145 l 2.110466,5.156569 h -0.777355 l -0.601482,-1.5617447 h -2.156191 l -0.566309,1.5617447 z m 1.487877,-2.1174991 h 1.748168 L 67.98975,-6.862152 q -0.246222,-0.6507255 -0.365813,-1.0693023 -0.09849,0.495959 -0.277878,0.9848849 z"
         id="path14817-7"
         style="font-style:normal;font-variant:normal;font-weight:normal;font-stretch:normal;font-size:33.71909714px;line-height:125%;font-family:Arial;-inkscape-font-specification:Arial;letter-spacing:0px;word-spacing:0px;fill:#ffffff;fill-opacity:1;stroke:none;stroke-width:0.21363913px;stroke-linecap:butt;stroke-linejoin:miter;stroke-opacity:1" />
      <path
         inkscape:connector-curvature="0"
         d="m 70.103732,-3.3165715 1.980319,-5.156569 h 0.735145 l 2.110464,5.156569 h -0.777353 l -0.601484,-1.5617447 h -2.156189 l -0.566308,1.5617447 z m 1.487877,-2.1174991 h 1.748168 L 72.80161,-6.862152 q -0.246222,-0.6507255 -0.365815,-1.0693023 -0.09849,0.495959 -0.277878,0.9848849 z"
         id="path14819-3"
         style="font-style:normal;font-variant:normal;font-weight:normal;font-stretch:normal;font-size:33.71909714px;line-height:125%;font-family:Arial;-inkscape-font-specification:Arial;letter-spacing:0px;word-spacing:0px;fill:#ffffff;fill-opacity:1;stroke:none;stroke-width:0.21363913px;stroke-linecap:butt;stroke-linejoin:miter;stroke-opacity:1" />
      <path
         inkscape:connector-curvature="0"
         d="m 65.291874,-44.727017 1.980317,-5.156568 h 0.735145 l 2.110466,5.156568 h -0.777355 l -0.601482,-1.561743 h -2.156191 l -0.566309,1.561743 z m 1.487877,-2.117499 h 1.748168 l -0.538169,-1.428081 q -0.246222,-0.650726 -0.365813,-1.069302 -0.09849,0.495959 -0.277878,0.984883 z"
         id="path14812-3"
         style="font-style:normal;font-variant:normal;font-weight:normal;font-stretch:normal;font-size:33.71909714px;line-height:125%;font-family:Arial;-inkscape-font-specification:Arial;letter-spacing:0px;word-spacing:0px;fill:#ffffff;fill-opacity:1;stroke:none;stroke-width:0.21363913px;stroke-linecap:butt;stroke-linejoin:miter;stroke-opacity:1" />
      <path
         inkscape:connector-curvature="0"
         d="m 70.6419,-44.727017 v -5.156568 h 1.934594 q 0.590928,0 0.94619,0.158285 0.35878,0.154767 0.559274,0.481889 0.20401,0.323605 0.20401,0.678866 0,0.33064 -0.179389,0.622587 -0.179388,0.291948 -0.541686,0.471337 0.467821,0.137181 0.717558,0.46782 0.253257,0.33064 0.253257,0.780872 0,0.362296 -0.154769,0.675348 -0.15125,0.309535 -0.376366,0.478372 -0.225116,0.168838 -0.566308,0.256774 -0.337674,0.08442 -0.830116,0.08442 z m 0.682385,-2.989824 h 1.115027 q 0.45375,0 0.650728,-0.0598 0.260289,-0.07738 0.390436,-0.256773 0.133661,-0.17939 0.133661,-0.450232 0,-0.256774 -0.12311,-0.450233 -0.123109,-0.196977 -0.351744,-0.267325 -0.228634,-0.07387 -0.784388,-0.07387 h -1.03061 z m 0,2.381307 h 1.283864 q 0.330641,0 0.464304,-0.02462 0.235667,-0.04221 0.393953,-0.140698 0.158285,-0.09849 0.260289,-0.284913 0.102006,-0.189941 0.102006,-0.436162 0,-0.28843 -0.147731,-0.499477 -0.147734,-0.214563 -0.411542,-0.298982 -0.260289,-0.08794 -0.752732,-0.08794 h -1.192411 z"
         id="path14814-2"
         style="font-style:normal;font-variant:normal;font-weight:normal;font-stretch:normal;font-size:33.71909714px;line-height:125%;font-family:Arial;-inkscape-font-specification:Arial;letter-spacing:0px;word-spacing:0px;fill:#ffffff;fill-opacity:1;stroke:none;stroke-width:0.21363913px;stroke-linecap:butt;stroke-linejoin:miter;stroke-opacity:1" />
      <path
         inkscape:connector-curvature="0"
         d="m 65.291874,-70.668893 1.980317,-5.156567 h 0.735145 l 2.110466,5.156567 h -0.777355 l -0.601482,-1.561743 h -2.156191 l -0.566309,1.561743 z m 1.487877,-2.117499 h 1.748168 l -0.538169,-1.428081 q -0.246222,-0.650726 -0.365813,-1.069302 -0.09849,0.49596 -0.277878,0.984884 z"
         id="path14807-9"
         style="font-style:normal;font-variant:normal;font-weight:normal;font-stretch:normal;font-size:33.71909714px;line-height:125%;font-family:Arial;-inkscape-font-specification:Arial;letter-spacing:0px;word-spacing:0px;fill:#000000;fill-opacity:1;stroke:none;stroke-width:0.21363913px;stroke-linecap:butt;stroke-linejoin:miter;stroke-opacity:1" />
      <path
         inkscape:connector-curvature="0"
         d="m 74.349282,-72.476857 0.682385,0.172355 q -0.214564,0.840668 -0.773838,1.283865 -0.555756,0.43968 -1.361248,0.43968 -0.833635,0 -1.357732,-0.337674 -0.520583,-0.341192 -0.794943,-0.984883 -0.270843,-0.643692 -0.270843,-1.382354 0,-0.805494 0.306019,-1.403459 0.309533,-0.601482 0.875841,-0.911017 0.569825,-0.313052 1.252209,-0.313052 0.773838,0 1.301454,0.393953 0.527616,0.393953 0.735145,1.107994 l -0.671831,0.158284 q -0.179391,-0.56279 -0.520581,-0.819563 -0.341192,-0.256773 -0.858257,-0.256773 -0.594446,0 -0.995434,0.284912 -0.397471,0.284913 -0.559273,0.766803 -0.161804,0.478371 -0.161804,0.9884 0,0.657762 0.189942,1.150203 0.193459,0.488925 0.597965,0.731628 0.404507,0.242703 0.875844,0.242703 0.573341,0 0.970812,-0.330639 0.397472,-0.33064 0.538168,-0.981366 z"
         id="path14809-8"
         style="font-style:normal;font-variant:normal;font-weight:normal;font-stretch:normal;font-size:33.71909714px;line-height:125%;font-family:Arial;-inkscape-font-specification:Arial;letter-spacing:0px;word-spacing:0px;fill:#000000;fill-opacity:1;stroke:none;stroke-width:0.21363913px;stroke-linecap:butt;stroke-linejoin:miter;stroke-opacity:1" />
      <path
         inkscape:connector-curvature="0"
         d="m 106.87048,-70.668887 v -5.15657 h 1.93459 q 0.59093,0 0.94619,0.15828 0.35878,0.15477 0.55927,0.48189 0.20402,0.32361 0.20402,0.67887 0,0.33064 -0.17939,0.62258 -0.17939,0.29195 -0.54169,0.47134 0.46782,0.13718 0.71756,0.46782 0.25325,0.33064 0.25325,0.78087 0,0.3623 -0.15476,0.67535 -0.15125,0.30954 -0.37637,0.47837 -0.22511,0.16884 -0.56631,0.25678 -0.33767,0.0844 -0.83011,0.0844 z m 0.68238,-2.98983 h 1.11503 q 0.45375,0 0.65073,-0.0598 0.26029,-0.0774 0.39043,-0.25677 0.13366,-0.17939 0.13366,-0.45024 0,-0.25677 -0.1231,-0.45023 -0.12311,-0.19697 -0.35175,-0.26732 -0.22863,-0.0739 -0.78439,-0.0739 h -1.03061 z m 0,2.38131 h 1.28387 q 0.33064,0 0.4643,-0.0246 0.23567,-0.0422 0.39395,-0.1407 0.15829,-0.0985 0.2603,-0.28491 0.102,-0.18994 0.102,-0.43616 0,-0.28843 -0.14773,-0.49948 -0.14774,-0.21457 -0.41154,-0.29898 -0.2603,-0.0879 -0.75274,-0.0879 h -1.19241 z"
         id="path14802-3"
         style="font-style:normal;font-variant:normal;font-weight:normal;font-stretch:normal;font-size:medium;line-height:125%;font-family:Arial;-inkscape-font-specification:Arial;letter-spacing:0px;word-spacing:0px;fill:#000000;fill-opacity:1;stroke:none;stroke-width:0.21363913px;stroke-linecap:butt;stroke-linejoin:miter;stroke-opacity:1" />
      <path
         inkscape:connector-curvature="0"
         d="m 115.38972,-72.476857 0.68238,0.17236 q -0.21456,0.84066 -0.77383,1.28386 -0.55576,0.43968 -1.36125,0.43968 -0.83364,0 -1.35774,-0.33767 -0.52058,-0.34119 -0.79494,-0.98489 -0.27084,-0.64369 -0.27084,-1.38235 0,-0.80549 0.30602,-1.40346 0.30953,-0.60148 0.87584,-0.91102 0.56983,-0.31305 1.25221,-0.31305 0.77384,0 1.30145,0.39395 0.52762,0.39396 0.73515,1.108 l -0.67184,0.15828 q -0.17938,-0.56279 -0.52057,-0.81956 -0.3412,-0.25677 -0.85826,-0.25677 -0.59445,0 -0.99544,0.28491 -0.39747,0.28491 -0.55927,0.7668 -0.1618,0.47837 -0.1618,0.9884 0,0.65776 0.18994,1.15021 0.19346,0.48892 0.59796,0.73162 0.40451,0.24271 0.87585,0.24271 0.57334,0 0.97081,-0.33064 0.39747,-0.33064 0.53817,-0.98137 z"
         id="path14804-8"
         style="font-style:normal;font-variant:normal;font-weight:normal;font-stretch:normal;font-size:medium;line-height:125%;font-family:Arial;-inkscape-font-specification:Arial;letter-spacing:0px;word-spacing:0px;fill:#000000;fill-opacity:1;stroke:none;stroke-width:0.21363913px;stroke-linecap:butt;stroke-linejoin:miter;stroke-opacity:1" />
      <path
         inkscape:connector-curvature="0"
         d="m 136.62009,-72.476857 0.68239,0.172355 q -0.21457,0.840668 -0.77384,1.283865 -0.55575,0.43968 -1.36125,0.43968 -0.83363,0 -1.35773,-0.337674 -0.52058,-0.341192 -0.79494,-0.984883 -0.27084,-0.643692 -0.27084,-1.382354 0,-0.805494 0.30601,-1.403459 0.30954,-0.601482 0.87585,-0.911017 0.56982,-0.313052 1.2522,-0.313052 0.77384,0 1.30146,0.393953 0.52761,0.393953 0.73514,1.107994 l -0.67183,0.158284 q -0.17939,-0.56279 -0.52058,-0.819563 -0.34119,-0.256773 -0.85825,-0.256773 -0.59445,0 -0.99544,0.284912 -0.39747,0.284913 -0.55927,0.766803 -0.16181,0.478371 -0.16181,0.9884 0,0.657762 0.18995,1.150203 0.19345,0.488925 0.59796,0.731628 0.40451,0.242703 0.87584,0.242703 0.57335,0 0.97082,-0.330639 0.39747,-0.33064 0.53816,-0.981366 z"
         id="path14797-4"
         style="font-style:normal;font-variant:normal;font-weight:normal;font-stretch:normal;font-size:33.71909714px;line-height:125%;font-family:Arial;-inkscape-font-specification:Arial;letter-spacing:0px;word-spacing:0px;fill:#000000;fill-opacity:1;stroke:none;stroke-width:0.21363913px;stroke-linecap:butt;stroke-linejoin:miter;stroke-opacity:1" />
      <path
         inkscape:connector-curvature="0"
         d="m 141.82591,-72.476857 0.68238,0.172355 q -0.21456,0.840668 -0.77384,1.283865 -0.55575,0.43968 -1.36125,0.43968 -0.83363,0 -1.35773,-0.337674 -0.52058,-0.341192 -0.79494,-0.984883 -0.27084,-0.643692 -0.27084,-1.382354 0,-0.805494 0.30602,-1.403459 0.30953,-0.601482 0.87584,-0.911017 0.56982,-0.313052 1.25221,-0.313052 0.77383,0 1.30145,0.393953 0.52762,0.393953 0.73514,1.107994 l -0.67183,0.158284 q -0.17939,-0.56279 -0.52058,-0.819563 -0.34119,-0.256773 -0.85825,-0.256773 -0.59445,0 -0.99544,0.284912 -0.39747,0.284913 -0.55927,0.766803 -0.16181,0.478371 -0.16181,0.9884 0,0.657762 0.18995,1.150203 0.19346,0.488925 0.59796,0.731628 0.40451,0.242703 0.87585,0.242703 0.57334,0 0.97081,-0.330639 0.39747,-0.33064 0.53817,-0.981366 z"
         id="path14799-3"
         style="font-style:normal;font-variant:normal;font-weight:normal;font-stretch:normal;font-size:33.71909714px;line-height:125%;font-family:Arial;-inkscape-font-specification:Arial;letter-spacing:0px;word-spacing:0px;fill:#000000;fill-opacity:1;stroke:none;stroke-width:0.21363913px;stroke-linecap:butt;stroke-linejoin:miter;stroke-opacity:1" />
      <path
         inkscape:connector-curvature="0"
         d="m 133.21792,-44.814953 v -5.156568 h 1.93459 q 0.59093,0 0.94619,0.158285 0.35878,0.154767 0.55927,0.48189 0.20401,0.323604 0.20401,0.678865 0,0.33064 -0.17939,0.622588 -0.17939,0.291947 -0.54168,0.471337 0.46782,0.13718 0.71755,0.467819 0.25326,0.33064 0.25326,0.780872 0,0.362296 -0.15477,0.675348 -0.15125,0.309535 -0.37636,0.478372 -0.22512,0.168838 -0.56631,0.256774 -0.33767,0.08442 -0.83012,0.08442 z m 0.68238,-2.989824 h 1.11503 q 0.45375,0 0.65072,-0.0598 0.26029,-0.07738 0.39044,-0.256773 0.13366,-0.179389 0.13366,-0.450232 0,-0.256774 -0.12311,-0.450233 -0.12311,-0.196976 -0.35174,-0.267325 -0.22864,-0.07387 -0.78439,-0.07387 h -1.03061 z m 0,2.381307 h 1.28386 q 0.33064,0 0.46431,-0.02462 0.23566,-0.04221 0.39395,-0.140698 0.15828,-0.09849 0.26029,-0.284912 0.10201,-0.189942 0.10201,-0.436163 0,-0.28843 -0.14774,-0.499477 -0.14773,-0.214563 -0.41154,-0.298982 -0.26029,-0.08794 -0.75273,-0.08794 h -1.19241 z"
         id="path14792-6"
         style="font-style:normal;font-variant:normal;font-weight:normal;font-stretch:normal;font-size:33.71909714px;line-height:125%;font-family:Arial;-inkscape-font-specification:Arial;letter-spacing:0px;word-spacing:0px;fill:#000000;fill-opacity:1;stroke:none;stroke-width:0.21363913px;stroke-linecap:butt;stroke-linejoin:miter;stroke-opacity:1" />
      <path
         inkscape:connector-curvature="0"
         d="m 141.73716,-46.622917 0.68238,0.172354 q -0.21456,0.840669 -0.77384,1.283866 -0.55575,0.43968 -1.36125,0.43968 -0.83363,0 -1.35773,-0.337674 -0.52058,-0.341192 -0.79494,-0.984883 -0.27084,-0.643692 -0.27084,-1.382355 0,-0.805493 0.30601,-1.403458 0.30954,-0.601483 0.87585,-0.911018 0.56982,-0.313052 1.25221,-0.313052 0.77383,0 1.30145,0.393954 0.52762,0.393953 0.73514,1.107993 l -0.67183,0.158285 q -0.17939,-0.56279 -0.52058,-0.819563 -0.34119,-0.256774 -0.85825,-0.256774 -0.59445,0 -0.99544,0.284913 -0.39747,0.284913 -0.55927,0.766802 -0.16181,0.478372 -0.16181,0.988401 0,0.657761 0.18995,1.150203 0.19346,0.488924 0.59796,0.731628 0.40451,0.242703 0.87584,0.242703 0.57335,0 0.97082,-0.330639 0.39747,-0.33064 0.53817,-0.981366 z"
         id="path14794-2"
         style="font-style:normal;font-variant:normal;font-weight:normal;font-stretch:normal;font-size:33.71909714px;line-height:125%;font-family:Arial;-inkscape-font-specification:Arial;letter-spacing:0px;word-spacing:0px;fill:#000000;fill-opacity:1;stroke:none;stroke-width:0.21363913px;stroke-linecap:butt;stroke-linejoin:miter;stroke-opacity:1" />
      <path
         inkscape:connector-curvature="0"
         d="m 107.39809,-44.727017 v -5.156568 h 1.9346 q 0.59093,0 0.94619,0.158285 0.35878,0.154767 0.55927,0.481889 0.20401,0.323605 0.20401,0.678866 0,0.33064 -0.17939,0.622587 -0.17939,0.291948 -0.54168,0.471337 0.46782,0.137181 0.71756,0.46782 0.25325,0.33064 0.25325,0.780872 0,0.362296 -0.15477,0.675348 -0.15125,0.309535 -0.37636,0.478372 -0.22512,0.168838 -0.56631,0.256774 -0.33767,0.08442 -0.83012,0.08442 z m 0.68239,-2.989824 h 1.11503 q 0.45375,0 0.65072,-0.0598 0.26029,-0.07738 0.39044,-0.256773 0.13366,-0.17939 0.13366,-0.450232 0,-0.256774 -0.12311,-0.450233 -0.12311,-0.196977 -0.35174,-0.267325 -0.22864,-0.07387 -0.78439,-0.07387 h -1.03061 z m 0,2.381307 h 1.28386 q 0.33064,0 0.4643,-0.02462 0.23567,-0.04221 0.39396,-0.140698 0.15828,-0.09849 0.26029,-0.284913 0.10201,-0.189941 0.10201,-0.436162 0,-0.28843 -0.14774,-0.499477 -0.14773,-0.214563 -0.41154,-0.298982 -0.26029,-0.08794 -0.75273,-0.08794 h -1.19241 z"
         id="path14787-0"
         style="font-style:normal;font-variant:normal;font-weight:normal;font-stretch:normal;font-size:33.71909714px;line-height:125%;font-family:Arial;-inkscape-font-specification:Arial;letter-spacing:0px;word-spacing:0px;fill:#ffffff;fill-opacity:1;stroke:none;stroke-width:0.21363913px;stroke-linecap:butt;stroke-linejoin:miter;stroke-opacity:1" />
      <path
         inkscape:connector-curvature="0"
         d="m 112.20995,-44.727017 v -5.156568 h 1.9346 q 0.59092,0 0.94619,0.158285 0.35878,0.154767 0.55927,0.481889 0.20401,0.323605 0.20401,0.678866 0,0.33064 -0.17939,0.622587 -0.17939,0.291948 -0.54168,0.471337 0.46782,0.137181 0.71755,0.46782 0.25326,0.33064 0.25326,0.780872 0,0.362296 -0.15477,0.675348 -0.15125,0.309535 -0.37636,0.478372 -0.22512,0.168838 -0.56631,0.256774 -0.33768,0.08442 -0.83012,0.08442 z m 0.68239,-2.989824 h 1.11502 q 0.45375,0 0.65073,-0.0598 0.26029,-0.07738 0.39044,-0.256773 0.13366,-0.17939 0.13366,-0.450232 0,-0.256774 -0.12311,-0.450233 -0.12311,-0.196977 -0.35174,-0.267325 -0.22864,-0.07387 -0.78439,-0.07387 h -1.03061 z m 0,2.381307 h 1.28386 q 0.33064,0 0.4643,-0.02462 0.23567,-0.04221 0.39396,-0.140698 0.15828,-0.09849 0.26029,-0.284913 0.102,-0.189941 0.102,-0.436162 0,-0.28843 -0.14773,-0.499477 -0.14773,-0.214563 -0.41154,-0.298982 -0.26029,-0.08794 -0.75273,-0.08794 h -1.19241 z"
         id="path14789-7"
         style="font-style:normal;font-variant:normal;font-weight:normal;font-stretch:normal;font-size:33.71909714px;line-height:125%;font-family:Arial;-inkscape-font-specification:Arial;letter-spacing:0px;word-spacing:0px;fill:#ffffff;fill-opacity:1;stroke:none;stroke-width:0.21363913px;stroke-linecap:butt;stroke-linejoin:miter;stroke-opacity:1" />
      <path
         inkscape:connector-curvature="0"
         d="m 133.20736,-3.4045075 1.98032,-5.1565669 h 0.73515 l 2.11046,5.1565669 h -0.77735 l -0.60149,-1.5617426 h -2.15618 l -0.56631,1.5617426 z m 1.48788,-2.1174991 h 1.74817 l -0.53817,-1.4280793 q -0.24622,-0.6507276 -0.36581,-1.0693022 -0.0985,0.4959589 -0.27788,0.9848827 z"
         id="path14782-1"
         style="font-style:normal;font-variant:normal;font-weight:normal;font-stretch:normal;font-size:33.71909714px;line-height:125%;font-family:Arial;-inkscape-font-specification:Arial;letter-spacing:0px;word-spacing:0px;fill:#000000;fill-opacity:1;stroke:none;stroke-width:0.21363913px;stroke-linecap:butt;stroke-linejoin:miter;stroke-opacity:1" />
      <path
         inkscape:connector-curvature="0"
         d="m 142.26477,-5.2124713 0.68239,0.1723555 q -0.21457,0.8406678 -0.77384,1.2838643 -0.55576,0.43968 -1.36125,0.43968 -0.83363,0 -1.35773,-0.3376738 -0.52058,-0.3411923 -0.79494,-0.9848827 -0.27085,-0.6436925 -0.27085,-1.3823541 0,-0.8054942 0.30602,-1.4034594 0.30954,-0.6014818 0.87584,-0.9110171 0.56983,-0.3130518 1.25221,-0.3130518 0.77384,0 1.30146,0.3939527 0.52761,0.3939548 0.73514,1.1079944 l -0.67183,0.1582852 q -0.17939,-0.5627916 -0.52058,-0.8195645 -0.34119,-0.2567728 -0.85826,-0.2567728 -0.59444,0 -0.99543,0.2849134 -0.39747,0.2849112 -0.55928,0.766802 -0.1618,0.4783722 -0.1618,0.9883993 0,0.6577628 0.18994,1.1502031 0.19346,0.4889259 0.59797,0.7316285 0.4045,0.2427026 0.87584,0.2427026 0.57334,0 0.97081,-0.3306386 0.39748,-0.3306386 0.53817,-0.9813662 z"
         id="path14784-6"
         style="font-style:normal;font-variant:normal;font-weight:normal;font-stretch:normal;font-size:33.71909714px;line-height:125%;font-family:Arial;-inkscape-font-specification:Arial;letter-spacing:0px;word-spacing:0px;fill:#000000;fill-opacity:1;stroke:none;stroke-width:0.21363913px;stroke-linecap:butt;stroke-linejoin:miter;stroke-opacity:1" />
      <path
         inkscape:connector-curvature="0"
         d="m 106.85993,-3.3165715 1.98031,-5.156569 h 0.73515 l 2.11046,5.156569 h -0.77735 l -0.60148,-1.5617447 h -2.15619 l -0.56631,1.5617447 z m 1.48787,-2.1174991 h 1.74817 L 109.5578,-6.862152 q -0.24622,-0.6507255 -0.36581,-1.0693023 -0.0985,0.495959 -0.27788,0.9848849 z"
         id="path14777-3"
         style="font-style:normal;font-variant:normal;font-weight:normal;font-stretch:normal;font-size:33.71909714px;line-height:125%;font-family:Arial;-inkscape-font-specification:Arial;letter-spacing:0px;word-spacing:0px;fill:#ffffff;fill-opacity:1;stroke:none;stroke-width:0.21363913px;stroke-linecap:butt;stroke-linejoin:miter;stroke-opacity:1" />
      <path
         inkscape:connector-curvature="0"
         d="m 112.20995,-3.3165715 v -5.156569 h 1.9346 q 0.59092,0 0.94619,0.1582852 0.35878,0.1547687 0.55927,0.4818908 0.20401,0.3236035 0.20401,0.6788661 0,0.3306386 -0.17939,0.6225871 -0.17939,0.2919464 -0.54168,0.471337 0.46782,0.1371799 0.71755,0.4678184 0.25326,0.3306386 0.25326,0.7808724 0,0.3622956 -0.15477,0.6753474 -0.15125,0.3095353 -0.37636,0.4783722 -0.22512,0.1688369 -0.56631,0.2567729 -0.33768,0.08442 -0.83012,0.08442 z m 0.68239,-2.989824 h 1.11502 q 0.45375,0 0.65073,-0.059798 0.26029,-0.077382 0.39044,-0.2567728 0.13366,-0.1793885 0.13366,-0.4502317 0,-0.2567728 -0.12311,-0.4502337 -0.12311,-0.1969753 -0.35174,-0.2673245 -0.22864,-0.073866 -0.78439,-0.073866 h -1.03061 z m 0,2.3813071 h 1.28386 q 0.33064,0 0.4643,-0.024622 0.23567,-0.042211 0.39396,-0.1406985 0.15828,-0.098488 0.26029,-0.2849134 0.102,-0.1899401 0.102,-0.4361613 0,-0.2884299 -0.14773,-0.4994776 -0.14773,-0.2145642 -0.41154,-0.2989815 -0.26029,-0.087936 -0.75273,-0.087936 h -1.19241 z"
         id="path14779-4"
         style="font-style:normal;font-variant:normal;font-weight:normal;font-stretch:normal;font-size:33.71909714px;line-height:125%;font-family:Arial;-inkscape-font-specification:Arial;letter-spacing:0px;word-spacing:0px;fill:#ffffff;fill-opacity:1;stroke:none;stroke-width:0.21363913px;stroke-linecap:butt;stroke-linejoin:miter;stroke-opacity:1" />
      <path
         sodipodi:nodetypes="cc"
         inkscape:connector-curvature="0"
         id="path4524-63-7-7-1"
         d="M 65.454629,28.044963 V 25.728874"
         style="fill:none;fill-rule:evenodd;stroke:#ffffff;stroke-width:0.81457013px;stroke-linecap:butt;stroke-linejoin:miter;stroke-opacity:1" />
      <path
         sodipodi:nodetypes="cc"
         inkscape:connector-curvature="0"
         id="path4524-5-5-3-5-5"
         d="M 75.799936,28.044963 V 25.728874"
         style="fill:none;fill-rule:evenodd;stroke:#ffffff;stroke-width:0.81457007px;stroke-linecap:butt;stroke-linejoin:miter;stroke-opacity:1" />
      <path
         sodipodi:nodetypes="cc"
         inkscape:connector-curvature="0"
         id="path4524-4-92-1-0-4"
         d="M 86.145272,28.044963 V 25.728874"
         style="fill:none;fill-rule:evenodd;stroke:#ffffff;stroke-width:0.81457007px;stroke-linecap:butt;stroke-linejoin:miter;stroke-opacity:1" />
      <path
         sodipodi:nodetypes="cc"
         inkscape:connector-curvature="0"
         id="path4524-1-5-2-2-8"
         d="M 106.83592,28.044963 V 25.728874"
         style="fill:none;fill-rule:evenodd;stroke:#ffffff;stroke-width:0.81457007px;stroke-linecap:butt;stroke-linejoin:miter;stroke-opacity:1" />
      <path
         sodipodi:nodetypes="cc"
         inkscape:connector-curvature="0"
         id="path4524-6-79-6-1-4"
         d="M 127.52653,28.044963 V 25.728874"
         style="fill:none;fill-rule:evenodd;stroke:#000000;stroke-width:0.81457007px;stroke-linecap:butt;stroke-linejoin:miter;stroke-opacity:1" />
      <path
         sodipodi:nodetypes="cc"
         inkscape:connector-curvature="0"
         id="path4524-14-8-4-2-3"
         d="M 96.490595,28.044963 V 25.728874"
         style="fill:none;fill-rule:evenodd;stroke:#000000;stroke-width:0.81457007px;stroke-linecap:butt;stroke-linejoin:miter;stroke-opacity:1" />
      <path
         sodipodi:nodetypes="cc"
         inkscape:connector-curvature="0"
         id="path4524-3-7-0-3-2"
         d="M 117.18124,28.044963 V 25.728874"
         style="fill:none;fill-rule:evenodd;stroke:#ffffff;stroke-width:0.81457007px;stroke-linecap:butt;stroke-linejoin:miter;stroke-opacity:1" />
      <path
         sodipodi:nodetypes="cc"
         inkscape:connector-curvature="0"
         id="path4524-2-1-9-7-4"
         d="M 137.87188,28.044963 V 25.728874"
         style="fill:none;fill-rule:evenodd;stroke:#ffffff;stroke-width:0.81457007px;stroke-linecap:butt;stroke-linejoin:miter;stroke-opacity:1" />
      <path
         sodipodi:nodetypes="cc"
         inkscape:connector-curvature="0"
         id="path4524-20-9-2-2-7"
         d="M 148.21717,28.044963 V 25.728874"
         style="fill:none;fill-rule:evenodd;stroke:#000000;stroke-width:0.81457007px;stroke-linecap:butt;stroke-linejoin:miter;stroke-opacity:1" />
      <path
         sodipodi:nodetypes="cc"
         inkscape:connector-curvature="0"
         id="path4524-21-0-2-2-6"
         d="M 44.763996,28.044963 V 25.728874"
         style="fill:none;fill-rule:evenodd;stroke:#000000;stroke-width:0.81457007px;stroke-linecap:butt;stroke-linejoin:miter;stroke-opacity:1" />
      <path
         sodipodi:nodetypes="cc"
         inkscape:connector-curvature="0"
         id="path4524-4-92-6-9-7-0"
         d="M 55.109308,28.044963 V 25.728874"
         style="fill:none;fill-rule:evenodd;stroke:#ffffff;stroke-width:0.81457001px;stroke-linecap:butt;stroke-linejoin:miter;stroke-opacity:1" />
      <path
         sodipodi:nodetypes="cc"
         inkscape:connector-curvature="0"
         id="path4735-3"
         d="M 44.352213,25.380185 H 148.62479"
         style="fill:none;fill-rule:evenodd;stroke:#000000;stroke-width:0.81457013px;stroke-linecap:butt;stroke-linejoin:miter;stroke-opacity:1" />
      <path
         style="fill:#2c89a0;fill-opacity:1;fill-rule:evenodd;stroke:#000000;stroke-width:0.63941425;stroke-linecap:butt;stroke-linejoin:miter;stroke-miterlimit:4;stroke-dasharray:none;stroke-opacity:1"
         d="m 74.87351,31.087859 a 4.4840572,3.5797886 0 0 1 -4.48406,3.57979 4.4840572,3.5797886 0 0 1 -4.48406,-3.57979 4.4840572,3.5797886 0 0 1 4.48406,-3.57979 4.4840572,3.5797886 0 0 1 4.48406,3.57979 z"
         id="path5278-1-64"
         inkscape:connector-curvature="0" />
      <path
         sodipodi:nodetypes="ccc"
         inkscape:connector-curvature="0"
         id="path5295-1"
         d="m 80.62538,31.189989 c 0,0 -1.33822,2.11846 -2.94884,0.1803 -1.0972,-0.82788 -1.29325,0.0925 -2.68464,-0.11414"
         style="fill:none;fill-rule:evenodd;stroke:#000000;stroke-width:0.63944238;stroke-linecap:butt;stroke-linejoin:miter;stroke-miterlimit:4;stroke-dasharray:none;stroke-opacity:1" />
      <path
         d="m 72.420238,32.872169 h -0.88907 l -0.353419,-0.919443 h -1.618 l -0.334091,0.919443 h -0.866984 l 1.576585,-4.047758 h 0.864221 z m -1.504793,-1.601432 -0.557741,-1.502033 -0.546696,1.502033 z"
         id="path14727-1"
         inkscape:connector-curvature="0"
         style="font-style:normal;font-variant:normal;font-weight:bold;font-stretch:normal;font-size:26.46852875px;line-height:125%;font-family:Arial;-inkscape-font-specification:'Arial Bold';letter-spacing:0px;word-spacing:0px;fill:#ffffff;fill-opacity:1;stroke:none;stroke-width:0.21363913px;stroke-linecap:butt;stroke-linejoin:miter;stroke-opacity:1" />
      <path
         inkscape:connector-curvature="0"
         id="path5278-1-6-3"
         d="m 114.13103,31.087859 a 4.4840572,3.5797886 0 0 1 -4.48406,3.57979 4.4840572,3.5797886 0 0 1 -4.48406,-3.57979 4.4840572,3.5797886 0 0 1 4.48406,-3.57979 4.4840572,3.5797886 0 0 1 4.48406,3.57979 z"
         style="fill:#d3bc5f;fill-opacity:1;fill-rule:evenodd;stroke:#000000;stroke-width:0.63941425;stroke-linecap:butt;stroke-linejoin:miter;stroke-miterlimit:4;stroke-dasharray:none;stroke-opacity:1" />
      <path
         sodipodi:nodetypes="ccc"
         inkscape:connector-curvature="0"
         id="path5295-7-89"
         d="m 119.8829,31.189989 c 0,0 -1.33822,2.11846 -2.94884,0.1803 -1.0972,-0.82788 -1.29325,0.0925 -2.68464,-0.11414"
         style="fill:none;fill-rule:evenodd;stroke:#000000;stroke-width:0.63944238;stroke-linecap:butt;stroke-linejoin:miter;stroke-miterlimit:4;stroke-dasharray:none;stroke-opacity:1" />
      <path
         inkscape:connector-curvature="0"
         id="path14724-5"
         d="m 108.15741,28.993805 h 1.618 q 0.48043,0 0.71513,0.04142 0.23745,0.03865 0.42244,0.165665 0.18776,0.12701 0.312,0.339614 0.12425,0.209844 0.12425,0.472148 0,0.284391 -0.15462,0.521845 -0.15186,0.237454 -0.41416,0.356181 0.36999,0.107682 0.56878,0.367224 0.1988,0.259544 0.1988,0.610201 0,0.276109 -0.12977,0.538413 -0.12701,0.259543 -0.35066,0.416925 -0.22089,0.15462 -0.54669,0.190515 -0.20432,0.02209 -0.98571,0.02761 h -1.37779 z m 0.81729,0.673707 v 0.93601 h 0.53565 q 0.47767,0 0.59363,-0.0138 0.20984,-0.02485 0.32857,-0.143577 0.12149,-0.121489 0.12149,-0.317526 0,-0.187754 -0.10492,-0.303719 -0.10216,-0.118727 -0.30648,-0.143577 -0.12149,-0.0138 -0.69856,-0.0138 h -0.46938 z m 0,1.609715 v 1.082348 h 0.75654 q 0.44177,0 0.5605,-0.02485 0.18223,-0.03313 0.29543,-0.160144 0.11597,-0.12977 0.11597,-0.345136 0,-0.182232 -0.0884,-0.309242 -0.0883,-0.12701 -0.25678,-0.184994 -0.16566,-0.05798 -0.7234,-0.05798 z"
         style="font-style:normal;font-variant:normal;font-weight:bold;font-stretch:normal;font-size:33.71909714px;line-height:125%;font-family:Arial;-inkscape-font-specification:'Arial Bold';letter-spacing:0px;word-spacing:0px;fill:#ffffff;fill-opacity:1;stroke:none;stroke-width:0.1677006px;stroke-linecap:butt;stroke-linejoin:miter;stroke-opacity:1" />
      <path
         inkscape:connector-curvature="0"
         id="path5278-1-7-8"
         d="m 140.87503,31.087859 a 4.4840572,3.5797886 0 0 1 -4.48406,3.57979 4.4840572,3.5797886 0 0 1 -4.48405,-3.57979 4.4840572,3.5797886 0 0 1 4.48405,-3.57979 4.4840572,3.5797886 0 0 1 4.48406,3.57979 z"
         style="fill:#d7eef4;fill-opacity:1;fill-rule:evenodd;stroke:#000000;stroke-width:0.63941425;stroke-linecap:butt;stroke-linejoin:miter;stroke-miterlimit:4;stroke-dasharray:none;stroke-opacity:1" />
      <path
         sodipodi:nodetypes="ccc"
         inkscape:connector-curvature="0"
         id="path5295-2-8"
         d="m 146.6269,31.189989 c 0,0 -1.33822,2.11846 -2.94884,0.1803 -1.0972,-0.82788 -1.29325,0.0925 -2.68464,-0.11414"
         style="fill:none;fill-rule:evenodd;stroke:#000000;stroke-width:0.63944238;stroke-linecap:butt;stroke-linejoin:miter;stroke-miterlimit:4;stroke-dasharray:none;stroke-opacity:1" />
      <path
         inkscape:connector-curvature="0"
         id="path14720-9"
         d="m 137.27164,31.563602 0.79243,0.25126 q -0.18223,0.662662 -0.60744,0.985708 -0.42244,0.320287 -1.07406,0.320287 -0.80624,0 -1.32532,-0.549456 -0.51909,-0.552218 -0.51909,-1.507556 0,-1.010559 0.52185,-1.5683 0.52184,-0.5605 1.37226,-0.5605 0.74273,0 1.2066,0.439013 0.27611,0.259542 0.41416,0.745495 l -0.809,0.193276 q -0.0718,-0.314765 -0.30096,-0.496997 -0.22641,-0.182232 -0.55222,-0.182232 -0.45005,0 -0.73169,0.323048 -0.27887,0.323047 -0.27887,1.046454 0,0.767582 0.27611,1.093391 0.27611,0.325809 0.71789,0.325809 0.32581,0 0.5605,-0.207082 0.23469,-0.207082 0.33685,-0.651618 z"
         style="font-style:normal;font-variant:normal;font-weight:bold;font-stretch:normal;font-size:33.71909714px;line-height:125%;font-family:Arial;-inkscape-font-specification:'Arial Bold';letter-spacing:0px;word-spacing:0px;fill:#000000;fill-opacity:1;stroke:none;stroke-width:0.1677006px;stroke-linecap:butt;stroke-linejoin:miter;stroke-opacity:1" />
      <path
         sodipodi:nodetypes="cc"
         inkscape:connector-curvature="0"
         id="path4735-2-5-76"
         d="M 45.12839,37.311253 H 95.809738"
         style="fill:none;fill-rule:evenodd;stroke:#000000;stroke-width:0.40719616;stroke-linecap:butt;stroke-linejoin:miter;stroke-miterlimit:4;stroke-dasharray:none;stroke-opacity:1;marker-start:url(#marker15092-7);marker-end:url(#marker16136-6)" />
      <path
         sodipodi:nodetypes="cc"
         inkscape:connector-curvature="0"
         id="path4735-2-5-2-4"
         d="m 128.26103,37.311253 h 19.03552"
         style="fill:none;fill-rule:evenodd;stroke:#000000;stroke-width:0.40728506;stroke-linecap:butt;stroke-linejoin:miter;stroke-miterlimit:4;stroke-dasharray:none;stroke-opacity:1;marker-start:url(#marker14596-7);marker-end:url(#marker15628-5)" />
      <path
         sodipodi:nodetypes="cc"
         inkscape:connector-curvature="0"
         id="path4735-2-5-7-7"
         d="M 97.363454,37.311253 H 126.82934"
         style="fill:none;fill-rule:evenodd;stroke:#000000;stroke-width:0.40719616;stroke-linecap:butt;stroke-linejoin:miter;stroke-miterlimit:4;stroke-dasharray:none;stroke-opacity:1;marker-start:url(#marker15102-60);marker-end:url(#marker16656-4)" />
      <path
         d="m 68.504577,45.433077 1.079854,-5.167121 h 0.587411 l -0.109039,0.520581 q 0.327122,-0.341192 0.583895,-0.471337 0.260289,-0.133663 0.548722,-0.133663 0.534649,0 0.886393,0.390436 0.351746,0.38692 0.351746,1.111511 0,0.583895 -0.193461,1.065786 -0.193459,0.478372 -0.474854,0.770318 -0.281395,0.291949 -0.569824,0.429129 -0.288433,0.137179 -0.590931,0.137179 -0.671833,0 -1.041163,-0.682382 l -0.422094,2.029563 z m 1.259243,-2.958169 q 0,0.418577 0.0598,0.580378 0.08794,0.228635 0.28843,0.369331 0.200494,0.140699 0.464302,0.140699 0.548721,0 0.886395,-0.615552 0.337674,-0.619071 0.337674,-1.262761 0,-0.474856 -0.228633,-0.731629 -0.225118,-0.260289 -0.562791,-0.260289 -0.242703,0 -0.450232,0.130144 -0.207529,0.126629 -0.38692,0.383401 -0.175872,0.253257 -0.291946,0.622588 -0.116076,0.36933 -0.116076,0.64369 z"
         style="font-style:italic;font-variant:normal;font-weight:normal;font-stretch:normal;font-size:33.71909714px;line-height:125%;font-family:Arial;-inkscape-font-specification:'Arial Italic';letter-spacing:0px;word-spacing:0px;fill:#000000;fill-opacity:1;stroke:none;stroke-width:0.21363913px;stroke-linecap:butt;stroke-linejoin:miter;stroke-opacity:1"
         id="path14716-6"
         inkscape:connector-curvature="0" />
      <path
         d="m 112.57477,43.579386 q -0.5452,0.50651 -1.04468,0.50651 -0.52058,0 -0.87936,-0.393952 -0.35878,-0.397472 -0.35878,-1.125581 0,-0.696453 0.27084,-1.259245 0.27436,-0.562789 0.69646,-0.844184 0.42561,-0.281397 0.87584,-0.281397 0.34119,0 0.61907,0.193461 0.28139,0.18994 0.45375,0.57686 l 0.14421,-0.685902 h 0.54873 l -1.07634,5.167121 h -0.63666 z m -1.6532,-1.097443 q 0,0.552238 0.22864,0.819565 0.22863,0.263808 0.56982,0.263808 0.28843,0 0.58038,-0.239186 0.29546,-0.239187 0.48189,-0.717559 0.18994,-0.478372 0.18994,-0.925087 0,-0.457267 -0.23567,-0.717556 -0.23567,-0.260292 -0.57686,-0.260292 -0.33415,0 -0.58389,0.218081 -0.32712,0.281395 -0.51355,0.812529 -0.1407,0.408023 -0.1407,0.745697 z"
         style="font-style:italic;font-variant:normal;font-weight:normal;font-stretch:normal;font-size:33.71909714px;line-height:125%;font-family:Arial;-inkscape-font-specification:'Arial Italic';letter-spacing:0px;word-spacing:0px;fill:#000000;fill-opacity:1;stroke:none;stroke-width:0.21363913px;stroke-linecap:butt;stroke-linejoin:miter;stroke-opacity:1"
         id="path14713-9"
         inkscape:connector-curvature="0" />
      <path
         d="m 136.27448,44.717275 0.78087,-3.735523 h 0.56279 l -0.15828,0.763286 q 0.28843,-0.432645 0.56279,-0.640174 0.27788,-0.207529 0.56631,-0.207529 0.18994,0 0.46782,0.13718 l -0.26029,0.59093 q -0.16532,-0.119593 -0.3623,-0.119593 -0.33416,0 -0.6859,0.372849 -0.35175,0.372847 -0.55224,1.340143 l -0.31657,1.498431 z"
         style="font-style:italic;font-variant:normal;font-weight:normal;font-stretch:normal;font-size:33.71909714px;line-height:125%;font-family:Arial;-inkscape-font-specification:'Arial Italic';letter-spacing:0px;word-spacing:0px;fill:#000000;fill-opacity:1;stroke:none;stroke-width:0.21363913px;stroke-linecap:butt;stroke-linejoin:miter;stroke-opacity:1"
         id="path14710-8"
         inkscape:connector-curvature="0" />
      <path
         sodipodi:nodetypes="cc"
         inkscape:connector-curvature="0"
         id="path4735-2-5-4-4"
         d="m 27.64954,20.488419 v -50.68135"
         style="fill:none;fill-rule:evenodd;stroke:#000000;stroke-width:0.40719616;stroke-linecap:butt;stroke-linejoin:miter;stroke-miterlimit:4;stroke-dasharray:none;stroke-opacity:1;marker-start:url(#marker17783-2);marker-end:url(#marker18887-5)" />
      <path
         sodipodi:nodetypes="cc"
         inkscape:connector-curvature="0"
         id="path4735-9-5"
         d="M 39.591297,21.079119 V -83.193457"
         style="fill:none;fill-rule:evenodd;stroke:#000000;stroke-width:0.81457013px;stroke-linecap:butt;stroke-linejoin:miter;stroke-opacity:1" />
      <path
         sodipodi:nodetypes="cc"
         inkscape:connector-curvature="0"
         id="path4735-2-5-2-5-5"
         d="M 27.64931,-62.644219 V -81.679747"
         style="fill:none;fill-rule:evenodd;stroke:#000000;stroke-width:0.40728506;stroke-linecap:butt;stroke-linejoin:miter;stroke-miterlimit:4;stroke-dasharray:none;stroke-opacity:1;marker-start:url(#marker17257-7);marker-end:url(#marker18349-5)" />
      <path
         sodipodi:nodetypes="cc"
         inkscape:connector-curvature="0"
         id="path4735-2-5-7-6-9"
         d="M 27.64954,-31.746641 V -61.212527"
         style="fill:none;fill-rule:evenodd;stroke:#000000;stroke-width:0.40719616;stroke-linecap:butt;stroke-linejoin:miter;stroke-miterlimit:4;stroke-dasharray:none;stroke-opacity:1;marker-start:url(#marker17793-8);marker-end:url(#marker19437-8)" />
      <path
         d="m 20.199699,-2.0186413 1.079854,-5.1671206 h 0.587414 l -0.109041,0.5205809 q 0.327122,-0.3411902 0.583894,-0.4713371 0.260292,-0.1336611 0.548722,-0.1336611 0.534651,0 0.886395,0.3904361 0.351744,0.3869176 0.351744,1.111511 0,0.5838949 -0.193459,1.0657836 -0.193459,0.4783722 -0.474855,0.7703186 -0.281395,0.2919485 -0.569825,0.4291283 -0.28843,0.1371798 -0.59093,0.1371798 -0.671831,0 -1.041162,-0.6823825 l -0.422093,2.029563 z m 1.259245,-2.9581668 q 0,0.4185745 0.0598,0.5803763 0.08794,0.2286344 0.28843,0.3693329 0.200496,0.1406963 0.464304,0.1406963 0.54872,0 0.886393,-0.615552 0.337676,-0.6190685 0.337676,-1.262761 0,-0.4748536 -0.228634,-0.7316264 -0.225116,-0.2602915 -0.56279,-0.2602915 -0.242704,0 -0.450234,0.1301447 -0.207529,0.1266281 -0.386917,0.383401 -0.175872,0.2532564 -0.291949,0.6225871 -0.116074,0.3693308 -0.116074,0.6436926 z"
         style="font-style:italic;font-variant:normal;font-weight:normal;font-stretch:normal;font-size:33.71909714px;line-height:125%;font-family:Arial;-inkscape-font-specification:'Arial Italic';letter-spacing:0px;word-spacing:0px;fill:#000000;fill-opacity:1;stroke:none;stroke-width:0.21363913px;stroke-linecap:butt;stroke-linejoin:miter;stroke-opacity:1"
         id="path14707-9"
         inkscape:connector-curvature="0" />
      <path
         d="m 22.642554,-45.730429 q -0.545203,0.506511 -1.044681,0.506511 -0.52058,0 -0.87936,-0.393953 -0.358779,-0.397471 -0.358779,-1.125581 0,-0.696454 0.270843,-1.259244 0.274362,-0.56279 0.696453,-0.844186 0.425612,-0.281395 0.875844,-0.281395 0.341192,0 0.61907,0.193459 0.281395,0.189942 0.453748,0.576861 l 0.144215,-0.685901 h 0.548722 l -1.076338,5.16712 h -0.636655 z m -1.653197,-1.097442 q 0,0.552238 0.228634,0.819564 0.228632,0.263808 0.569825,0.263808 0.28843,0 0.580378,-0.239186 0.295465,-0.239186 0.481889,-0.717558 0.189942,-0.478372 0.189942,-0.925087 0,-0.457267 -0.23567,-0.717558 -0.235667,-0.26029 -0.576859,-0.26029 -0.334158,0 -0.583895,0.218081 -0.327122,0.281395 -0.513546,0.812529 -0.140698,0.408023 -0.140698,0.745697 z"
         style="font-style:italic;font-variant:normal;font-weight:normal;font-stretch:normal;font-size:33.71909714px;line-height:125%;font-family:Arial;-inkscape-font-specification:'Arial Italic';letter-spacing:0px;word-spacing:0px;fill:#000000;fill-opacity:1;stroke:none;stroke-width:0.21363913px;stroke-linecap:butt;stroke-linejoin:miter;stroke-opacity:1"
         id="path14704-1"
         inkscape:connector-curvature="0" />
      <path
         d="m 20.773036,-70.066572 0.780872,-3.735522 h 0.56279 l -0.158283,0.763285 q 0.28843,-0.432646 0.562789,-0.640175 0.277879,-0.207529 0.566309,-0.207529 0.189942,0 0.46782,0.137181 l -0.260291,0.59093 q -0.165321,-0.119593 -0.362296,-0.119593 -0.334157,0 -0.685901,0.372848 -0.351744,0.372849 -0.552238,1.340145 l -0.316571,1.49843 z"
         style="font-style:italic;font-variant:normal;font-weight:normal;font-stretch:normal;font-size:33.71909714px;line-height:125%;font-family:Arial;-inkscape-font-specification:'Arial Italic';letter-spacing:0px;word-spacing:0px;fill:#000000;fill-opacity:1;stroke:none;stroke-width:0.21363913px;stroke-linecap:butt;stroke-linejoin:miter;stroke-opacity:1"
         id="path14701-1"
         inkscape:connector-curvature="0" />
      <path
         inkscape:connector-curvature="0"
         id="path5278-7-4-1"
         d="m 37.810829,-4.728577 a 4.5179263,4.5179263 0 0 1 -4.517927,4.51793 4.5179263,4.5179263 0 0 1 -4.517925,-4.51793 4.5179263,4.5179263 0 0 1 4.517925,-4.51793 4.5179263,4.5179263 0 0 1 4.517927,4.51793 z"
         style="fill:#2c89a0;fill-opacity:1;fill-rule:evenodd;stroke:#000000;stroke-width:0.65026528;stroke-linecap:butt;stroke-linejoin:miter;stroke-miterlimit:4;stroke-dasharray:none;stroke-opacity:1" />
      <path
         d="m 35.323689,-2.8573011 h -0.88907 l -0.353421,-0.919443 H 32.4632 l -0.334093,0.919443 h -0.866982 l 1.576582,-4.0477585 h 0.864222 z m -1.504793,-1.6014325 -0.557741,-1.5020325 -0.546696,1.5020325 z"
         id="path14697-7"
         inkscape:connector-curvature="0"
         style="font-style:normal;font-variant:normal;font-weight:bold;font-stretch:normal;font-size:26.46852875px;line-height:125%;font-family:Arial;-inkscape-font-specification:'Arial Bold';letter-spacing:0px;word-spacing:0px;fill:#ffffff;fill-opacity:1;stroke:none;stroke-width:0.21363913px;stroke-linecap:butt;stroke-linejoin:miter;stroke-opacity:1" />
      <path
         inkscape:connector-curvature="0"
         id="path5278-7-4-3-60"
         d="m 37.810829,-72.514706 a 4.5179263,4.5179263 0 0 1 -4.517925,4.517927 4.5179263,4.5179263 0 0 1 -4.517927,-4.517927 4.5179263,4.5179263 0 0 1 4.517927,-4.517926 4.5179263,4.5179263 0 0 1 4.517925,4.517926 z"
         style="fill:#d7eef4;fill-opacity:1;fill-rule:evenodd;stroke:#000000;stroke-width:0.65026528;stroke-linecap:butt;stroke-linejoin:miter;stroke-miterlimit:4;stroke-dasharray:none;stroke-opacity:1" />
      <path
         d="m 34.263425,-71.979057 0.792435,0.251259 q -0.182232,0.662662 -0.60744,0.985709 -0.422448,0.320287 -1.074065,0.320287 -0.806239,0 -1.325323,-0.549457 -0.519085,-0.552218 -0.519085,-1.507555 0,-1.01056 0.521846,-1.5683 0.521845,-0.560501 1.372261,-0.560501 0.742734,0 1.206598,0.439013 0.276109,0.259543 0.414163,0.745495 l -0.809,0.193276 q -0.07179,-0.314764 -0.300958,-0.496996 -0.226411,-0.182232 -0.552219,-0.182232 -0.450058,0 -0.731688,0.323047 -0.278872,0.323048 -0.278872,1.046454 0,0.767583 0.27611,1.093391 0.276109,0.325809 0.717885,0.325809 0.325808,0 0.560499,-0.207082 0.234693,-0.207082 0.336853,-0.651617 z"
         id="path14693-1"
         inkscape:connector-curvature="0"
         style="font-style:normal;font-variant:normal;font-weight:bold;font-stretch:normal;font-size:26.46852875px;line-height:125%;font-family:Arial;-inkscape-font-specification:'Arial Bold';letter-spacing:0px;word-spacing:0px;fill:#000000;fill-opacity:1;stroke:none;stroke-width:0.21363913px;stroke-linecap:butt;stroke-linejoin:miter;stroke-opacity:1" />
      <path
         inkscape:connector-curvature="0"
         id="path5278-7-4-7-9"
         d="m 37.810829,-46.694892 a 4.5179263,4.5179263 0 0 1 -4.517927,4.517924 4.5179263,4.5179263 0 0 1 -4.517925,-4.517924 4.5179263,4.5179263 0 0 1 4.517925,-4.517927 4.5179263,4.5179263 0 0 1 4.517927,4.517927 z"
         style="fill:#d3bc5f;fill-opacity:1;fill-rule:evenodd;stroke:#000000;stroke-width:0.65026528;stroke-linecap:butt;stroke-linejoin:miter;stroke-miterlimit:4;stroke-dasharray:none;stroke-opacity:1" />
      <path
         d="m 31.828884,-48.718773 h 1.617998 q 0.48043,0 0.715123,0.04142 0.237454,0.03865 0.422448,0.165665 0.187753,0.127011 0.312003,0.339615 0.124248,0.209842 0.124248,0.472146 0,0.284392 -0.154621,0.521846 -0.151859,0.237454 -0.414163,0.356181 0.369987,0.107682 0.568784,0.367225 0.1988,0.259542 0.1988,0.610201 0,0.276109 -0.129773,0.538412 -0.127009,0.259543 -0.350657,0.416925 -0.220888,0.154621 -0.546696,0.190515 -0.204322,0.02209 -0.985709,0.02761 h -1.377785 z m 0.817283,0.673706 v 0.936009 h 0.535651 q 0.47767,0 0.593635,-0.01381 0.209843,-0.02485 0.328571,-0.143577 0.121488,-0.121488 0.121488,-0.317525 0,-0.187754 -0.104923,-0.30372 -0.10216,-0.118727 -0.30648,-0.143577 -0.121488,-0.01381 -0.698557,-0.01381 h -0.469385 z m 0,1.609715 v 1.082348 h 0.756539 q 0.441774,0 0.560502,-0.02485 0.182232,-0.03313 0.295435,-0.160143 0.115967,-0.129771 0.115967,-0.345137 0,-0.182231 -0.08835,-0.309242 -0.08836,-0.12701 -0.256782,-0.184993 -0.165666,-0.05798 -0.723408,-0.05798 z"
         id="path14689-2"
         inkscape:connector-curvature="0"
         style="font-style:normal;font-variant:normal;font-weight:bold;font-stretch:normal;font-size:26.46852875px;line-height:125%;font-family:Arial;-inkscape-font-specification:'Arial Bold';letter-spacing:0px;word-spacing:0px;fill:#ffffff;fill-opacity:1;stroke:none;stroke-width:0.21363913px;stroke-linecap:butt;stroke-linejoin:miter;stroke-opacity:1" />
      <path
         id="rect4482-5-6-7"
         d="m 44.70087,-82.879797 h 103.4562 V 20.576399 H 44.70087 Z"
         style="opacity:1;fill:none;fill-opacity:1;fill-rule:evenodd;stroke:#000000;stroke-width:1.05894101;stroke-linecap:round;stroke-linejoin:round;stroke-miterlimit:4;stroke-dasharray:none;stroke-dashoffset:0;stroke-opacity:1"
         inkscape:connector-curvature="0" />
      <path
         inkscape:export-ydpi="300"
         inkscape:export-xdpi="300"
         d="m 30.497632,23.457583 q -0.780062,0 -1.331812,0.54223 -0.546988,0.542238 -0.546988,1.322303 0,0.7753 0.546988,1.288997 0.55175,0.513704 1.331812,0.513704 0.765788,0 1.322287,-0.513704 0.556513,-0.513697 0.556513,-1.288997 0,-0.780065 -0.556513,-1.322303 -0.556499,-0.54223 -1.322287,-0.54223 z m -1.931125,3.743337 q -0.803849,-0.746768 -0.803849,-1.878804 0,-1.136801 0.799099,-1.926369 0.799075,-0.789575 1.935875,-0.789575 1.122525,0 1.926362,0.789575 0.808613,0.789568 0.808613,1.926369 0,1.136791 -0.80385,1.878804 -0.646888,0.59931 -1.50305,0.684924 v 1.255709 h 1.293762 v 0.589801 h -1.293762 v 1.222412 h -0.856162 v -1.222412 h -1.29375 v -0.589801 h 1.29375 v -1.260465 q -0.860913,-0.08086 -1.503038,-0.680168 z"
         style="font-style:normal;font-variant:normal;font-weight:normal;font-stretch:normal;font-size:medium;line-height:125%;font-family:Symbol;-inkscape-font-specification:Symbol;letter-spacing:0px;word-spacing:0px;fill:#000000;fill-opacity:1;stroke:none;stroke-width:0.1524173px;stroke-linecap:butt;stroke-linejoin:miter;stroke-opacity:1"
         id="path11747-0-4-2"
         inkscape:connector-curvature="0" />
      <path
         inkscape:export-ydpi="300"
         inkscape:export-xdpi="300"
         inkscape:connector-curvature="0"
         id="path5198-6-2-9"
         d="M 41.197068,23.790756 C 26.814545,38.173272 26.814545,38.173272 26.814545,38.173272"
         style="fill:none;fill-rule:evenodd;stroke:#000000;stroke-width:0.58114171px;stroke-linecap:butt;stroke-linejoin:miter;stroke-opacity:1" />
      <path
         inkscape:export-ydpi="300"
         inkscape:export-xdpi="300"
         d="m 37.023856,33.158426 q -0.780062,0 -1.331812,0.542237 -0.547,0.542235 -0.547,1.322297 0,0.780063 0.547,1.293763 0.55175,0.513687 1.331812,0.513687 0.765775,0 1.322287,-0.513687 0.556513,-0.5137 0.556513,-1.293763 0,-0.780062 -0.556513,-1.322297 -0.556512,-0.542237 -1.322287,-0.542237 z m 1.95965,3.724309 q -0.799075,0.780062 -1.95965,0.780062 -1.117775,0 -1.926375,-0.751524 -0.808599,-0.756275 -0.808599,-1.888313 0,-1.132041 0.818112,-1.940637 0.822862,-0.813352 1.916862,-0.770546 1.084462,0.03806 1.617187,0.527964 l 1.717088,-1.655253 h -1.76465 l 0.665912,-0.675421 h 2.349687 v 2.340192 l -0.680174,0.680169 v -1.774162 l -1.702813,1.655252 q 0.532725,0.694443 0.532725,1.612442 0,1.1035 -0.775312,1.859775 z"
         style="font-style:normal;font-variant:normal;font-weight:normal;font-stretch:normal;font-size:medium;line-height:125%;font-family:Symbol;-inkscape-font-specification:Symbol;letter-spacing:0px;word-spacing:0px;fill:#000000;fill-opacity:1;stroke:none;stroke-width:0.1524173px;stroke-linecap:butt;stroke-linejoin:miter;stroke-opacity:1"
         id="path11744-4-0-4"
         inkscape:connector-curvature="0" />
    </g>
  </g>
</svg>
